<?xml version="1.0" encoding="UTF-8" standalone="no"?><!DOCTYPE svg PUBLIC "-//W3C//DTD SVG 1.1//EN" "http://www.w3.org/Graphics/SVG/1.1/DTD/svg11.dtd"><svg width="100%" height="100%" viewBox="0 0 123 62" version="1.1" xmlns="http://www.w3.org/2000/svg" xmlns:xlink="http://www.w3.org/1999/xlink" xml:space="preserve" xmlns:serif="http://www.serif.com/" style="fill-rule:evenodd;clip-rule:evenodd;stroke-linecap:round;stroke-linejoin:round;stroke-miterlimit:1.5;"><g id="Curve-Apperance-Changes" serif:id="Curve Apperance Changes"><clipPath id="_clip1"><path d="M122.322,4.992l-0,51.393c-0,2.65 -2.151,4.8 -4.8,4.8l-112.484,0c-2.65,0 -4.8,-2.15 -4.8,-4.8l-0,-51.393c-0,-2.65 2.15,-4.8 4.8,-4.8l112.484,-0c2.649,-0 4.8,2.15 4.8,4.8Z"/></clipPath><g clip-path="url(#_clip1)"><rect x="0.238" y="0.192" width="122.084" height="60.994" style="fill:#232325;"/></g><g id="Bigger"><path d="M8.36,8.374l45.6,-0" style="fill:none;stroke:#2e62be;stroke-width:0.45px;"/><circle cx="8.36" cy="8.374" r="0.72" style="fill:#34976c;"/><circle cx="53.96" cy="8.374" r="0.72" style="fill:#34976c;"/><circle cx="31.16" cy="31.546" r="18.817" style="fill:#33445b;stroke:#2e62be;stroke-width:0.45px;"/><circle cx="31.16" cy="12.728" r="0.72" style="fill:#34976c;"/></g><g id="Thiiner"><path d="M68.6,8.374l45.6,-0" style="fill:none;stroke:#2e62be;stroke-width:0.18px;"/><circle cx="68.6" cy="8.374" r="0.72" style="fill:#34976c;"/><circle cx="114.2" cy="8.374" r="0.72" style="fill:#34976c;"/><circle cx="91.4" cy="31.546" r="18.817" style="fill:#33445b;stroke:#2e62be;stroke-width:0.18px;"/><circle cx="91.4" cy="12.728" r="0.72" style="fill:#34976c;"/></g><g transform="matrix(3.8,0,0,3.8,36.6416,56.8931)"></g><text x="25.503px" y="56.893px" style="font-family:'Roboto-Regular', 'Roboto';font-size:3.8px;fill:#fff;">Before</text><g transform="matrix(3.8,0,0,3.8,95.5735,56.8931)"></g><text x="87.228px" y="56.893px" style="font-family:'Roboto-Regular', 'Roboto';font-size:3.8px;fill:#fff;">After</text></g></svg>