<?xml version="1.0" encoding="UTF-8" standalone="no"?><!DOCTYPE svg PUBLIC "-//W3C//DTD SVG 1.1//EN" "http://www.w3.org/Graphics/SVG/1.1/DTD/svg11.dtd"><svg width="100%" height="100%" viewBox="0 0 510 255" version="1.1" xmlns="http://www.w3.org/2000/svg" xmlns:xlink="http://www.w3.org/1999/xlink" xml:space="preserve" xmlns:serif="http://www.serif.com/" style="fill-rule:evenodd;clip-rule:evenodd;stroke-linecap:round;stroke-linejoin:round;stroke-miterlimit:1.5;"><g id="Measurement-Apperance-Changes" serif:id="Measurement Apperance Changes"><clipPath id="_clip1"><path d="M509.674,20.798l-0,214.141c-0,11.038 -8.962,20 -20,20l-468.684,-0c-11.039,-0 -20,-8.962 -20,-20l-0,-214.141c-0,-11.038 8.961,-20 20,-20l468.684,0c11.038,0 20,8.962 20,20Z"/></clipPath><g clip-path="url(#_clip1)"><rect x="0.99" y="0.798" width="508.684" height="254.14" style="fill:#232325;"/></g><g id="Thiiner"><path d="M34.332,34.892l190,-0" style="fill:none;stroke:#2e62be;stroke-width:0.83px;"/><g transform="matrix(10.7929,0,0,10.7929,147.157,184.813)"></g><text x="111.764px" y="184.813px" style="font-family:'ArialMT', 'Arial', sans-serif;font-size:10.793px;fill:#bfbfbf;">8.00cm</text><path d="M34.332,34.892l-0,146.108l190,0l-0,-146.108" style="fill:none;stroke:#4e4e4e;stroke-width:0.83px;"/><circle cx="34.332" cy="34.892" r="3" style="fill:#34976c;"/><circle cx="224.332" cy="34.892" r="3" style="fill:#34976c;"/></g><g id="Thiiner1" serif:id="Thiiner"><path d="M286.332,34.892l190,-0" style="fill:none;stroke:#2e62be;stroke-width:0.83px;"/><g transform="matrix(10.7929,0,0,10.7929,399.157,184.813)"></g><text x="363.764px" y="184.813px" style="font-family:'ArialMT', 'Arial', sans-serif;font-size:10.793px;fill:#bfbfbf;">8.00cm</text><path d="M286.332,34.892l-0,146.108l190,0l-0,-146.108" style="fill:none;stroke:#868686;stroke-width:0.83px;"/><circle cx="286.332" cy="34.892" r="3" style="fill:#34976c;"/><circle cx="476.332" cy="34.892" r="3" style="fill:#34976c;"/><path d="M285.332,181l11,-3.5l-0,7l-11,-3.5Z" style="fill:#a7a7a8;"/><path d="M476.332,181l-11,-3.5l-0,7l11,-3.5Z" style="fill:#a7a7a8;"/></g><g transform="matrix(15.8333,0,0,15.8333,152.673,237.055)"></g><text x="106.263px" y="237.055px" style="font-family:'Roboto-Regular', 'Roboto';font-size:15.833px;fill:#fff;">Befor<tspan x="144.277px " y="237.055px ">e</tspan></text><g transform="matrix(15.8333,0,0,15.8333,398.223,237.055)"></g><text x="363.448px" y="237.055px" style="font-family:'Roboto-Regular', 'Roboto';font-size:15.833px;fill:#fff;">After</text></g></svg>