<?xml version="1.0" encoding="UTF-8" standalone="no"?><!DOCTYPE svg PUBLIC "-//W3C//DTD SVG 1.1//EN" "http://www.w3.org/Graphics/SVG/1.1/DTD/svg11.dtd"><svg width="100%" height="100%" viewBox="0 0 123 62" version="1.1" xmlns="http://www.w3.org/2000/svg" xmlns:xlink="http://www.w3.org/1999/xlink" xml:space="preserve" xmlns:serif="http://www.serif.com/" style="fill-rule:evenodd;clip-rule:evenodd;stroke-linecap:round;stroke-linejoin:round;stroke-miterlimit:1.5;"><g id="Measurement-Apperance-Changes" serif:id="Measurement Apperance Changes"><clipPath id="_clip1"><path d="M122.322,4.992l-0,51.393c-0,2.65 -2.151,4.8 -4.8,4.8l-112.484,0c-2.65,0 -4.8,-2.15 -4.8,-4.8l-0,-51.393c-0,-2.65 2.15,-4.8 4.8,-4.8l112.484,-0c2.649,-0 4.8,2.15 4.8,4.8Z"/></clipPath><g clip-path="url(#_clip1)"><rect x="0.238" y="0.192" width="122.084" height="60.994" style="fill:#232325;"/></g><g id="Thiiner"><path d="M8.24,8.374l45.6,-0" style="fill:none;stroke:#2e62be;stroke-width:0.2px;"/><g transform="matrix(2.59029,0,0,2.59029,35.3178,44.3551)"></g><text x="26.823px" y="44.355px" style="font-family:'ArialMT', 'Arial', sans-serif;font-size:2.59px;fill:#bfbfbf;">8.00cm</text><path d="M8.24,8.374l-0,35.066l45.6,0l-0,-35.066" style="fill:none;stroke:#4e4e4e;stroke-width:0.2px;"/><circle cx="8.24" cy="8.374" r="0.72" style="fill:#34976c;"/><circle cx="53.84" cy="8.374" r="0.72" style="fill:#34976c;"/></g><g id="Thiiner1" serif:id="Thiiner"><path d="M68.72,8.374l45.6,-0" style="fill:none;stroke:#2e62be;stroke-width:0.2px;"/><g transform="matrix(2.59029,0,0,2.59029,95.7978,44.3551)"></g><text x="87.303px" y="44.355px" style="font-family:'ArialMT', 'Arial', sans-serif;font-size:2.59px;fill:#bfbfbf;">8.00cm</text><path d="M68.72,8.374l-0,35.066l45.6,0l-0,-35.066" style="fill:none;stroke:#868686;stroke-width:0.2px;"/><circle cx="68.72" cy="8.374" r="0.72" style="fill:#34976c;"/><circle cx="114.32" cy="8.374" r="0.72" style="fill:#34976c;"/><path d="M68.48,43.44l2.64,-0.84l-0,1.68l-2.64,-0.84Z" style="fill:#a7a7a8;"/><path d="M114.32,43.44l-2.64,-0.84l-0,1.68l2.64,-0.84Z" style="fill:#a7a7a8;"/></g><g transform="matrix(3.8,0,0,3.8,36.6416,56.8931)"></g><text x="25.503px" y="56.893px" style="font-family:'Roboto-Regular', 'Roboto';font-size:3.8px;fill:#fff;">Before</text><g transform="matrix(3.8,0,0,3.8,95.5735,56.8931)"></g><text x="87.228px" y="56.893px" style="font-family:'Roboto-Regular', 'Roboto';font-size:3.8px;fill:#fff;">After</text></g></svg>