<?xml version="1.0" encoding="UTF-8" standalone="no"?><!DOCTYPE svg PUBLIC "-//W3C//DTD SVG 1.1//EN" "http://www.w3.org/Graphics/SVG/1.1/DTD/svg11.dtd"><svg width="100%" height="100%" viewBox="0 0 510 255" version="1.1" xmlns="http://www.w3.org/2000/svg" xmlns:xlink="http://www.w3.org/1999/xlink" xml:space="preserve" xmlns:serif="http://www.serif.com/" style="fill-rule:evenodd;clip-rule:evenodd;stroke-linecap:round;stroke-linejoin:round;stroke-miterlimit:1.5;"><g id="Curve-Apperance-Changes" serif:id="Curve Apperance Changes"><clipPath id="_clip1"><path d="M509.674,20.798l-0,214.141c-0,11.038 -8.962,20 -20,20l-468.684,-0c-11.039,-0 -20,-8.962 -20,-20l-0,-214.141c-0,-11.038 8.961,-20 20,-20l468.684,0c11.038,0 20,8.962 20,20Z"/></clipPath><g clip-path="url(#_clip1)"><rect x="0.99" y="0.798" width="508.684" height="254.14" style="fill:#232325;"/></g><g id="Bigger"><path d="M34.832,34.892l190,-0" style="fill:none;stroke:#2e62be;stroke-width:1.88px;"/><circle cx="34.832" cy="34.892" r="3" style="fill:#34976c;"/><circle cx="224.832" cy="34.892" r="3" style="fill:#34976c;"/><circle cx="129.832" cy="131.44" r="78.405" style="fill:#33445b;stroke:#2e62be;stroke-width:1.88px;"/><circle cx="129.832" cy="53.035" r="3" style="fill:#34976c;"/></g><g id="Thiiner"><path d="M285.832,34.892l190,-0" style="fill:none;stroke:#2e62be;stroke-width:0.75px;"/><circle cx="285.832" cy="34.892" r="3" style="fill:#34976c;"/><circle cx="475.832" cy="34.892" r="3" style="fill:#34976c;"/><circle cx="380.832" cy="131.44" r="78.405" style="fill:#33445b;stroke:#2e62be;stroke-width:0.75px;"/><circle cx="380.832" cy="53.035" r="3" style="fill:#34976c;"/></g><g transform="matrix(15.8333,0,0,15.8333,152.673,237.055)"></g><text x="106.263px" y="237.055px" style="font-family:'Roboto-Regular', 'Roboto';font-size:15.833px;fill:#fff;">Befor<tspan x="144.277px " y="237.055px ">e</tspan></text><g transform="matrix(15.8333,0,0,15.8333,398.223,237.055)"></g><text x="363.448px" y="237.055px" style="font-family:'Roboto-Regular', 'Roboto';font-size:15.833px;fill:#fff;">After</text></g></svg>