<?xml version="1.0" encoding="UTF-8" standalone="no"?><!DOCTYPE svg PUBLIC "-//W3C//DTD SVG 1.1//EN" "http://www.w3.org/Graphics/SVG/1.1/DTD/svg11.dtd"><svg width="100%" height="100%" viewBox="0 0 500 240" version="1.1" xmlns="http://www.w3.org/2000/svg" xmlns:xlink="http://www.w3.org/1999/xlink" xml:space="preserve" xmlns:serif="http://www.serif.com/" style="fill-rule:evenodd;clip-rule:evenodd;stroke-linecap:round;stroke-linejoin:bevel;"><g><g><path d="M468.533,177.551l8.437,-19.459" style="fill:none;stroke:#a3a3a3;stroke-opacity:0.5;stroke-width:1.22px;"/><path d="M476.97,158.092c-230.948,-109.82 -365.529,-158.212 -453.94,-44.789" style="fill:none;stroke:#f00;stroke-width:2.43px;"/><path d="M468.533,177.551c-194.883,-84.497 -321.449,-88.992 -379.698,-13.484" style="fill:none;stroke:#517fae;stroke-width:2.43px;"/><path d="M107.13,169.819l-13.397,8.256l5.764,-14.644l7.633,6.388Z" style="fill:#f00;"/><path d="M468.533,191.558c-184.225,-80.92 -306.604,-88.468 -367.135,-22.643" style="fill:none;stroke:#f00;stroke-width:3.32px;"/><g transform="matrix(19.4536,0,0,19.4536,306.66,167.595)"></g><text x="162.567px" y="167.595px" style="font-family:'Geist-Medium', 'Geist';font-weight:500;font-size:19.454px;fill:#dcdcdc;">A<tspan x="175.31px " y="167.595px ">C</tspan>CEL<tspan x="225.344px 237.036px 250.07px 261.664px 272.208px 277.363px 292.167px " y="167.595px 167.595px 167.595px 167.595px 167.595px 167.595px 167.595px ">ERATION</tspan></text><path d="M448.861,169.197l8.476,-20.4" style="fill:none;stroke:#a3a3a3;stroke-opacity:0.5;stroke-width:1.22px;"/><path d="M429.057,161.159l8.553,-21.6" style="fill:none;stroke:#a3a3a3;stroke-opacity:0.5;stroke-width:1.22px;"/><path d="M409.115,153.472l8.647,-23.08" style="fill:none;stroke:#a3a3a3;stroke-opacity:0.5;stroke-width:1.22px;"/><path d="M389.026,146.177l8.733,-24.859" style="fill:none;stroke:#a3a3a3;stroke-opacity:0.5;stroke-width:1.22px;"/><path d="M368.783,139.322l8.777,-26.961" style="fill:none;stroke:#a3a3a3;stroke-opacity:0.5;stroke-width:1.22px;"/><path d="M348.378,132.966l8.735,-29.415" style="fill:none;stroke:#a3a3a3;stroke-opacity:0.5;stroke-width:1.22px;"/><path d="M327.804,127.18l8.547,-32.254" style="fill:none;stroke:#a3a3a3;stroke-opacity:0.5;stroke-width:1.22px;"/><path d="M307.057,122.049l8.129,-35.512" style="fill:none;stroke:#a3a3a3;stroke-opacity:0.5;stroke-width:1.22px;"/><path d="M286.137,117.681l7.367,-39.23" style="fill:none;stroke:#a3a3a3;stroke-opacity:0.5;stroke-width:1.22px;"/><path d="M265.05,114.209l6.099,-43.443" style="fill:none;stroke:#a3a3a3;stroke-opacity:0.5;stroke-width:1.22px;"/><path d="M243.816,111.802l4.092,-48.171" style="fill:none;stroke:#a3a3a3;stroke-opacity:0.5;stroke-width:1.22px;"/><path d="M222.477,110.671l1.021,-53.386" style="fill:none;stroke:#a3a3a3;stroke-opacity:0.5;stroke-width:1.22px;"/><path d="M201.114,111.084l-3.561,-58.942" style="fill:none;stroke:#a3a3a3;stroke-opacity:0.5;stroke-width:1.22px;"/><path d="M179.872,113.369l-10.21,-64.431" style="fill:none;stroke:#a3a3a3;stroke-opacity:0.5;stroke-width:1.22px;"/><path d="M159,117.908l-19.433,-68.929" style="fill:none;stroke:#a3a3a3;stroke-opacity:0.5;stroke-width:1.22px;"/><path d="M138.889,125.09l-31.193,-70.794" style="fill:none;stroke:#a3a3a3;stroke-opacity:0.5;stroke-width:1.22px;"/><path d="M120.089,135.209l-44.211,-68.189" style="fill:none;stroke:#a3a3a3;stroke-opacity:0.5;stroke-width:1.22px;"/><path d="M103.23,148.302l-56.23,-60.828" style="fill:none;stroke:#a3a3a3;stroke-opacity:0.5;stroke-width:1.22px;"/><path d="M88.835,164.067l-65.805,-50.764" style="fill:none;stroke:#a3a3a3;stroke-opacity:0.5;stroke-width:1.22px;"/><path d="M88.835,164.067l35.692,-54.462l133.461,-18.717l210.545,86.663" style="fill:none;stroke:#a3a3a3;stroke-opacity:0.5;stroke-width:3.13px;stroke-linejoin:round;stroke-miterlimit:1.5;stroke-dasharray:0,6.26,0,0,0,0;"/><circle cx="88.835" cy="163.701" r="5.212" style="fill:#4ec464;"/><path d="M88.835,158.488c2.877,0 5.213,2.336 5.213,5.213c-0,2.877 -2.336,5.212 -5.213,5.212c-2.877,0 -5.212,-2.335 -5.212,-5.212c-0,-2.877 2.335,-5.213 5.212,-5.213Zm0,1.284c-2.168,0 -3.928,1.76 -3.928,3.929c-0,2.168 1.76,3.928 3.928,3.928c2.168,0 3.929,-1.76 3.929,-3.928c-0,-2.169 -1.761,-3.929 -3.929,-3.929Z"/><circle cx="124.252" cy="109.663" r="5.212" style="fill:#4ec464;"/><path d="M124.252,104.45c2.877,0 5.212,2.336 5.212,5.213c0,2.876 -2.335,5.212 -5.212,5.212c-2.877,0 -5.212,-2.336 -5.212,-5.212c-0,-2.877 2.335,-5.213 5.212,-5.213Zm-0,1.284c-2.168,0 -3.929,1.76 -3.929,3.929c0,2.168 1.761,3.928 3.929,3.928c2.168,0 3.929,-1.76 3.929,-3.928c-0,-2.169 -1.761,-3.929 -3.929,-3.929Z"/><circle cx="258.252" cy="90.888" r="5.212" style="fill:#4ec464;"/><path d="M258.252,85.676c2.877,0 5.212,2.336 5.212,5.212c0,2.877 -2.335,5.213 -5.212,5.213c-2.877,-0 -5.213,-2.336 -5.213,-5.213c0,-2.876 2.336,-5.212 5.213,-5.212Zm-0,1.284c-2.169,-0 -3.929,1.76 -3.929,3.928c0,2.169 1.76,3.929 3.929,3.929c2.168,0 3.928,-1.76 3.928,-3.929c0,-2.168 -1.76,-3.928 -3.928,-3.928Z"/><circle cx="468.533" cy="177.551" r="5.212" style="fill:#4ec464;"/><path d="M468.533,172.338c2.877,0 5.212,2.336 5.212,5.213c0,2.877 -2.335,5.212 -5.212,5.212c-2.877,0 -5.212,-2.335 -5.212,-5.212c-0,-2.877 2.335,-5.213 5.212,-5.213Zm-0,1.284c-2.168,0 -3.929,1.761 -3.929,3.929c0,2.168 1.761,3.928 3.929,3.928c2.168,0 3.929,-1.76 3.929,-3.928c-0,-2.168 -1.761,-3.929 -3.929,-3.929Z"/></g></g></svg>