<?xml version="1.0" encoding="UTF-8" standalone="no"?><!DOCTYPE svg PUBLIC "-//W3C//DTD SVG 1.1//EN" "http://www.w3.org/Graphics/SVG/1.1/DTD/svg11.dtd"><svg width="100%" height="100%" viewBox="0 0 531 399" version="1.1" xmlns="http://www.w3.org/2000/svg" xmlns:xlink="http://www.w3.org/1999/xlink" xml:space="preserve" xmlns:serif="http://www.serif.com/" style="fill-rule:evenodd;clip-rule:evenodd;stroke-linecap:round;"><g id="Alternative-Duplicate" serif:id="Alternative Duplicate"><g><g><g id="CP-Plane" serif:id="CP Plane"><g><path d="M370.634,226.56l0,-195.5l-123.13,71.09l-4.347,2.509l-118.146,68.212l-0,195.499l101.671,-58.7l143.952,-83.11" style="fill:#91734d;fill-opacity:0.25;fill-rule:nonzero;stroke:#9b702a;stroke-width:0.83px;"/></g></g><g id="Extruded.002--Edge-Hidden-NotSmooth-" serif:id="Extruded.002 (Edge-Hidden-NotSmooth)"><g><path d="M234.216,94.478l-0.722,-0.399l-1.304,-0.638l-1.352,-0.567l-1.399,-0.502l-1.445,-0.446l-1.491,-0.396l-2.383,-0.526l-2.484,-0.423l-2.579,-0.316l-2.669,-0.204l-2.802,-0.09l-2.882,0.035l-2.956,0.163l-3.024,0.297l-3.085,0.433l-3.084,0.563l-3.132,0.704l-3.173,0.849l-3.209,0.997l-2.746,0.967l-2.765,1.078l-2.779,1.195l-2.789,1.311l-2.797,1.433l-2.8,1.554l-2.64,1.58l-2.638,1.685l-2.631,1.785l-2.622,1.88l-2.61,1.969l-2.752,2.18l-2.732,2.267l-2.707,2.347l-2.68,2.421l-2.649,2.488l-2.613,2.549l-3.031,3.073l-2.972,3.137l-2.906,3.19l-2.836,3.232l-2.808,3.322l-2.722,3.344l-2.631,3.353l-2.532,3.351l-2.427,3.338l-1.491,2.117l-1.446,2.114l-1.399,2.118l-1.352,2.127l-1.304,2.144l-1.257,2.168l-1.207,2.198l-0.719,1.372l-0.701,1.388l-0.681,1.404l-0.662,1.424l-0.642,1.444l-0.66,1.556l-0.638,1.582l-0.616,1.61l-0.593,1.641l-0.57,1.673l-0.547,1.707l-0.495,1.642l-0.475,1.677l-0.453,1.711l-0.433,1.748l-0.411,1.786l-0.493,2.331l-0.458,2.399l-0.423,2.47l-0.388,2.545l-0.352,2.622l-0.396,3.462l-0.338,3.601l-0.277,3.745l-0.217,3.897l-0.156,4.056l-0.094,4.221l-0.031,4.394l29.16,16.835l46.3,26.732l55.371,31.968l56.31,32.51l41.666,24.057c0,-25.734 3.307,-53.006 22.375,-80.094c3.47,-4.929 25.15,-35.728 54.085,-52.459c13.595,-7.845 25.543,-10.011 27.887,-10.436c2.691,-0.488 21.494,-3.896 34.019,3.332" style="fill:#638ee8;fill-opacity:0.25;fill-rule:nonzero;stroke:#517fae;stroke-width:0.83px;"/></g></g><path d="M234.216,94.478l0.534,0.319l1.208,0.804l0.762,0.576l0.74,0.618l0.72,0.662l0.697,0.709l0.676,0.758l0.654,0.808l0.596,0.81l0.576,0.859l0.556,0.91l0.535,0.961l0.516,1.016l0.174,0.364l0.35,0.773l0.501,1.203l0.478,1.269l0.453,1.338l0.431,1.409l0.406,1.482l0.447,1.843l0.414,1.951l0.38,2.063l0.345,2.176l0.397,3.004l0.337,3.211l0.277,3.424l0.217,3.646l0.156,3.875l0.094,4.112l0.031,4.356l75.46,43.566l46.3,26.732l30.484,17.6l34.897,20.147l41.667,24.057c-0,-33.497 -5.291,-45.903 -14.658,-51.309c-0,0 -72.416,-41.809 -72.416,-41.809l-19.974,-11.532l-60.958,-35.194l-0.026,-0.015l-62.146,-35.88l-13.288,-7.672" style="fill:#638ee8;fill-opacity:0.25;fill-rule:nonzero;stroke:#517fae;stroke-width:0.83px;"/><g id="Edge-Hidden-Smooth"><g id="Extruded.001--Edge-Hidden-Smooth-" serif:id="Extruded.001 (Edge-Hidden-Smooth)"><path d="M171.311,277.702l0.031,-4.37l0.094,-4.219l0.155,-4.071l0.217,-3.89l0.276,-3.731l0.337,-3.609l0.399,-3.487l0.348,-2.593l0.386,-2.535l0.423,-2.477l0.461,-2.418l0.491,-2.323l0.407,-1.769l0.431,-1.742l0.454,-1.717l0.478,-1.691l0.502,-1.665l0.536,-1.674l0.564,-1.658l0.592,-1.64l0.62,-1.624l0.647,-1.606l0.245,-0.587l0.408,-0.952l0.63,-1.419l0.657,-1.415l0.684,-1.412l0.709,-1.409l0.737,-1.405l1.018,-1.862l1.08,-1.884l1.14,-1.904l1.2,-1.925l1.141,-1.765l1.217,-1.824l1.292,-1.882l1.367,-1.941l2.441,-3.354l2.524,-3.34l2.641,-3.367l2.718,-3.337l2.839,-3.359l2.879,-3.28l2.91,-3.19l2.941,-3.1l2.973,-3.012l2.686,-2.619l2.684,-2.519l2.682,-2.419l2.678,-2.318l2.676,-2.218l2.782,-2.202l2.218,-1.678l2.204,-1.598l2.189,-1.516l2.173,-1.436l2.159,-1.354l2.143,-1.274l2.73,-1.518l2.755,-1.415l2.78,-1.312l2.803,-1.209l2.828,-1.106l2.736,-0.963l3.155,-0.985l3.158,-0.849l3.163,-0.715l3.166,-0.579l3.026,-0.427l2.993,-0.297l2.961,-0.167l2.93,-0.037l2.827,0.089l2.665,0.203l2.589,0.317l2.477,0.421l2.35,0.518l0.046,0.011l1.556,0.415l1.458,0.454l1.36,0.49l1.336,0.562l1.327,0.653l0.658,0.364l0.59,0.352l1.169,0.781l0.78,0.59l0.751,0.628l0.72,0.666l0.691,0.705l0.661,0.742l0.654,0.81l0.604,0.822l0.578,0.866l0.555,0.909l0.529,0.952l0.506,0.996l0.531,1.154l0.504,1.213l0.478,1.273l0.451,1.333l0.425,1.393l0.406,1.483l0.451,1.858l0.414,1.957l0.378,2.055l0.341,2.153l0.399,3.025l0.337,3.219l0.276,3.412l0.118,1.815l0.099,1.824l0.156,3.89l0.093,4.11l0.031,4.332" style="fill:none;fill-rule:nonzero;stroke:#f2f00d;stroke-width:1.13px;stroke-miterlimit:1.5;"/></g><g id="Extruded.002--Edge-Hidden-Smooth-" serif:id="Extruded.002 (Edge-Hidden-Smooth)"><path d="M436.015,253.832l-0.035,-2.273l-0.106,-2.294l-0.181,-2.312l-0.26,-2.327l-0.342,-2.341l-0.329,-1.848l-0.383,-1.855l-0.438,-1.859l-0.495,-1.861l-0.553,-1.861l-0.649,-1.972l-0.716,-1.967l-0.783,-1.961l-0.851,-1.953l-0.892,-1.889l-0.025,-0.051l-0.983,-1.925l-0.987,-1.798l-1.043,-1.78l-1.098,-1.759l-1.153,-1.738l-1.206,-1.714l-1.335,-1.79l-1.389,-1.76l-1.441,-1.727l-1.491,-1.694l-1.539,-1.659l-1.583,-1.624l-1.92,-1.868l-1.976,-1.817l-2.027,-1.766l-2.075,-1.715l-3.228,-2.499l-3.318,-2.383l-3.398,-2.266l-3.469,-2.151l-1.711,-1.005l-1.819,-1.031l-3.581,-1.922l-2.431,-1.228l-2.446,-1.176l-2.454,-1.123l-2.46,-1.068l-2.458,-1.013l-1.928,-0.757l-1.924,-0.719l-1.918,-0.682l-1.91,-0.642l-1.9,-0.601l-2.005,-0.591l-1.991,-0.542l-1.978,-0.493l-1.963,-0.443l-1.947,-0.391l-1.931,-0.34l-2.254,-0.335l-2.23,-0.262l-2.205,-0.19l-2.18,-0.117l-2.448,-0.047l-2.418,0.046l-2.388,0.137l-2.36,0.227l-2.333,0.316l-2.31,0.404l-2.286,0.491l-2.267,0.576l-2.568,0.762l-2.548,0.871l-2.532,0.979l-2.52,1.084l-2.509,1.189l-2.504,1.292l-2.501,1.393l-2.498,1.493l-2.49,1.592l-2.473,1.688l-2.448,1.784l-2.415,1.877l-2.373,1.971l-2.324,2.062l-1.986,1.88l-1.937,1.947l-1.882,2.016l-1.82,2.083l-1.754,2.148l-1.681,2.212l-1.602,2.275l-1.517,2.336l-1.281,2.142l-1.205,2.188l-1.122,2.229l-1.037,2.27l-0.947,2.306l-0.679,1.836l-0.619,1.855l-0.559,1.872l-0.498,1.887l-0.434,1.9l-0.39,2.028l-0.317,2.038l-0.246,2.046l-0.173,2.05l-0.101,2.052l-0.029,2.051l0.051,2.419l0.135,2.419l0.211,2.421l0.278,2.423l0.536,3.68l0.655,3.696l0.756,3.717l0.839,3.743l0.907,3.775l0.96,3.809l0.668,2.58l0.681,2.597l0.69,2.614l0.696,2.63l0.695,2.646l0.545,2.09l0.541,2.098l0.535,2.104l0.526,2.111l0.517,2.115l0.534,2.248l0.519,2.249l0.502,2.249l0.482,2.246l0.461,2.241l0.438,2.233l0.389,2.095l0.366,2.085l0.343,2.073l0.318,2.059l0.294,2.043l0.285,2.149l0.255,2.127l0.226,2.103l0.197,2.078l0.167,2.053l0.139,2.028l0.128,2.355l0.091,2.318l0.053,2.281l0.018,2.242" style="fill:none;fill-rule:nonzero;stroke:#ff0052;stroke-width:1.13px;stroke-miterlimit:1.5;"/></g></g></g><ellipse cx="171.311" cy="277.702" rx="2.319" ry="2.379" style="fill:#fff;stroke:#000;stroke-width:0.42px;stroke-linejoin:round;stroke-miterlimit:1.5;"/><ellipse cx="283.015" cy="342.18" rx="2.319" ry="2.379" style="fill:#fff;stroke:#000;stroke-width:0.42px;stroke-linejoin:round;stroke-miterlimit:1.5;"/><ellipse cx="436.015" cy="255.619" rx="2.319" ry="2.379" style="fill:#fff;stroke:#000;stroke-width:0.42px;stroke-linejoin:round;stroke-miterlimit:1.5;"/><ellipse cx="324.334" cy="189.186" rx="2.319" ry="2.379" style="fill:#fff;stroke:#000;stroke-width:0.42px;stroke-linejoin:round;stroke-miterlimit:1.5;"/></g><g transform="matrix(0.483442,0,0,0.483442,-1734.86,-1651.76)"><g transform="matrix(0.95,0,0,1,222.059,0)"><text x="4441.66px" y="3577.09px" style="font-family:'Roboto-Regular', 'Roboto';font-size:25.856px;fill:#dcdcdc;">C<tspan x="4459.45px 4478.2px 4497.6px 4513.91px 4530.29px 4547.18px 4564.91px 4582.31px 4598.69px 4606.68px 4625.43px " y="3577.09px 3577.09px 3577.09px 3577.09px 3577.09px 3577.09px 3577.09px 3577.09px 3577.09px 3577.09px 3577.09px ">ONSTRUCTION</tspan></text></g><g transform="matrix(0.95,0,0,1,224.859,0)"><g transform="matrix(25.8562,0,0,25.8562,4582.46,3602.94)"></g><text x="4497.66px" y="3602.94px" style="font-family:'Roboto-Regular', 'Roboto';font-size:25.856px;fill:#dcdcdc;">P<tspan x="4514.93px 4530.06px 4547.89px 4567.29px " y="3602.94px 3602.94px 3602.94px 3602.94px ">LANE</tspan></text></g></g><g transform="matrix(0.483442,0,0,0.483442,-1787.29,-1375.58)"><g transform="matrix(0.95,0,0,1,222.997,0)"><text x="4460.41px" y="3577.09px" style="font-family:'Roboto-Regular', 'Roboto';font-size:25.856px;fill:#dcdcdc;">P<tspan x="4477.68px 4494.57px 4513.31px 4528.54px 4544.19px 4561.59px 4577.97px 4585.96px 4604.71px " y="3577.09px 3577.09px 3577.09px 3577.09px 3577.09px 3577.09px 3577.09px 3577.09px 3577.09px ">ROJECTION</tspan></text></g><g transform="matrix(0.95,0,0,1,224.283,0)"><g transform="matrix(25.8562,0,0,25.8562,4595.19,3602.94)"></g><text x="4486.15px" y="3602.94px" style="font-family:'Roboto-Regular', 'Roboto';font-size:25.856px;fill:#dcdcdc;">P<tspan x="4503.41px 4518.55px 4536.37px 4555.78px 4570.95px 4577.84px " y="3602.94px 3602.94px 3602.94px 3602.94px 3602.94px 3602.94px ">LANE A</tspan></text></g></g><g transform="matrix(0.95,0,0,1,-92.075,0)"><g transform="matrix(12.5,0,0,12.5,379.993,360.109)"></g><text x="327.308px" y="360.109px" style="font-family:'Roboto-Regular', 'Roboto';font-size:12.5px;fill:#dcdcdc;">C<tspan x="335.907px 344.475px 352.518px 360.939px 368.275px 371.607px " y="360.109px 360.109px 360.109px 360.109px 360.109px 360.109px ">URVE A</tspan></text></g><g transform="matrix(0.483442,0,0,0.483442,-2134.36,-1467.49)"><g transform="matrix(0.95,0,0,1,223.295,0)"><text x="4466.38px" y="3577.09px" style="font-family:'Roboto-Regular', 'Roboto';font-size:25.856px;fill:#dcdcdc;">P<tspan x="4483.64px 4500.53px 4519.28px 4534.5px 4550.15px 4567.56px 4583.94px 4599.59px " y="3577.09px 3577.09px 3577.09px 3577.09px 3577.09px 3577.09px 3577.09px 3577.09px ">ROJECTED</tspan></text></g><g transform="matrix(0.95,0,0,1,224.06,0)"><g transform="matrix(25.8562,0,0,25.8562,4590.65,3602.94)"></g><g transform="matrix(25.8562,0,0,25.8562,4600.13,3602.94)"></g><text x="4481.67px" y="3602.94px" style="font-family:'Roboto-Regular', 'Roboto';font-size:25.856px;fill:#dcdcdc;">C<tspan x="4499.46px 4517.18px 4533.82px 4551.24px 4566.41px 4573.3px 4590.65px " y="3602.94px 3602.94px 3602.94px 3602.94px 3602.94px 3602.94px 3602.94px ">URVE A¹</tspan></text></g></g><path d="M378.856,74.736l-5.406,-1.802l5.406,-1.802l0,3.604Z" style="fill:#dbdbdb;"/><path d="M410.042,72.934c-0,0 -22.583,0 -32.267,0" style="fill:none;stroke:#dbdbdb;stroke-width:0.8px;stroke-miterlimit:1.5;"/><path d="M333.953,349.923l-5.406,-1.802l5.406,-1.803l0,3.605Z" style="fill:#dbdbdb;"/><path d="M365.139,348.121c-0,-0 -22.583,-0 -32.267,-0" style="fill:none;stroke:#dbdbdb;stroke-width:0.8px;stroke-miterlimit:1.5;"/><path d="M161.603,255.392l5.407,1.803l-5.407,1.802l-0,-3.605Z" style="fill:#dbdbdb;"/><path d="M95.851,257.195c-0,-0 51.406,-0 66.833,-0" style="fill:none;stroke:#dbdbdb;stroke-width:0.8px;stroke-miterlimit:1.5;"/><path d="M270.155,321.207l5.625,1.875l-5.625,1.875l0,-3.75Z" style="fill:#dbdbdb;"/><path d="M243.939,344.728l0,-15.646c0,-1.592 0.632,-3.118 1.758,-4.243c1.125,-1.125 2.651,-1.757 4.242,-1.757c6.206,-0 15.754,-0 21.341,-0" style="fill:none;stroke:#dbdbdb;stroke-width:0.83px;stroke-miterlimit:1.5;"/></g></svg>