<?xml version="1.0" encoding="UTF-8" standalone="no"?><!DOCTYPE svg PUBLIC "-//W3C//DTD SVG 1.1//EN" "http://www.w3.org/Graphics/SVG/1.1/DTD/svg11.dtd"><svg width="100%" height="100%" viewBox="0 0 408 327" version="1.1" xmlns="http://www.w3.org/2000/svg" xmlns:xlink="http://www.w3.org/1999/xlink" xml:space="preserve" xmlns:serif="http://www.serif.com/" style="fill-rule:evenodd;clip-rule:evenodd;"><clipPath id="_clip1"><rect x="0.324" y="0.386" width="407.662" height="326.129"/></clipPath><g clip-path="url(#_clip1)"><path d="M407.986,18.504l-0,289.893c-0,10 -8.119,18.118 -18.119,18.118l-371.425,0c-10,0 -18.118,-8.118 -18.118,-18.118l-0,-289.893c-0,-10 8.118,-18.118 18.118,-18.118l371.425,-0c10,-0 18.119,8.118 18.119,18.118Z" style="fill:#111114;stroke:#232327;stroke-width:1.36px;"/><g id="edges-vis"><path d="M86.603,92.919l135.185,-35.265l99.919,35.265l0,141.063l-99.919,35.266l-135.185,-35.266l-0,-141.063Z" style="fill:url(#_Linear2);fill-rule:nonzero;"/><g id="soft-edges"><path d="M86.603,92.919l135.185,-35.265" style="fill:none;fill-rule:nonzero;stroke:#fff;stroke-opacity:0.2;stroke-width:1.18px;"/><path d="M221.788,57.654l99.919,35.265" style="fill:none;fill-rule:nonzero;stroke:#fff;stroke-opacity:0.2;stroke-width:1.18px;"/><path d="M321.707,92.919l0,141.063" style="fill:none;fill-rule:nonzero;stroke:#fff;stroke-opacity:0.2;stroke-width:1.18px;"/><path d="M321.707,233.982l-99.919,35.266" style="fill:none;fill-rule:nonzero;stroke:#fff;stroke-opacity:0.2;stroke-width:1.18px;"/><path d="M321.707,128.185l-99.919,-17.398l-135.185,17.398" style="fill:none;fill-rule:nonzero;stroke:#fff;stroke-opacity:0.2;stroke-width:1.15px;"/><path d="M221.788,269.248l-135.185,-35.266" style="fill:none;fill-rule:nonzero;stroke:#fff;stroke-opacity:0.2;stroke-width:1.18px;"/><path d="M86.603,233.982l-0,-141.063" style="fill:none;fill-rule:nonzero;stroke:#fff;stroke-opacity:0.2;stroke-width:1.18px;"/></g><g id="sharp-edges"><path d="M221.788,57.654l-0,211.594" style="fill:none;fill-rule:nonzero;stroke:#ff7a45;stroke-width:3.53px;"/><path d="M86.603,128.655l135.185,-17.209l99.919,17.209" style="fill:none;fill-rule:nonzero;stroke:#ff7a45;stroke-width:3.53px;"/></g><g id="vertices"><circle cx="221.788" cy="57.654" r="5.29" style="fill:#ff7a45;"/><circle cx="221.788" cy="269.248" r="5.29" style="fill:#ff7a45;"/><circle cx="86.603" cy="128.655" r="5.29" style="fill:#ff7a45;"/><circle cx="321.707" cy="128.655" r="5.29" style="fill:#ff7a45;"/></g></g></g><defs><linearGradient id="_Linear2" x1="0" y1="0" x2="1" y2="0" gradientUnits="userSpaceOnUse" gradientTransform="matrix(235.105,0,0,235.105,86.6026,57.6536)"><stop offset="0" style="stop-color:#3a3a42;stop-opacity:1"/><stop offset="1" style="stop-color:#1a1a1f;stop-opacity:1"/></linearGradient></defs></svg>