<?xml version="1.0" encoding="UTF-8" standalone="no"?><!DOCTYPE svg PUBLIC "-//W3C//DTD SVG 1.1//EN" "http://www.w3.org/Graphics/SVG/1.1/DTD/svg11.dtd"><svg width="100%" height="100%" viewBox="0 0 408 327" version="1.1" xmlns="http://www.w3.org/2000/svg" xmlns:xlink="http://www.w3.org/1999/xlink" xml:space="preserve" xmlns:serif="http://www.serif.com/" style="fill-rule:evenodd;clip-rule:evenodd;"><clipPath id="_clip1"><rect x="0" y="0.386" width="407.662" height="326.129"/></clipPath><g clip-path="url(#_clip1)"><rect x="0" y="0.386" width="407.662" height="326.129" style="fill:#111114;stroke:#232327;stroke-width:1.36px;"/><g id="outliner-mock"><path d="M385.014,50.211l-0,22.648c-0,3.75 -3.044,6.794 -6.794,6.794l-348.778,0c-3.75,0 -6.794,-3.044 -6.794,-6.794l-0,-22.648c-0,-3.75 3.044,-6.794 6.794,-6.794l348.778,-0c3.75,-0 6.794,3.044 6.794,6.794Z" style="fill:#1c1c20;stroke:#2e2e33;stroke-width:1.13px;"/><text x="45.296px" y="66.065px" style="font-family:'Consolas', monospace;font-size:12.456px;fill:#a4a39d;">▸  scene · helmet.plasticity</text><path d="M385.014,93.242l-0,22.648c-0,3.75 -3.044,6.794 -6.794,6.794l-326.13,0c-3.75,0 -6.794,-3.044 -6.794,-6.794l-0,-22.648c-0,-3.75 3.044,-6.794 6.794,-6.794l326.13,-0c3.75,-0 6.794,3.044 6.794,6.794Z" style="fill:#1c1c20;stroke:#2e2e33;stroke-width:1.13px;"/><text x="67.944px" y="109.096px" style="font-family:'Consolas', monospace;font-size:12.456px;fill:#a4a39d;">▾  shell</text><path d="M385.014,136.273l-0,18.118c-0,3.75 -3.044,6.795 -6.794,6.795l-303.482,-0c-3.75,-0 -6.794,-3.045 -6.794,-6.795l-0,-18.118c-0,-3.75 3.044,-6.794 6.794,-6.794l303.482,-0c3.75,-0 6.794,3.044 6.794,6.794Z" style="fill:#16161a;"/><text x="90.592px" y="148.73px" style="font-family:'Consolas', monospace;font-size:12.456px;fill:#5a5955;">◌  outer</text><path d="M385.014,172.51l-0,18.118c-0,3.75 -3.044,6.794 -6.794,6.794l-303.482,0c-3.75,0 -6.794,-3.044 -6.794,-6.794l-0,-18.118c-0,-3.75 3.044,-6.795 6.794,-6.795l303.482,0c3.75,0 6.794,3.045 6.794,6.795Z" style="fill:#16161a;"/><text x="90.592px" y="184.966px" style="font-family:'Consolas', monospace;font-size:12.456px;fill:#5a5955;">◌  inner</text><path d="M385.014,211.011l-0,22.648c-0,3.75 -3.044,6.794 -6.794,6.794l-326.13,0c-3.75,0 -6.794,-3.044 -6.794,-6.794l-0,-22.648c-0,-3.75 3.044,-6.794 6.794,-6.794l326.13,-0c3.75,-0 6.794,3.044 6.794,6.794Z" style="fill:#1c1c20;stroke:#2e2e33;stroke-width:1.13px;"/><text x="67.944px" y="226.865px" style="font-family:'Consolas', monospace;font-size:12.456px;fill:#a4a39d;">▸  visor</text><path d="M385.014,254.042l-0,22.648c-0,3.75 -3.044,6.794 -6.794,6.794l-326.13,0c-3.75,0 -6.794,-3.044 -6.794,-6.794l-0,-22.648c-0,-3.75 3.044,-6.794 6.794,-6.794l326.13,-0c3.75,-0 6.794,3.044 6.794,6.794Z" style="fill:#1c1c20;stroke:#2e2e33;stroke-width:1.13px;"/><text x="67.944px" y="269.896px" style="font-family:'Consolas', monospace;font-size:12.456px;fill:#a4a39d;">▸  vents</text></g></g></svg>