<?xml version="1.0" encoding="UTF-8" standalone="no"?><!DOCTYPE svg PUBLIC "-//W3C//DTD SVG 1.1//EN" "http://www.w3.org/Graphics/SVG/1.1/DTD/svg11.dtd"><svg width="100%" height="100%" viewBox="0 0 901 281" version="1.1" xmlns="http://www.w3.org/2000/svg" xmlns:xlink="http://www.w3.org/1999/xlink" xml:space="preserve" xmlns:serif="http://www.serif.com/" style="fill-rule:evenodd;clip-rule:evenodd;stroke-linecap:round;stroke-linejoin:bevel;"><g id="Curvature"><g><path d="M631.054,218.073l0,-58.517l59.417,-33.971l-0,58.516l-59.417,33.972Z" style="fill:#638ee8;fill-opacity:0.25;"/><path d="M631.054,159.556c-0.003,-3.15 0.012,-6.299 -0.054,-9.464c-0.068,-3.165 -0.228,-6.353 -0.633,-9.546c-0.403,-3.191 -1.056,-6.386 -2.049,-9.503c-0.989,-3.117 -2.319,-6.151 -3.981,-8.998c-1.659,-2.849 -3.647,-5.506 -5.878,-7.913c-2.23,-2.411 -4.697,-4.568 -7.286,-6.509c-2.59,-1.944 -5.298,-3.675 -8.031,-5.316c-2.736,-1.639 -5.496,-3.201 -8.25,-4.778l59.416,-33.972c2.754,1.577 5.515,3.139 8.25,4.778c1.868,1.121 3.723,2.284 5.536,3.528c0.842,0.578 1.674,1.172 2.495,1.788c1.472,1.104 2.905,2.277 4.277,3.527c1.041,0.949 2.047,1.942 3.009,2.982c1.143,1.232 2.221,2.53 3.225,3.886c0.956,1.292 1.844,2.637 2.654,4.027c0.811,1.39 1.543,2.824 2.195,4.29c0.684,1.539 1.279,3.113 1.786,4.708c0.428,1.345 0.793,2.705 1.102,4.072c0.408,1.802 0.717,3.618 0.947,5.432c0.128,1.012 0.232,2.023 0.316,3.033c0.181,2.178 0.27,4.35 0.317,6.512c0.065,3.166 0.051,6.314 0.054,9.465l-59.417,33.971Z" style="fill:#638ee8;fill-opacity:0.25;"/><path d="M543.72,68.271l59.416,-33.972l5.686,3.251l11.372,6.502l5.685,3.251l5.686,3.25l5.686,3.251l5.686,3.251l5.686,3.251l5.685,3.251l-59.416,33.972l-51.172,-29.258Z" style="fill:#638ee8;fill-opacity:0.25;"/><path d="M442.148,219.067l0,-58.89l59.797,-34.189l-0,58.89l-59.797,34.189Z" style="fill:#638ee8;fill-opacity:0.25;"/><path d="M405.755,97.752l59.796,-34.189c2.12,1.209 4.251,2.443 6.44,3.976c0.023,0.017 0.047,0.033 0.071,0.05c2.036,1.427 4.121,3.112 6.219,5.108c0.179,0.171 0.358,0.343 0.537,0.518c1.787,1.742 3.58,3.709 5.331,5.863c0.481,0.59 0.958,1.195 1.431,1.813c1.32,1.722 2.607,3.546 3.837,5.436c0.818,1.257 1.612,2.544 2.373,3.851c0.761,1.305 1.49,2.629 2.181,3.96c1.037,2 1.989,4.015 2.835,6.008c0.304,0.715 0.594,1.427 0.87,2.134c1.008,2.579 1.832,5.1 2.462,7.504c0.063,0.241 0.124,0.481 0.184,0.719c0.696,2.798 1.128,5.428 1.357,7.888c0.003,0.029 0.006,0.057 0.008,0.086c0.247,2.644 0.261,5.088 0.258,7.511l-59.797,34.189c0.003,-2.449 -0.011,-4.92 -0.265,-7.597c-0.249,-2.67 -0.736,-5.541 -1.542,-8.607c-0.802,-3.063 -1.92,-6.317 -3.332,-9.638c-1.409,-3.319 -3.11,-6.701 -5.016,-9.969c-1.904,-3.268 -4.011,-6.417 -6.209,-9.286c-2.199,-2.871 -4.485,-5.457 -6.762,-7.676c-2.279,-2.224 -4.546,-4.077 -6.757,-5.626c-2.213,-1.557 -4.368,-2.804 -6.51,-4.026Z" style="fill:#638ee8;fill-opacity:0.25;"/><path d="M354.255,68.307l59.797,-34.189l17.166,9.815l5.722,3.272l5.723,3.272l5.722,3.271l5.722,3.272l5.722,3.272l5.722,3.271l-59.796,34.189l-51.5,-29.445Z" style="fill:#638ee8;fill-opacity:0.25;"/><path d="M261.836,219.067l0,-58.961l59.868,-34.23l0,58.961l-59.868,34.23Z" style="fill:#638ee8;fill-opacity:0.25;"/><path d="M261.836,160.106c0,-19.642 -19.26,-52.678 -36.437,-62.499l59.868,-34.23c2.036,1.164 4.101,2.654 6.16,4.409c1.97,1.68 3.934,3.602 5.861,5.713c1.853,2.031 3.672,4.236 5.43,6.569c1.713,2.275 3.368,4.671 4.939,7.145c1.557,2.453 3.031,4.981 4.397,7.543c1.378,2.584 2.646,5.201 3.779,7.809c1.162,2.673 2.181,5.336 3.03,7.94c0.883,2.709 1.581,5.354 2.065,7.883c0.506,2.644 0.776,5.16 0.776,7.488l-59.868,34.23Z" style="fill:#638ee8;fill-opacity:0.25;"/><path d="M173.838,68.126l59.868,-34.229l17.187,9.826l5.729,3.276l5.729,3.276l5.729,3.275l5.729,3.276l5.729,3.275l5.729,3.276l-59.868,34.23l-51.561,-29.481Z" style="fill:#638ee8;fill-opacity:0.25;"/><path d="M102.959,219.067l-0,-58.89l59.796,-34.189l0,58.89l-59.796,34.189Z" style="fill:#638ee8;fill-opacity:0.25;"/><path d="M162.755,125.988l-59.796,34.189l-36.394,-62.425l59.797,-34.189l36.393,62.425Z" style="fill:#638ee8;fill-opacity:0.25;"/><path d="M15.066,68.307l59.796,-34.189l11.445,6.544l5.722,3.271l5.722,3.272l5.722,3.272l5.722,3.271l5.722,3.272l11.445,6.543l-59.797,34.189l-51.499,-29.445Z" style="fill:#638ee8;fill-opacity:0.25;"/></g><g id="G0"><g><g><g><path d="M162.755,125.988l17.844,10.202" style="fill:none;stroke:#a3a3a3;stroke-opacity:0.5;stroke-width:0.94px;"/><path d="M162.755,132.531l17.844,10.202" style="fill:none;stroke:#a3a3a3;stroke-opacity:0.5;stroke-width:0.94px;"/><path d="M162.755,139.074l17.844,10.203" style="fill:none;stroke:#a3a3a3;stroke-opacity:0.5;stroke-width:0.94px;"/><path d="M162.755,145.618l17.844,10.202" style="fill:none;stroke:#a3a3a3;stroke-opacity:0.5;stroke-width:0.94px;"/><path d="M162.755,152.161l17.844,10.202" style="fill:none;stroke:#a3a3a3;stroke-opacity:0.5;stroke-width:0.94px;"/><path d="M162.755,158.704l17.844,10.203" style="fill:none;stroke:#a3a3a3;stroke-opacity:0.5;stroke-width:0.94px;"/><path d="M162.755,165.248l17.844,10.202" style="fill:none;stroke:#a3a3a3;stroke-opacity:0.5;stroke-width:0.94px;"/><path d="M162.755,171.791l17.844,10.202" style="fill:none;stroke:#a3a3a3;stroke-opacity:0.5;stroke-width:0.94px;"/><path d="M162.755,178.334l17.844,10.203" style="fill:none;stroke:#a3a3a3;stroke-opacity:0.5;stroke-width:0.94px;"/><path d="M162.755,184.878l17.844,10.202" style="fill:none;stroke:#a3a3a3;stroke-opacity:0.5;stroke-width:0.94px;"/><g><path d="M74.862,34.118l0,-20.404" style="fill:none;stroke:#a3a3a3;stroke-opacity:0.5;stroke-width:0.94px;"/><path d="M80.584,37.39l0,-20.405" style="fill:none;stroke:#a3a3a3;stroke-opacity:0.5;stroke-width:0.94px;"/><path d="M86.307,40.662l-0,-20.405" style="fill:none;stroke:#a3a3a3;stroke-opacity:0.5;stroke-width:0.94px;"/><path d="M92.029,43.933l-0,-20.404" style="fill:none;stroke:#a3a3a3;stroke-opacity:0.5;stroke-width:0.94px;"/><path d="M97.751,47.205l-0,-20.405" style="fill:none;stroke:#a3a3a3;stroke-opacity:0.5;stroke-width:0.94px;"/><path d="M103.473,50.477l0,-20.405" style="fill:none;stroke:#a3a3a3;stroke-opacity:0.5;stroke-width:0.94px;"/><path d="M109.195,53.748l0,-20.404" style="fill:none;stroke:#a3a3a3;stroke-opacity:0.5;stroke-width:0.94px;"/><path d="M114.917,57.02l0,-20.404" style="fill:none;stroke:#a3a3a3;stroke-opacity:0.5;stroke-width:0.94px;"/><path d="M120.64,60.292l-0,-20.405" style="fill:none;stroke:#a3a3a3;stroke-opacity:0.5;stroke-width:0.94px;"/><path d="M126.362,63.563l-0,-20.404" style="fill:none;stroke:#a3a3a3;stroke-opacity:0.5;stroke-width:0.94px;"/></g></g><g><g><path d="M126.362,63.563l-51.5,-29.445" style="fill:none;stroke:#517fae;stroke-width:0.94px;"/><path d="M66.565,97.752l-51.499,-29.445" style="fill:none;stroke:#517fae;stroke-width:0.94px;"/><path d="M66.565,97.752l59.797,-34.189" style="fill:none;stroke:#517fae;stroke-width:0.94px;"/><path d="M15.066,68.307l59.796,-34.189" style="fill:none;stroke:#517fae;stroke-width:0.94px;"/><path d="M162.755,184.878l0,-58.89" style="fill:none;stroke:#517fae;stroke-width:0.94px;"/><path d="M162.755,125.988l-59.796,34.189" style="fill:none;stroke:#517fae;stroke-width:0.94px;"/><path d="M102.959,219.067l-0,-58.89" style="fill:none;stroke:#517fae;stroke-width:0.94px;"/><path d="M102.959,219.067l59.796,-34.189" style="fill:none;stroke:#517fae;stroke-width:0.94px;"/><path d="M162.755,125.988l-36.393,-62.425" style="fill:none;stroke:#517fae;stroke-width:0.94px;"/><path d="M66.565,97.752l36.394,62.425" style="fill:none;stroke:#517fae;stroke-width:0.94px;"/></g></g></g><g transform="matrix(1,0,0,0.990309,0,-12.6531)"><g transform="matrix(12.6223,0,0,12.6223,152.996,269.987)"></g><text x="66.836px" y="269.987px" style="font-family:'Geist-Medium', 'Geist';font-weight:500;font-size:12.622px;fill:#dcdcdc;">G0 (P<tspan x="99.199px 108.679px 117.06px 120.14px 126.981px 130.326px 139.932px " y="269.987px 269.987px 269.987px 269.987px 269.987px 269.987px 269.987px ">OSITION</tspan>)</text></g></g><g><path d="M126.362,43.159l-51.5,-29.445" style="fill:none;stroke:#f00;stroke-width:0.94px;"/><path d="M180.599,195.08l-0,-58.89" style="fill:none;stroke:#f00;stroke-width:0.94px;"/></g></g><g id="G1"><g><path d="M261.836,160.106c0,-19.642 -19.26,-52.678 -36.437,-62.499" style="fill:none;stroke:#517fae;stroke-width:0.94px;"/><path d="M321.704,125.876c0,-19.642 -19.26,-52.678 -36.437,-62.499" style="fill:none;stroke:#517fae;stroke-width:0.94px;"/><path d="M285.267,63.377l-51.561,-29.48" style="fill:none;stroke:#517fae;stroke-width:0.94px;"/><path d="M173.838,68.126l59.868,-34.229" style="fill:none;stroke:#517fae;stroke-width:0.94px;"/><path d="M225.399,97.607l-51.561,-29.481" style="fill:none;stroke:#517fae;stroke-width:0.94px;"/><path d="M261.836,219.067l0,-58.961" style="fill:none;stroke:#517fae;stroke-width:0.94px;"/><path d="M261.836,219.067l59.868,-34.23" style="fill:none;stroke:#517fae;stroke-width:0.94px;"/><path d="M321.704,184.837l0,-58.961" style="fill:none;stroke:#517fae;stroke-width:0.94px;"/><path d="M285.267,63.377l-59.868,34.23" style="fill:none;stroke:#517fae;stroke-width:0.94px;"/><path d="M321.704,125.876l-59.868,34.23" style="fill:none;stroke:#517fae;stroke-width:0.94px;"/></g><g><g><path d="M233.706,33.897l0,-20.429" style="fill:none;stroke:#a3a3a3;stroke-opacity:0.5;stroke-width:0.94px;"/><path d="M239.435,37.172l0,-20.429" style="fill:none;stroke:#a3a3a3;stroke-opacity:0.5;stroke-width:0.94px;"/><path d="M250.893,43.723l0,-20.429" style="fill:none;stroke:#a3a3a3;stroke-opacity:0.5;stroke-width:0.94px;"/><path d="M245.164,40.448l0,-20.429" style="fill:none;stroke:#a3a3a3;stroke-opacity:0.5;stroke-width:0.94px;"/><path d="M256.622,46.999l0,-20.429" style="fill:none;stroke:#a3a3a3;stroke-opacity:0.5;stroke-width:0.94px;"/><path d="M262.351,50.275l0,-20.429" style="fill:none;stroke:#a3a3a3;stroke-opacity:0.5;stroke-width:0.94px;"/><path d="M279.538,60.101l0,-20.429" style="fill:none;stroke:#a3a3a3;stroke-opacity:0.5;stroke-width:0.94px;"/><path d="M268.08,53.55l0,-20.429" style="fill:none;stroke:#a3a3a3;stroke-opacity:0.5;stroke-width:0.94px;"/><path d="M273.809,56.826l0,-20.429" style="fill:none;stroke:#a3a3a3;stroke-opacity:0.5;stroke-width:0.94px;"/><path d="M321.704,132.427l17.865,10.215" style="fill:none;stroke:#a3a3a3;stroke-opacity:0.5;stroke-width:0.94px;"/><path d="M321.704,138.979l17.865,10.214" style="fill:none;stroke:#a3a3a3;stroke-opacity:0.5;stroke-width:0.94px;"/><path d="M321.704,145.53l17.865,10.214" style="fill:none;stroke:#a3a3a3;stroke-opacity:0.5;stroke-width:0.94px;"/><path d="M321.704,152.081l17.865,10.214" style="fill:none;stroke:#a3a3a3;stroke-opacity:0.5;stroke-width:0.94px;"/><path d="M321.704,158.632l17.865,10.214" style="fill:none;stroke:#a3a3a3;stroke-opacity:0.5;stroke-width:0.94px;"/><path d="M321.704,165.183l17.865,10.215" style="fill:none;stroke:#a3a3a3;stroke-opacity:0.5;stroke-width:0.94px;"/><path d="M321.704,171.734l17.865,10.215" style="fill:none;stroke:#a3a3a3;stroke-opacity:0.5;stroke-width:0.94px;"/><path d="M321.704,178.286l17.865,10.214" style="fill:none;stroke:#a3a3a3;stroke-opacity:0.5;stroke-width:0.94px;"/><path d="M321.704,184.837l17.865,10.214" style="fill:none;stroke:#a3a3a3;stroke-opacity:0.5;stroke-width:0.94px;"/><path d="M320.928,118.388l35.954,10.461" style="fill:none;stroke:#a3a3a3;stroke-opacity:0.5;stroke-width:0.94px;"/><path d="M318.863,110.505l27.538,1.319" style="fill:none;stroke:#a3a3a3;stroke-opacity:0.5;stroke-width:0.94px;"/><path d="M315.833,102.565l21.226,-3.908" style="fill:none;stroke:#a3a3a3;stroke-opacity:0.5;stroke-width:0.94px;"/><path d="M312.054,94.756l17.087,-7.374" style="fill:none;stroke:#a3a3a3;stroke-opacity:0.5;stroke-width:0.94px;"/><path d="M307.657,87.213l14.995,-10.969" style="fill:none;stroke:#a3a3a3;stroke-opacity:0.5;stroke-width:0.94px;"/><path d="M302.718,80.068l14.039,-16.261" style="fill:none;stroke:#a3a3a3;stroke-opacity:0.5;stroke-width:0.94px;"/><path d="M297.288,73.499l12.626,-24.296" style="fill:none;stroke:#a3a3a3;stroke-opacity:0.5;stroke-width:0.94px;"/><path d="M291.427,67.786l8.835,-36.085" style="fill:none;stroke:#a3a3a3;stroke-opacity:0.5;stroke-width:0.94px;"/><path d="M285.267,63.377l0,-53.115" style="fill:none;stroke:#a3a3a3;stroke-opacity:0.5;stroke-width:0.94px;"/></g><path d="M321.704,125.876l46.45,26.558" style="fill:none;stroke:#a3a3a3;stroke-opacity:0.5;stroke-width:0.94px;"/></g><path d="M285.267,42.948l-51.561,-29.48" style="fill:none;stroke:#f00;stroke-width:0.94px;"/><path d="M339.569,195.051l0,-58.961" style="fill:none;stroke:#f00;stroke-width:0.94px;"/><path d="M368.154,152.434c-15.318,-37.249 -31.771,-52.251 -42.422,-70.534c-10.65,-18.283 -15.497,-39.847 -40.465,-71.638" style="fill:none;stroke:#f00;stroke-width:0.94px;"/><g transform="matrix(1,0,0,0.990309,0,-12.6531)"><g transform="matrix(12.6223,0,0,12.6223,319.054,269.987)"></g><text x="238.22px" y="269.987px" style="font-family:'Geist-Medium', 'Geist';font-weight:500;font-size:12.622px;fill:#dcdcdc;">G1 (T<tspan x="265.068px 273.487px 282.702px 291.701px 299.275px 308.224px " y="269.987px 269.987px 269.987px 269.987px 269.987px 269.987px ">ANGENT</tspan>)</text></g></g><g id="G2"><g><path d="M414.052,34.118l-0,-20.404" style="fill:none;stroke:#a3a3a3;stroke-opacity:0.5;stroke-width:0.94px;"/><path d="M419.774,37.39l-0,-20.405" style="fill:none;stroke:#a3a3a3;stroke-opacity:0.5;stroke-width:0.94px;"/><path d="M519.788,142.733l-17.843,-10.202" style="fill:none;stroke:#a3a3a3;stroke-opacity:0.5;stroke-width:0.94px;"/><path d="M519.788,149.277l-17.843,-10.203" style="fill:none;stroke:#a3a3a3;stroke-opacity:0.5;stroke-width:0.94px;"/><path d="M519.788,155.82l-17.843,-10.202" style="fill:none;stroke:#a3a3a3;stroke-opacity:0.5;stroke-width:0.94px;"/><path d="M519.788,162.363l-17.843,-10.202" style="fill:none;stroke:#a3a3a3;stroke-opacity:0.5;stroke-width:0.94px;"/><path d="M519.788,168.907l-17.843,-10.203" style="fill:none;stroke:#a3a3a3;stroke-opacity:0.5;stroke-width:0.94px;"/><path d="M519.788,175.45l-17.843,-10.202" style="fill:none;stroke:#a3a3a3;stroke-opacity:0.5;stroke-width:0.94px;"/><path d="M519.788,181.993l-17.843,-10.202" style="fill:none;stroke:#a3a3a3;stroke-opacity:0.5;stroke-width:0.94px;"/><path d="M519.788,188.537l-17.843,-10.203" style="fill:none;stroke:#a3a3a3;stroke-opacity:0.5;stroke-width:0.94px;"/><path d="M519.788,195.08l-17.843,-10.202" style="fill:none;stroke:#a3a3a3;stroke-opacity:0.5;stroke-width:0.94px;"/><path d="M501.687,118.477l33.473,14.865" style="fill:none;stroke:#a3a3a3;stroke-opacity:0.5;stroke-width:0.94px;"/><path d="M500.321,110.503l35.415,6.811" style="fill:none;stroke:#a3a3a3;stroke-opacity:0.5;stroke-width:0.94px;"/><path d="M497.676,102.28l31.516,-2.726" style="fill:none;stroke:#a3a3a3;stroke-opacity:0.5;stroke-width:0.94px;"/><path d="M493.971,94.138l27.358,-10.751" style="fill:none;stroke:#a3a3a3;stroke-opacity:0.5;stroke-width:0.94px;"/><path d="M489.417,86.326l23.425,-18.357" style="fill:none;stroke:#a3a3a3;stroke-opacity:0.5;stroke-width:0.94px;"/><path d="M484.149,79.078l18.975,-26.845" style="fill:none;stroke:#a3a3a3;stroke-opacity:0.5;stroke-width:0.94px;"/><path d="M478.281,72.698l12.667,-36.413" style="fill:none;stroke:#a3a3a3;stroke-opacity:0.5;stroke-width:0.94px;"/><path d="M471.991,67.539l4.079,-39.455" style="fill:none;stroke:#a3a3a3;stroke-opacity:0.5;stroke-width:0.94px;"/><path d="M501.945,125.988l17.843,10.202" style="fill:none;stroke:#a3a3a3;stroke-opacity:0.5;stroke-width:0.94px;"/><path d="M465.551,63.563l0,-20.404" style="fill:none;stroke:#a3a3a3;stroke-opacity:0.5;stroke-width:0.94px;"/><path d="M459.829,60.292l0,-20.405" style="fill:none;stroke:#a3a3a3;stroke-opacity:0.5;stroke-width:0.94px;"/><path d="M454.107,57.02l-0,-20.404" style="fill:none;stroke:#a3a3a3;stroke-opacity:0.5;stroke-width:0.94px;"/><path d="M448.385,53.748l-0,-20.404" style="fill:none;stroke:#a3a3a3;stroke-opacity:0.5;stroke-width:0.94px;"/><path d="M442.663,50.477l-0,-20.405" style="fill:none;stroke:#a3a3a3;stroke-opacity:0.5;stroke-width:0.94px;"/><path d="M436.94,47.205l0,-20.405" style="fill:none;stroke:#a3a3a3;stroke-opacity:0.5;stroke-width:0.94px;"/><path d="M431.218,43.933l0,-20.404" style="fill:none;stroke:#a3a3a3;stroke-opacity:0.5;stroke-width:0.94px;"/><path d="M425.496,40.662l0,-20.405" style="fill:none;stroke:#a3a3a3;stroke-opacity:0.5;stroke-width:0.94px;"/></g><g><path d="M519.788,195.08l0,-58.89" style="fill:none;stroke:#f00;stroke-width:0.94px;"/><path d="M465.551,43.159c2.298,-8.13 5.123,-12.426 8.243,-14.218" style="fill:none;stroke:#f00;stroke-width:0.94px;"/><path d="M473.794,28.941c3.152,-1.796 6.608,-1.035 10.209,1.281c3.602,2.325 7.353,6.211 11.14,10.947c3.787,4.744 7.612,10.344 11.37,16.308c3.756,5.969 7.448,12.308 10.94,18.669c3.489,6.363 6.78,12.754 9.672,18.895c2.887,6.141 5.377,12.038 7.163,17.411c1.781,5.37 2.861,10.221 2.79,14.196c-0.076,3.969 -1.3,7.068 -4.297,8.787" style="fill:none;stroke:#f00;stroke-width:0.94px;"/><path d="M532.781,135.435c-2.698,1.538 -6.828,1.963 -12.993,0.755" style="fill:none;stroke:#f00;stroke-width:0.94px;"/><path d="M465.551,43.159l-51.499,-29.445" style="fill:none;stroke:#f00;stroke-width:0.94px;"/></g><g><path d="M405.755,97.752l-51.5,-29.445" style="fill:none;stroke:#517fae;stroke-width:0.94px;"/><path d="M465.551,63.563l-51.499,-29.445" style="fill:none;stroke:#517fae;stroke-width:0.94px;"/><path d="M354.255,68.307l59.797,-34.189" style="fill:none;stroke:#517fae;stroke-width:0.94px;"/><path d="M501.945,184.878l-0,-58.89" style="fill:none;stroke:#517fae;stroke-width:0.94px;"/><path d="M442.148,219.067l0,-58.89" style="fill:none;stroke:#517fae;stroke-width:0.94px;"/><path d="M442.148,219.067l59.797,-34.189" style="fill:none;stroke:#517fae;stroke-width:0.94px;"/><path d="M465.551,63.563c2.143,1.222 4.297,2.47 6.511,4.026c2.21,1.549 4.477,3.402 6.756,5.626c2.277,2.219 4.564,4.805 6.762,7.676c2.198,2.869 4.305,6.018 6.21,9.287c1.906,3.267 3.606,6.649 5.016,9.968c1.412,3.322 2.53,6.575 3.332,9.638c0.805,3.067 1.292,5.937 1.541,8.607c0.255,2.677 0.269,5.148 0.266,7.597" style="fill:none;stroke:#517fae;stroke-width:0.94px;"/><path d="M442.148,160.177l59.797,-34.189" style="fill:none;stroke:#517fae;stroke-width:0.94px;"/><path d="M405.755,97.752c2.142,1.222 4.297,2.469 6.51,4.026c2.211,1.549 4.478,3.402 6.757,5.626c2.277,2.219 4.563,4.805 6.762,7.676c2.198,2.869 4.305,6.018 6.209,9.286c1.906,3.268 3.607,6.65 5.016,9.969c1.412,3.321 2.53,6.575 3.332,9.638c0.806,3.066 1.293,5.937 1.542,8.607c0.254,2.677 0.268,5.148 0.265,7.597" style="fill:none;stroke:#517fae;stroke-width:0.94px;"/><path d="M405.755,97.752l59.796,-34.189" style="fill:none;stroke:#517fae;stroke-width:0.94px;"/></g><g transform="matrix(1,0,0,0.990309,2.27374e-13,-12.6531)"><g transform="matrix(12.6223,0,0,12.6223,507.318,269.987)"></g><text x="407.046px" y="269.987px" style="font-family:'Geist-Medium', 'Geist';font-weight:500;font-size:12.622px;fill:#dcdcdc;">G2 (<tspan x="430.536px 439.536px 448.485px 456.437px 463.745px 471.268px 478.438px 487.387px " y="269.987px 269.987px 269.987px 269.987px 269.987px 269.987px 269.987px 269.987px ">CURVATUR</tspan>E)</text></g></g><g id="G3"><g><g><path d="M654.308,47.337l0,16.22" style="fill:none;stroke:#a3a3a3;stroke-opacity:0.5;stroke-width:1px;"/><path d="M648.623,44.086l-0,16.22" style="fill:none;stroke:#a3a3a3;stroke-opacity:0.5;stroke-width:1px;"/><path d="M642.937,40.835l-0,16.22" style="fill:none;stroke:#a3a3a3;stroke-opacity:0.5;stroke-width:1px;"/><path d="M637.251,37.585l-0,16.219" style="fill:none;stroke:#a3a3a3;stroke-opacity:0.5;stroke-width:1px;"/><path d="M631.565,34.334l0,16.219" style="fill:none;stroke:#a3a3a3;stroke-opacity:0.5;stroke-width:1px;"/><path d="M625.879,31.083l0,16.22" style="fill:none;stroke:#a3a3a3;stroke-opacity:0.5;stroke-width:1px;"/><path d="M620.194,27.832l-0,16.22" style="fill:none;stroke:#a3a3a3;stroke-opacity:0.5;stroke-width:1px;"/><path d="M614.508,24.581l-0,16.22" style="fill:none;stroke:#a3a3a3;stroke-opacity:0.5;stroke-width:1px;"/><path d="M608.822,21.33l-0,16.22" style="fill:none;stroke:#a3a3a3;stroke-opacity:0.5;stroke-width:1px;"/><path d="M603.136,18.079l0,16.22" style="fill:none;stroke:#a3a3a3;stroke-opacity:0.5;stroke-width:1px;"/><path d="M734.364,82.307l-48.415,10.056" style="fill:none;stroke:#a3a3a3;stroke-opacity:0.5;stroke-width:1px;"/><path d="M714.101,47.552l-33.001,36.494" style="fill:none;stroke:#a3a3a3;stroke-opacity:0.5;stroke-width:1px;"/><path d="M687.747,34.944l-12.881,42.234" style="fill:none;stroke:#a3a3a3;stroke-opacity:0.5;stroke-width:1px;"/><path d="M671.221,37.885l-3.127,33.978" style="fill:none;stroke:#a3a3a3;stroke-opacity:0.5;stroke-width:1px;"/><path d="M661.502,45.464l-0.295,22.068" style="fill:none;stroke:#a3a3a3;stroke-opacity:0.5;stroke-width:1px;"/><path d="M709.89,128.462l-19.447,-10.781" style="fill:none;stroke:#a3a3a3;stroke-opacity:0.5;stroke-width:1px;"/><path d="M721.377,123.916l-31.277,-14.308" style="fill:none;stroke:#a3a3a3;stroke-opacity:0.5;stroke-width:1px;"/><path d="M732.212,111.213l-43.374,-10.07" style="fill:none;stroke:#a3a3a3;stroke-opacity:0.5;stroke-width:1px;"/><path d="M704.655,133.695l-14.184,-8.11" style="fill:none;stroke:#a3a3a3;stroke-opacity:0.5;stroke-width:1px;"/><path d="M704.655,192.211l-14.184,-8.11" style="fill:none;stroke:#a3a3a3;stroke-opacity:0.5;stroke-width:1px;"/><path d="M704.655,185.709l-14.184,-8.11" style="fill:none;stroke:#a3a3a3;stroke-opacity:0.5;stroke-width:1px;"/><path d="M704.655,179.207l-14.184,-8.11" style="fill:none;stroke:#a3a3a3;stroke-opacity:0.5;stroke-width:1px;"/><path d="M704.655,172.705l-14.184,-8.11" style="fill:none;stroke:#a3a3a3;stroke-opacity:0.5;stroke-width:1px;"/><path d="M704.655,166.204l-14.184,-8.11" style="fill:none;stroke:#a3a3a3;stroke-opacity:0.5;stroke-width:1px;"/><path d="M704.655,159.702l-14.184,-8.11" style="fill:none;stroke:#a3a3a3;stroke-opacity:0.5;stroke-width:1px;"/><path d="M704.655,153.2l-14.184,-8.11" style="fill:none;stroke:#a3a3a3;stroke-opacity:0.5;stroke-width:1px;"/><path d="M704.655,146.698l-14.184,-8.11" style="fill:none;stroke:#a3a3a3;stroke-opacity:0.5;stroke-width:1px;"/><path d="M704.655,140.196l-14.184,-8.11" style="fill:none;stroke:#a3a3a3;stroke-opacity:0.5;stroke-width:1px;"/></g><g><path d="M690.471,184.101l-0,-58.516" style="fill:none;stroke:#517fae;stroke-width:1px;"/><path d="M631.054,218.073l0,-58.517" style="fill:none;stroke:#517fae;stroke-width:1px;"/><path d="M631.054,218.073l59.417,-33.972" style="fill:none;stroke:#517fae;stroke-width:1px;"/><path d="M631.054,159.556c-0.003,-3.15 0.012,-6.299 -0.054,-9.464c-0.068,-3.165 -0.228,-6.353 -0.633,-9.546c-0.403,-3.191 -1.056,-6.386 -2.049,-9.503c-0.989,-3.117 -2.319,-6.151 -3.981,-8.998c-1.659,-2.849 -3.647,-5.506 -5.878,-7.913c-2.23,-2.411 -4.697,-4.568 -7.286,-6.509c-2.59,-1.944 -5.298,-3.675 -8.031,-5.316c-2.736,-1.639 -5.496,-3.201 -8.25,-4.778" style="fill:none;stroke:#517fae;stroke-width:1px;"/><path d="M690.471,125.585c-0.003,-3.151 0.011,-6.299 -0.054,-9.465c-0.068,-3.164 -0.229,-6.352 -0.633,-9.545c-0.403,-3.191 -1.056,-6.386 -2.049,-9.504c-0.99,-3.116 -2.319,-6.15 -3.981,-8.998c-1.659,-2.849 -3.648,-5.506 -5.879,-7.913c-2.229,-2.41 -4.697,-4.568 -7.286,-6.509c-2.59,-1.944 -5.297,-3.675 -8.031,-5.316c-2.735,-1.639 -5.496,-3.201 -8.25,-4.778" style="fill:none;stroke:#517fae;stroke-width:1px;"/><path d="M594.892,97.529l-51.172,-29.258" style="fill:none;stroke:#517fae;stroke-width:1px;"/><path d="M654.308,63.557l-51.172,-29.258" style="fill:none;stroke:#517fae;stroke-width:1px;"/><path d="M543.72,68.271l59.416,-33.972" style="fill:none;stroke:#517fae;stroke-width:1px;"/><path d="M690.471,125.585l-59.417,33.971" style="fill:none;stroke:#517fae;stroke-width:1px;"/><path d="M654.308,63.557l-59.416,33.972" style="fill:none;stroke:#517fae;stroke-width:1px;"/></g></g><g><path d="M654.308,47.337l-51.172,-29.258" style="fill:none;stroke:#f00;stroke-width:1px;"/><path d="M706.94,129.611c0.736,-0.421 1.623,-0.741 2.621,-1.049c0.998,-0.308 2.105,-0.603 3.282,-0.954c2.354,-0.695 4.98,-1.628 7.56,-3.108" style="fill:none;stroke:#f00;stroke-width:1px;"/><path d="M720.403,124.5c1.709,-0.977 3.399,-2.186 4.986,-3.658c1.587,-1.47 3.072,-3.204 4.385,-5.194c1.313,-1.988 2.454,-4.233 3.367,-6.7c0.914,-2.467 1.601,-5.154 2.022,-8.008c0.849,-5.705 0.616,-12.084 -0.782,-18.551c-1.387,-6.466 -3.935,-13.007 -7.439,-19.009c-3.497,-6.006 -7.943,-11.462 -12.904,-15.885c-4.957,-4.432 -10.418,-7.821 -15.831,-9.946c-2.707,-1.065 -5.401,-1.82 -8.014,-2.269c-2.614,-0.45 -5.148,-0.595 -7.544,-0.463c-2.396,0.131 -4.654,0.538 -6.734,1.164c-2.081,0.625 -3.983,1.47 -5.692,2.448" style="fill:none;stroke:#f00;stroke-width:1px;"/><path d="M670.223,38.429c-2.584,1.472 -4.713,3.258 -6.498,4.929c-0.895,0.834 -1.707,1.636 -2.475,2.338c-0.768,0.701 -1.492,1.302 -2.228,1.723" style="fill:none;stroke:#f00;stroke-width:1px;"/><path d="M704.655,192.211l-0,-58.516" style="fill:none;stroke:#f00;stroke-width:1px;"/><path d="M704.655,133.695c0.086,-2.202 0.926,-3.302 2.285,-4.084" style="fill:none;stroke:#f00;stroke-width:1px;"/><path d="M659.022,47.419c-1.363,0.774 -2.745,0.945 -4.714,-0.082" style="fill:none;stroke:#f00;stroke-width:1px;"/></g><g transform="matrix(1,0,0,0.990309,0,-12.6531)"><g transform="matrix(12.6223,0,0,12.6223,711.256,269.987)"></g><text x="590.486px" y="269.987px" style="font-family:'Geist-Medium', 'Geist';font-weight:500;font-size:12.622px;fill:#dcdcdc;">G3 (A<tspan x="622.37px " y="269.987px ">C</tspan>CEL<tspan x="654.834px 662.42px 670.877px 678.4px 685.241px 688.586px 698.192px " y="269.987px 269.987px 269.987px 269.987px 269.987px 269.987px 269.987px ">ERATION</tspan>)</text></g></g><g transform="matrix(1,0,0,0.990309,0,-18.1788)"><text x="768.653px" y="234.03px" style="font-family:'Geist-Medium', 'Geist';font-weight:500;font-size:10px;fill:#dcdcdc;">CO<tspan x="783.393px 790.484px 795.904px 798.524px 806.124px 813.215px 815.655px " y="234.03px 234.03px 234.03px 234.03px 234.03px 234.03px 234.03px ">NTINUIT</tspan>Y P<tspan x="836.156px 842.806px 850.416px 856.187px 858.987px 864.377px " y="234.03px 234.03px 234.03px 234.03px 234.03px 234.03px ">ROFILE</tspan></text></g><g><g id="Continuity-Diference" serif:id="Continuity Diference"><g><g><path d="M797.963,49.779l-42.116,-0" style="fill:none;stroke:#dcdcdc;stroke-opacity:0.5;stroke-width:1.86px;"/><path d="M886.804,191.294l0,-53.535" style="fill:none;stroke:#dcdcdc;stroke-opacity:0.5;stroke-width:1.87px;"/><path d="M797.963,49.779l88.841,87.98" style="fill:none;stroke:#0d28f2;stroke-width:1.87px;"/></g><g><path d="M797.963,49.779c5.23,-0.007 10.489,0.027 15.893,0.642c5.396,0.602 10.929,1.779 16.493,3.727c5.559,1.938 11.14,4.641 16.507,8.054c5.365,3.407 10.509,7.519 15.159,12.126c4.652,4.605 8.804,9.699 12.244,15.012c3.447,5.315 6.176,10.842 8.134,16.347c1.966,5.51 3.155,10.99 3.763,16.333c0.621,5.352 0.655,10.56 0.648,15.739" style="fill:none;stroke:#43f20d;stroke-width:1.87px;"/></g><g><path d="M886.804,137.759c0,-41.475 -46.96,-87.98 -88.841,-87.98" style="fill:none;stroke:#f20d0d;stroke-width:1.87px;"/></g><path d="M886.803,137.758c0.003,-3.352 -0,-6.703 -0.009,-10.052c-0.012,-3.348 -0.04,-6.693 -0.124,-10.019c-0.166,-6.651 -0.56,-13.237 -1.555,-19.538c-0.99,-6.299 -2.594,-12.302 -5.033,-17.727c-2.431,-5.427 -5.697,-10.265 -9.78,-14.301c-4.076,-4.044 -8.961,-7.279 -14.441,-9.686c-5.478,-2.415 -11.54,-4.004 -17.901,-4.984c-6.362,-0.985 -13.014,-1.376 -19.729,-1.54c-3.359,-0.083 -6.737,-0.111 -10.118,-0.122c-3.382,-0.009 -6.765,-0.012 -10.15,-0.01" style="fill:none;stroke:#ff00c5;stroke-width:1.87px;"/></g></g><g><g transform="matrix(1,0,0,0.990309,0,-18.8385)"><g transform="matrix(10.0433,0,0,10.0433,786.681,165.95)"></g><text x="770.481px" y="165.95px" style="font-family:'Geist-Regular', 'Geist';font-size:10.043px;fill:#dcdcdc;">G0</text></g><g transform="matrix(1,0,0,0.990309,0,-18.6997)"><g transform="matrix(10.0433,0,0,10.0433,783.879,180.276)"></g><text x="770.481px" y="180.276px" style="font-family:'Geist-Regular', 'Geist';font-size:10.043px;fill:#dcdcdc;">G1</text></g><g transform="matrix(1,0,0,0.990309,0,-18.5609)"><g transform="matrix(10.0433,0,0,10.0433,786.239,194.601)"></g><text x="770.481px" y="194.601px" style="font-family:'Geist-Regular', 'Geist';font-size:10.043px;fill:#dcdcdc;">G2</text></g><g transform="matrix(1,0,0,0.990309,0,-18.422)"><g transform="matrix(10.0433,0,0,10.0433,786.179,208.926)"></g><text x="770.481px" y="208.926px" style="font-family:'Geist-Regular', 'Geist';font-size:10.043px;fill:#dcdcdc;">G3</text></g><path d="M767.719,136.262l-0,11.422c-0,0.35 -0.284,0.634 -0.635,0.634l-11.546,0c-0.35,0 -0.634,-0.284 -0.634,-0.634l-0,-11.422c-0,-0.35 0.284,-0.635 0.634,-0.635l11.546,0c0.351,0 0.635,0.285 0.635,0.635Z" style="fill:#0d28f2;"/><path d="M767.719,150.587l-0,11.422c-0,0.35 -0.284,0.635 -0.635,0.635l-11.546,-0c-0.35,-0 -0.634,-0.285 -0.634,-0.635l-0,-11.422c-0,-0.35 0.284,-0.635 0.634,-0.635l11.546,0c0.351,0 0.635,0.285 0.635,0.635Z" style="fill:#f00;"/><path d="M767.719,164.912l-0,11.422c-0,0.35 -0.284,0.635 -0.635,0.635l-11.546,-0c-0.35,-0 -0.634,-0.285 -0.634,-0.635l-0,-11.422c-0,-0.35 0.284,-0.634 0.634,-0.634l11.546,-0c0.351,-0 0.635,0.284 0.635,0.634Z" style="fill:#43f20d;"/><path d="M767.719,179.238l-0,11.422c-0,0.35 -0.284,0.634 -0.635,0.634l-11.546,0c-0.35,0 -0.634,-0.284 -0.634,-0.634l-0,-11.422c-0,-0.351 0.284,-0.635 0.634,-0.635l11.546,-0c0.351,-0 0.635,0.284 0.635,0.635Z" style="fill:#ff00c5;"/></g></g></g></svg>