<?xml version="1.0" encoding="UTF-8" standalone="no"?><!DOCTYPE svg PUBLIC "-//W3C//DTD SVG 1.1//EN" "http://www.w3.org/Graphics/SVG/1.1/DTD/svg11.dtd"><svg width="100%" height="100%" viewBox="0 0 901 353" version="1.1" xmlns="http://www.w3.org/2000/svg" xmlns:xlink="http://www.w3.org/1999/xlink" xml:space="preserve" xmlns:serif="http://www.serif.com/" style="fill-rule:evenodd;clip-rule:evenodd;stroke-linecap:round;stroke-linejoin:bevel;"><g id="Curvature-Comb" serif:id="Curvature Comb"><g><g><path d="M16.994,196.726l12.668,27.862" style="fill:none;stroke:#a3a3a3;stroke-opacity:0.5;stroke-width:1.67px;"/></g><g><path d="M28.218,190.932l12.575,28.274" style="fill:none;stroke:#a3a3a3;stroke-opacity:0.5;stroke-width:1.67px;"/></g><g><path d="M39.466,185.151l12.502,28.767" style="fill:none;stroke:#a3a3a3;stroke-opacity:0.5;stroke-width:1.67px;"/></g><g><path d="M50.743,179.384l12.445,29.343" style="fill:none;stroke:#a3a3a3;stroke-opacity:0.5;stroke-width:1.67px;"/></g><g><path d="M62.05,173.631l12.405,30.006" style="fill:none;stroke:#a3a3a3;stroke-opacity:0.5;stroke-width:1.67px;"/></g><g><path d="M73.391,167.893l12.377,30.758" style="fill:none;stroke:#a3a3a3;stroke-opacity:0.5;stroke-width:1.67px;"/></g><g><path d="M84.769,162.173l12.36,31.601" style="fill:none;stroke:#a3a3a3;stroke-opacity:0.5;stroke-width:1.67px;"/></g><g><path d="M96.189,156.471l12.348,32.54" style="fill:none;stroke:#a3a3a3;stroke-opacity:0.5;stroke-width:1.67px;"/></g><g><path d="M107.655,150.789l12.339,33.576" style="fill:none;stroke:#a3a3a3;stroke-opacity:0.5;stroke-width:1.67px;"/></g><g><path d="M119.17,145.128l12.33,34.715" style="fill:none;stroke:#a3a3a3;stroke-opacity:0.5;stroke-width:1.67px;"/></g><g><path d="M130.741,139.491l12.315,35.957" style="fill:none;stroke:#a3a3a3;stroke-opacity:0.5;stroke-width:1.67px;"/></g><g><path d="M142.374,133.879l12.287,37.309" style="fill:none;stroke:#a3a3a3;stroke-opacity:0.5;stroke-width:1.67px;"/></g><g><path d="M165.844,122.738l12.18,40.354" style="fill:none;stroke:#a3a3a3;stroke-opacity:0.5;stroke-width:1.67px;"/></g><g><path d="M154.072,128.294l12.246,38.773" style="fill:none;stroke:#a3a3a3;stroke-opacity:0.5;stroke-width:1.67px;"/></g><g><path d="M177.697,117.215l12.085,42.056" style="fill:none;stroke:#a3a3a3;stroke-opacity:0.5;stroke-width:1.67px;"/></g><g><path d="M189.638,111.726l11.952,43.884" style="fill:none;stroke:#a3a3a3;stroke-opacity:0.5;stroke-width:1.67px;"/></g><g><path d="M201.677,106.276l11.772,45.841" style="fill:none;stroke:#a3a3a3;stroke-opacity:0.5;stroke-width:1.67px;"/></g><g><path d="M213.823,100.868l11.536,47.932" style="fill:none;stroke:#a3a3a3;stroke-opacity:0.5;stroke-width:1.67px;"/></g><g><path d="M226.088,95.507l11.232,50.162" style="fill:none;stroke:#a3a3a3;stroke-opacity:0.5;stroke-width:1.67px;"/></g><g><path d="M238.483,90.197l10.846,52.537" style="fill:none;stroke:#a3a3a3;stroke-opacity:0.5;stroke-width:1.67px;"/></g><g><path d="M263.718,79.754l9.774,57.737" style="fill:none;stroke:#a3a3a3;stroke-opacity:0.5;stroke-width:1.67px;"/></g><g><path d="M251.021,84.943l10.365,55.061" style="fill:none;stroke:#a3a3a3;stroke-opacity:0.5;stroke-width:1.67px;"/></g><g><path d="M276.591,74.637l9.05,60.57" style="fill:none;stroke:#a3a3a3;stroke-opacity:0.5;stroke-width:1.67px;"/></g><g><path d="M289.658,69.602l8.176,63.562" style="fill:none;stroke:#a3a3a3;stroke-opacity:0.5;stroke-width:1.67px;"/></g><g><path d="M344.321,50.556l2.646,77.153" style="fill:none;stroke:#a3a3a3;stroke-opacity:0.5;stroke-width:1.67px;"/></g><g><path d="M330.244,55.117l4.395,73.516" style="fill:none;stroke:#a3a3a3;stroke-opacity:0.5;stroke-width:1.67px;"/></g><g><path d="M316.46,59.826l5.877,70.036" style="fill:none;stroke:#a3a3a3;stroke-opacity:0.5;stroke-width:1.67px;"/></g><g><path d="M302.94,64.66l7.127,66.718" style="fill:none;stroke:#a3a3a3;stroke-opacity:0.5;stroke-width:1.67px;"/></g><g><path d="M373.479,41.989l-1.804,84.86" style="fill:none;stroke:#a3a3a3;stroke-opacity:0.5;stroke-width:1.67px;"/></g><g><path d="M358.721,46.168l0.594,80.939" style="fill:none;stroke:#a3a3a3;stroke-opacity:0.5;stroke-width:1.67px;"/></g><g><path d="M404.215,34.435l-7.825,93.012" style="fill:none;stroke:#a3a3a3;stroke-opacity:0.5;stroke-width:1.67px;"/></g><g><path d="M388.631,38.06l-4.594,88.894" style="fill:none;stroke:#a3a3a3;stroke-opacity:0.5;stroke-width:1.67px;"/></g><g><path d="M453.921,26.164l-20.682,105.332" style="fill:none;stroke:#a3a3a3;stroke-opacity:0.5;stroke-width:1.67px;"/></g><g><path d="M436.827,28.39l-15.818,101.302" style="fill:none;stroke:#a3a3a3;stroke-opacity:0.5;stroke-width:1.67px;"/></g><g><path d="M420.269,31.184l-11.55,97.167" style="fill:none;stroke:#a3a3a3;stroke-opacity:0.5;stroke-width:1.67px;"/></g><g><path d="M508.483,24.37l-39.162,115.592" style="fill:none;stroke:#a3a3a3;stroke-opacity:0.5;stroke-width:1.67px;"/></g><g><path d="M489.764,23.976l-32.34,112.627" style="fill:none;stroke:#a3a3a3;stroke-opacity:0.5;stroke-width:1.67px;"/></g><g><path d="M471.567,24.638l-26.181,109.153" style="fill:none;stroke:#a3a3a3;stroke-opacity:0.5;stroke-width:1.67px;"/></g><g><path d="M527.654,26.038l-46.613,117.856" style="fill:none;stroke:#a3a3a3;stroke-opacity:0.5;stroke-width:1.67px;"/></g><g><path d="M605.726,49.808l-80.468,115.986" style="fill:none;stroke:#a3a3a3;stroke-opacity:0.5;stroke-width:1.67px;"/></g><g><path d="M586.431,40.947l-71.727,118.411" style="fill:none;stroke:#a3a3a3;stroke-opacity:0.5;stroke-width:1.67px;"/></g><g><path d="M566.824,34.121l-63.043,119.451" style="fill:none;stroke:#a3a3a3;stroke-opacity:0.5;stroke-width:1.67px;"/></g><g><path d="M547.158,29.214l-54.615,119.209" style="fill:none;stroke:#a3a3a3;stroke-opacity:0.5;stroke-width:1.67px;"/></g><g><path d="M690.021,122.056l-119.619,85.518" style="fill:none;stroke:#a3a3a3;stroke-opacity:0.5;stroke-width:1.67px;"/></g><g><path d="M675.234,104.516l-112.648,93.482" style="fill:none;stroke:#a3a3a3;stroke-opacity:0.5;stroke-width:1.67px;"/></g><g><path d="M659.343,88.281l-105.235,100.723" style="fill:none;stroke:#a3a3a3;stroke-opacity:0.5;stroke-width:1.67px;"/></g><g><path d="M642.382,73.606l-97.362,107.019" style="fill:none;stroke:#a3a3a3;stroke-opacity:0.5;stroke-width:1.67px;"/></g><g><path d="M624.452,60.723l-89.069,112.161" style="fill:none;stroke:#a3a3a3;stroke-opacity:0.5;stroke-width:1.67px;"/></g><g><path d="M703.731,140.668l-126.227,77.022" style="fill:none;stroke:#a3a3a3;stroke-opacity:0.5;stroke-width:1.67px;"/></g><path d="M716.429,160.156l-132.58,68.142" style="fill:none;stroke:#a3a3a3;stroke-opacity:0.5;stroke-width:1.67px;"/></g><g><path d="M718.946,196.883l14.754,-15.086l-20.855,3.216l6.101,11.87Z" style="fill:#0d79f2;"/><path d="M618.521,248.498l-20.855,3.216l14.754,-15.085l6.101,11.869Z" style="fill:#0d79f2;"/><path d="M719.457,189.118c-26.127,13.428 -81.421,41.847 -107.548,55.276" style="fill:none;stroke:#0d79f2;stroke-width:2.62px;"/></g><g><g><g><path d="M16.994,196.726c356.212,-184.244 563.848,-257.025 699.435,-36.57" style="fill:none;stroke:#f20d0d;stroke-width:2.62px;"/><path d="M29.662,224.588c325.666,-159.122 497.75,-98.985 554.187,3.71" style="fill:none;stroke:#989898;stroke-width:2.62px;"/></g></g></g><g transform="matrix(16.4289,0,0,16.4289,887.582,252.536)"></g><text x="692.013px" y="252.536px" style="font-family:'Geist-Medium', 'Geist';font-weight:500;font-size:16.429px;fill:#dcdcdc;">CU<tspan x="715.375px 725.725px 735.237px 745.029px 754.36px 766.008px " y="252.536px 252.536px 252.536px 252.536px 252.536px 252.536px ">RVATUR</tspan>E = 1 / R<tspan x="837.885px 848.843px 860.589px 865.436px " y="252.536px 252.536px 252.536px 252.536px ">ADIU</tspan>S</text><g transform="matrix(16.4289,0,0,16.4289,188.911,35.8898)"></g><text x="43.992px" y="35.89px" style="font-family:'Geist-Medium', 'Geist';font-weight:500;font-size:16.429px;fill:#dcdcdc;">CU<tspan x="67.354px 77.704px 87.216px 97.008px 106.339px 117.987px " y="35.89px 35.89px 35.89px 35.89px 35.89px 35.89px ">RVATUR</tspan>E F<tspan x="152.472px 161.261px 173.008px " y="35.89px 35.89px 35.89px ">LOW</tspan></text><g transform="matrix(16.4289,0,0,16.4289,886.793,78.6048)"></g><text x="692.013px" y="78.605px" style="font-family:'Geist-Medium', 'Geist';font-weight:500;font-size:16.429px;fill:#dcdcdc;">CU<tspan x="715.375px 725.725px 735.237px 745.029px 754.36px 766.008px " y="78.605px 78.605px 78.605px 78.605px 78.605px 78.605px ">RVATUR</tspan>E M<tspan x="805.635px 816.396px 828.11px 840.053px 844.062px 853.394px 865.042px 876.788px " y="78.605px 78.605px 78.605px 78.605px 78.605px 78.605px 78.605px 78.605px ">AGNITUDE</tspan></text><g transform="matrix(16.4289,0,0,16.4289,383.57,187.629)"></g><text x="245.519px" y="187.629px" style="font-family:'Geist-Medium', 'Geist';font-weight:500;font-size:16.429px;fill:#dcdcdc;">E<tspan x="255.737px 265.25px 276.306px 285.129px 296.251px 306.043px 314.947px 324.821px " y="187.629px 187.629px 187.629px 187.629px 187.629px 187.629px 187.629px 187.629px ">VALUATED</tspan> E<tspan x="350.269px " y="187.629px ">D</tspan>GE</text><path d="M319.337,146.699l-3.125,-9.375l-3.125,9.375l6.25,-0Z" style="fill:#dcdcdc;"/><path d="M316.212,144.824l0,24.043" style="fill:none;stroke:#dcdcdc;stroke-width:2.08px;stroke-linejoin:round;stroke-miterlimit:1.5;"/><path d="M648.904,111.855l-9.375,3.125l9.375,3.125l0,-6.25Z" style="fill:#dcdcdc;"/><path d="M647.029,114.98l63.759,0l29.06,-29.06" style="fill:none;stroke:#dcdcdc;stroke-width:2.08px;stroke-linejoin:round;stroke-miterlimit:1.5;"/><g transform="matrix(15.8349,0,0,15.8349,506.151,263.155)"></g><text x="462.256px" y="263.155px" style="font-family:'Geist-Regular', 'Geist';font-size:15.835px;fill:#dcdcdc;">M<tspan x="475.827px 479.786px " y="263.155px 263.155px ">IN</tspan> R</text><g transform="matrix(15.8349,0,0,15.8349,180.014,317.042)"></g><text x="15.727px" y="317.042px" style="font-family:'Geist-Regular', 'Geist';font-size:15.835px;fill:#dcdcdc;">M<tspan x="29.298px " y="317.042px ">i</tspan>n R = Ma<tspan x="95.567px " y="317.042px ">x</tspan> C<tspan x="119.762px 128.867px 134.473px 142.612px 150.545px " y="317.042px 317.042px 317.042px 317.042px 317.042px ">urvat</tspan>ur<tspan x="171.131px " y="317.042px ">e</tspan></text><g transform="matrix(15.8349,0,0,15.8349,179.824,336.757)"></g><text x="15.537px" y="336.757px" style="font-family:'Geist-Regular', 'Geist';font-size:15.835px;fill:#dcdcdc;">M<tspan x="29.266px 37.579px " y="336.757px 336.757px ">ax</tspan> R = M<tspan x="91.481px " y="336.757px ">i</tspan>n Cur<tspan x="134.283px 142.422px 150.355px " y="336.757px 336.757px 336.757px ">vat</tspan>ur<tspan x="170.941px " y="336.757px ">e</tspan></text><g transform="matrix(15.8349,0,0,15.8349,117.764,262.862)"></g><text x="69.262px" y="262.862px" style="font-family:'Geist-Regular', 'Geist';font-size:15.835px;fill:#dcdcdc;">M<tspan x="82.991px " y="262.862px ">A</tspan>X R</text><path d="M570.749,238.437l6.91,-7.065l-9.767,1.506l2.857,5.559Z" style="fill:#dcdcdc;"/><path d="M570.988,234.8c-13.724,7.054 -43.847,22.536 -43.847,22.536l-14.902,-0" style="fill:none;stroke:#dcdcdc;stroke-width:2.08px;"/><path d="M39.308,238.612l-6.725,-7.24l1.036,9.827l5.689,-2.587Z" style="fill:#dcdcdc;"/><path d="M35.687,238.199c3.524,7.749 8.788,19.327 8.788,19.327l19.015,-0" style="fill:none;stroke:#dcdcdc;stroke-width:2.08px;stroke-linejoin:round;"/><path d="M155.196,109.247l8.839,4.419l-4.42,-8.839l-4.419,4.42Z" style="fill:#dcdcdc;"/><path d="M158.731,108.363c-12.406,-12.407 -42.279,-42.28 -42.279,-42.28l-0,-23.39" style="fill:none;stroke:#dcdcdc;stroke-width:2.08px;stroke-linejoin:round;stroke-miterlimit:1.5;"/></g></svg>