<?xml version="1.0" encoding="UTF-8" standalone="no"?><!DOCTYPE svg PUBLIC "-//W3C//DTD SVG 1.1//EN" "http://www.w3.org/Graphics/SVG/1.1/DTD/svg11.dtd"><svg width="100%" height="100%" viewBox="0 0 501 240" version="1.1" xmlns="http://www.w3.org/2000/svg" xmlns:xlink="http://www.w3.org/1999/xlink" xml:space="preserve" xmlns:serif="http://www.serif.com/" style="fill-rule:evenodd;clip-rule:evenodd;stroke-linecap:round;stroke-linejoin:round;stroke-miterlimit:1.5;"><g><g><path d="M95.598,116.584l12.401,-41.622l68.532,-14.53l99.176,8.94l102.507,91.662l39.795,-73.632" style="fill:none;stroke:#a3a3a3;stroke-opacity:0.5;stroke-width:2.98px;stroke-dasharray:0,5.96,0,0,0,0;"/><path d="M261.983,76.299l10.047,-34.581" style="fill:none;stroke:#a3a3a3;stroke-opacity:0.5;stroke-width:1.2px;stroke-linejoin:bevel;stroke-miterlimit:4;"/><path d="M251.725,73.655l8.271,-36.666" style="fill:none;stroke:#a3a3a3;stroke-opacity:0.5;stroke-width:1.2px;stroke-linejoin:bevel;stroke-miterlimit:4;"/><path d="M241.325,71.634l6.223,-38" style="fill:none;stroke:#a3a3a3;stroke-opacity:0.5;stroke-width:1.2px;stroke-linejoin:bevel;stroke-miterlimit:4;"/><path d="M230.826,70.224l4.062,-38.428" style="fill:none;stroke:#a3a3a3;stroke-opacity:0.5;stroke-width:1.2px;stroke-linejoin:bevel;stroke-miterlimit:4;"/><path d="M220.264,69.395l1.971,-37.879" style="fill:none;stroke:#a3a3a3;stroke-opacity:0.5;stroke-width:1.2px;stroke-linejoin:bevel;stroke-miterlimit:4;"/><path d="M209.673,69.107l0.112,-36.373" style="fill:none;stroke:#a3a3a3;stroke-opacity:0.5;stroke-width:1.2px;stroke-linejoin:bevel;stroke-miterlimit:4;"/><path d="M199.081,69.312l-1.394,-34.001" style="fill:none;stroke:#a3a3a3;stroke-opacity:0.5;stroke-width:1.2px;stroke-linejoin:bevel;stroke-miterlimit:4;"/><path d="M188.506,69.973l-2.618,-30.848" style="fill:none;stroke:#a3a3a3;stroke-opacity:0.5;stroke-width:1.2px;stroke-linejoin:bevel;stroke-miterlimit:4;"/><path d="M291.962,70.756l-6.415,14.258" style="fill:none;stroke:#a3a3a3;stroke-opacity:0.5;stroke-width:1.2px;stroke-linejoin:bevel;stroke-miterlimit:4;"/><path d="M283.493,47.605l-11.431,31.958" style="fill:none;stroke:#a3a3a3;stroke-opacity:0.5;stroke-width:1.2px;stroke-linejoin:bevel;stroke-miterlimit:4;"/><path d="M312.181,98.371l-6.818,13.022" style="fill:none;stroke:#a3a3a3;stroke-opacity:0.5;stroke-width:1.2px;stroke-linejoin:bevel;stroke-miterlimit:4;"/><path d="M325.758,105.317l-12.871,26.194" style="fill:none;stroke:#a3a3a3;stroke-opacity:0.5;stroke-width:1.2px;stroke-linejoin:bevel;stroke-miterlimit:4;"/><path d="M339.646,111.612l-16.912,41.659" style="fill:none;stroke:#a3a3a3;stroke-opacity:0.5;stroke-width:1.2px;stroke-linejoin:bevel;stroke-miterlimit:4;"/><path d="M354.092,116.466l-15.708,61.679" style="fill:none;stroke:#a3a3a3;stroke-opacity:0.5;stroke-width:1.2px;stroke-linejoin:bevel;stroke-miterlimit:4;"/><path d="M369.154,118.633l-1.554,83.286" style="fill:none;stroke:#a3a3a3;stroke-opacity:0.5;stroke-width:1.2px;stroke-linejoin:bevel;stroke-miterlimit:4;"/><path d="M384.195,116.551l28.28,90.258" style="fill:none;stroke:#a3a3a3;stroke-opacity:0.5;stroke-width:1.2px;stroke-linejoin:bevel;stroke-miterlimit:4;"/><path d="M397.748,109.701l52.978,73.986" style="fill:none;stroke:#a3a3a3;stroke-opacity:0.5;stroke-width:1.2px;stroke-linejoin:bevel;stroke-miterlimit:4;"/><path d="M408.939,99.389l60.947,53.31" style="fill:none;stroke:#a3a3a3;stroke-opacity:0.5;stroke-width:1.2px;stroke-linejoin:bevel;stroke-miterlimit:4;"/><path d="M418.009,87.146l60.127,38.304" style="fill:none;stroke:#a3a3a3;stroke-opacity:0.5;stroke-width:1.2px;stroke-linejoin:bevel;stroke-miterlimit:4;"/><path d="M177.975,71.124l-3.652,-27.034" style="fill:none;stroke:#a3a3a3;stroke-opacity:0.5;stroke-width:1.2px;stroke-linejoin:bevel;stroke-miterlimit:4;"/><path d="M167.316,72.872l-6.153,-31.648" style="fill:none;stroke:#a3a3a3;stroke-opacity:0.5;stroke-width:1.2px;stroke-linejoin:bevel;stroke-miterlimit:4;"/><path d="M156.786,75.275l-9.65,-36.523" style="fill:none;stroke:#a3a3a3;stroke-opacity:0.5;stroke-width:1.2px;stroke-linejoin:bevel;stroke-miterlimit:4;"/><path d="M146.455,78.421l-14.453,-41.585" style="fill:none;stroke:#a3a3a3;stroke-opacity:0.5;stroke-width:1.2px;stroke-linejoin:bevel;stroke-miterlimit:4;"/><path d="M136.414,82.398l-20.919,-46.627" style="fill:none;stroke:#a3a3a3;stroke-opacity:0.5;stroke-width:1.2px;stroke-linejoin:bevel;stroke-miterlimit:4;"/><path d="M126.788,87.291l-29.372,-51.208" style="fill:none;stroke:#a3a3a3;stroke-opacity:0.5;stroke-width:1.2px;stroke-linejoin:bevel;stroke-miterlimit:4;"/><path d="M117.728,93.163l-39.849,-54.521" style="fill:none;stroke:#a3a3a3;stroke-opacity:0.5;stroke-width:1.2px;stroke-linejoin:bevel;stroke-miterlimit:4;"/><path d="M109.404,100.038l-51.659,-55.369" style="fill:none;stroke:#a3a3a3;stroke-opacity:0.5;stroke-width:1.2px;stroke-linejoin:bevel;stroke-miterlimit:4;"/><path d="M101.983,107.879l-63.062,-52.618" style="fill:none;stroke:#a3a3a3;stroke-opacity:0.5;stroke-width:1.2px;stroke-linejoin:bevel;stroke-miterlimit:4;"/><path d="M95.598,116.584l-71.877,-46.16" style="fill:none;stroke:#a3a3a3;stroke-opacity:0.5;stroke-width:1.2px;stroke-linejoin:bevel;stroke-miterlimit:4;"/><path d="M272.062,79.563c-23.891,-8.545 -47.973,-11.325 -73.482,-10.23c-6.808,0.293 -13.718,0.861 -20.605,1.791" style="fill:none;stroke:#517fae;stroke-width:2.32px;stroke-linejoin:bevel;stroke-miterlimit:4;"/><path d="M177.975,71.124c-32.161,4.345 -63.832,16.582 -82.377,45.46" style="fill:none;stroke:#517fae;stroke-width:2.32px;stroke-linejoin:bevel;stroke-miterlimit:4;"/><path d="M298.649,91.337c-5.651,-2.872 -11.317,-5.616 -16.984,-8.021c-3.199,-1.357 -6.4,-2.608 -9.603,-3.753" style="fill:none;stroke:#517fae;stroke-width:2.32px;stroke-linejoin:bevel;stroke-miterlimit:4;"/><path d="M418.009,87.146c-34.93,54.83 -76.708,25.871 -119.36,4.191" style="fill:none;stroke:#517fae;stroke-width:2.32px;stroke-linejoin:bevel;stroke-miterlimit:4;"/><path d="M174.323,44.09c-62.938,-14.889 -121.573,-12.235 -150.602,26.334" style="fill:none;stroke:#f00;stroke-width:2.32px;stroke-linejoin:bevel;stroke-miterlimit:4;"/><path d="M283.493,47.605c-35.441,-20.312 -71.831,-21.484 -109.17,-3.515" style="fill:none;stroke:#f00;stroke-width:2.32px;stroke-linejoin:bevel;stroke-miterlimit:4;"/><path d="M478.136,125.45c-17.962,86.345 -87.928,101.021 -129.013,64.209c-24.744,-22.17 -39.011,-63.015 -50.474,-98.322c-5.408,-16.657 -10.192,-32.082 -15.156,-43.732" style="fill:none;stroke:#f00;stroke-width:2.32px;stroke-linejoin:bevel;stroke-miterlimit:4;"/><circle cx="95.598" cy="116.293" r="5.153" style="fill:#4ec464;"/><path d="M95.598,111.14c2.844,0 5.152,2.309 5.152,5.153c0,2.844 -2.308,5.153 -5.152,5.153c-2.844,-0 -5.153,-2.309 -5.153,-5.153c0,-2.844 2.309,-5.153 5.153,-5.153Zm-0,1.269c-2.144,0 -3.884,1.741 -3.884,3.884c0,2.143 1.74,3.884 3.884,3.884c2.143,-0 3.883,-1.741 3.883,-3.884c0,-2.143 -1.74,-3.884 -3.883,-3.884Z"/><circle cx="107.509" cy="74.601" r="5.153" style="fill:#4ec464;"/><path d="M107.509,69.448c2.844,0 5.153,2.309 5.153,5.153c-0,2.844 -2.309,5.153 -5.153,5.153c-2.844,-0 -5.153,-2.309 -5.153,-5.153c0,-2.844 2.309,-5.153 5.153,-5.153Zm-0,1.269c-2.144,0 -3.884,1.741 -3.884,3.884c0,2.143 1.74,3.884 3.884,3.884c2.143,-0 3.883,-1.741 3.883,-3.884c0,-2.143 -1.74,-3.884 -3.883,-3.884Z"/><circle cx="176.087" cy="60.425" r="5.153" style="fill:#4ec464;"/><path d="M176.087,55.272c2.844,0 5.153,2.309 5.153,5.153c0,2.844 -2.309,5.152 -5.153,5.152c-2.843,0 -5.152,-2.308 -5.152,-5.152c-0,-2.844 2.309,-5.153 5.152,-5.153Zm0,1.269c-2.143,0 -3.883,1.74 -3.883,3.884c-0,2.143 1.74,3.883 3.883,3.883c2.144,0 3.884,-1.74 3.884,-3.883c0,-2.144 -1.74,-3.884 -3.884,-3.884Z"/><circle cx="275.707" cy="69.448" r="5.153" style="fill:#4ec464;"/><path d="M275.707,64.296c2.844,-0 5.153,2.308 5.153,5.152c-0,2.844 -2.309,5.153 -5.153,5.153c-2.844,0 -5.153,-2.309 -5.153,-5.153c0,-2.844 2.309,-5.152 5.153,-5.152Zm-0,1.269c-2.143,-0 -3.884,1.74 -3.884,3.883c0,2.144 1.741,3.884 3.884,3.884c2.143,-0 3.884,-1.74 3.884,-3.884c-0,-2.143 -1.741,-3.883 -3.884,-3.883Z"/><circle cx="378.214" cy="160.673" r="5.153" style="fill:#4ec464;"/><path d="M378.214,155.521c2.844,-0 5.153,2.309 5.153,5.152c-0,2.844 -2.309,5.153 -5.153,5.153c-2.844,0 -5.153,-2.309 -5.153,-5.153c0,-2.843 2.309,-5.152 5.153,-5.152Zm0,1.269c-2.143,-0 -3.884,1.74 -3.884,3.883c0,2.144 1.741,3.884 3.884,3.884c2.143,-0 3.884,-1.74 3.884,-3.884c-0,-2.143 -1.741,-3.883 -3.884,-3.883Z"/><circle cx="418.009" cy="87.402" r="5.153" style="fill:#4ec464;"/><path d="M418.009,82.25c2.844,-0 5.153,2.309 5.153,5.152c-0,2.844 -2.309,5.153 -5.153,5.153c-2.844,0 -5.152,-2.309 -5.152,-5.153c-0,-2.843 2.308,-5.152 5.152,-5.152Zm0,1.269c-2.143,-0 -3.883,1.74 -3.883,3.883c-0,2.144 1.74,3.884 3.883,3.884c2.144,0 3.884,-1.74 3.884,-3.884c-0,-2.143 -1.74,-3.883 -3.884,-3.883Z"/><g transform="matrix(18.529,0,0,18.529,227.953,134.106)"></g><text x="126.914px" y="134.106px" style="font-family:'Geist-Medium', 'Geist';font-weight:500;font-size:18.529px;fill:#dcdcdc;">E<tspan x="138.05px 151.298px 155.819px 165.64px 173.385px 185.336px 199.437px 204.291px 217.428px " y="134.106px 134.106px 134.106px 134.106px 134.106px 134.106px 134.106px 134.106px 134.106px ">DIT-POINT</tspan></text><path d="M181.217,88.537l-3.354,-10.063l-3.354,10.063l6.708,-0Z" style="fill:#dcdcdc;"/><path d="M177.863,86.524l0,25.315" style="fill:none;stroke:#dcdcdc;stroke-width:2.24px;"/><path d="M275.487,98.448l-3.354,-10.063l-3.355,10.063l6.709,0Z" style="fill:#dcdcdc;"/><path d="M272.133,96.436l-0,33.183l-37.245,-0" style="fill:none;stroke:#dcdcdc;stroke-width:2.24px;"/><circle cx="177.863" cy="70.961" r="3.602" style="fill:#f2af0d;"/><circle cx="272.133" cy="79.709" r="3.602" style="fill:#f2af0d;"/></g></g></svg>