<?xml version="1.0" encoding="UTF-8" standalone="no"?><!DOCTYPE svg PUBLIC "-//W3C//DTD SVG 1.1//EN" "http://www.w3.org/Graphics/SVG/1.1/DTD/svg11.dtd"><svg width="100%" height="100%" viewBox="0 0 1251 301" version="1.1" xmlns="http://www.w3.org/2000/svg" xmlns:xlink="http://www.w3.org/1999/xlink" xml:space="preserve" xmlns:serif="http://www.serif.com/" style="fill-rule:evenodd;clip-rule:evenodd;stroke-linecap:round;stroke-linejoin:round;stroke-miterlimit:1.5;"><g id="Extend-Curve-Shape---Tip" serif:id="Extend Curve Shape - Tip"><g><g transform="matrix(0.95,0,0,1,-208.695,0)"><g transform="matrix(25,0,0,25,388.157,269.98)"></g><text x="273.121px" y="269.98px" style="font-family:'Roboto-Regular', 'Roboto';font-size:25px;fill:#dcdcdc;">N<tspan x="292.112px 307.688px 323.53px 340.666px 356.997px 374.23px " y="269.98px 269.98px 269.98px 269.98px 269.98px 269.98px ">ATURAL</tspan></text></g><g transform="matrix(0.95,0,0,1,-195.809,0)"><g transform="matrix(25,0,0,25,619.96,270.102)"></g><text x="530.85px" y="270.102px" style="font-family:'Roboto-Regular', 'Roboto';font-size:25px;fill:#dcdcdc;">L<tspan x="545.24px 552.964px 571.724px 586.858px 604.092px " y="270.102px 270.102px 270.102px 270.102px 270.102px ">INEAR</tspan></text></g><g transform="matrix(0.95,0,0,1,-183.704,0)"><g transform="matrix(25,0,0,25,837.229,270.102)"></g><text x="772.955px" y="270.102px" style="font-family:'Roboto-Regular', 'Roboto';font-size:25px;fill:#dcdcdc;">S<tspan x="788.724px 806.849px 821.85px " y="270.102px 270.102px 270.102px ">OFT</tspan></text></g><g transform="matrix(0.95,0,0,1,-172.423,0)"><g transform="matrix(25,0,0,25,1146.2,270.102)"></g><text x="998.566px" y="270.102px" style="font-family:'Roboto-Regular', 'Roboto';font-size:25px;fill:#dcdcdc;">R<tspan x="1014.9px 1030.03px 1044.77px 1059.16px 1074.3px 1091.12px 1106.96px 1114.69px 1131.53px " y="270.102px 270.102px 270.102px 270.102px 270.102px 270.102px 270.102px 270.102px 270.102px ">EFLECTIVE</tspan></text></g><g transform="matrix(0.95,0,0,1,-158.457,0)"><g transform="matrix(25,0,0,25,1328.18,270.102)"></g><text x="1277.88px" y="270.102px" style="font-family:'Roboto-Regular', 'Roboto';font-size:25px;fill:#dcdcdc;">A<tspan x="1295.11px 1311.44px " y="270.102px 270.102px ">RC</tspan></text></g></g><g id="Version"><g id="Natural"><path d="M44.215,136.141c-0.391,21.136 18.138,46.273 72.738,63.998" style="fill:none;stroke:#ff0b00;stroke-width:4.3px;"/><path d="M249.177,56.708c-0,-0 -21.941,0.511 -49.714,-1.736c-16.955,-1.372 -49.071,-2.669 -68.965,0.772c-20.987,3.63 -38.611,14.35 -51.411,24.856c-16.839,13.823 -34.482,34.406 -34.872,55.541" style="fill:none;stroke:#2e6ad9;stroke-width:4.3px;"/></g><g id="Linear"><path d="M283.868,117.466c-0.39,21.135 0,101.614 0,101.614" style="fill:none;stroke:#ff0b00;stroke-width:4.3px;"/><path d="M488.83,38.032c0,0 -21.94,0.511 -49.713,-1.736c-16.956,-1.372 -49.071,-2.668 -68.965,0.772c-20.987,3.63 -38.612,14.35 -51.412,24.857c-16.839,13.823 -34.482,34.406 -34.872,55.541" style="fill:none;stroke:#2e6ad9;stroke-width:4.3px;"/></g><g id="Soft"><path d="M523.348,117.466c0.784,24.188 5.5,101.349 5.5,101.349" style="fill:none;stroke:#ff0b00;stroke-width:4.3px;"/><path d="M728.31,38.032c0,0 -21.94,0.511 -49.713,-1.736c-16.956,-1.372 -49.071,-2.668 -68.965,0.772c-20.987,3.63 -38.612,14.35 -51.411,24.857c-16.84,13.823 -34.483,34.406 -34.873,55.541" style="fill:none;stroke:#2e6ad9;stroke-width:4.3px;"/></g><g id="Reflective"><path d="M762.833,136.141c-0.39,21.136 23.295,55.891 64.417,74.231" style="fill:none;stroke:#ff0b00;stroke-width:4.3px;"/><path d="M967.795,56.708c0,-0 -21.94,0.511 -49.713,-1.736c-16.956,-1.372 -49.071,-2.669 -68.965,0.772c-20.987,3.63 -38.612,14.35 -51.411,24.856c-16.84,13.823 -34.483,34.406 -34.873,55.541" style="fill:none;stroke:#2e6ad9;stroke-width:4.3px;"/></g><g id="Arch"><path d="M1002.32,148.407c-0.39,21.135 18.611,37.817 36.812,39.323c18.201,1.507 40.272,-8.661 43.934,-39.165" style="fill:none;stroke:#ff0b00;stroke-width:4.3px;"/><path d="M1207.28,68.973c0,-0 -21.94,0.511 -49.713,-1.736c-16.956,-1.372 -49.071,-2.668 -68.965,0.772c-20.987,3.63 -38.612,14.35 -51.411,24.857c-16.84,13.823 -34.483,34.406 -34.873,55.541" style="fill:none;stroke:#2e6ad9;stroke-width:4.3px;"/></g></g></g></svg>