<?xml version="1.0" encoding="UTF-8" standalone="no"?><!DOCTYPE svg PUBLIC "-//W3C//DTD SVG 1.1//EN" "http://www.w3.org/Graphics/SVG/1.1/DTD/svg11.dtd"><svg width="100%" height="100%" viewBox="0 0 710 221" version="1.1" xmlns="http://www.w3.org/2000/svg" xmlns:xlink="http://www.w3.org/1999/xlink" xml:space="preserve" xmlns:serif="http://www.serif.com/" style="fill-rule:evenodd;clip-rule:evenodd;stroke-linecap:round;"><g id="Hidden-Lines:-Gap-Size" serif:id="Hidden Lines: Gap Size"><g id="Text"><g transform="matrix(0.955903,0,0,1,-107.544,0)"><g transform="matrix(12.2222,0,0,12.2222,259.627,204.888)"></g><text x="197.335px" y="204.888px" style="font-family:'Roboto-Regular', 'Roboto';font-size:12.222px;fill:#dcdcdc;">VA<tspan x="213.524px 220.22px 228.597px 235.77px 238.73px 241.988px 249.083px 252.532px " y="204.888px 204.888px 204.888px 204.888px 204.888px 204.888px 204.888px 204.888px ">LUE: 1.0</tspan></text></g><g transform="matrix(0.955903,0,0,1,-96.8861,0)"><g transform="matrix(12.2222,0,0,12.2222,501.323,204.888)"></g><text x="439.031px" y="204.888px" style="font-family:'Roboto-Regular', 'Roboto';font-size:12.222px;fill:#dcdcdc;">VA<tspan x="455.219px 461.915px 470.293px 477.465px 480.426px 483.683px 490.779px 494.227px " y="204.888px 204.888px 204.888px 204.888px 204.888px 204.888px 204.888px 204.888px ">LUE: 5.0</tspan></text></g><g transform="matrix(0.955903,0,0,1,-86.2254,0)"><g transform="matrix(12.2222,0,0,12.2222,743.075,204.888)"></g><text x="680.784px" y="204.888px" style="font-family:'Roboto-Regular', 'Roboto';font-size:12.222px;fill:#dcdcdc;">VA<tspan x="696.972px 703.668px 712.045px 719.218px 722.178px 725.436px 732.531px 735.98px " y="204.888px 204.888px 204.888px 204.888px 204.888px 204.888px 204.888px 204.888px ">LUE: 0.0</tspan></text></g></g><g><g id="Edge-Hidden-NotSmooth"><g id="Extruded.002--Edge-Hidden-NotSmooth-" serif:id="Extruded.002 (Edge-Hidden-NotSmooth)"><path d="M155.361,126.267l-44.674,25.633" style="fill:none;fill-rule:nonzero;stroke:#1984ef;stroke-width:1.67px;stroke-dasharray:3.33,3.33,0,0,0,0;"/><path d="M110.687,151.9l0,-34.698" style="fill:none;fill-rule:nonzero;stroke:#1984ef;stroke-width:1.67px;stroke-dasharray:3.33,3.33,0,0,0,0;"/><path d="M66.014,126.267l44.673,25.633" style="fill:none;fill-rule:nonzero;stroke:#1984ef;stroke-width:1.67px;stroke-dasharray:3.33,3.33,0,0,0,0;"/><path d="M155.361,126.267l0,-34.698" style="fill:none;fill-rule:nonzero;stroke:#1984ef;stroke-width:1.67px;stroke-dasharray:3.33,3.33,0,0,0,0;"/><path d="M125.125,108.918l30.236,17.349" style="fill:none;fill-rule:nonzero;stroke:#1984ef;stroke-width:1.67px;stroke-dasharray:3.33,3.33,0,0,0,0;"/><path d="M197.939,126.267l-87.252,-50.063" style="fill:none;fill-rule:nonzero;stroke:#1984ef;stroke-width:1.67px;stroke-dasharray:3.33,3.33,0,0,0,0;"/><path d="M66.014,126.267l-0,-34.698" style="fill:none;fill-rule:nonzero;stroke:#1984ef;stroke-width:1.67px;stroke-dasharray:3.33,3.33,0,0,0,0;"/><path d="M66.014,126.267l30.236,-17.349" style="fill:none;fill-rule:nonzero;stroke:#1984ef;stroke-width:1.67px;stroke-dasharray:3.33,3.33,0,0,0,0;"/><path d="M110.687,41.506l0,34.698" style="fill:none;fill-rule:nonzero;stroke:#1984ef;stroke-width:1.67px;stroke-dasharray:3.33,3.33,0,0,0,0;"/><path d="M23.436,126.267l87.251,-50.063" style="fill:none;fill-rule:nonzero;stroke:#1984ef;stroke-width:1.67px;stroke-dasharray:3.33,3.33,0,0,0,0;"/></g></g><g id="Edge-Visible-NotSmooth"><g id="Extruded.002--Edge-Visible-NotSmooth-" serif:id="Extruded.002 (Edge-Visible-NotSmooth)"><path d="M23.436,91.569l87.251,50.064" style="fill:none;fill-rule:nonzero;stroke:#1984ef;stroke-width:1.02px;"/><path d="M110.687,141.633l0,34.698" style="fill:none;fill-rule:nonzero;stroke:#1984ef;stroke-width:1.02px;"/><path d="M197.939,91.569l-87.252,50.064" style="fill:none;fill-rule:nonzero;stroke:#1984ef;stroke-width:1.02px;"/><path d="M110.687,65.936l-44.673,25.633" style="fill:none;fill-rule:nonzero;stroke:#1984ef;stroke-width:1.02px;"/><path d="M66.014,91.569l30.236,17.349" style="fill:none;fill-rule:nonzero;stroke:#1984ef;stroke-width:1.02px;"/><path d="M125.125,108.918l30.236,-17.349" style="fill:none;fill-rule:nonzero;stroke:#1984ef;stroke-width:1.02px;"/><path d="M155.361,91.569l-44.674,-25.633" style="fill:none;fill-rule:nonzero;stroke:#1984ef;stroke-width:1.02px;"/><path d="M110.687,100.634l0,-34.698" style="fill:none;fill-rule:nonzero;stroke:#1984ef;stroke-width:1.02px;"/></g></g><g id="Edge-Visible-NotSmooth-Silhouette"><g id="Extruded.002--Edge-Visible-NotSmooth-Silhouette-" serif:id="Extruded.002 (Edge-Visible-NotSmooth-Silhouette)"><path d="M110.687,176.331l-87.251,-50.064" style="fill:none;fill-rule:nonzero;stroke:#1984ef;stroke-width:1.02px;"/><path d="M23.436,91.569l-0,34.698" style="fill:none;fill-rule:nonzero;stroke:#1984ef;stroke-width:1.02px;"/><path d="M110.687,41.506l-87.251,50.063" style="fill:none;fill-rule:nonzero;stroke:#1984ef;stroke-width:1.02px;"/><path d="M110.687,41.506l87.252,50.063" style="fill:none;fill-rule:nonzero;stroke:#1984ef;stroke-width:1.02px;"/><path d="M96.25,108.918l14.437,8.284" style="fill:none;fill-rule:nonzero;stroke:#1984ef;stroke-width:1.02px;"/><path d="M110.687,117.202l14.438,-8.284" style="fill:none;fill-rule:nonzero;stroke:#1984ef;stroke-width:1.02px;"/><path d="M197.939,91.569l-0,34.698" style="fill:none;fill-rule:nonzero;stroke:#1984ef;stroke-width:1.02px;"/><path d="M110.687,176.331l87.252,-50.064" style="fill:none;fill-rule:nonzero;stroke:#1984ef;stroke-width:1.02px;"/><path d="M110.687,100.634l14.438,8.284" style="fill:none;fill-rule:nonzero;stroke:#1984ef;stroke-width:1.02px;"/><path d="M96.25,108.918l14.437,-8.284" style="fill:none;fill-rule:nonzero;stroke:#1984ef;stroke-width:1.02px;"/></g></g></g><g><g id="Edge-Hidden-NotSmooth1" serif:id="Edge-Hidden-NotSmooth"><g id="Extruded.002--Edge-Hidden-NotSmooth-1" serif:id="Extruded.002 (Edge-Hidden-NotSmooth)"><g><path d="M397.114,126.267l-44.674,25.633" style="fill:none;fill-rule:nonzero;stroke:#1984ef;stroke-width:1.67px;stroke-dasharray:3.33,8.33,0,0,0,0;"/><path d="M307.767,126.267l44.673,25.633" style="fill:none;fill-rule:nonzero;stroke:#1984ef;stroke-width:1.67px;stroke-dasharray:3.33,8.33,0,0,0,0;"/><path d="M397.114,126.267l0,-34.698" style="fill:none;fill-rule:nonzero;stroke:#1984ef;stroke-width:1.67px;stroke-dasharray:3.33,8.33,0,0,0,0;"/><path d="M366.878,108.918l30.236,17.349" style="fill:none;fill-rule:nonzero;stroke:#1984ef;stroke-width:1.67px;stroke-dasharray:3.33,8.33,0,0,0,0;"/><path d="M439.692,126.267l-87.252,-50.063" style="fill:none;fill-rule:nonzero;stroke:#1984ef;stroke-width:1.67px;stroke-dasharray:3.33,8.33,0,0,0,0;"/><path d="M307.767,126.267l-0,-34.698" style="fill:none;fill-rule:nonzero;stroke:#1984ef;stroke-width:1.67px;stroke-dasharray:3.33,8.33,0,0,0,0;"/><path d="M307.767,126.267l30.236,-17.349" style="fill:none;fill-rule:nonzero;stroke:#1984ef;stroke-width:1.67px;stroke-dasharray:3.33,8.33,0,0,0,0;"/><path d="M265.189,126.267l87.251,-50.063" style="fill:none;fill-rule:nonzero;stroke:#1984ef;stroke-width:1.67px;stroke-dasharray:3.33,8.33,0,0,0,0;"/></g><path d="M352.44,151.9l0,-34.698" style="fill:none;fill-rule:nonzero;stroke:#1984ef;stroke-width:1.67px;stroke-dasharray:3.33,8.33,0,0,0,0;"/><path d="M352.44,41.506l0,34.698" style="fill:none;fill-rule:nonzero;stroke:#1984ef;stroke-width:1.67px;stroke-dasharray:3.33,8.33,0,0,0,0;"/></g></g><g id="Edge-Visible-NotSmooth1" serif:id="Edge-Visible-NotSmooth"><g id="Extruded.002--Edge-Visible-NotSmooth-1" serif:id="Extruded.002 (Edge-Visible-NotSmooth)"><path d="M265.189,91.569l87.251,50.064" style="fill:none;fill-rule:nonzero;stroke:#1984ef;stroke-width:1.02px;"/><path d="M352.44,141.633l0,34.698" style="fill:none;fill-rule:nonzero;stroke:#1984ef;stroke-width:1.02px;"/><path d="M439.692,91.569l-87.252,50.064" style="fill:none;fill-rule:nonzero;stroke:#1984ef;stroke-width:1.02px;"/><path d="M352.44,65.936l-44.673,25.633" style="fill:none;fill-rule:nonzero;stroke:#1984ef;stroke-width:1.02px;"/><path d="M307.767,91.569l30.236,17.349" style="fill:none;fill-rule:nonzero;stroke:#1984ef;stroke-width:1.02px;"/><path d="M366.878,108.918l30.236,-17.349" style="fill:none;fill-rule:nonzero;stroke:#1984ef;stroke-width:1.02px;"/><path d="M397.114,91.569l-44.674,-25.633" style="fill:none;fill-rule:nonzero;stroke:#1984ef;stroke-width:1.02px;"/><path d="M352.44,100.634l0,-34.698" style="fill:none;fill-rule:nonzero;stroke:#1984ef;stroke-width:1.02px;"/></g></g><g id="Edge-Visible-NotSmooth-Silhouette1" serif:id="Edge-Visible-NotSmooth-Silhouette"><g id="Extruded.002--Edge-Visible-NotSmooth-Silhouette-1" serif:id="Extruded.002 (Edge-Visible-NotSmooth-Silhouette)"><path d="M352.44,176.331l-87.251,-50.064" style="fill:none;fill-rule:nonzero;stroke:#1984ef;stroke-width:1.02px;"/><path d="M265.189,91.569l-0,34.698" style="fill:none;fill-rule:nonzero;stroke:#1984ef;stroke-width:1.02px;"/><path d="M352.44,41.506l-87.251,50.063" style="fill:none;fill-rule:nonzero;stroke:#1984ef;stroke-width:1.02px;"/><path d="M352.44,41.506l87.252,50.063" style="fill:none;fill-rule:nonzero;stroke:#1984ef;stroke-width:1.02px;"/><path d="M338.003,108.918l14.437,8.284" style="fill:none;fill-rule:nonzero;stroke:#1984ef;stroke-width:1.02px;"/><path d="M352.44,117.202l14.438,-8.284" style="fill:none;fill-rule:nonzero;stroke:#1984ef;stroke-width:1.02px;"/><path d="M439.692,91.569l-0,34.698" style="fill:none;fill-rule:nonzero;stroke:#1984ef;stroke-width:1.02px;"/><path d="M352.44,176.331l87.252,-50.064" style="fill:none;fill-rule:nonzero;stroke:#1984ef;stroke-width:1.02px;"/><path d="M352.44,100.634l14.438,8.284" style="fill:none;fill-rule:nonzero;stroke:#1984ef;stroke-width:1.02px;"/><path d="M338.003,108.918l14.437,-8.284" style="fill:none;fill-rule:nonzero;stroke:#1984ef;stroke-width:1.02px;"/></g></g></g><g><g id="Edge-Hidden-NotSmooth2" serif:id="Edge-Hidden-NotSmooth"><g id="Extruded.002--Edge-Hidden-NotSmooth-2" serif:id="Extruded.002 (Edge-Hidden-NotSmooth)"><path d="M638.867,126.267l-44.674,25.633" style="fill:none;fill-rule:nonzero;stroke:#1984ef;stroke-width:1.67px;"/><path d="M594.193,151.9l0,-34.698" style="fill:none;fill-rule:nonzero;stroke:#1984ef;stroke-width:1.67px;"/><path d="M549.519,126.267l44.674,25.633" style="fill:none;fill-rule:nonzero;stroke:#1984ef;stroke-width:1.67px;"/><path d="M638.867,126.267l-0,-34.698" style="fill:none;fill-rule:nonzero;stroke:#1984ef;stroke-width:1.67px;"/><path d="M608.631,108.918l30.236,17.349" style="fill:none;fill-rule:nonzero;stroke:#1984ef;stroke-width:1.67px;"/><path d="M681.445,126.267l-87.252,-50.063" style="fill:none;fill-rule:nonzero;stroke:#1984ef;stroke-width:1.67px;"/><path d="M549.519,126.267l0,-34.698" style="fill:none;fill-rule:nonzero;stroke:#1984ef;stroke-width:1.67px;"/><path d="M549.519,126.267l30.236,-17.349" style="fill:none;fill-rule:nonzero;stroke:#1984ef;stroke-width:1.67px;"/><path d="M594.193,41.506l0,34.698" style="fill:none;fill-rule:nonzero;stroke:#1984ef;stroke-width:1.67px;"/><path d="M506.942,126.267l87.251,-50.063" style="fill:none;fill-rule:nonzero;stroke:#1984ef;stroke-width:1.67px;"/></g></g><g id="Edge-Visible-NotSmooth2" serif:id="Edge-Visible-NotSmooth"><g id="Extruded.002--Edge-Visible-NotSmooth-2" serif:id="Extruded.002 (Edge-Visible-NotSmooth)"><path d="M506.942,91.569l87.251,50.064" style="fill:none;fill-rule:nonzero;stroke:#1984ef;stroke-width:1.02px;"/><path d="M594.193,141.633l0,34.698" style="fill:none;fill-rule:nonzero;stroke:#1984ef;stroke-width:1.02px;"/><path d="M681.445,91.569l-87.252,50.064" style="fill:none;fill-rule:nonzero;stroke:#1984ef;stroke-width:1.02px;"/><path d="M594.193,65.936l-44.674,25.633" style="fill:none;fill-rule:nonzero;stroke:#1984ef;stroke-width:1.02px;"/><path d="M549.519,91.569l30.236,17.349" style="fill:none;fill-rule:nonzero;stroke:#1984ef;stroke-width:1.02px;"/><path d="M608.631,108.918l30.236,-17.349" style="fill:none;fill-rule:nonzero;stroke:#1984ef;stroke-width:1.02px;"/><path d="M638.867,91.569l-44.674,-25.633" style="fill:none;fill-rule:nonzero;stroke:#1984ef;stroke-width:1.02px;"/><path d="M594.193,100.634l0,-34.698" style="fill:none;fill-rule:nonzero;stroke:#1984ef;stroke-width:1.02px;"/></g></g><g id="Edge-Visible-NotSmooth-Silhouette2" serif:id="Edge-Visible-NotSmooth-Silhouette"><g id="Extruded.002--Edge-Visible-NotSmooth-Silhouette-2" serif:id="Extruded.002 (Edge-Visible-NotSmooth-Silhouette)"><path d="M594.193,176.331l-87.251,-50.064" style="fill:none;fill-rule:nonzero;stroke:#1984ef;stroke-width:1.02px;"/><path d="M506.942,91.569l-0,34.698" style="fill:none;fill-rule:nonzero;stroke:#1984ef;stroke-width:1.02px;"/><path d="M594.193,41.506l-87.251,50.063" style="fill:none;fill-rule:nonzero;stroke:#1984ef;stroke-width:1.02px;"/><path d="M594.193,41.506l87.252,50.063" style="fill:none;fill-rule:nonzero;stroke:#1984ef;stroke-width:1.02px;"/><path d="M579.755,108.918l14.438,8.284" style="fill:none;fill-rule:nonzero;stroke:#1984ef;stroke-width:1.02px;"/><path d="M594.193,117.202l14.438,-8.284" style="fill:none;fill-rule:nonzero;stroke:#1984ef;stroke-width:1.02px;"/><path d="M681.445,91.569l-0,34.698" style="fill:none;fill-rule:nonzero;stroke:#1984ef;stroke-width:1.02px;"/><path d="M594.193,176.331l87.252,-50.064" style="fill:none;fill-rule:nonzero;stroke:#1984ef;stroke-width:1.02px;"/><path d="M594.193,100.634l14.438,8.284" style="fill:none;fill-rule:nonzero;stroke:#1984ef;stroke-width:1.02px;"/><path d="M579.755,108.918l14.438,-8.284" style="fill:none;fill-rule:nonzero;stroke:#1984ef;stroke-width:1.02px;"/></g></g></g></g></svg>