<?xml version="1.0" encoding="UTF-8" standalone="no"?><!DOCTYPE svg PUBLIC "-//W3C//DTD SVG 1.1//EN" "http://www.w3.org/Graphics/SVG/1.1/DTD/svg11.dtd"><svg width="100%" height="100%" viewBox="0 0 710 221" version="1.1" xmlns="http://www.w3.org/2000/svg" xmlns:xlink="http://www.w3.org/1999/xlink" xml:space="preserve" xmlns:serif="http://www.serif.com/" style="fill-rule:evenodd;clip-rule:evenodd;stroke-linecap:round;"><g id="Hidden-Lines:-Stroke-Width" serif:id="Hidden Lines: Stroke Width"><g id="Text"><g transform="matrix(0.955903,0,0,1,-107.523,2.27374e-13)"><g transform="matrix(12.2222,0,0,12.2222,260.109,205.057)"></g><text x="197.817px" y="205.057px" style="font-family:'Roboto-Regular', 'Roboto';font-size:12.222px;fill:#dcdcdc;">VA<tspan x="214.006px 220.702px 229.079px 236.252px 239.212px 242.47px 249.565px 253.014px " y="205.057px 205.057px 205.057px 205.057px 205.057px 205.057px 205.057px 205.057px ">LUE: 1.0</tspan></text></g><g transform="matrix(0.955903,0,0,1,-96.8648,-2.27374e-13)"><g transform="matrix(12.2222,0,0,12.2222,501.804,205.057)"></g><text x="439.513px" y="205.057px" style="font-family:'Roboto-Regular', 'Roboto';font-size:12.222px;fill:#dcdcdc;">VA<tspan x="455.701px 462.397px 470.775px 477.947px 480.907px 484.165px 491.26px 494.709px " y="205.057px 205.057px 205.057px 205.057px 205.057px 205.057px 205.057px 205.057px ">LUE: 5.0</tspan></text></g><g transform="matrix(0.955903,0,0,1,-86.2042,-2.27374e-13)"><g transform="matrix(12.2222,0,0,12.2222,743.557,205.057)"></g><text x="681.265px" y="205.057px" style="font-family:'Roboto-Regular', 'Roboto';font-size:12.222px;fill:#dcdcdc;">VA<tspan x="697.454px 704.15px 712.527px 719.7px 722.66px 725.918px 733.013px 736.462px " y="205.057px 205.057px 205.057px 205.057px 205.057px 205.057px 205.057px 205.057px ">LUE: 0.0</tspan></text></g></g><g><g id="Edge-Hidden-NotSmooth"><g id="Extruded.002--Edge-Hidden-NotSmooth-" serif:id="Extruded.002 (Edge-Hidden-NotSmooth)"><path d="M155.843,126.436l-44.674,25.633" style="fill:none;fill-rule:nonzero;stroke:#1984ef;stroke-width:1.67px;stroke-dasharray:3.33,3.33,0,0,0,0;"/><path d="M111.169,152.069l0,-34.698" style="fill:none;fill-rule:nonzero;stroke:#1984ef;stroke-width:1.67px;stroke-dasharray:3.33,3.33,0,0,0,0;"/><path d="M66.496,126.436l44.673,25.633" style="fill:none;fill-rule:nonzero;stroke:#1984ef;stroke-width:1.67px;stroke-dasharray:3.33,3.33,0,0,0,0;"/><path d="M155.843,126.436l0,-34.698" style="fill:none;fill-rule:nonzero;stroke:#1984ef;stroke-width:1.67px;stroke-dasharray:3.33,3.33,0,0,0,0;"/><path d="M125.607,109.087l30.236,17.349" style="fill:none;fill-rule:nonzero;stroke:#1984ef;stroke-width:1.67px;stroke-dasharray:3.33,3.33,0,0,0,0;"/><path d="M198.421,126.436l-87.252,-50.064" style="fill:none;fill-rule:nonzero;stroke:#1984ef;stroke-width:1.67px;stroke-dasharray:3.33,3.33,0,0,0,0;"/><path d="M66.496,126.436l-0,-34.698" style="fill:none;fill-rule:nonzero;stroke:#1984ef;stroke-width:1.67px;stroke-dasharray:3.33,3.33,0,0,0,0;"/><path d="M66.496,126.436l30.236,-17.349" style="fill:none;fill-rule:nonzero;stroke:#1984ef;stroke-width:1.67px;stroke-dasharray:3.33,3.33,0,0,0,0;"/><path d="M111.169,41.674l0,34.698" style="fill:none;fill-rule:nonzero;stroke:#1984ef;stroke-width:1.67px;stroke-dasharray:3.33,3.33,0,0,0,0;"/><path d="M23.918,126.436l87.251,-50.064" style="fill:none;fill-rule:nonzero;stroke:#1984ef;stroke-width:1.67px;stroke-dasharray:3.33,3.33,0,0,0,0;"/></g></g><g id="Edge-Visible-NotSmooth"><g id="Extruded.002--Edge-Visible-NotSmooth-" serif:id="Extruded.002 (Edge-Visible-NotSmooth)"><path d="M23.918,91.738l87.251,50.063" style="fill:none;fill-rule:nonzero;stroke:#1984ef;stroke-width:1.02px;"/><path d="M111.169,141.801l0,34.698" style="fill:none;fill-rule:nonzero;stroke:#1984ef;stroke-width:1.02px;"/><path d="M198.421,91.738l-87.252,50.063" style="fill:none;fill-rule:nonzero;stroke:#1984ef;stroke-width:1.02px;"/><path d="M111.169,66.105l-44.673,25.633" style="fill:none;fill-rule:nonzero;stroke:#1984ef;stroke-width:1.02px;"/><path d="M66.496,91.738l30.236,17.349" style="fill:none;fill-rule:nonzero;stroke:#1984ef;stroke-width:1.02px;"/><path d="M125.607,109.087l30.236,-17.349" style="fill:none;fill-rule:nonzero;stroke:#1984ef;stroke-width:1.02px;"/><path d="M155.843,91.738l-44.674,-25.633" style="fill:none;fill-rule:nonzero;stroke:#1984ef;stroke-width:1.02px;"/><path d="M111.169,100.803l0,-34.698" style="fill:none;fill-rule:nonzero;stroke:#1984ef;stroke-width:1.02px;"/></g></g><g id="Edge-Visible-NotSmooth-Silhouette"><g id="Extruded.002--Edge-Visible-NotSmooth-Silhouette-" serif:id="Extruded.002 (Edge-Visible-NotSmooth-Silhouette)"><path d="M111.169,176.499l-87.251,-50.063" style="fill:none;fill-rule:nonzero;stroke:#1984ef;stroke-width:1.02px;"/><path d="M23.918,91.738l-0,34.698" style="fill:none;fill-rule:nonzero;stroke:#1984ef;stroke-width:1.02px;"/><path d="M111.169,41.674l-87.251,50.064" style="fill:none;fill-rule:nonzero;stroke:#1984ef;stroke-width:1.02px;"/><path d="M111.169,41.674l87.252,50.064" style="fill:none;fill-rule:nonzero;stroke:#1984ef;stroke-width:1.02px;"/><path d="M96.732,109.087l14.437,8.284" style="fill:none;fill-rule:nonzero;stroke:#1984ef;stroke-width:1.02px;"/><path d="M111.169,117.371l14.438,-8.284" style="fill:none;fill-rule:nonzero;stroke:#1984ef;stroke-width:1.02px;"/><path d="M198.421,91.738l-0,34.698" style="fill:none;fill-rule:nonzero;stroke:#1984ef;stroke-width:1.02px;"/><path d="M111.169,176.499l87.252,-50.063" style="fill:none;fill-rule:nonzero;stroke:#1984ef;stroke-width:1.02px;"/><path d="M111.169,100.803l14.438,8.284" style="fill:none;fill-rule:nonzero;stroke:#1984ef;stroke-width:1.02px;"/><path d="M96.732,109.087l14.437,-8.284" style="fill:none;fill-rule:nonzero;stroke:#1984ef;stroke-width:1.02px;"/></g></g></g><g><g id="Edge-Hidden-NotSmooth1" serif:id="Edge-Hidden-NotSmooth"><g id="Extruded.002--Edge-Hidden-NotSmooth-1" serif:id="Extruded.002 (Edge-Hidden-NotSmooth)"><g><path d="M397.596,126.436l-44.674,25.633" style="fill:none;fill-rule:nonzero;stroke:#1984ef;stroke-width:3.33px;stroke-dasharray:3.33,1.67,0,0,0,0;"/><path d="M308.248,126.436l44.674,25.633" style="fill:none;fill-rule:nonzero;stroke:#1984ef;stroke-width:3.33px;stroke-dasharray:3.33,1.67,0,0,0,0;"/><path d="M397.596,126.436l-0,-34.698" style="fill:none;fill-rule:nonzero;stroke:#1984ef;stroke-width:3.33px;stroke-dasharray:3.33,1.67,0,0,0,0;"/><path d="M367.36,109.087l30.236,17.349" style="fill:none;fill-rule:nonzero;stroke:#1984ef;stroke-width:3.33px;stroke-dasharray:3.33,1.67,0,0,0,0;"/><path d="M440.174,126.436l-87.252,-50.064" style="fill:none;fill-rule:nonzero;stroke:#1984ef;stroke-width:3.33px;stroke-dasharray:3.33,1.67,0,0,0,0;"/><path d="M308.248,126.436l0,-34.698" style="fill:none;fill-rule:nonzero;stroke:#1984ef;stroke-width:3.33px;stroke-dasharray:3.33,1.67,0,0,0,0;"/><path d="M308.248,126.436l30.236,-17.349" style="fill:none;fill-rule:nonzero;stroke:#1984ef;stroke-width:3.33px;stroke-dasharray:3.33,1.67,0,0,0,0;"/><path d="M265.671,126.436l87.251,-50.064" style="fill:none;fill-rule:nonzero;stroke:#1984ef;stroke-width:3.33px;stroke-dasharray:3.33,1.67,0,0,0,0;"/></g><path d="M352.922,152.069l0,-34.698" style="fill:none;fill-rule:nonzero;stroke:#1984ef;stroke-width:3.33px;stroke-dasharray:3.33,1.67,0,0,0,0;"/><path d="M352.922,41.674l0,34.698" style="fill:none;fill-rule:nonzero;stroke:#1984ef;stroke-width:3.33px;stroke-dasharray:3.33,1.67,0,0,0,0;"/></g></g><g id="Edge-Visible-NotSmooth1" serif:id="Edge-Visible-NotSmooth"><g id="Extruded.002--Edge-Visible-NotSmooth-1" serif:id="Extruded.002 (Edge-Visible-NotSmooth)"><path d="M265.671,91.738l87.251,50.063" style="fill:none;fill-rule:nonzero;stroke:#1984ef;stroke-width:1.02px;"/><path d="M352.922,141.801l0,34.698" style="fill:none;fill-rule:nonzero;stroke:#1984ef;stroke-width:1.02px;"/><path d="M440.174,91.738l-87.252,50.063" style="fill:none;fill-rule:nonzero;stroke:#1984ef;stroke-width:1.02px;"/><path d="M352.922,66.105l-44.674,25.633" style="fill:none;fill-rule:nonzero;stroke:#1984ef;stroke-width:1.02px;"/><path d="M308.248,91.738l30.236,17.349" style="fill:none;fill-rule:nonzero;stroke:#1984ef;stroke-width:1.02px;"/><path d="M367.36,109.087l30.236,-17.349" style="fill:none;fill-rule:nonzero;stroke:#1984ef;stroke-width:1.02px;"/><path d="M397.596,91.738l-44.674,-25.633" style="fill:none;fill-rule:nonzero;stroke:#1984ef;stroke-width:1.02px;"/><path d="M352.922,100.803l0,-34.698" style="fill:none;fill-rule:nonzero;stroke:#1984ef;stroke-width:1.02px;"/></g></g><g id="Edge-Visible-NotSmooth-Silhouette1" serif:id="Edge-Visible-NotSmooth-Silhouette"><g id="Extruded.002--Edge-Visible-NotSmooth-Silhouette-1" serif:id="Extruded.002 (Edge-Visible-NotSmooth-Silhouette)"><path d="M352.922,176.499l-87.251,-50.063" style="fill:none;fill-rule:nonzero;stroke:#1984ef;stroke-width:1.02px;"/><path d="M265.671,91.738l-0,34.698" style="fill:none;fill-rule:nonzero;stroke:#1984ef;stroke-width:1.02px;"/><path d="M352.922,41.674l-87.251,50.064" style="fill:none;fill-rule:nonzero;stroke:#1984ef;stroke-width:1.02px;"/><path d="M352.922,41.674l87.252,50.064" style="fill:none;fill-rule:nonzero;stroke:#1984ef;stroke-width:1.02px;"/><path d="M338.484,109.087l14.438,8.284" style="fill:none;fill-rule:nonzero;stroke:#1984ef;stroke-width:1.02px;"/><path d="M352.922,117.371l14.438,-8.284" style="fill:none;fill-rule:nonzero;stroke:#1984ef;stroke-width:1.02px;"/><path d="M440.174,91.738l-0,34.698" style="fill:none;fill-rule:nonzero;stroke:#1984ef;stroke-width:1.02px;"/><path d="M352.922,176.499l87.252,-50.063" style="fill:none;fill-rule:nonzero;stroke:#1984ef;stroke-width:1.02px;"/><path d="M352.922,100.803l14.438,8.284" style="fill:none;fill-rule:nonzero;stroke:#1984ef;stroke-width:1.02px;"/><path d="M338.484,109.087l14.438,-8.284" style="fill:none;fill-rule:nonzero;stroke:#1984ef;stroke-width:1.02px;"/></g></g></g><g><g id="Edge-Visible-NotSmooth2" serif:id="Edge-Visible-NotSmooth"><g id="Extruded.002--Edge-Visible-NotSmooth-2" serif:id="Extruded.002 (Edge-Visible-NotSmooth)"><path d="M507.423,91.738l87.252,50.063" style="fill:none;fill-rule:nonzero;stroke:#1984ef;stroke-width:1.02px;"/><path d="M594.675,141.801l-0,34.698" style="fill:none;fill-rule:nonzero;stroke:#1984ef;stroke-width:1.02px;"/><path d="M681.927,91.738l-87.252,50.063" style="fill:none;fill-rule:nonzero;stroke:#1984ef;stroke-width:1.02px;"/><path d="M594.675,66.105l-44.674,25.633" style="fill:none;fill-rule:nonzero;stroke:#1984ef;stroke-width:1.02px;"/><path d="M550.001,91.738l30.236,17.349" style="fill:none;fill-rule:nonzero;stroke:#1984ef;stroke-width:1.02px;"/><path d="M609.113,109.087l30.236,-17.349" style="fill:none;fill-rule:nonzero;stroke:#1984ef;stroke-width:1.02px;"/><path d="M639.349,91.738l-44.674,-25.633" style="fill:none;fill-rule:nonzero;stroke:#1984ef;stroke-width:1.02px;"/><path d="M594.675,100.803l-0,-34.698" style="fill:none;fill-rule:nonzero;stroke:#1984ef;stroke-width:1.02px;"/></g></g><g id="Edge-Visible-NotSmooth-Silhouette2" serif:id="Edge-Visible-NotSmooth-Silhouette"><g id="Extruded.002--Edge-Visible-NotSmooth-Silhouette-2" serif:id="Extruded.002 (Edge-Visible-NotSmooth-Silhouette)"><path d="M594.675,176.499l-87.252,-50.063" style="fill:none;fill-rule:nonzero;stroke:#1984ef;stroke-width:1.02px;"/><path d="M507.423,91.738l0,34.698" style="fill:none;fill-rule:nonzero;stroke:#1984ef;stroke-width:1.02px;"/><path d="M594.675,41.674l-87.252,50.064" style="fill:none;fill-rule:nonzero;stroke:#1984ef;stroke-width:1.02px;"/><path d="M594.675,41.674l87.252,50.064" style="fill:none;fill-rule:nonzero;stroke:#1984ef;stroke-width:1.02px;"/><path d="M580.237,109.087l14.438,8.284" style="fill:none;fill-rule:nonzero;stroke:#1984ef;stroke-width:1.02px;"/><path d="M594.675,117.371l14.438,-8.284" style="fill:none;fill-rule:nonzero;stroke:#1984ef;stroke-width:1.02px;"/><path d="M681.927,91.738l-0,34.698" style="fill:none;fill-rule:nonzero;stroke:#1984ef;stroke-width:1.02px;"/><path d="M594.675,176.499l87.252,-50.063" style="fill:none;fill-rule:nonzero;stroke:#1984ef;stroke-width:1.02px;"/><path d="M594.675,100.803l14.438,8.284" style="fill:none;fill-rule:nonzero;stroke:#1984ef;stroke-width:1.02px;"/><path d="M580.237,109.087l14.438,-8.284" style="fill:none;fill-rule:nonzero;stroke:#1984ef;stroke-width:1.02px;"/></g></g></g></g></svg>