<?xml version="1.0" encoding="UTF-8" standalone="no"?><!DOCTYPE svg PUBLIC "-//W3C//DTD SVG 1.1//EN" "http://www.w3.org/Graphics/SVG/1.1/DTD/svg11.dtd"><svg width="100%" height="100%" viewBox="0 0 710 221" version="1.1" xmlns="http://www.w3.org/2000/svg" xmlns:xlink="http://www.w3.org/1999/xlink" xml:space="preserve" xmlns:serif="http://www.serif.com/" style="fill-rule:evenodd;clip-rule:evenodd;stroke-linecap:round;"><g id="Hidden-Lines:-Dash-Length" serif:id="Hidden Lines: Dash Length"><g id="Text"><g transform="matrix(0.955903,0,0,1,-107.523,0)"><g transform="matrix(12.2222,0,0,12.2222,260.109,204.888)"></g><text x="197.817px" y="204.888px" style="font-family:'Roboto-Regular', 'Roboto';font-size:12.222px;fill:#dcdcdc;">VA<tspan x="214.006px 220.702px 229.079px 236.252px 239.212px 242.47px 249.565px 253.014px " y="204.888px 204.888px 204.888px 204.888px 204.888px 204.888px 204.888px 204.888px ">LUE: 1.0</tspan></text></g><g transform="matrix(0.955903,0,0,1,-96.8648,0)"><g transform="matrix(12.2222,0,0,12.2222,501.804,204.888)"></g><text x="439.513px" y="204.888px" style="font-family:'Roboto-Regular', 'Roboto';font-size:12.222px;fill:#dcdcdc;">VA<tspan x="455.701px 462.397px 470.775px 477.947px 480.907px 484.165px 491.26px 494.709px " y="204.888px 204.888px 204.888px 204.888px 204.888px 204.888px 204.888px 204.888px ">LUE: 5.0</tspan></text></g><g transform="matrix(0.955903,0,0,1,-86.2042,0)"><g transform="matrix(12.2222,0,0,12.2222,743.557,204.888)"></g><text x="681.265px" y="204.888px" style="font-family:'Roboto-Regular', 'Roboto';font-size:12.222px;fill:#dcdcdc;">VA<tspan x="697.454px 704.15px 712.527px 719.7px 722.66px 725.918px 733.013px 736.462px " y="204.888px 204.888px 204.888px 204.888px 204.888px 204.888px 204.888px 204.888px ">LUE: 0.0</tspan></text></g></g><g><g id="Edge-Hidden-NotSmooth"><g id="Extruded.002--Edge-Hidden-NotSmooth-" serif:id="Extruded.002 (Edge-Hidden-NotSmooth)"><path d="M155.843,126.267l-44.674,25.633" style="fill:none;fill-rule:nonzero;stroke:#1984ef;stroke-width:1.67px;stroke-dasharray:3.33,3.33,0,0,0,0;"/><path d="M111.169,151.9l0,-34.698" style="fill:none;fill-rule:nonzero;stroke:#1984ef;stroke-width:1.67px;stroke-dasharray:3.33,3.33,0,0,0,0;"/><path d="M66.496,126.267l44.673,25.633" style="fill:none;fill-rule:nonzero;stroke:#1984ef;stroke-width:1.67px;stroke-dasharray:3.33,3.33,0,0,0,0;"/><path d="M155.843,126.267l0,-34.698" style="fill:none;fill-rule:nonzero;stroke:#1984ef;stroke-width:1.67px;stroke-dasharray:3.33,3.33,0,0,0,0;"/><path d="M125.607,108.918l30.236,17.349" style="fill:none;fill-rule:nonzero;stroke:#1984ef;stroke-width:1.67px;stroke-dasharray:3.33,3.33,0,0,0,0;"/><path d="M198.421,126.267l-87.252,-50.063" style="fill:none;fill-rule:nonzero;stroke:#1984ef;stroke-width:1.67px;stroke-dasharray:3.33,3.33,0,0,0,0;"/><path d="M66.496,126.267l-0,-34.698" style="fill:none;fill-rule:nonzero;stroke:#1984ef;stroke-width:1.67px;stroke-dasharray:3.33,3.33,0,0,0,0;"/><path d="M66.496,126.267l30.236,-17.349" style="fill:none;fill-rule:nonzero;stroke:#1984ef;stroke-width:1.67px;stroke-dasharray:3.33,3.33,0,0,0,0;"/><path d="M111.169,41.506l0,34.698" style="fill:none;fill-rule:nonzero;stroke:#1984ef;stroke-width:1.67px;stroke-dasharray:3.33,3.33,0,0,0,0;"/><path d="M23.918,126.267l87.251,-50.063" style="fill:none;fill-rule:nonzero;stroke:#1984ef;stroke-width:1.67px;stroke-dasharray:3.33,3.33,0,0,0,0;"/></g></g><g id="Edge-Visible-NotSmooth"><g id="Extruded.002--Edge-Visible-NotSmooth-" serif:id="Extruded.002 (Edge-Visible-NotSmooth)"><path d="M23.918,91.569l87.251,50.064" style="fill:none;fill-rule:nonzero;stroke:#1984ef;stroke-width:1.02px;"/><path d="M111.169,141.633l0,34.698" style="fill:none;fill-rule:nonzero;stroke:#1984ef;stroke-width:1.02px;"/><path d="M198.421,91.569l-87.252,50.064" style="fill:none;fill-rule:nonzero;stroke:#1984ef;stroke-width:1.02px;"/><path d="M111.169,65.936l-44.673,25.633" style="fill:none;fill-rule:nonzero;stroke:#1984ef;stroke-width:1.02px;"/><path d="M66.496,91.569l30.236,17.349" style="fill:none;fill-rule:nonzero;stroke:#1984ef;stroke-width:1.02px;"/><path d="M125.607,108.918l30.236,-17.349" style="fill:none;fill-rule:nonzero;stroke:#1984ef;stroke-width:1.02px;"/><path d="M155.843,91.569l-44.674,-25.633" style="fill:none;fill-rule:nonzero;stroke:#1984ef;stroke-width:1.02px;"/><path d="M111.169,100.634l0,-34.698" style="fill:none;fill-rule:nonzero;stroke:#1984ef;stroke-width:1.02px;"/></g></g><g id="Edge-Visible-NotSmooth-Silhouette"><g id="Extruded.002--Edge-Visible-NotSmooth-Silhouette-" serif:id="Extruded.002 (Edge-Visible-NotSmooth-Silhouette)"><path d="M111.169,176.331l-87.251,-50.064" style="fill:none;fill-rule:nonzero;stroke:#1984ef;stroke-width:1.02px;"/><path d="M23.918,91.569l-0,34.698" style="fill:none;fill-rule:nonzero;stroke:#1984ef;stroke-width:1.02px;"/><path d="M111.169,41.506l-87.251,50.063" style="fill:none;fill-rule:nonzero;stroke:#1984ef;stroke-width:1.02px;"/><path d="M111.169,41.506l87.252,50.063" style="fill:none;fill-rule:nonzero;stroke:#1984ef;stroke-width:1.02px;"/><path d="M96.732,108.918l14.437,8.284" style="fill:none;fill-rule:nonzero;stroke:#1984ef;stroke-width:1.02px;"/><path d="M111.169,117.202l14.438,-8.284" style="fill:none;fill-rule:nonzero;stroke:#1984ef;stroke-width:1.02px;"/><path d="M198.421,91.569l-0,34.698" style="fill:none;fill-rule:nonzero;stroke:#1984ef;stroke-width:1.02px;"/><path d="M111.169,176.331l87.252,-50.064" style="fill:none;fill-rule:nonzero;stroke:#1984ef;stroke-width:1.02px;"/><path d="M111.169,100.634l14.438,8.284" style="fill:none;fill-rule:nonzero;stroke:#1984ef;stroke-width:1.02px;"/><path d="M96.732,108.918l14.437,-8.284" style="fill:none;fill-rule:nonzero;stroke:#1984ef;stroke-width:1.02px;"/></g></g></g><g><g id="Edge-Hidden-NotSmooth1" serif:id="Edge-Hidden-NotSmooth"><g id="Extruded.002--Edge-Hidden-NotSmooth-1" serif:id="Extruded.002 (Edge-Hidden-NotSmooth)"><g><path d="M397.596,126.267l-44.674,25.633" style="fill:none;fill-rule:nonzero;stroke:#1984ef;stroke-width:1.67px;stroke-dasharray:16.67,3.33,0,0,0,0;"/><path d="M308.248,126.267l44.674,25.633" style="fill:none;fill-rule:nonzero;stroke:#1984ef;stroke-width:1.67px;stroke-dasharray:16.67,3.33,0,0,0,0;"/><path d="M397.596,126.267l-0,-34.698" style="fill:none;fill-rule:nonzero;stroke:#1984ef;stroke-width:1.67px;stroke-dasharray:16.67,3.33,0,0,0,0;"/><path d="M367.36,108.918l30.236,17.349" style="fill:none;fill-rule:nonzero;stroke:#1984ef;stroke-width:1.67px;stroke-dasharray:16.67,3.33,0,0,0,0;"/><path d="M440.174,126.267l-87.252,-50.063" style="fill:none;fill-rule:nonzero;stroke:#1984ef;stroke-width:1.67px;stroke-dasharray:16.67,3.33,0,0,0,0;"/><path d="M308.248,126.267l0,-34.698" style="fill:none;fill-rule:nonzero;stroke:#1984ef;stroke-width:1.67px;stroke-dasharray:16.67,3.33,0,0,0,0;"/><path d="M308.248,126.267l30.236,-17.349" style="fill:none;fill-rule:nonzero;stroke:#1984ef;stroke-width:1.67px;stroke-dasharray:16.67,3.33,0,0,0,0;"/><path d="M265.671,126.267l87.251,-50.063" style="fill:none;fill-rule:nonzero;stroke:#1984ef;stroke-width:1.67px;stroke-dasharray:16.67,3.33,0,0,0,0;"/></g><path d="M352.922,151.9l0,-34.698" style="fill:none;fill-rule:nonzero;stroke:#1984ef;stroke-width:1.67px;stroke-dasharray:16.67,3.33,0,0,0,0;"/><path d="M352.922,41.506l0,34.698" style="fill:none;fill-rule:nonzero;stroke:#1984ef;stroke-width:1.67px;stroke-dasharray:16.67,3.33,0,0,0,0;"/></g></g><g id="Edge-Visible-NotSmooth1" serif:id="Edge-Visible-NotSmooth"><g id="Extruded.002--Edge-Visible-NotSmooth-1" serif:id="Extruded.002 (Edge-Visible-NotSmooth)"><path d="M265.671,91.569l87.251,50.064" style="fill:none;fill-rule:nonzero;stroke:#1984ef;stroke-width:1.02px;"/><path d="M352.922,141.633l0,34.698" style="fill:none;fill-rule:nonzero;stroke:#1984ef;stroke-width:1.02px;"/><path d="M440.174,91.569l-87.252,50.064" style="fill:none;fill-rule:nonzero;stroke:#1984ef;stroke-width:1.02px;"/><path d="M352.922,65.936l-44.674,25.633" style="fill:none;fill-rule:nonzero;stroke:#1984ef;stroke-width:1.02px;"/><path d="M308.248,91.569l30.236,17.349" style="fill:none;fill-rule:nonzero;stroke:#1984ef;stroke-width:1.02px;"/><path d="M367.36,108.918l30.236,-17.349" style="fill:none;fill-rule:nonzero;stroke:#1984ef;stroke-width:1.02px;"/><path d="M397.596,91.569l-44.674,-25.633" style="fill:none;fill-rule:nonzero;stroke:#1984ef;stroke-width:1.02px;"/><path d="M352.922,100.634l0,-34.698" style="fill:none;fill-rule:nonzero;stroke:#1984ef;stroke-width:1.02px;"/></g></g><g id="Edge-Visible-NotSmooth-Silhouette1" serif:id="Edge-Visible-NotSmooth-Silhouette"><g id="Extruded.002--Edge-Visible-NotSmooth-Silhouette-1" serif:id="Extruded.002 (Edge-Visible-NotSmooth-Silhouette)"><path d="M352.922,176.331l-87.251,-50.064" style="fill:none;fill-rule:nonzero;stroke:#1984ef;stroke-width:1.02px;"/><path d="M265.671,91.569l-0,34.698" style="fill:none;fill-rule:nonzero;stroke:#1984ef;stroke-width:1.02px;"/><path d="M352.922,41.506l-87.251,50.063" style="fill:none;fill-rule:nonzero;stroke:#1984ef;stroke-width:1.02px;"/><path d="M352.922,41.506l87.252,50.063" style="fill:none;fill-rule:nonzero;stroke:#1984ef;stroke-width:1.02px;"/><path d="M338.484,108.918l14.438,8.284" style="fill:none;fill-rule:nonzero;stroke:#1984ef;stroke-width:1.02px;"/><path d="M352.922,117.202l14.438,-8.284" style="fill:none;fill-rule:nonzero;stroke:#1984ef;stroke-width:1.02px;"/><path d="M440.174,91.569l-0,34.698" style="fill:none;fill-rule:nonzero;stroke:#1984ef;stroke-width:1.02px;"/><path d="M352.922,176.331l87.252,-50.064" style="fill:none;fill-rule:nonzero;stroke:#1984ef;stroke-width:1.02px;"/><path d="M352.922,100.634l14.438,8.284" style="fill:none;fill-rule:nonzero;stroke:#1984ef;stroke-width:1.02px;"/><path d="M338.484,108.918l14.438,-8.284" style="fill:none;fill-rule:nonzero;stroke:#1984ef;stroke-width:1.02px;"/></g></g></g><g><g id="Edge-Hidden-NotSmooth2" serif:id="Edge-Hidden-NotSmooth"><g id="Extruded.002--Edge-Hidden-NotSmooth-2" serif:id="Extruded.002 (Edge-Hidden-NotSmooth)"><path d="M639.349,126.267l-44.674,25.633" style="fill:none;fill-rule:nonzero;stroke:#1984ef;stroke-width:2.5px;stroke-dasharray:0,5,0,0,0,0;"/><path d="M594.675,151.9l-0,-34.698" style="fill:none;fill-rule:nonzero;stroke:#1984ef;stroke-width:2.5px;stroke-dasharray:0,5,0,0,0,0;"/><path d="M550.001,126.267l44.674,25.633" style="fill:none;fill-rule:nonzero;stroke:#1984ef;stroke-width:2.5px;stroke-dasharray:0,5,0,0,0,0;"/><path d="M639.349,126.267l-0,-34.698" style="fill:none;fill-rule:nonzero;stroke:#1984ef;stroke-width:2.5px;stroke-dasharray:0,5,0,0,0,0;"/><path d="M609.113,108.918l30.236,17.349" style="fill:none;fill-rule:nonzero;stroke:#1984ef;stroke-width:2.5px;stroke-dasharray:0,5,0,0,0,0;"/><path d="M681.927,126.267l-87.252,-50.063" style="fill:none;fill-rule:nonzero;stroke:#1984ef;stroke-width:2.5px;stroke-dasharray:0,5,0,0,0,0;"/><path d="M550.001,126.267l0,-34.698" style="fill:none;fill-rule:nonzero;stroke:#1984ef;stroke-width:2.5px;stroke-dasharray:0,5,0,0,0,0;"/><path d="M550.001,126.267l30.236,-17.349" style="fill:none;fill-rule:nonzero;stroke:#1984ef;stroke-width:2.5px;stroke-dasharray:0,5,0,0,0,0;"/><path d="M594.675,41.506l-0,34.698" style="fill:none;fill-rule:nonzero;stroke:#1984ef;stroke-width:2.5px;stroke-dasharray:0,5,0,0,0,0;"/><path d="M507.423,126.267l87.252,-50.063" style="fill:none;fill-rule:nonzero;stroke:#1984ef;stroke-width:2.5px;stroke-dasharray:0,5,0,0,0,0;"/></g></g><g id="Edge-Visible-NotSmooth2" serif:id="Edge-Visible-NotSmooth"><g id="Extruded.002--Edge-Visible-NotSmooth-2" serif:id="Extruded.002 (Edge-Visible-NotSmooth)"><path d="M507.423,91.569l87.252,50.064" style="fill:none;fill-rule:nonzero;stroke:#1984ef;stroke-width:1.02px;"/><path d="M594.675,141.633l-0,34.698" style="fill:none;fill-rule:nonzero;stroke:#1984ef;stroke-width:1.02px;"/><path d="M681.927,91.569l-87.252,50.064" style="fill:none;fill-rule:nonzero;stroke:#1984ef;stroke-width:1.02px;"/><path d="M594.675,65.936l-44.674,25.633" style="fill:none;fill-rule:nonzero;stroke:#1984ef;stroke-width:1.02px;"/><path d="M550.001,91.569l30.236,17.349" style="fill:none;fill-rule:nonzero;stroke:#1984ef;stroke-width:1.02px;"/><path d="M609.113,108.918l30.236,-17.349" style="fill:none;fill-rule:nonzero;stroke:#1984ef;stroke-width:1.02px;"/><path d="M639.349,91.569l-44.674,-25.633" style="fill:none;fill-rule:nonzero;stroke:#1984ef;stroke-width:1.02px;"/><path d="M594.675,100.634l-0,-34.698" style="fill:none;fill-rule:nonzero;stroke:#1984ef;stroke-width:1.02px;"/></g></g><g id="Edge-Visible-NotSmooth-Silhouette2" serif:id="Edge-Visible-NotSmooth-Silhouette"><g id="Extruded.002--Edge-Visible-NotSmooth-Silhouette-2" serif:id="Extruded.002 (Edge-Visible-NotSmooth-Silhouette)"><path d="M594.675,176.331l-87.252,-50.064" style="fill:none;fill-rule:nonzero;stroke:#1984ef;stroke-width:1.02px;"/><path d="M507.423,91.569l0,34.698" style="fill:none;fill-rule:nonzero;stroke:#1984ef;stroke-width:1.02px;"/><path d="M594.675,41.506l-87.252,50.063" style="fill:none;fill-rule:nonzero;stroke:#1984ef;stroke-width:1.02px;"/><path d="M594.675,41.506l87.252,50.063" style="fill:none;fill-rule:nonzero;stroke:#1984ef;stroke-width:1.02px;"/><path d="M580.237,108.918l14.438,8.284" style="fill:none;fill-rule:nonzero;stroke:#1984ef;stroke-width:1.02px;"/><path d="M594.675,117.202l14.438,-8.284" style="fill:none;fill-rule:nonzero;stroke:#1984ef;stroke-width:1.02px;"/><path d="M681.927,91.569l-0,34.698" style="fill:none;fill-rule:nonzero;stroke:#1984ef;stroke-width:1.02px;"/><path d="M594.675,176.331l87.252,-50.064" style="fill:none;fill-rule:nonzero;stroke:#1984ef;stroke-width:1.02px;"/><path d="M594.675,100.634l14.438,8.284" style="fill:none;fill-rule:nonzero;stroke:#1984ef;stroke-width:1.02px;"/><path d="M580.237,108.918l14.438,-8.284" style="fill:none;fill-rule:nonzero;stroke:#1984ef;stroke-width:1.02px;"/></g></g></g></g></svg>