<?xml version="1.0" encoding="UTF-8" standalone="no"?><!DOCTYPE svg PUBLIC "-//W3C//DTD SVG 1.1//EN" "http://www.w3.org/Graphics/SVG/1.1/DTD/svg11.dtd"><svg width="100%" height="100%" viewBox="0 0 500 240" version="1.1" xmlns="http://www.w3.org/2000/svg" xmlns:xlink="http://www.w3.org/1999/xlink" xml:space="preserve" xmlns:serif="http://www.serif.com/" style="fill-rule:evenodd;clip-rule:evenodd;stroke-linecap:round;stroke-linejoin:bevel;"><g><g><path d="M48.071,123.462c61.859,28.813 126.374,17.545 188.469,5.607" style="fill:none;stroke:#517fae;stroke-width:2.4px;"/><path d="M236.54,129.069c73.146,-41.024 150.56,-74.312 239.858,-39.579" style="fill:none;stroke:#f00;stroke-width:2.4px;"/><path d="M23.602,175.995c82.435,34.19 145.996,-9.387 212.938,-46.926" style="fill:none;stroke:#f00;stroke-width:2.4px;"/><path d="M236.54,129.069c71.369,-13.721 139.542,-28.327 196.817,16.015" style="fill:none;stroke:#517fae;stroke-width:2.4px;"/><path d="M258.849,124.798l-1.343,-7.159" style="fill:none;stroke:#a3a3a3;stroke-opacity:0.5;stroke-width:1.18px;"/><path d="M281.214,120.828l-2.293,-13.974" style="fill:none;stroke:#a3a3a3;stroke-opacity:0.5;stroke-width:1.18px;"/><path d="M303.696,117.6l-2.473,-20.71" style="fill:none;stroke:#a3a3a3;stroke-opacity:0.5;stroke-width:1.18px;"/><path d="M326.32,115.63l-1.394,-27.588" style="fill:none;stroke:#a3a3a3;stroke-opacity:0.5;stroke-width:1.18px;"/><path d="M349.025,115.527l1.614,-34.708" style="fill:none;stroke:#a3a3a3;stroke-opacity:0.5;stroke-width:1.18px;"/><path d="M371.592,117.97l7.371,-41.88" style="fill:none;stroke:#a3a3a3;stroke-opacity:0.5;stroke-width:1.18px;"/><path d="M393.58,123.577l16.512,-48.397" style="fill:none;stroke:#a3a3a3;stroke-opacity:0.5;stroke-width:1.18px;"/><path d="M414.365,132.67l28.826,-53.19" style="fill:none;stroke:#a3a3a3;stroke-opacity:0.5;stroke-width:1.18px;"/><path d="M433.357,145.084l43.041,-55.594" style="fill:none;stroke:#a3a3a3;stroke-opacity:0.5;stroke-width:1.18px;"/><path d="M215.573,133.003l1.305,7.23" style="fill:none;stroke:#a3a3a3;stroke-opacity:0.5;stroke-width:1.18px;"/><path d="M194.535,136.543l2.3,14.975" style="fill:none;stroke:#a3a3a3;stroke-opacity:0.5;stroke-width:1.18px;"/><path d="M173.392,139.373l2.586,23.163" style="fill:none;stroke:#a3a3a3;stroke-opacity:0.5;stroke-width:1.18px;"/><path d="M152.137,141.164l1.715,31.564" style="fill:none;stroke:#a3a3a3;stroke-opacity:0.5;stroke-width:1.18px;"/><path d="M130.812,141.573l-0.739,39.667" style="fill:none;stroke:#a3a3a3;stroke-opacity:0.5;stroke-width:1.18px;"/><path d="M109.526,140.259l-5.016,46.603" style="fill:none;stroke:#a3a3a3;stroke-opacity:0.5;stroke-width:1.18px;"/><path d="M88.465,136.918l-10.912,51.338" style="fill:none;stroke:#a3a3a3;stroke-opacity:0.5;stroke-width:1.18px;"/><path d="M67.885,131.34l-17.7,53.234" style="fill:none;stroke:#a3a3a3;stroke-opacity:0.5;stroke-width:1.18px;"/><path d="M48.071,123.462l-24.469,52.533" style="fill:none;stroke:#a3a3a3;stroke-opacity:0.5;stroke-width:1.18px;"/><path d="M433.357,145.084l-116.592,-91.282l-153.335,132.396l-115.359,-62.736" style="fill:none;stroke:#a3a3a3;stroke-opacity:0.5;stroke-width:3.08px;stroke-linejoin:round;stroke-miterlimit:1.5;stroke-dasharray:0,6.17,0,0,0,0;"/><circle cx="433.357" cy="144.249" r="5.044" style="fill:#4ec464;"/><path d="M433.357,139.205c2.784,-0 5.044,2.26 5.044,5.044c0,2.783 -2.26,5.044 -5.044,5.044c-2.783,-0 -5.043,-2.261 -5.043,-5.044c-0,-2.784 2.26,-5.044 5.043,-5.044Zm0,1.242c-2.098,0 -3.801,1.704 -3.801,3.802c-0,2.098 1.703,3.801 3.801,3.801c2.098,0 3.802,-1.703 3.802,-3.801c-0,-2.098 -1.704,-3.802 -3.802,-3.802Z"/><circle cx="316.765" cy="53.802" r="5.044" style="fill:#4ec464;"/><path d="M316.765,48.758c2.784,-0 5.044,2.26 5.044,5.044c0,2.783 -2.26,5.044 -5.044,5.044c-2.783,-0 -5.043,-2.261 -5.043,-5.044c-0,-2.784 2.26,-5.044 5.043,-5.044Zm0,1.242c-2.098,0 -3.801,1.704 -3.801,3.802c-0,2.098 1.703,3.801 3.801,3.801c2.099,0 3.802,-1.703 3.802,-3.801c-0,-2.098 -1.703,-3.802 -3.802,-3.802Z"/><circle cx="163.43" cy="186.198" r="5.044" style="fill:#4ec464;"/><path d="M163.43,181.154c2.783,0 5.043,2.261 5.043,5.044c0,2.784 -2.26,5.044 -5.043,5.044c-2.784,0 -5.044,-2.26 -5.044,-5.044c-0,-2.783 2.26,-5.044 5.044,-5.044Zm-0,1.243c-2.099,-0 -3.802,1.703 -3.802,3.801c0,2.098 1.703,3.802 3.802,3.802c2.098,-0 3.801,-1.704 3.801,-3.802c0,-2.098 -1.703,-3.801 -3.801,-3.801Z"/><circle cx="48.071" cy="123.978" r="5.044" style="fill:#4ec464;"/><path d="M48.071,118.934c2.784,0 5.044,2.26 5.044,5.044c0,2.784 -2.26,5.044 -5.044,5.044c-2.783,-0 -5.043,-2.26 -5.043,-5.044c-0,-2.784 2.26,-5.044 5.043,-5.044Zm0,1.242c-2.098,0 -3.801,1.704 -3.801,3.802c-0,2.098 1.703,3.801 3.801,3.801c2.098,0 3.802,-1.703 3.802,-3.801c-0,-2.098 -1.704,-3.802 -3.802,-3.802Z"/><g transform="matrix(19.1678,0,0,19.1678,398.612,170.215)"></g><text x="289.069px" y="170.215px" style="font-family:'Geist-Medium', 'Geist';font-weight:500;font-size:19.168px;fill:#dcdcdc;">I<tspan x="294.091px 308.026px 318.894px 329.225px 340.898px 354.277px 364.666px 369.746px 384.332px " y="170.215px 170.215px 170.215px 170.215px 170.215px 170.215px 170.215px 170.215px 170.215px ">NFLECTION</tspan></text><path d="M251.7,139.028l-9.814,-4.907l4.907,9.815l4.907,-4.908Z" style="fill:#dcdcdc;"/><path d="M247.775,140.01c8.552,8.552 23.4,23.401 23.4,23.401l12.854,-0" style="fill:none;stroke:#dcdcdc;stroke-width:2.31px;stroke-linejoin:round;stroke-miterlimit:1.5;"/><circle cx="236.584" cy="129.249" r="3.727" style="fill:#f2af0d;"/></g></g></svg>