<?xml version="1.0" encoding="UTF-8" standalone="no"?><!DOCTYPE svg PUBLIC "-//W3C//DTD SVG 1.1//EN" "http://www.w3.org/Graphics/SVG/1.1/DTD/svg11.dtd"><svg width="100%" height="100%" viewBox="0 0 901 264" version="1.1" xmlns="http://www.w3.org/2000/svg" xmlns:xlink="http://www.w3.org/1999/xlink" xml:space="preserve" xmlns:serif="http://www.serif.com/" style="fill-rule:evenodd;clip-rule:evenodd;stroke-linecap:round;"><g id="Measure-Curve-and-Surface-Curvature" serif:id="Measure Curve and Surface Curvature"><g><g><g transform="matrix(12.0829,0,0,12.0829,185.896,242.787)"></g><text x="137.818px" y="242.787px" style="font-family:'Geist-Medium', 'Geist';font-weight:500;font-size:12.083px;fill:#dcdcdc;">CU<tspan x="154.999px 162.612px 170.635px " y="242.787px 242.787px 242.787px ">RVE</tspan>S</text><g id="Curve"><g><g><path id="Shape2DView003_nwe0000" d="M144.047,210.74c-12.14,-9.441 -24.28,-18.071 -36.42,-25.891" style="fill:none;stroke:#004dd5;stroke-width:1.21px;"/><path id="Shape2DView003_nwe0001" d="M246.377,104.742c12.14,7.819 24.28,16.45 36.42,25.89" style="fill:none;stroke:#004dd5;stroke-width:1.21px;"/><path id="Shape2DView003_nwe0002" d="M282.797,130.632c-46.25,-33.144 -92.5,-6.442 -138.75,80.108" style="fill:none;stroke:#004dd5;stroke-width:1.21px;"/><path id="Shape2DView003_nwe0003" d="M107.627,184.849c-12.14,-7.819 -24.28,-14.828 -36.42,-21.027" style="fill:none;stroke:#004dd5;stroke-width:1.21px;"/><path id="Shape2DView003_nwe0004" d="M209.958,83.715c12.139,6.198 24.279,13.207 36.419,21.027" style="fill:none;stroke:#004dd5;stroke-width:1.21px;"/><path id="Shape2DView003_nwe0005" d="M71.207,163.822c-12.14,-6.198 -24.28,-11.586 -36.42,-16.163" style="fill:none;stroke:#004dd5;stroke-width:1.21px;"/><path id="Shape2DView003_nwe0006" d="M34.787,147.659c46.25,-42.114 92.501,-68.816 138.751,-80.107" style="fill:none;stroke:#004dd5;stroke-width:1.21px;"/><path id="Shape2DView003_nwe0007" d="M173.538,67.552c12.14,4.577 24.28,9.964 36.42,16.163" style="fill:none;stroke:#004dd5;stroke-width:1.21px;"/></g></g><g><g><path id="Shape2DView001_nwe0002" d="M34.787,147.659l-10.624,-36.377" style="fill:none;stroke:#808080;stroke-width:0.67px;"/><path id="Shape2DView001_nwe0006" d="M41.927,141.28l-9.603,-37.289" style="fill:none;stroke:#808080;stroke-width:0.67px;"/><path id="Shape2DView001_nwe0010" d="M49.119,135.103l-8.552,-38.193" style="fill:none;stroke:#808080;stroke-width:0.67px;"/><path id="Shape2DView001_nwe0014" d="M56.358,129.135l-7.474,-39.081" style="fill:none;stroke:#808080;stroke-width:0.67px;"/><path id="Shape2DView001_nwe0018" d="M63.638,123.387l-6.369,-39.953" style="fill:none;stroke:#808080;stroke-width:0.67px;"/><path id="Shape2DView001_nwe0022" d="M70.955,117.867l-5.243,-40.803" style="fill:none;stroke:#808080;stroke-width:0.67px;"/><path id="Shape2DView001_nwe0026" d="M78.303,112.583l-4.099,-41.626" style="fill:none;stroke:#808080;stroke-width:0.67px;"/><path id="Shape2DView001_nwe0030" d="M85.674,107.542l-2.938,-42.419" style="fill:none;stroke:#808080;stroke-width:0.67px;"/><path id="Shape2DView001_nwe0034" d="M93.062,102.751l-1.767,-43.178" style="fill:none;stroke:#808080;stroke-width:0.67px;"/><path id="Shape2DView001_nwe0038" d="M100.461,98.217l-0.59,-43.901" style="fill:none;stroke:#808080;stroke-width:0.67px;"/><path id="Shape2DView001_nwe0042" d="M107.864,93.943l0.59,-44.582" style="fill:none;stroke:#808080;stroke-width:0.67px;"/><path id="Shape2DView001_nwe0046" d="M115.263,89.934l1.767,-45.219" style="fill:none;stroke:#808080;stroke-width:0.67px;"/><path id="Shape2DView001_nwe0050" d="M122.651,86.193l2.938,-45.812" style="fill:none;stroke:#808080;stroke-width:0.67px;"/><path id="Shape2DView001_nwe0054" d="M130.022,82.723l4.099,-46.359" style="fill:none;stroke:#808080;stroke-width:0.67px;"/><path id="Shape2DView001_nwe0058" d="M137.37,79.523l5.243,-46.857" style="fill:none;stroke:#808080;stroke-width:0.67px;"/><path id="Shape2DView001_nwe0062" d="M144.687,76.594l6.369,-47.308" style="fill:none;stroke:#808080;stroke-width:0.67px;"/><path id="Shape2DView001_nwe0066" d="M151.967,73.935l7.474,-47.711" style="fill:none;stroke:#808080;stroke-width:0.67px;"/><path id="Shape2DView001_nwe0070" d="M159.206,71.544l8.552,-48.068" style="fill:none;stroke:#808080;stroke-width:0.67px;"/><path id="Shape2DView001_nwe0074" d="M166.398,69.417l9.603,-48.378" style="fill:none;stroke:#808080;stroke-width:0.67px;"/><path id="Shape2DView001_nwe0078" d="M173.538,67.552l10.624,-48.646" style="fill:none;stroke:#808080;stroke-width:0.67px;"/></g><g><path id="Shape2DView005_nwe0008" d="M24.163,111.282c6.599,-6.009 13.221,-11.764 19.863,-17.258c6.641,-5.495 13.302,-10.728 19.977,-15.694c6.674,-4.966 13.363,-9.663 20.058,-14.087c6.696,-4.423 13.399,-8.572 20.102,-12.442c6.702,-3.87 13.405,-7.461 20.101,-10.768c6.695,-3.308 13.384,-6.334 20.058,-9.075c6.675,-2.742 13.336,-5.2 19.978,-7.374c6.641,-2.175 13.263,-4.067 19.862,-5.678" style="fill:none;stroke:#f00;stroke-width:1.01px;"/></g></g><g><g><path id="Shape2DView001_nwe0082" d="M226.268,119.923l14.278,-87.692" style="fill:none;stroke:#808080;stroke-width:0.67px;"/><path id="Shape2DView001_nwe0086" d="M200.575,134.757l-14.278,-71.205" style="fill:none;stroke:#808080;stroke-width:0.67px;"/><path id="Shape2DView001_nwe0090" d="M192.263,142.192l-20.085,-56.26" style="fill:none;stroke:#808080;stroke-width:0.67px;"/><path id="Shape2DView001_nwe0094" d="M184.276,150.551l-22.758,-42.679" style="fill:none;stroke:#808080;stroke-width:0.67px;"/><path id="Shape2DView001_nwe0098" d="M176.665,159.623l-23.265,-31.813" style="fill:none;stroke:#808080;stroke-width:0.67px;"/><path id="Shape2DView001_nwe0102" d="M169.442,169.232l-22.529,-23.611" style="fill:none;stroke:#808080;stroke-width:0.67px;"/><path id="Shape2DView001_nwe0106" d="M162.595,179.239l-21.191,-17.568" style="fill:none;stroke:#808080;stroke-width:0.67px;"/><path id="Shape2DView001_nwe0110" d="M156.099,189.54l-19.667,-13.171" style="fill:none;stroke:#808080;stroke-width:0.67px;"/><path id="Shape2DView001_nwe0114" d="M149.926,200.059l-18.244,-10.006" style="fill:none;stroke:#808080;stroke-width:0.67px;"/><path id="Shape2DView001_nwe0118" d="M144.047,210.74l-17.154,-7.772" style="fill:none;stroke:#808080;stroke-width:0.67px;"/><path id="Shape2DView001_nwe0122" d="M217.731,123.486l5.241,-89.97" style="fill:none;stroke:#808080;stroke-width:0.67px;"/><path id="Shape2DView001_nwe0126" d="M209.113,128.462l-5.242,-83.918" style="fill:none;stroke:#808080;stroke-width:0.67px;"/><path id="Shape2DView004_nwe0018" d="M234.581,117.76l20.085,-79.453" style="fill:none;stroke:#808080;stroke-width:0.67px;"/><path id="Shape2DView004_nwe0030" d="M283.024,130.267l16.927,-27.214" style="fill:none;stroke:#808080;stroke-width:0.67px;"/><path id="Shape2DView004_nwe0033" d="M242.568,116.896l4.33,-13.122" style="fill:none;stroke:#808080;stroke-width:0.67px;"/><path id="Shape2DView004_nwe0035" d="M257.402,118.448l13.36,-29.428" style="fill:none;stroke:#808080;stroke-width:0.67px;"/><path id="Shape2DView004_nwe0037" d="M250.179,117.179l8.466,-21.353" style="fill:none;stroke:#808080;stroke-width:0.67px;"/><path id="Shape2DView004_nwe0039" d="M276.917,126.741l18.245,-31.073" style="fill:none;stroke:#808080;stroke-width:0.67px;"/><path id="Shape2DView004_nwe0042" d="M270.744,123.35l19.668,-35.881" style="fill:none;stroke:#808080;stroke-width:0.67px;"/><path id="Shape2DView004_nwe0045" d="M264.249,120.549l18.828,-37.351" style="fill:none;stroke:#808080;stroke-width:0.67px;"/><path id="Shape2DView004_nwe0028" d="M283.077,83.198l2.363,-4.687" style="fill:none;stroke:#808080;stroke-width:0.67px;"/><path id="Shape2DView004_nwe0006" d="M246.898,103.774l18.428,-55.837" style="fill:none;stroke:#808080;stroke-width:0.67px;"/><path id="Shape2DView004_nwe0010" d="M270.762,89.02l9.169,-20.197" style="fill:none;stroke:#808080;stroke-width:0.67px;"/><path id="Shape2DView004_nwe0014" d="M258.645,95.826l14.799,-37.325" style="fill:none;stroke:#808080;stroke-width:0.67px;"/><path id="Shape2DView004_nwe0002" d="M282.797,130.632l0.227,-0.365" style="fill:none;stroke:#808080;stroke-width:0.67px;"/></g><g><path id="Shape2DView005_nwe0003" d="M126.893,202.968c4.683,-12.068 8.941,-24.819 13.199,-37.413c4.25,-12.605 8.498,-25.063 12.969,-36.853c4.466,-11.798 9.153,-22.934 14.129,-33.089c4.973,-10.159 10.232,-19.341 15.733,-27.338c10.986,-16.012 22.968,-27.243 34.835,-32.713c5.93,-2.742 11.821,-4.055 17.531,-3.898c5.711,0.154 11.238,1.783 16.491,4.82" style="fill:none;stroke:#f00;stroke-width:1.01px;"/><path id="Shape2DView005_nwe0004" d="M255.578,38.95c4.188,3.024 8.187,6.961 12.01,11.648c3.826,4.682 7.474,10.117 11.019,16.002c3.548,5.878 6.991,12.211 10.482,18.498c3.493,6.278 7.033,12.516 10.862,17.955" style="fill:none;stroke:#f00;stroke-width:1.01px;"/><path id="Shape2DView005_nwe0011" d="M251.78,36.484c1.282,0.74 2.548,1.562 3.798,2.466" style="fill:none;stroke:#f00;stroke-width:1.01px;"/></g></g><g><circle cx="144.054" cy="210.74" r="3.846" style="fill:#fff;"/><path d="M144.054,206.894c2.123,-0 3.846,1.723 3.846,3.846c0,2.123 -1.723,3.846 -3.846,3.846c-2.123,0 -3.846,-1.723 -3.846,-3.846c-0,-2.123 1.723,-3.846 3.846,-3.846Zm-0,0.947c-1.6,0 -2.899,1.299 -2.899,2.899c0,1.6 1.299,2.899 2.899,2.899c1.6,-0 2.899,-1.299 2.899,-2.899c-0,-1.6 -1.299,-2.899 -2.899,-2.899Z"/><circle cx="34.787" cy="147.853" r="3.846" style="fill:#fff;"/><path d="M34.787,144.007c2.123,0 3.847,1.723 3.847,3.846c-0,2.123 -1.724,3.847 -3.847,3.847c-2.122,-0 -3.846,-1.724 -3.846,-3.847c0,-2.123 1.724,-3.846 3.846,-3.846Zm0,0.947c-1.6,0 -2.899,1.299 -2.899,2.899c0,1.6 1.299,2.899 2.899,2.899c1.6,0 2.899,-1.299 2.899,-2.899c0,-1.6 -1.299,-2.899 -2.899,-2.899Z"/><circle cx="173.363" cy="67.76" r="3.846" style="fill:#fff;"/><path d="M173.363,63.914c2.123,-0 3.847,1.723 3.847,3.846c-0,2.123 -1.724,3.846 -3.847,3.846c-2.122,-0 -3.846,-1.723 -3.846,-3.846c0,-2.123 1.724,-3.846 3.846,-3.846Zm0,0.947c-1.599,-0 -2.898,1.299 -2.898,2.899c-0,1.6 1.299,2.899 2.898,2.899c1.6,-0 2.899,-1.299 2.899,-2.899c0,-1.6 -1.299,-2.899 -2.899,-2.899Z"/><circle cx="282.933" cy="130.91" r="3.846" style="fill:#fff;"/><path d="M282.933,127.063c2.123,0 3.846,1.724 3.846,3.847c0,2.122 -1.723,3.846 -3.846,3.846c-2.123,-0 -3.846,-1.724 -3.846,-3.846c-0,-2.123 1.723,-3.847 3.846,-3.847Zm0,0.948c-1.6,-0 -2.899,1.299 -2.899,2.899c0,1.6 1.299,2.898 2.899,2.898c1.6,0 2.899,-1.298 2.899,-2.898c0,-1.6 -1.299,-2.899 -2.899,-2.899Z"/></g></g></g><g><g transform="matrix(12.0829,0,0,12.0829,502.21,242.787)"></g><text x="401.933px" y="242.787px" style="font-family:'Geist-Medium', 'Geist';font-weight:500;font-size:12.083px;fill:#dcdcdc;">SU<tspan x="418.402px 426.619px 432.817px 440.732px " y="242.787px 242.787px 242.787px 242.787px ">RFAC</tspan>E E<tspan x="466.879px " y="242.787px ">D</tspan>GES</text><g id="Solid"><g><g><path d="M534.961,104.742c12.14,7.819 24.28,16.45 36.42,25.89c-46.25,-33.144 -92.5,-6.442 -138.751,80.108c-12.139,-9.441 -24.279,-18.071 -36.419,-25.891c46.234,-71.745 92.484,-98.448 138.75,-80.107Z" style="fill:#638ee8;fill-opacity:0.25;stroke:#517fae;stroke-width:1px;stroke-linecap:butt;stroke-linejoin:round;stroke-miterlimit:2;"/><path d="M498.541,83.715c12.14,6.198 24.28,13.207 36.42,21.027c-46.266,-18.341 -92.516,8.362 -138.75,80.107c-12.14,-7.819 -24.28,-14.828 -36.42,-21.027c46.234,-56.933 92.484,-83.636 138.75,-80.107Z" style="fill:#638ee8;fill-opacity:0.25;stroke:#517fae;stroke-width:1px;stroke-linecap:butt;stroke-linejoin:round;stroke-miterlimit:2;"/><path d="M323.371,147.659c46.25,-42.114 92.5,-68.816 138.751,-80.107c12.14,4.577 24.279,9.964 36.419,16.163c-46.266,-3.529 -92.516,23.174 -138.75,80.107c-12.14,-6.198 -24.28,-11.586 -36.42,-16.163Z" style="fill:#638ee8;fill-opacity:0.25;stroke:#517fae;stroke-width:1px;stroke-linecap:butt;stroke-linejoin:round;stroke-miterlimit:2;"/></g><g><path id="Shape2DView003_nwe00001" serif:id="Shape2DView003_nwe0000" d="M432.63,210.74c-12.139,-9.441 -24.279,-18.071 -36.419,-25.891" style="fill:none;stroke:#517fae;stroke-width:1.21px;"/><path id="Shape2DView003_nwe00011" serif:id="Shape2DView003_nwe0001" d="M534.961,104.742c12.14,7.819 24.28,16.45 36.42,25.89" style="fill:none;stroke:#517fae;stroke-width:1.21px;"/><path id="Shape2DView003_nwe00021" serif:id="Shape2DView003_nwe0002" d="M571.381,130.632c-46.25,-33.144 -92.5,-6.442 -138.751,80.108" style="fill:none;stroke:#517fae;stroke-width:1.21px;"/><path id="Shape2DView003_nwe00031" serif:id="Shape2DView003_nwe0003" d="M396.211,184.849c-12.14,-7.819 -24.28,-14.828 -36.42,-21.027" style="fill:none;stroke:#517fae;stroke-width:1.21px;"/><path id="Shape2DView003_nwe00041" serif:id="Shape2DView003_nwe0004" d="M498.541,83.715c12.14,6.198 24.28,13.207 36.42,21.027" style="fill:none;stroke:#517fae;stroke-width:1.21px;"/><path id="Shape2DView003_nwe00051" serif:id="Shape2DView003_nwe0005" d="M359.791,163.822c-12.14,-6.198 -24.28,-11.586 -36.42,-16.163" style="fill:none;stroke:#517fae;stroke-width:1.21px;"/><path id="Shape2DView003_nwe00061" serif:id="Shape2DView003_nwe0006" d="M323.371,147.659c46.25,-42.114 92.5,-68.816 138.751,-80.107" style="fill:none;stroke:#517fae;stroke-width:1.21px;"/><path id="Shape2DView003_nwe00071" serif:id="Shape2DView003_nwe0007" d="M462.122,67.552c12.14,4.577 24.279,9.964 36.419,16.163" style="fill:none;stroke:#517fae;stroke-width:1.21px;"/></g></g><g><g><path id="Shape2DView001_nwe00021" serif:id="Shape2DView001_nwe0002" d="M323.371,147.659l-10.624,-36.377" style="fill:none;stroke:#8b8b8b;stroke-width:0.4px;"/><path id="Shape2DView001_nwe00061" serif:id="Shape2DView001_nwe0006" d="M330.511,141.28l-9.603,-37.289" style="fill:none;stroke:#8b8b8b;stroke-width:0.4px;"/><path id="Shape2DView001_nwe00101" serif:id="Shape2DView001_nwe0010" d="M337.703,135.103l-8.552,-38.193" style="fill:none;stroke:#8b8b8b;stroke-width:0.4px;"/><path id="Shape2DView001_nwe00141" serif:id="Shape2DView001_nwe0014" d="M344.942,129.135l-7.474,-39.081" style="fill:none;stroke:#8b8b8b;stroke-width:0.4px;"/><path id="Shape2DView001_nwe00181" serif:id="Shape2DView001_nwe0018" d="M352.222,123.387l-6.369,-39.953" style="fill:none;stroke:#8b8b8b;stroke-width:0.4px;"/><path id="Shape2DView001_nwe00221" serif:id="Shape2DView001_nwe0022" d="M359.539,117.867l-5.243,-40.803" style="fill:none;stroke:#8b8b8b;stroke-width:0.4px;"/><path id="Shape2DView001_nwe00261" serif:id="Shape2DView001_nwe0026" d="M366.886,112.583l-4.098,-41.626" style="fill:none;stroke:#8b8b8b;stroke-width:0.4px;"/><path id="Shape2DView001_nwe00301" serif:id="Shape2DView001_nwe0030" d="M374.258,107.542l-2.939,-42.419" style="fill:none;stroke:#8b8b8b;stroke-width:0.4px;"/><path id="Shape2DView001_nwe00341" serif:id="Shape2DView001_nwe0034" d="M381.646,102.751l-1.767,-43.178" style="fill:none;stroke:#8b8b8b;stroke-width:0.4px;"/><path id="Shape2DView001_nwe00381" serif:id="Shape2DView001_nwe0038" d="M389.045,98.217l-0.59,-43.901" style="fill:none;stroke:#8b8b8b;stroke-width:0.4px;"/><path id="Shape2DView001_nwe00421" serif:id="Shape2DView001_nwe0042" d="M396.448,93.943l0.589,-44.582" style="fill:none;stroke:#8b8b8b;stroke-width:0.4px;"/><path id="Shape2DView001_nwe00461" serif:id="Shape2DView001_nwe0046" d="M403.847,89.934l1.767,-45.219" style="fill:none;stroke:#8b8b8b;stroke-width:0.4px;"/><path id="Shape2DView001_nwe00501" serif:id="Shape2DView001_nwe0050" d="M411.235,86.193l2.938,-45.812" style="fill:none;stroke:#8b8b8b;stroke-width:0.4px;"/><path id="Shape2DView001_nwe00541" serif:id="Shape2DView001_nwe0054" d="M418.606,82.723l4.098,-46.359" style="fill:none;stroke:#8b8b8b;stroke-width:0.4px;"/><path id="Shape2DView001_nwe00581" serif:id="Shape2DView001_nwe0058" d="M425.954,79.523l5.243,-46.857" style="fill:none;stroke:#8b8b8b;stroke-width:0.4px;"/><path id="Shape2DView001_nwe00621" serif:id="Shape2DView001_nwe0062" d="M433.271,76.594l6.369,-47.308" style="fill:none;stroke:#8b8b8b;stroke-width:0.4px;"/><path id="Shape2DView001_nwe00661" serif:id="Shape2DView001_nwe0066" d="M440.551,73.935l7.473,-47.711" style="fill:none;stroke:#8b8b8b;stroke-width:0.4px;"/><path id="Shape2DView001_nwe00701" serif:id="Shape2DView001_nwe0070" d="M447.79,71.544l8.552,-48.068" style="fill:none;stroke:#8b8b8b;stroke-width:0.4px;"/><path id="Shape2DView001_nwe00741" serif:id="Shape2DView001_nwe0074" d="M454.982,69.417l9.603,-48.378" style="fill:none;stroke:#8b8b8b;stroke-width:0.4px;"/><path id="Shape2DView001_nwe00781" serif:id="Shape2DView001_nwe0078" d="M462.122,67.552l10.624,-48.646" style="fill:none;stroke:#8b8b8b;stroke-width:0.4px;"/></g><g><path id="Shape2DView005_nwe00081" serif:id="Shape2DView005_nwe0008" d="M312.747,111.282c6.599,-6.009 13.221,-11.764 19.862,-17.258c6.642,-5.495 13.303,-10.728 19.978,-15.694c6.674,-4.966 13.363,-9.663 20.058,-14.087c6.696,-4.423 13.399,-8.572 20.101,-12.442c6.703,-3.87 13.406,-7.461 20.101,-10.768c6.696,-3.308 13.384,-6.334 20.059,-9.075c6.675,-2.742 13.336,-5.2 19.977,-7.374c6.642,-2.175 13.264,-4.067 19.863,-5.678" style="fill:none;stroke:#f00;stroke-width:1.01px;"/></g></g><g><g><path id="Shape2DView001_nwe00821" serif:id="Shape2DView001_nwe0082" d="M514.852,119.923l14.278,-87.692" style="fill:none;stroke:#8b8b8b;stroke-width:0.4px;"/><path id="Shape2DView001_nwe00861" serif:id="Shape2DView001_nwe0086" d="M489.159,134.757l-14.278,-71.205" style="fill:none;stroke:#8b8b8b;stroke-width:0.4px;"/><path id="Shape2DView001_nwe00901" serif:id="Shape2DView001_nwe0090" d="M480.847,142.192l-20.085,-56.26" style="fill:none;stroke:#8b8b8b;stroke-width:0.4px;"/><path id="Shape2DView001_nwe00941" serif:id="Shape2DView001_nwe0094" d="M472.86,150.551l-22.758,-42.679" style="fill:none;stroke:#8b8b8b;stroke-width:0.4px;"/><path id="Shape2DView001_nwe00981" serif:id="Shape2DView001_nwe0098" d="M465.249,159.623l-23.265,-31.813" style="fill:none;stroke:#8b8b8b;stroke-width:0.4px;"/><path id="Shape2DView001_nwe01021" serif:id="Shape2DView001_nwe0102" d="M458.025,169.232l-22.528,-23.611" style="fill:none;stroke:#8b8b8b;stroke-width:0.4px;"/><path id="Shape2DView001_nwe01061" serif:id="Shape2DView001_nwe0106" d="M451.178,179.239l-21.19,-17.568" style="fill:none;stroke:#8b8b8b;stroke-width:0.4px;"/><path id="Shape2DView001_nwe01101" serif:id="Shape2DView001_nwe0110" d="M444.683,189.54l-19.667,-13.171" style="fill:none;stroke:#8b8b8b;stroke-width:0.4px;"/><path id="Shape2DView001_nwe01141" serif:id="Shape2DView001_nwe0114" d="M438.51,200.059l-18.244,-10.006" style="fill:none;stroke:#8b8b8b;stroke-width:0.4px;"/><path id="Shape2DView001_nwe01181" serif:id="Shape2DView001_nwe0118" d="M432.63,210.74l-17.154,-7.772" style="fill:none;stroke:#8b8b8b;stroke-width:0.4px;"/><path id="Shape2DView001_nwe01221" serif:id="Shape2DView001_nwe0122" d="M506.315,123.486l5.241,-89.97" style="fill:none;stroke:#8b8b8b;stroke-width:0.4px;"/><path id="Shape2DView001_nwe01261" serif:id="Shape2DView001_nwe0126" d="M497.696,128.462l-5.241,-83.918" style="fill:none;stroke:#8b8b8b;stroke-width:0.4px;"/><path id="Shape2DView004_nwe00181" serif:id="Shape2DView004_nwe0018" d="M523.164,117.76l20.086,-79.453" style="fill:none;stroke:#8b8b8b;stroke-width:0.4px;"/><path id="Shape2DView004_nwe00301" serif:id="Shape2DView004_nwe0030" d="M571.608,130.267l16.927,-27.214" style="fill:none;stroke:#8b8b8b;stroke-width:0.4px;"/><path id="Shape2DView004_nwe00331" serif:id="Shape2DView004_nwe0033" d="M531.152,116.896l4.33,-13.122" style="fill:none;stroke:#8b8b8b;stroke-width:0.4px;"/><path id="Shape2DView004_nwe00351" serif:id="Shape2DView004_nwe0035" d="M545.986,118.448l13.36,-29.428" style="fill:none;stroke:#8b8b8b;stroke-width:0.4px;"/><path id="Shape2DView004_nwe00371" serif:id="Shape2DView004_nwe0037" d="M538.763,117.179l8.466,-21.353" style="fill:none;stroke:#8b8b8b;stroke-width:0.4px;"/><path id="Shape2DView004_nwe00391" serif:id="Shape2DView004_nwe0039" d="M565.501,126.741l18.244,-31.073" style="fill:none;stroke:#8b8b8b;stroke-width:0.4px;"/><path id="Shape2DView004_nwe00421" serif:id="Shape2DView004_nwe0042" d="M559.328,123.35l19.668,-35.881" style="fill:none;stroke:#8b8b8b;stroke-width:0.4px;"/><path id="Shape2DView004_nwe00451" serif:id="Shape2DView004_nwe0045" d="M552.833,120.549l18.828,-37.351" style="fill:none;stroke:#8b8b8b;stroke-width:0.4px;"/><path id="Shape2DView004_nwe00281" serif:id="Shape2DView004_nwe0028" d="M571.661,83.198l2.363,-4.687" style="fill:none;stroke:#8b8b8b;stroke-width:0.4px;"/><path id="Shape2DView004_nwe00061" serif:id="Shape2DView004_nwe0006" d="M535.482,103.774l18.428,-55.837" style="fill:none;stroke:#8b8b8b;stroke-width:0.4px;"/><path id="Shape2DView004_nwe00101" serif:id="Shape2DView004_nwe0010" d="M559.346,89.02l9.169,-20.197" style="fill:none;stroke:#8b8b8b;stroke-width:0.4px;"/><path id="Shape2DView004_nwe00141" serif:id="Shape2DView004_nwe0014" d="M547.229,95.826l14.799,-37.325" style="fill:none;stroke:#8b8b8b;stroke-width:0.4px;"/><path id="Shape2DView004_nwe00021" serif:id="Shape2DView004_nwe0002" d="M571.381,130.632l0.227,-0.365" style="fill:none;stroke:#8b8b8b;stroke-width:0.4px;"/></g><g><path id="Shape2DView005_nwe00031" serif:id="Shape2DView005_nwe0003" d="M415.476,202.968c4.684,-12.068 8.942,-24.819 13.199,-37.413c4.251,-12.605 8.499,-25.063 12.97,-36.853c4.466,-11.798 9.152,-22.934 14.129,-33.089c4.973,-10.159 10.232,-19.341 15.732,-27.338c10.987,-16.012 22.969,-27.243 34.836,-32.713c5.93,-2.742 11.821,-4.055 17.53,-3.898c5.712,0.154 11.239,1.783 16.492,4.82" style="fill:none;stroke:#f00;stroke-width:1.01px;"/><path id="Shape2DView005_nwe00041" serif:id="Shape2DView005_nwe0004" d="M544.161,38.95c4.188,3.024 8.188,6.961 12.011,11.648c3.826,4.682 7.474,10.117 11.019,16.002c3.547,5.878 6.991,12.211 10.481,18.498c3.494,6.278 7.034,12.516 10.863,17.955" style="fill:none;stroke:#f00;stroke-width:1.01px;"/><path id="Shape2DView005_nwe00111" serif:id="Shape2DView005_nwe0011" d="M540.364,36.484c1.282,0.74 2.548,1.562 3.797,2.466" style="fill:none;stroke:#f00;stroke-width:1.01px;"/></g></g></g></g><g><g transform="matrix(12.0829,0,0,12.0829,810.535,242.787)"></g><text x="685.802px" y="242.787px" style="font-family:'Geist-Medium', 'Geist';font-weight:500;font-size:12.083px;fill:#dcdcdc;">I<tspan x="689.004px 696.907px 706.102px 713.146px 721.205px 729.301px 737.36px " y="242.787px 242.787px 242.787px 242.787px 242.787px 242.787px 242.787px ">SOPARAM</tspan> S<tspan x="759.073px 766.432px 774.866px 781.415px 784.617px 793.812px 802.632px " y="242.787px 242.787px 242.787px 242.787px 242.787px 242.787px 242.787px ">ECTIONS</tspan></text><g><g><g><path d="M722.99,77.184c0.738,-0.303 1.475,-0.602 2.213,-0.897c0.815,-0.326 1.63,-0.648 2.445,-0.965c1.126,-0.437 2.252,-0.865 3.377,-1.285c1.612,-0.6 3.223,-1.182 4.834,-1.745c1.111,-0.388 2.223,-0.768 3.334,-1.139c1.672,-0.557 3.344,-1.095 5.016,-1.613c1.096,-0.34 2.191,-0.67 3.286,-0.992c1.735,-0.511 3.47,-0.999 5.205,-1.467c1.076,-0.29 2.153,-0.572 3.23,-0.845c0.691,-0.175 1.381,-0.347 2.072,-0.516c1.073,0.271 2.142,0.549 3.208,0.834c1.022,0.274 2.041,0.553 3.057,0.839c1.774,0.499 3.539,1.017 5.294,1.555c0.992,0.304 1.981,0.613 2.966,0.929c1.798,0.577 3.586,1.173 5.363,1.791c0.96,0.333 1.916,0.672 2.869,1.017c1.82,0.659 3.63,1.339 5.428,2.041c0.925,0.361 1.847,0.728 2.767,1.101c1.84,0.746 3.669,1.515 5.486,2.307c0.89,0.388 1.776,0.782 2.66,1.18c1.859,0.839 3.706,1.702 5.539,2.589c0.853,0.413 1.702,0.831 2.549,1.254c1.875,0.936 3.736,1.898 5.583,2.886c0.814,0.435 1.625,0.874 2.433,1.319c1.887,1.039 3.76,2.105 5.619,3.197c0.774,0.455 1.545,0.915 2.313,1.379c1.897,1.145 3.778,2.319 5.645,3.522c0.732,0.472 1.462,0.948 2.189,1.429c1.902,1.256 3.788,2.542 5.659,3.858c0.69,0.486 1.378,0.976 2.064,1.47c11.088,7.986 21.617,17.043 31.587,27.172c-11.67,-8.363 -23.341,-12.951 -35.011,-13.764c-0.702,-0.436 -1.404,-0.869 -2.108,-1.298c-1.824,-1.113 -3.655,-2.202 -5.492,-3.266c-0.741,-0.43 -1.483,-0.855 -2.225,-1.277c-1.808,-1.026 -3.621,-2.028 -5.44,-3.008c-0.779,-0.419 -1.56,-0.835 -2.341,-1.246c-1.789,-0.941 -3.584,-1.86 -5.384,-2.756c-0.817,-0.407 -1.635,-0.809 -2.454,-1.207c-1.77,-0.859 -3.544,-1.696 -5.325,-2.512c-0.853,-0.391 -1.708,-0.778 -2.564,-1.159c-1.749,-0.779 -3.503,-1.538 -5.262,-2.276c-0.889,-0.373 -1.78,-0.741 -2.672,-1.104c-1.727,-0.702 -3.46,-1.384 -5.197,-2.047c-0.924,-0.353 -1.849,-0.7 -2.775,-1.041c-1.705,-0.628 -3.415,-1.238 -5.13,-1.828c-0.957,-0.33 -1.915,-0.653 -2.874,-0.971c-1.683,-0.557 -3.371,-1.097 -5.063,-1.618c-0.988,-0.304 -1.977,-0.603 -2.968,-0.895c-1.66,-0.489 -3.324,-0.961 -4.993,-1.416c-1.018,-0.277 -2.037,-0.548 -3.059,-0.812c-1.636,-0.425 -3.278,-0.832 -4.923,-1.223c-1.046,-0.249 -2.094,-0.491 -3.143,-0.727c-1.614,-0.362 -3.232,-0.708 -4.853,-1.038c-1.073,-0.219 -2.148,-0.431 -3.224,-0.636c-1.591,-0.302 -3.185,-0.59 -4.783,-0.863c-1.098,-0.187 -2.198,-0.367 -3.299,-0.541l-0.099,-0.015c-1.534,-0.241 -3.073,-0.468 -4.615,-0.681c-2.661,-0.367 -5.332,-0.694 -8.014,-0.98Z" style="fill:#638ee8;fill-opacity:0.25;"/><path d="M687.979,94.481c0.81,-0.467 1.619,-0.93 2.429,-1.388c1.286,-0.728 2.572,-1.444 3.858,-2.147c0.857,-0.47 1.715,-0.934 2.573,-1.393c1.289,-0.69 2.578,-1.368 3.867,-2.034c0.91,-0.471 1.82,-0.935 2.73,-1.394c1.291,-0.65 2.582,-1.289 3.874,-1.915c0.966,-0.469 1.932,-0.932 2.899,-1.387c1.292,-0.61 2.585,-1.207 3.877,-1.793c1.027,-0.466 2.055,-0.923 3.082,-1.374c1.941,-0.851 3.881,-1.675 5.822,-2.472c2.682,0.286 5.353,0.613 8.014,0.98c1.542,0.213 3.081,0.44 4.615,0.681l0.099,0.015c1.101,0.174 2.201,0.354 3.299,0.541c1.598,0.273 3.192,0.561 4.783,0.863c1.076,0.205 2.151,0.417 3.224,0.636c1.621,0.33 3.239,0.676 4.853,1.038c1.049,0.236 2.097,0.478 3.143,0.727c1.645,0.391 3.287,0.798 4.923,1.223c1.022,0.264 2.041,0.535 3.059,0.812c1.669,0.455 3.333,0.927 4.993,1.416c0.991,0.292 1.98,0.591 2.968,0.895c1.692,0.521 3.38,1.061 5.063,1.618c0.959,0.318 1.917,0.641 2.874,0.971c1.715,0.59 3.425,1.2 5.13,1.828c0.926,0.341 1.851,0.688 2.775,1.041c1.737,0.663 3.47,1.345 5.197,2.047c0.892,0.363 1.783,0.731 2.672,1.104c1.759,0.738 3.513,1.497 5.262,2.276c0.856,0.381 1.711,0.768 2.564,1.159c1.781,0.816 3.555,1.653 5.325,2.512c0.819,0.398 1.637,0.8 2.454,1.207c1.8,0.896 3.595,1.815 5.384,2.756c0.781,0.411 1.562,0.827 2.341,1.246c1.819,0.98 3.632,1.982 5.44,3.008c0.742,0.422 1.484,0.847 2.225,1.277c1.837,1.064 3.668,2.153 5.492,3.266c0.704,0.429 1.406,0.862 2.108,1.298c-0.803,-0.056 -1.607,-0.094 -2.41,-0.114c-10.867,-0.273 -21.734,2.728 -32.601,9.002c-1.268,-0.599 -2.535,-1.19 -3.803,-1.771c-1.445,-0.664 -2.891,-1.315 -4.336,-1.956c-1.302,-0.577 -2.604,-1.145 -3.906,-1.703c-1.404,-0.602 -2.807,-1.193 -4.21,-1.773c-1.334,-0.552 -2.669,-1.095 -4.003,-1.627c-1.361,-0.543 -2.722,-1.077 -4.084,-1.6c-1.364,-0.524 -2.728,-1.038 -4.093,-1.542c-1.32,-0.488 -2.64,-0.966 -3.96,-1.435c-1.392,-0.494 -2.784,-0.978 -4.177,-1.451c-1.279,-0.435 -2.559,-0.861 -3.839,-1.278c-1.417,-0.462 -2.835,-0.913 -4.253,-1.353c-1.24,-0.385 -2.48,-0.762 -3.721,-1.13c-1.44,-0.428 -2.881,-0.844 -4.322,-1.249c-1.202,-0.338 -2.404,-0.668 -3.606,-0.991c-1.462,-0.392 -2.923,-0.772 -4.384,-1.14c-1.165,-0.294 -2.33,-0.58 -3.495,-0.859c-1.48,-0.355 -2.96,-0.697 -4.44,-1.028c-1.129,-0.252 -2.258,-0.497 -3.387,-0.735c-1.496,-0.316 -2.992,-0.619 -4.488,-0.911c-1.095,-0.213 -2.189,-0.419 -3.284,-0.619c-1.51,-0.276 -3.02,-0.54 -4.53,-0.791c-1.061,-0.176 -2.123,-0.347 -3.184,-0.511c-1.522,-0.235 -3.044,-0.458 -4.566,-0.668c-1.029,-0.142 -2.059,-0.279 -3.088,-0.409c-1.532,-0.194 -3.064,-0.376 -4.596,-0.545c-0.998,-0.11 -1.997,-0.214 -2.996,-0.313c-1.54,-0.153 -3.08,-0.293 -4.62,-0.42c-0.969,-0.08 -1.939,-0.154 -2.908,-0.224Z" style="fill:#638ee8;fill-opacity:0.25;"/><path d="M652.968,117.611l0.274,-0.204c1.311,-0.973 2.622,-1.934 3.932,-2.883l0.399,-0.288c1.319,-0.952 2.637,-1.892 3.956,-2.82l0.538,-0.377c2.853,-1.999 5.707,-3.94 8.56,-5.823c5.784,-3.817 11.568,-7.396 17.352,-10.735c0.969,0.07 1.939,0.144 2.908,0.224c1.54,0.127 3.08,0.267 4.62,0.42c0.999,0.099 1.998,0.203 2.996,0.313c1.532,0.169 3.064,0.351 4.596,0.545c1.029,0.13 2.059,0.267 3.088,0.409c1.522,0.21 3.044,0.433 4.566,0.668c1.061,0.164 2.123,0.335 3.184,0.511c1.51,0.251 3.02,0.515 4.53,0.791c1.095,0.2 2.189,0.406 3.284,0.619c1.496,0.292 2.992,0.595 4.488,0.911c1.129,0.238 2.258,0.483 3.387,0.735c1.48,0.331 2.96,0.673 4.44,1.028c1.165,0.279 2.33,0.565 3.495,0.859c1.461,0.368 2.922,0.748 4.384,1.14c1.202,0.323 2.404,0.653 3.606,0.991c1.441,0.405 2.882,0.821 4.322,1.249c1.241,0.368 2.481,0.745 3.721,1.13c1.418,0.44 2.836,0.891 4.253,1.353c1.28,0.417 2.56,0.843 3.839,1.278c1.393,0.473 2.785,0.957 4.177,1.451c1.32,0.469 2.64,0.947 3.96,1.435c1.365,0.504 2.729,1.018 4.093,1.542c1.362,0.523 2.723,1.057 4.084,1.6c1.334,0.532 2.669,1.075 4.003,1.627c1.403,0.58 2.806,1.171 4.21,1.773c1.302,0.558 2.604,1.126 3.906,1.703c1.445,0.641 2.891,1.292 4.336,1.956c1.268,0.581 2.535,1.172 3.803,1.771c-1.17,0.675 -2.339,1.388 -3.509,2.139c-10.501,6.744 -21.002,16.544 -31.502,29.401c-1.938,-0.939 -3.87,-1.863 -5.797,-2.771c-0.905,-0.427 -1.808,-0.85 -2.71,-1.27c-1.988,-0.925 -3.969,-1.835 -5.945,-2.728c-0.829,-0.375 -1.657,-0.747 -2.484,-1.116c-2.033,-0.907 -4.059,-1.798 -6.08,-2.671c-0.756,-0.327 -1.511,-0.651 -2.265,-0.973c-2.074,-0.886 -4.141,-1.753 -6.202,-2.602c-0.685,-0.283 -1.37,-0.563 -2.054,-0.842c-2.11,-0.859 -4.213,-1.699 -6.31,-2.52c-0.617,-0.242 -1.235,-0.483 -1.851,-0.721c-2.142,-0.83 -4.277,-1.639 -6.405,-2.429c-0.553,-0.205 -1.105,-0.409 -1.657,-0.611c-2.17,-0.796 -4.332,-1.571 -6.486,-2.325c-0.491,-0.172 -0.983,-0.343 -1.473,-0.513c-2.193,-0.759 -4.377,-1.497 -6.553,-2.212c-0.434,-0.143 -0.867,-0.284 -1.299,-0.425c-2.211,-0.72 -4.413,-1.416 -6.607,-2.091c-0.378,-0.116 -0.757,-0.232 -1.135,-0.347c-2.224,-0.677 -4.44,-1.33 -6.647,-1.961l-0.981,-0.279c-2.234,-0.632 -4.459,-1.24 -6.675,-1.825l-0.838,-0.219c-2.239,-0.586 -4.469,-1.146 -6.691,-1.683l-0.703,-0.169c-2.241,-0.537 -4.473,-1.049 -6.696,-1.536l-0.58,-0.126c-2.239,-0.487 -4.469,-0.949 -6.69,-1.385l-0.465,-0.092Z" style="fill:#638ee8;fill-opacity:0.25;"/><path d="M617.956,146.575c0.619,-0.563 1.237,-1.123 1.856,-1.681c11.052,-9.966 22.104,-19.06 33.156,-27.283l0.465,0.092c2.221,0.436 4.451,0.898 6.69,1.385l0.58,0.126c2.223,0.487 4.455,0.999 6.696,1.536l0.703,0.169c2.222,0.537 4.452,1.097 6.691,1.683l0.838,0.219c2.216,0.585 4.441,1.193 6.675,1.825l0.981,0.279c2.207,0.631 4.423,1.284 6.647,1.961c0.378,0.115 0.757,0.231 1.135,0.347c2.194,0.675 4.396,1.371 6.607,2.091c0.432,0.141 0.865,0.282 1.299,0.425c2.176,0.715 4.36,1.453 6.553,2.212c0.49,0.17 0.982,0.341 1.473,0.513c2.154,0.754 4.316,1.529 6.486,2.325c0.552,0.202 1.104,0.406 1.657,0.611c2.128,0.79 4.263,1.599 6.405,2.429c0.616,0.238 1.234,0.479 1.851,0.721c2.097,0.821 4.2,1.661 6.31,2.52c0.684,0.279 1.369,0.559 2.054,0.842c2.061,0.849 4.128,1.716 6.202,2.602c0.754,0.322 1.509,0.646 2.265,0.973c2.021,0.873 4.047,1.764 6.08,2.671c0.827,0.369 1.655,0.741 2.484,1.116c1.976,0.893 3.957,1.803 5.945,2.728c0.902,0.42 1.805,0.843 2.71,1.27c1.927,0.908 3.859,1.832 5.797,2.771c-11.671,14.288 -23.341,32.352 -35.012,54.192c-42.257,-25.413 -79.017,-46.636 -110.279,-63.67Z" style="fill:#638ee8;fill-opacity:0.25;"/></g><g><path id="Shape2DView_nwe0301" d="M830.859,115.511c-10.867,-0.273 -21.734,2.728 -32.601,9.002" style="fill:none;stroke:#517fae;stroke-width:1.1px;"/><path id="Shape2DView_nwe0302" d="M687.979,94.481c0.81,-0.467 1.619,-0.93 2.429,-1.388" style="fill:none;stroke:#517fae;stroke-width:1.1px;"/><path id="Shape2DView_nwe0303" d="M694.266,90.946c0.857,-0.47 1.715,-0.934 2.573,-1.393" style="fill:none;stroke:#517fae;stroke-width:1.1px;"/><path id="Shape2DView_nwe0304" d="M700.706,87.519c0.91,-0.471 1.82,-0.935 2.73,-1.394" style="fill:none;stroke:#517fae;stroke-width:1.1px;"/><path id="Shape2DView_nwe0305" d="M707.31,84.21c0.966,-0.469 1.932,-0.932 2.899,-1.387" style="fill:none;stroke:#517fae;stroke-width:1.1px;"/><path id="Shape2DView_nwe0306" d="M714.086,81.03c1.027,-0.466 2.055,-0.923 3.082,-1.374" style="fill:none;stroke:#517fae;stroke-width:1.1px;"/><path id="Shape2DView_nwe0307" d="M794.749,126.652c-10.501,6.744 -21.002,16.544 -31.502,29.401" style="fill:none;stroke:#517fae;stroke-width:1.1px;"/><path id="Shape2DView_nwe0309" d="M657.174,114.524c0.133,-0.096 0.266,-0.192 0.399,-0.288" style="fill:none;stroke:#517fae;stroke-width:1.1px;"/><path id="Shape2DView_nwe0310" d="M661.529,111.416c0.18,-0.126 0.359,-0.251 0.538,-0.377" style="fill:none;stroke:#517fae;stroke-width:1.1px;"/><path id="Shape2DView_nwe0311" d="M670.627,105.216c5.784,-3.817 11.568,-7.396 17.352,-10.735" style="fill:none;stroke:#517fae;stroke-width:1.1px;"/><path id="Shape2DView_nwe0312" d="M868.28,129.389c-11.67,-8.363 -23.341,-12.951 -35.011,-13.764" style="fill:none;stroke:#517fae;stroke-width:1.1px;"/><path id="Shape2DView_nwe0313" d="M725.203,76.287c0.815,-0.326 1.63,-0.648 2.445,-0.965" style="fill:none;stroke:#517fae;stroke-width:1.1px;"/><path id="Shape2DView_nwe0314" d="M731.025,74.037c1.612,-0.6 3.223,-1.182 4.834,-1.745" style="fill:none;stroke:#517fae;stroke-width:1.1px;"/><path id="Shape2DView_nwe0315" d="M739.193,71.153c1.672,-0.557 3.344,-1.095 5.016,-1.613" style="fill:none;stroke:#517fae;stroke-width:1.1px;"/><path id="Shape2DView_nwe0316" d="M747.495,68.548c1.735,-0.511 3.47,-0.999 5.205,-1.467" style="fill:none;stroke:#517fae;stroke-width:1.1px;"/><path id="Shape2DView_nwe0317" d="M755.93,66.236c0.691,-0.175 1.381,-0.347 2.072,-0.516" style="fill:none;stroke:#517fae;stroke-width:1.1px;"/><path id="Shape2DView_nwe0318" d="M758.002,65.72c1.073,0.271 2.142,0.549 3.208,0.834" style="fill:none;stroke:#517fae;stroke-width:1.1px;"/><path id="Shape2DView_nwe0319" d="M764.267,67.393c1.774,0.499 3.539,1.017 5.294,1.555" style="fill:none;stroke:#517fae;stroke-width:1.1px;"/><path id="Shape2DView_nwe0320" d="M772.527,69.877c1.798,0.577 3.586,1.173 5.363,1.791" style="fill:none;stroke:#517fae;stroke-width:1.1px;"/><path id="Shape2DView_nwe0321" d="M780.759,72.685c1.82,0.659 3.63,1.339 5.428,2.041" style="fill:none;stroke:#517fae;stroke-width:1.1px;"/><path id="Shape2DView_nwe0322" d="M788.954,75.827c1.84,0.746 3.669,1.515 5.486,2.307" style="fill:none;stroke:#517fae;stroke-width:1.1px;"/><path id="Shape2DView_nwe0323" d="M797.1,79.314c1.859,0.839 3.706,1.702 5.539,2.589" style="fill:none;stroke:#517fae;stroke-width:1.1px;"/><path id="Shape2DView_nwe0324" d="M805.188,83.157c1.875,0.936 3.736,1.898 5.583,2.886" style="fill:none;stroke:#517fae;stroke-width:1.1px;"/><path id="Shape2DView_nwe0325" d="M813.204,87.362c1.887,1.039 3.76,2.105 5.619,3.197" style="fill:none;stroke:#517fae;stroke-width:1.1px;"/><path id="Shape2DView_nwe0326" d="M821.136,91.938c1.897,1.145 3.778,2.319 5.645,3.522" style="fill:none;stroke:#517fae;stroke-width:1.1px;"/><path id="Shape2DView_nwe0327" d="M828.97,96.889c1.902,1.256 3.788,2.542 5.659,3.858" style="fill:none;stroke:#517fae;stroke-width:1.1px;"/><path id="Shape2DView_nwe0328" d="M836.693,102.217c11.088,7.986 21.617,17.043 31.587,27.172" style="fill:none;stroke:#517fae;stroke-width:1.1px;"/><path id="Shape2DView_nwe0329" d="M763.247,156.053c-11.671,14.288 -23.341,32.352 -35.012,54.192" style="fill:none;stroke:#517fae;stroke-width:1.1px;"/><path id="Shape2DView_nwe0330" d="M619.812,144.894c11.052,-9.966 22.104,-19.06 33.156,-27.283" style="fill:none;stroke:#517fae;stroke-width:1.1px;"/><path id="Shape2DView_nwe0543" d="M833.269,115.625c-0.803,-0.056 -1.607,-0.094 -2.41,-0.114" style="fill:none;stroke:#517fae;stroke-width:1.1px;"/><path id="Shape2DView_nwe0544" d="M690.408,93.093c1.286,-0.728 2.572,-1.444 3.858,-2.147" style="fill:none;stroke:#517fae;stroke-width:1.1px;"/><path id="Shape2DView_nwe0545" d="M696.839,89.553c1.289,-0.69 2.578,-1.368 3.867,-2.034" style="fill:none;stroke:#517fae;stroke-width:1.1px;"/><path id="Shape2DView_nwe0546" d="M703.436,86.125c1.291,-0.65 2.582,-1.289 3.874,-1.915" style="fill:none;stroke:#517fae;stroke-width:1.1px;"/><path id="Shape2DView_nwe0547" d="M710.209,82.823c1.292,-0.61 2.585,-1.207 3.877,-1.793" style="fill:none;stroke:#517fae;stroke-width:1.1px;"/><path id="Shape2DView_nwe0548" d="M717.168,79.656c1.941,-0.851 3.881,-1.675 5.822,-2.472" style="fill:none;stroke:#517fae;stroke-width:1.1px;"/><path id="Shape2DView_nwe0549" d="M798.258,124.513c-1.17,0.675 -2.339,1.388 -3.509,2.139" style="fill:none;stroke:#517fae;stroke-width:1.1px;"/><path id="Shape2DView_nwe0550" d="M653.242,117.407c1.311,-0.973 2.622,-1.934 3.932,-2.883" style="fill:none;stroke:#517fae;stroke-width:1.1px;"/><path id="Shape2DView_nwe0551" d="M657.573,114.236c1.319,-0.952 2.637,-1.892 3.956,-2.82" style="fill:none;stroke:#517fae;stroke-width:1.1px;"/><path id="Shape2DView_nwe0552" d="M662.067,111.039c2.853,-1.999 5.707,-3.94 8.56,-5.823" style="fill:none;stroke:#517fae;stroke-width:1.1px;"/><path id="Shape2DView_nwe0553" d="M722.99,77.184c0.738,-0.303 1.475,-0.602 2.213,-0.897" style="fill:none;stroke:#517fae;stroke-width:1.1px;"/><path id="Shape2DView_nwe0554" d="M727.648,75.322c1.126,-0.437 2.252,-0.865 3.377,-1.285" style="fill:none;stroke:#517fae;stroke-width:1.1px;"/><path id="Shape2DView_nwe0555" d="M735.859,72.292c1.111,-0.388 2.223,-0.768 3.334,-1.139" style="fill:none;stroke:#517fae;stroke-width:1.1px;"/><path id="Shape2DView_nwe0556" d="M744.209,69.54c1.096,-0.34 2.191,-0.67 3.286,-0.992" style="fill:none;stroke:#517fae;stroke-width:1.1px;"/><path id="Shape2DView_nwe0557" d="M752.7,67.081c1.076,-0.29 2.153,-0.572 3.23,-0.845" style="fill:none;stroke:#517fae;stroke-width:1.1px;"/><path id="Shape2DView_nwe0558" d="M761.21,66.554c1.022,0.274 2.041,0.553 3.057,0.839" style="fill:none;stroke:#517fae;stroke-width:1.1px;"/><path id="Shape2DView_nwe0559" d="M769.561,68.948c0.992,0.304 1.981,0.613 2.966,0.929" style="fill:none;stroke:#517fae;stroke-width:1.1px;"/><path id="Shape2DView_nwe0560" d="M777.89,71.668c0.96,0.333 1.916,0.672 2.869,1.017" style="fill:none;stroke:#517fae;stroke-width:1.1px;"/><path id="Shape2DView_nwe0561" d="M786.187,74.726c0.925,0.361 1.847,0.728 2.767,1.101" style="fill:none;stroke:#517fae;stroke-width:1.1px;"/><path id="Shape2DView_nwe0562" d="M794.44,78.134c0.89,0.388 1.776,0.782 2.66,1.18" style="fill:none;stroke:#517fae;stroke-width:1.1px;"/><path id="Shape2DView_nwe0563" d="M802.639,81.903c0.853,0.413 1.702,0.831 2.549,1.254" style="fill:none;stroke:#517fae;stroke-width:1.1px;"/><path id="Shape2DView_nwe0564" d="M810.771,86.043c0.814,0.435 1.625,0.874 2.433,1.319" style="fill:none;stroke:#517fae;stroke-width:1.1px;"/><path id="Shape2DView_nwe0565" d="M818.823,90.559c0.774,0.455 1.545,0.915 2.313,1.379" style="fill:none;stroke:#517fae;stroke-width:1.1px;"/><path id="Shape2DView_nwe0566" d="M826.781,95.46c0.732,0.472 1.462,0.948 2.189,1.429" style="fill:none;stroke:#517fae;stroke-width:1.1px;"/><path id="Shape2DView_nwe0567" d="M834.629,100.747c0.69,0.486 1.378,0.976 2.064,1.47" style="fill:none;stroke:#517fae;stroke-width:1.1px;"/><path id="Shape2DView_nwe0569" d="M617.956,146.575c0.619,-0.563 1.237,-1.123 1.856,-1.681" style="fill:none;stroke:#517fae;stroke-width:1.1px;"/><path id="Shape2DView_nwe0568" d="M728.235,210.245c-42.257,-25.413 -79.017,-46.636 -110.279,-63.67" style="fill:none;stroke:#517fae;stroke-width:1.1px;"/></g><g><g><path id="Shape2DView_nwe0308" d="M652.968,117.611c0.091,-0.068 0.183,-0.136 0.274,-0.204" style="fill:none;stroke:#517fae;stroke-width:0.81px;"/><path id="Shape2DView_nwe0358" d="M757.45,153.282c-0.905,-0.427 -1.808,-0.85 -2.71,-1.27" style="fill:none;stroke:#517fae;stroke-width:0.81px;"/><path id="Shape2DView_nwe0359" d="M748.795,149.284c-0.829,-0.375 -1.657,-0.747 -2.484,-1.116" style="fill:none;stroke:#517fae;stroke-width:0.81px;"/><path id="Shape2DView_nwe0360" d="M740.231,145.497c-0.756,-0.327 -1.511,-0.651 -2.265,-0.973" style="fill:none;stroke:#517fae;stroke-width:0.81px;"/><path id="Shape2DView_nwe0361" d="M731.764,141.922c-0.685,-0.283 -1.37,-0.563 -2.054,-0.842" style="fill:none;stroke:#517fae;stroke-width:0.81px;"/><path id="Shape2DView_nwe0369" d="M668.102,120.919c-0.234,-0.057 -0.469,-0.113 -0.703,-0.169" style="fill:none;stroke:#517fae;stroke-width:0.81px;"/><path id="Shape2DView_nwe0370" d="M660.703,119.214c-0.193,-0.042 -0.387,-0.084 -0.58,-0.126" style="fill:none;stroke:#517fae;stroke-width:0.81px;"/><path id="Shape2DView_nwe0371" d="M653.433,117.703c-0.155,-0.031 -0.31,-0.061 -0.465,-0.092" style="fill:none;stroke:#517fae;stroke-width:0.81px;"/><path id="Shape2DView_nwe0598" d="M763.247,156.053c-1.938,-0.939 -3.87,-1.863 -5.797,-2.771" style="fill:none;stroke:#517fae;stroke-width:0.81px;"/><path id="Shape2DView_nwe0599" d="M754.74,152.012c-1.988,-0.925 -3.969,-1.835 -5.945,-2.728" style="fill:none;stroke:#517fae;stroke-width:0.81px;"/><path id="Shape2DView_nwe0600" d="M746.311,148.168c-2.033,-0.907 -4.059,-1.798 -6.08,-2.671" style="fill:none;stroke:#517fae;stroke-width:0.81px;"/><path id="Shape2DView_nwe0601" d="M737.966,144.524c-2.074,-0.886 -4.141,-1.753 -6.202,-2.602" style="fill:none;stroke:#517fae;stroke-width:0.81px;"/><path id="Shape2DView_nwe0609" d="M674.793,122.602c-2.239,-0.586 -4.469,-1.146 -6.691,-1.683" style="fill:none;stroke:#517fae;stroke-width:0.81px;"/><path id="Shape2DView_nwe0610" d="M667.399,120.75c-2.241,-0.537 -4.473,-1.049 -6.696,-1.536" style="fill:none;stroke:#517fae;stroke-width:0.81px;"/><path id="Shape2DView_nwe0611" d="M660.123,119.088c-2.239,-0.487 -4.469,-0.949 -6.69,-1.385" style="fill:none;stroke:#517fae;stroke-width:0.81px;"/><path id="Shape2DView_nwe0367" d="M683.287,124.925c-0.327,-0.093 -0.654,-0.186 -0.981,-0.279" style="fill:none;stroke:#517fae;stroke-width:0.81px;"/><path id="Shape2DView_nwe0368" d="M675.631,122.821c-0.279,-0.073 -0.559,-0.146 -0.838,-0.219" style="fill:none;stroke:#517fae;stroke-width:0.81px;"/><path id="Shape2DView_nwe0365" d="M698.975,129.749c-0.434,-0.143 -0.867,-0.284 -1.299,-0.425" style="fill:none;stroke:#517fae;stroke-width:0.81px;"/><path id="Shape2DView_nwe0366" d="M691.069,127.233c-0.378,-0.116 -0.757,-0.232 -1.135,-0.347" style="fill:none;stroke:#517fae;stroke-width:0.81px;"/><path id="Shape2DView_nwe0605" d="M705.528,131.961c-2.193,-0.759 -4.377,-1.497 -6.553,-2.212" style="fill:none;stroke:#517fae;stroke-width:0.81px;"/><path id="Shape2DView_nwe0606" d="M697.676,129.324c-2.211,-0.72 -4.413,-1.416 -6.607,-2.091" style="fill:none;stroke:#517fae;stroke-width:0.81px;"/><path id="Shape2DView_nwe0607" d="M689.934,126.886c-2.224,-0.677 -4.44,-1.33 -6.647,-1.961" style="fill:none;stroke:#517fae;stroke-width:0.81px;"/><path id="Shape2DView_nwe0608" d="M682.306,124.646c-2.234,-0.632 -4.459,-1.24 -6.675,-1.825" style="fill:none;stroke:#517fae;stroke-width:0.81px;"/><path id="Shape2DView_nwe0604" d="M713.487,134.799c-2.17,-0.796 -4.332,-1.571 -6.486,-2.325" style="fill:none;stroke:#517fae;stroke-width:0.81px;"/><path id="Shape2DView_nwe0363" d="M715.144,135.41c-0.553,-0.205 -1.105,-0.409 -1.657,-0.611" style="fill:none;stroke:#517fae;stroke-width:0.81px;"/><path id="Shape2DView_nwe0362" d="M723.4,138.56c-0.617,-0.242 -1.235,-0.483 -1.851,-0.721" style="fill:none;stroke:#517fae;stroke-width:0.81px;"/><path id="Shape2DView_nwe0364" d="M707.001,132.474c-0.491,-0.172 -0.983,-0.343 -1.473,-0.513" style="fill:none;stroke:#517fae;stroke-width:0.81px;"/><path id="Shape2DView_nwe0602" d="M729.71,141.08c-2.11,-0.859 -4.213,-1.699 -6.31,-2.52" style="fill:none;stroke:#517fae;stroke-width:0.81px;"/><path id="Shape2DView_nwe0603" d="M721.549,137.839c-2.142,-0.83 -4.277,-1.639 -6.405,-2.429" style="fill:none;stroke:#517fae;stroke-width:0.81px;"/></g><g><path id="Shape2DView_nwe0331" d="M794.455,122.742c-1.445,-0.664 -2.891,-1.315 -4.336,-1.956" style="fill:none;stroke:#517fae;stroke-width:0.81px;"/><path id="Shape2DView_nwe0332" d="M786.213,119.083c-1.404,-0.602 -2.807,-1.193 -4.21,-1.773" style="fill:none;stroke:#517fae;stroke-width:0.81px;"/><path id="Shape2DView_nwe0333" d="M778,115.683c-1.361,-0.543 -2.722,-1.077 -4.084,-1.6" style="fill:none;stroke:#517fae;stroke-width:0.81px;"/><path id="Shape2DView_nwe0334" d="M769.823,112.541c-1.32,-0.488 -2.64,-0.966 -3.96,-1.435" style="fill:none;stroke:#517fae;stroke-width:0.81px;"/><path id="Shape2DView_nwe0335" d="M761.686,109.655c-1.279,-0.435 -2.559,-0.861 -3.839,-1.278" style="fill:none;stroke:#517fae;stroke-width:0.81px;"/><path id="Shape2DView_nwe0336" d="M753.594,107.024c-1.24,-0.385 -2.48,-0.762 -3.721,-1.13" style="fill:none;stroke:#517fae;stroke-width:0.81px;"/><path id="Shape2DView_nwe0337" d="M745.551,104.645c-1.202,-0.338 -2.404,-0.668 -3.606,-0.991" style="fill:none;stroke:#517fae;stroke-width:0.81px;"/><path id="Shape2DView_nwe0338" d="M737.561,102.514c-1.165,-0.294 -2.33,-0.58 -3.495,-0.859" style="fill:none;stroke:#517fae;stroke-width:0.81px;"/><path id="Shape2DView_nwe0339" d="M729.626,100.627c-1.129,-0.252 -2.258,-0.497 -3.387,-0.735" style="fill:none;stroke:#517fae;stroke-width:0.81px;"/><path id="Shape2DView_nwe0340" d="M721.751,98.981c-1.095,-0.213 -2.189,-0.419 -3.284,-0.619" style="fill:none;stroke:#517fae;stroke-width:0.81px;"/><path id="Shape2DView_nwe0341" d="M713.937,97.571c-1.061,-0.176 -2.123,-0.347 -3.184,-0.511" style="fill:none;stroke:#517fae;stroke-width:0.81px;"/><path id="Shape2DView_nwe0342" d="M706.187,96.392c-1.029,-0.142 -2.059,-0.279 -3.088,-0.409" style="fill:none;stroke:#517fae;stroke-width:0.81px;"/><path id="Shape2DView_nwe0343" d="M698.503,95.438c-0.998,-0.11 -1.997,-0.214 -2.996,-0.313" style="fill:none;stroke:#517fae;stroke-width:0.81px;"/><path id="Shape2DView_nwe0344" d="M690.887,94.705c-0.969,-0.08 -1.939,-0.154 -2.908,-0.224" style="fill:none;stroke:#517fae;stroke-width:0.81px;"/><path id="Shape2DView_nwe0570" d="M798.258,124.513c-1.268,-0.599 -2.535,-1.19 -3.803,-1.771" style="fill:none;stroke:#517fae;stroke-width:0.81px;"/><path id="Shape2DView_nwe0571" d="M790.119,120.786c-1.302,-0.577 -2.604,-1.145 -3.906,-1.703" style="fill:none;stroke:#517fae;stroke-width:0.81px;"/><path id="Shape2DView_nwe0572" d="M782.003,117.31c-1.334,-0.552 -2.669,-1.095 -4.003,-1.627" style="fill:none;stroke:#517fae;stroke-width:0.81px;"/><path id="Shape2DView_nwe0573" d="M773.916,114.083c-1.364,-0.524 -2.728,-1.038 -4.093,-1.542" style="fill:none;stroke:#517fae;stroke-width:0.81px;"/><path id="Shape2DView_nwe0574" d="M765.863,111.106c-1.392,-0.494 -2.784,-0.978 -4.177,-1.451" style="fill:none;stroke:#517fae;stroke-width:0.81px;"/><path id="Shape2DView_nwe0575" d="M757.847,108.377c-1.417,-0.462 -2.835,-0.913 -4.253,-1.353" style="fill:none;stroke:#517fae;stroke-width:0.81px;"/><path id="Shape2DView_nwe0576" d="M749.873,105.894c-1.44,-0.428 -2.881,-0.844 -4.322,-1.249" style="fill:none;stroke:#517fae;stroke-width:0.81px;"/><path id="Shape2DView_nwe0577" d="M741.945,103.654c-1.462,-0.392 -2.923,-0.772 -4.384,-1.14" style="fill:none;stroke:#517fae;stroke-width:0.81px;"/><path id="Shape2DView_nwe0578" d="M734.066,101.655c-1.48,-0.355 -2.96,-0.697 -4.44,-1.028" style="fill:none;stroke:#517fae;stroke-width:0.81px;"/><path id="Shape2DView_nwe0579" d="M726.239,99.892c-1.496,-0.316 -2.992,-0.619 -4.488,-0.911" style="fill:none;stroke:#517fae;stroke-width:0.81px;"/><path id="Shape2DView_nwe0580" d="M718.467,98.362c-1.51,-0.276 -3.02,-0.54 -4.53,-0.791" style="fill:none;stroke:#517fae;stroke-width:0.81px;"/><path id="Shape2DView_nwe0581" d="M710.753,97.06c-1.522,-0.235 -3.044,-0.458 -4.566,-0.668" style="fill:none;stroke:#517fae;stroke-width:0.81px;"/><path id="Shape2DView_nwe0582" d="M703.099,95.983c-1.532,-0.194 -3.064,-0.376 -4.596,-0.545" style="fill:none;stroke:#517fae;stroke-width:0.81px;"/><path id="Shape2DView_nwe0583" d="M695.507,95.125c-1.54,-0.153 -3.08,-0.293 -4.62,-0.42" style="fill:none;stroke:#517fae;stroke-width:0.81px;"/></g><g><path id="Shape2DView_nwe0345" d="M831.161,114.327c-1.824,-1.113 -3.655,-2.202 -5.492,-3.266" style="fill:none;stroke:#517fae;stroke-width:0.81px;"/><path id="Shape2DView_nwe0346" d="M823.444,109.784c-1.808,-1.026 -3.621,-2.028 -5.44,-3.008" style="fill:none;stroke:#517fae;stroke-width:0.81px;"/><path id="Shape2DView_nwe0347" d="M815.663,105.53c-1.789,-0.941 -3.584,-1.86 -5.384,-2.756" style="fill:none;stroke:#517fae;stroke-width:0.81px;"/><path id="Shape2DView_nwe0348" d="M807.825,101.567c-1.77,-0.859 -3.544,-1.696 -5.325,-2.512" style="fill:none;stroke:#517fae;stroke-width:0.81px;"/><path id="Shape2DView_nwe0349" d="M799.936,97.896c-1.749,-0.779 -3.503,-1.538 -5.262,-2.276" style="fill:none;stroke:#517fae;stroke-width:0.81px;"/><path id="Shape2DView_nwe0350" d="M792.002,94.516c-1.727,-0.702 -3.46,-1.384 -5.197,-2.047" style="fill:none;stroke:#517fae;stroke-width:0.81px;"/><path id="Shape2DView_nwe0351" d="M784.03,91.428c-1.705,-0.628 -3.415,-1.238 -5.13,-1.828" style="fill:none;stroke:#517fae;stroke-width:0.81px;"/><path id="Shape2DView_nwe0352" d="M776.026,88.629c-1.683,-0.557 -3.371,-1.097 -5.063,-1.618" style="fill:none;stroke:#517fae;stroke-width:0.81px;"/><path id="Shape2DView_nwe0353" d="M767.995,86.116c-1.66,-0.489 -3.324,-0.961 -4.993,-1.416" style="fill:none;stroke:#517fae;stroke-width:0.81px;"/><path id="Shape2DView_nwe0354" d="M759.943,83.888c-1.636,-0.425 -3.278,-0.832 -4.923,-1.223" style="fill:none;stroke:#517fae;stroke-width:0.81px;"/><path id="Shape2DView_nwe0355" d="M751.877,81.938c-1.614,-0.362 -3.232,-0.708 -4.853,-1.038" style="fill:none;stroke:#517fae;stroke-width:0.81px;"/><path id="Shape2DView_nwe0356" d="M743.8,80.264c-1.591,-0.302 -3.185,-0.59 -4.783,-0.863" style="fill:none;stroke:#517fae;stroke-width:0.81px;"/><path id="Shape2DView_nwe0584" d="M833.269,115.625c-0.702,-0.436 -1.404,-0.869 -2.108,-1.298" style="fill:none;stroke:#517fae;stroke-width:0.81px;"/><path id="Shape2DView_nwe0585" d="M825.669,111.061c-0.741,-0.43 -1.483,-0.855 -2.225,-1.277" style="fill:none;stroke:#517fae;stroke-width:0.81px;"/><path id="Shape2DView_nwe0586" d="M818.004,106.776c-0.779,-0.419 -1.56,-0.835 -2.341,-1.246" style="fill:none;stroke:#517fae;stroke-width:0.81px;"/><path id="Shape2DView_nwe0587" d="M810.279,102.774c-0.817,-0.407 -1.635,-0.809 -2.454,-1.207" style="fill:none;stroke:#517fae;stroke-width:0.81px;"/><path id="Shape2DView_nwe0588" d="M802.5,99.055c-0.853,-0.391 -1.708,-0.778 -2.564,-1.159" style="fill:none;stroke:#517fae;stroke-width:0.81px;"/><path id="Shape2DView_nwe0589" d="M794.674,95.62c-0.889,-0.373 -1.78,-0.741 -2.672,-1.104" style="fill:none;stroke:#517fae;stroke-width:0.81px;"/><path id="Shape2DView_nwe0590" d="M786.805,92.469c-0.924,-0.353 -1.849,-0.7 -2.775,-1.041" style="fill:none;stroke:#517fae;stroke-width:0.81px;"/><path id="Shape2DView_nwe0591" d="M778.9,89.6c-0.957,-0.33 -1.915,-0.653 -2.874,-0.971" style="fill:none;stroke:#517fae;stroke-width:0.81px;"/><path id="Shape2DView_nwe0592" d="M770.963,87.011c-0.988,-0.304 -1.977,-0.603 -2.968,-0.895" style="fill:none;stroke:#517fae;stroke-width:0.81px;"/><path id="Shape2DView_nwe0593" d="M763.002,84.7c-1.018,-0.277 -2.037,-0.548 -3.059,-0.812" style="fill:none;stroke:#517fae;stroke-width:0.81px;"/><path id="Shape2DView_nwe0594" d="M755.02,82.665c-1.046,-0.249 -2.094,-0.491 -3.143,-0.727" style="fill:none;stroke:#517fae;stroke-width:0.81px;"/><path id="Shape2DView_nwe0595" d="M747.024,80.9c-1.073,-0.219 -2.148,-0.431 -3.224,-0.636" style="fill:none;stroke:#517fae;stroke-width:0.81px;"/><path id="Shape2DView_nwe0596" d="M739.017,79.401c-1.098,-0.187 -2.198,-0.367 -3.299,-0.541" style="fill:none;stroke:#517fae;stroke-width:0.81px;"/><path id="Shape2DView_nwe0597" d="M735.619,78.845c-4.183,-0.656 -8.393,-1.21 -12.629,-1.661" style="fill:none;stroke:#517fae;stroke-width:0.81px;"/></g></g></g><g><g><g><path id="Shape2DView_nwe0169" d="M758.002,65.72l1.413,-4.613" style="fill:none;stroke:#8b8b8b;stroke-width:0.37px;"/><path id="Shape2DView_nwe0170" d="M760.72,56.845l5.272,-17.209" style="fill:none;stroke:#8b8b8b;stroke-width:0.37px;"/><path id="Shape2DView_nwe0176" d="M766.853,68.136l1.505,-4.505" style="fill:none;stroke:#8b8b8b;stroke-width:0.37px;"/><path id="Shape2DView_nwe0177" d="M769.795,59.33l5.713,-17.097" style="fill:none;stroke:#8b8b8b;stroke-width:0.37px;"/><path id="Shape2DView_nwe0180" d="M775.593,70.883l1.606,-4.423" style="fill:none;stroke:#8b8b8b;stroke-width:0.37px;"/><path id="Shape2DView_nwe0181" d="M778.77,62.129l6.148,-16.938" style="fill:none;stroke:#8b8b8b;stroke-width:0.37px;"/><path id="Shape2DView_nwe0184" d="M792.699,77.384l1.851,-4.372" style="fill:none;stroke:#8b8b8b;stroke-width:0.37px;"/><path id="Shape2DView_nwe0185" d="M796.396,68.652l6.966,-16.451" style="fill:none;stroke:#8b8b8b;stroke-width:0.37px;"/><path id="Shape2DView_nwe0189" d="M801.043,81.139l2.01,-4.416" style="fill:none;stroke:#8b8b8b;stroke-width:0.37px;"/><path id="Shape2DView_nwe0190" d="M805.037,72.364l7.333,-16.11" style="fill:none;stroke:#8b8b8b;stroke-width:0.37px;"/><path id="Shape2DView_nwe0195" d="M809.235,85.229l2.202,-4.513" style="fill:none;stroke:#8b8b8b;stroke-width:0.37px;"/><path id="Shape2DView_nwe0196" d="M813.558,76.369l7.659,-15.698" style="fill:none;stroke:#8b8b8b;stroke-width:0.37px;"/><path id="Shape2DView_nwe0201" d="M817.264,89.651l2.435,-4.666" style="fill:none;stroke:#8b8b8b;stroke-width:0.37px;"/><path id="Shape2DView_nwe0202" d="M821.956,80.658l7.935,-15.209" style="fill:none;stroke:#8b8b8b;stroke-width:0.37px;"/><path id="Shape2DView_nwe0207" d="M825.123,94.402l2.715,-4.879" style="fill:none;stroke:#8b8b8b;stroke-width:0.37px;"/><path id="Shape2DView_nwe0208" d="M830.229,85.227l8.151,-14.646" style="fill:none;stroke:#8b8b8b;stroke-width:0.37px;"/><path id="Shape2DView_nwe0212" d="M832.802,99.475l3.052,-5.152" style="fill:none;stroke:#8b8b8b;stroke-width:0.37px;"/><path id="Shape2DView_nwe0213" d="M838.376,90.066l8.298,-14.006" style="fill:none;stroke:#8b8b8b;stroke-width:0.37px;"/><path id="Shape2DView_nwe0217" d="M840.294,104.863l14.468,-22.987" style="fill:none;stroke:#8b8b8b;stroke-width:0.37px;"/><path id="Shape2DView_nwe0238" d="M784.212,73.965l1.719,-4.376" style="fill:none;stroke:#8b8b8b;stroke-width:0.37px;"/><path id="Shape2DView_nwe0239" d="M787.639,65.239l6.568,-16.726" style="fill:none;stroke:#8b8b8b;stroke-width:0.37px;"/><path id="Shape2DView_nwe0243" d="M847.593,110.558l15.042,-22.538" style="fill:none;stroke:#8b8b8b;stroke-width:0.37px;"/><path id="Shape2DView_nwe0248" d="M854.693,116.551l15.595,-22.072" style="fill:none;stroke:#8b8b8b;stroke-width:0.37px;"/><path id="Shape2DView_nwe0252" d="M861.59,122.832l16.123,-21.591" style="fill:none;stroke:#8b8b8b;stroke-width:0.37px;"/><path id="Shape2DView_nwe0256" d="M868.28,129.389l16.626,-21.098" style="fill:none;stroke:#8b8b8b;stroke-width:0.37px;"/><path id="Shape2DView_nwe0467" d="M759.415,61.107l1.305,-4.262" style="fill:none;stroke:#8b8b8b;stroke-width:0.37px;"/><path id="Shape2DView_nwe0473" d="M768.358,63.631l1.437,-4.301" style="fill:none;stroke:#8b8b8b;stroke-width:0.37px;"/><path id="Shape2DView_nwe0477" d="M777.199,66.46l1.571,-4.331" style="fill:none;stroke:#8b8b8b;stroke-width:0.37px;"/><path id="Shape2DView_nwe0481" d="M794.55,73.012l1.846,-4.36" style="fill:none;stroke:#8b8b8b;stroke-width:0.37px;"/><path id="Shape2DView_nwe0485" d="M803.053,76.723l1.984,-4.359" style="fill:none;stroke:#8b8b8b;stroke-width:0.37px;"/><path id="Shape2DView_nwe0490" d="M811.437,80.716l2.121,-4.347" style="fill:none;stroke:#8b8b8b;stroke-width:0.37px;"/><path id="Shape2DView_nwe0495" d="M819.699,84.985l2.257,-4.327" style="fill:none;stroke:#8b8b8b;stroke-width:0.37px;"/><path id="Shape2DView_nwe0500" d="M827.838,89.523l2.391,-4.296" style="fill:none;stroke:#8b8b8b;stroke-width:0.37px;"/><path id="Shape2DView_nwe0504" d="M835.854,94.323l2.522,-4.257" style="fill:none;stroke:#8b8b8b;stroke-width:0.37px;"/><path id="Shape2DView_nwe0516" d="M785.931,69.589l1.708,-4.35" style="fill:none;stroke:#8b8b8b;stroke-width:0.37px;"/></g><g><path id="Shape2DView_nwe0220" d="M884.906,108.291c-8.397,-8.531 -17.185,-16.377 -26.358,-23.521c-4.586,-3.573 -9.268,-6.97 -14.045,-10.191c-4.777,-3.22 -9.648,-6.264 -14.612,-9.13c-4.964,-2.866 -10.021,-5.554 -15.169,-8.064c-4.241,-2.067 -8.545,-4.013 -12.909,-5.838" style="fill:none;stroke:#f00;stroke-width:0.92px;"/><path id="Shape2DView_nwe0221" d="M801.813,51.547c-0.932,-0.39 -1.867,-0.774 -2.805,-1.153c-10.655,-4.303 -21.666,-7.888 -33.016,-10.758" style="fill:none;stroke:#f00;stroke-width:0.92px;"/></g></g><g><g><path id="Shape2DView_nwe0001" d="M722.975,75.788l-0.231,-21.658" style="fill:none;stroke:#8b8b8b;stroke-width:0.37px;"/><path id="Shape2DView_nwe0004" d="M731.007,77.666l0.115,-22.404" style="fill:none;stroke:#8b8b8b;stroke-width:0.37px;"/><path id="Shape2DView_nwe0007" d="M739.017,79.401l0.487,-22.737" style="fill:none;stroke:#8b8b8b;stroke-width:0.37px;"/><path id="Shape2DView_nwe0011" d="M747.024,80.9l0.861,-22.56" style="fill:none;stroke:#8b8b8b;stroke-width:0.37px;"/><path id="Shape2DView_nwe0014" d="M755.02,82.665l1.239,-22.369" style="fill:none;stroke:#8b8b8b;stroke-width:0.37px;"/><path id="Shape2DView_nwe0017" d="M763.002,84.7l1.619,-22.164" style="fill:none;stroke:#8b8b8b;stroke-width:0.37px;"/><path id="Shape2DView_nwe0021" d="M770.963,87.011l2.003,-21.947" style="fill:none;stroke:#8b8b8b;stroke-width:0.37px;"/><path id="Shape2DView_nwe0024" d="M778.9,89.6l2.387,-21.717" style="fill:none;stroke:#8b8b8b;stroke-width:0.37px;"/><path id="Shape2DView_nwe0027" d="M786.805,92.469l2.772,-21.473" style="fill:none;stroke:#8b8b8b;stroke-width:0.37px;"/><path id="Shape2DView_nwe0030" d="M794.674,95.62l3.157,-21.216" style="fill:none;stroke:#8b8b8b;stroke-width:0.37px;"/><path id="Shape2DView_nwe0034" d="M802.5,99.055l3.541,-20.947" style="fill:none;stroke:#8b8b8b;stroke-width:0.37px;"/><path id="Shape2DView_nwe0037" d="M810.279,102.774l3.923,-20.666" style="fill:none;stroke:#8b8b8b;stroke-width:0.37px;"/><path id="Shape2DView_nwe0040" d="M818.004,106.776l4.301,-20.374" style="fill:none;stroke:#8b8b8b;stroke-width:0.37px;"/><path id="Shape2DView_nwe0044" d="M825.669,111.061l4.676,-20.072" style="fill:none;stroke:#8b8b8b;stroke-width:0.37px;"/><path id="Shape2DView_nwe0049" d="M833.269,115.625l6.333,-24.801" style="fill:none;stroke:#8b8b8b;stroke-width:0.37px;"/><path id="Shape2DView_nwe0376" d="M722.744,54.13l-0.044,-4.11" style="fill:none;stroke:#8b8b8b;stroke-width:0.37px;"/><path id="Shape2DView_nwe0380" d="M731.122,55.262l0.021,-4.209" style="fill:none;stroke:#8b8b8b;stroke-width:0.37px;"/><path id="Shape2DView_nwe0383" d="M739.504,56.664l0.092,-4.306" style="fill:none;stroke:#8b8b8b;stroke-width:0.37px;"/><path id="Shape2DView_nwe0386" d="M747.885,58.34l0.168,-4.399" style="fill:none;stroke:#8b8b8b;stroke-width:0.37px;"/><path id="Shape2DView_nwe0389" d="M756.259,60.296l0.249,-4.489" style="fill:none;stroke:#8b8b8b;stroke-width:0.37px;"/><path id="Shape2DView_nwe0392" d="M764.621,62.536l0.335,-4.574" style="fill:none;stroke:#8b8b8b;stroke-width:0.37px;"/><path id="Shape2DView_nwe0395" d="M772.966,65.064l0.425,-4.654" style="fill:none;stroke:#8b8b8b;stroke-width:0.37px;"/><path id="Shape2DView_nwe0398" d="M781.287,67.883l0.52,-4.728" style="fill:none;stroke:#8b8b8b;stroke-width:0.37px;"/><path id="Shape2DView_nwe0401" d="M789.577,70.996l0.62,-4.796" style="fill:none;stroke:#8b8b8b;stroke-width:0.37px;"/><path id="Shape2DView_nwe0404" d="M797.831,74.404l0.723,-4.857" style="fill:none;stroke:#8b8b8b;stroke-width:0.37px;"/><path id="Shape2DView_nwe0406" d="M806.041,78.108l0.831,-4.91" style="fill:none;stroke:#8b8b8b;stroke-width:0.37px;"/><path id="Shape2DView_nwe0408" d="M814.202,82.108l0.94,-4.956" style="fill:none;stroke:#8b8b8b;stroke-width:0.37px;"/><path id="Shape2DView_nwe0410" d="M822.305,86.402l1.054,-4.993" style="fill:none;stroke:#8b8b8b;stroke-width:0.37px;"/><path id="Shape2DView_nwe0412" d="M830.345,90.989l1.17,-5.022" style="fill:none;stroke:#8b8b8b;stroke-width:0.37px;"/><path id="Shape2DView_nwe0375" d="M722.99,77.184l-0.015,-1.396" style="fill:none;stroke:#8b8b8b;stroke-width:0.37px;"/></g><g><path id="Shape2DView_nwe0053" d="M839.602,90.824c-9.189,-5.712 -18.525,-10.849 -28.002,-15.406c-9.477,-4.557 -19.094,-8.535 -28.844,-11.934c-9.75,-3.399 -19.634,-6.218 -29.645,-8.461c-10.011,-2.243 -20.15,-3.909 -30.411,-5.003" style="fill:none;stroke:#f00;stroke-width:0.92px;"/></g></g><g><g><path id="Shape2DView_nwe0056" d="M687.979,94.481l-6.482,-20.838" style="fill:none;stroke:#8b8b8b;stroke-width:0.37px;"/><path id="Shape2DView_nwe0059" d="M695.507,95.125l-6.144,-20.683" style="fill:none;stroke:#8b8b8b;stroke-width:0.37px;"/><path id="Shape2DView_nwe0062" d="M703.099,95.983l-5.8,-20.516" style="fill:none;stroke:#8b8b8b;stroke-width:0.37px;"/><path id="Shape2DView_nwe0065" d="M710.753,97.06l-5.45,-20.339" style="fill:none;stroke:#8b8b8b;stroke-width:0.37px;"/><path id="Shape2DView_nwe0068" d="M718.467,98.362l-5.094,-20.152" style="fill:none;stroke:#8b8b8b;stroke-width:0.37px;"/><path id="Shape2DView_nwe0071" d="M726.239,99.892l-4.732,-19.953" style="fill:none;stroke:#8b8b8b;stroke-width:0.37px;"/><path id="Shape2DView_nwe0074" d="M734.066,101.655l-4.365,-19.744" style="fill:none;stroke:#8b8b8b;stroke-width:0.37px;"/><path id="Shape2DView_nwe0077" d="M741.945,103.654l-3.993,-19.523" style="fill:none;stroke:#8b8b8b;stroke-width:0.37px;"/><path id="Shape2DView_nwe0080" d="M749.873,105.894l-3.618,-19.292" style="fill:none;stroke:#8b8b8b;stroke-width:0.37px;"/><path id="Shape2DView_nwe0083" d="M757.847,108.377l-3.24,-19.051" style="fill:none;stroke:#8b8b8b;stroke-width:0.37px;"/><path id="Shape2DView_nwe0087" d="M765.863,111.106l-2.86,-18.799" style="fill:none;stroke:#8b8b8b;stroke-width:0.37px;"/><path id="Shape2DView_nwe0090" d="M773.916,114.083l-2.477,-18.538" style="fill:none;stroke:#8b8b8b;stroke-width:0.37px;"/><path id="Shape2DView_nwe0093" d="M782.003,117.31l-2.094,-18.268" style="fill:none;stroke:#8b8b8b;stroke-width:0.37px;"/><path id="Shape2DView_nwe0097" d="M790.119,120.786l-1.712,-17.988" style="fill:none;stroke:#8b8b8b;stroke-width:0.37px;"/><path id="Shape2DView_nwe0101" d="M798.258,124.513l-1.747,-23.247" style="fill:none;stroke:#8b8b8b;stroke-width:0.37px;"/><path id="Shape2DView_nwe0415" d="M681.497,73.643l-1.274,-4.095" style="fill:none;stroke:#8b8b8b;stroke-width:0.37px;"/><path id="Shape2DView_nwe0417" d="M689.363,74.442l-1.254,-4.219" style="fill:none;stroke:#8b8b8b;stroke-width:0.37px;"/><path id="Shape2DView_nwe0419" d="M697.299,75.467l-1.229,-4.344" style="fill:none;stroke:#8b8b8b;stroke-width:0.37px;"/><path id="Shape2DView_nwe0421" d="M705.303,76.721l-1.197,-4.467" style="fill:none;stroke:#8b8b8b;stroke-width:0.37px;"/><path id="Shape2DView_nwe0423" d="M713.373,78.21l-1.159,-4.589" style="fill:none;stroke:#8b8b8b;stroke-width:0.37px;"/><path id="Shape2DView_nwe0425" d="M721.507,79.939l-1.116,-4.708" style="fill:none;stroke:#8b8b8b;stroke-width:0.37px;"/><path id="Shape2DView_nwe0427" d="M729.701,81.911l-1.066,-4.823" style="fill:none;stroke:#8b8b8b;stroke-width:0.37px;"/><path id="Shape2DView_nwe0429" d="M737.952,84.131l-1.01,-4.934" style="fill:none;stroke:#8b8b8b;stroke-width:0.37px;"/><path id="Shape2DView_nwe0431" d="M746.255,86.602l-0.945,-5.041" style="fill:none;stroke:#8b8b8b;stroke-width:0.37px;"/><path id="Shape2DView_nwe0433" d="M754.607,89.326l-0.874,-5.142" style="fill:none;stroke:#8b8b8b;stroke-width:0.37px;"/><path id="Shape2DView_nwe0435" d="M763.003,92.307l-0.796,-5.238" style="fill:none;stroke:#8b8b8b;stroke-width:0.37px;"/><path id="Shape2DView_nwe0437" d="M771.439,95.545l-0.712,-5.327" style="fill:none;stroke:#8b8b8b;stroke-width:0.37px;"/><path id="Shape2DView_nwe0439" d="M779.909,99.042l-0.62,-5.408" style="fill:none;stroke:#8b8b8b;stroke-width:0.37px;"/><path id="Shape2DView_nwe0441" d="M788.407,102.798l-0.522,-5.481" style="fill:none;stroke:#8b8b8b;stroke-width:0.37px;"/></g><g><path id="Shape2DView_nwe0105" d="M796.511,101.266c-9.746,-4.606 -19.485,-8.721 -29.211,-12.345c-9.726,-3.623 -19.439,-6.753 -29.134,-9.394c-9.696,-2.64 -19.374,-4.79 -29.032,-6.452c-9.658,-1.662 -19.295,-2.836 -28.911,-3.527" style="fill:none;stroke:#f00;stroke-width:0.92px;"/></g></g><g><g><path id="Shape2DView_nwe0108" d="M652.968,117.611l-9.716,-14.652" style="fill:none;stroke:#8b8b8b;stroke-width:0.37px;"/><path id="Shape2DView_nwe0111" d="M660.123,119.088l-9.319,-14.421" style="fill:none;stroke:#8b8b8b;stroke-width:0.37px;"/><path id="Shape2DView_nwe0114" d="M667.399,120.75l-8.918,-14.181" style="fill:none;stroke:#8b8b8b;stroke-width:0.37px;"/><path id="Shape2DView_nwe0118" d="M674.793,122.602l-8.511,-13.933" style="fill:none;stroke:#8b8b8b;stroke-width:0.37px;"/><path id="Shape2DView_nwe0121" d="M682.306,124.646l-8.102,-13.677" style="fill:none;stroke:#8b8b8b;stroke-width:0.37px;"/><path id="Shape2DView_nwe0124" d="M689.934,126.886l-7.689,-13.414" style="fill:none;stroke:#8b8b8b;stroke-width:0.37px;"/><path id="Shape2DView_nwe0127" d="M697.676,129.324l-7.275,-13.145" style="fill:none;stroke:#8b8b8b;stroke-width:0.37px;"/><path id="Shape2DView_nwe0130" d="M705.528,131.961l-6.86,-12.869" style="fill:none;stroke:#8b8b8b;stroke-width:0.37px;"/><path id="Shape2DView_nwe0134" d="M713.487,134.799l-6.445,-12.588" style="fill:none;stroke:#8b8b8b;stroke-width:0.37px;"/><path id="Shape2DView_nwe0147" d="M737.966,144.524l-5.212,-11.721" style="fill:none;stroke:#8b8b8b;stroke-width:0.37px;"/><path id="Shape2DView_nwe0151" d="M746.311,148.168l-4.808,-11.427" style="fill:none;stroke:#8b8b8b;stroke-width:0.37px;"/><path id="Shape2DView_nwe0155" d="M754.74,152.012l-4.41,-11.132" style="fill:none;stroke:#8b8b8b;stroke-width:0.37px;"/><path id="Shape2DView_nwe0160" d="M763.247,156.053l-6.457,-17.417" style="fill:none;stroke:#8b8b8b;stroke-width:0.37px;"/><path id="Shape2DView_nwe0444" d="M643.252,102.959l-3.39,-5.113" style="fill:none;stroke:#8b8b8b;stroke-width:0.37px;"/><path id="Shape2DView_nwe0446" d="M650.804,104.667l-3.402,-5.265" style="fill:none;stroke:#8b8b8b;stroke-width:0.37px;"/><path id="Shape2DView_nwe0448" d="M658.481,106.569l-3.404,-5.414" style="fill:none;stroke:#8b8b8b;stroke-width:0.37px;"/><path id="Shape2DView_nwe0450" d="M666.282,108.669l-3.395,-5.558" style="fill:none;stroke:#8b8b8b;stroke-width:0.37px;"/><path id="Shape2DView_nwe0452" d="M674.204,110.969l-3.374,-5.696" style="fill:none;stroke:#8b8b8b;stroke-width:0.37px;"/><path id="Shape2DView_nwe0454" d="M682.245,113.472l-3.341,-5.828" style="fill:none;stroke:#8b8b8b;stroke-width:0.37px;"/><path id="Shape2DView_nwe0456" d="M690.401,116.179l-3.295,-5.953" style="fill:none;stroke:#8b8b8b;stroke-width:0.37px;"/><path id="Shape2DView_nwe0458" d="M698.668,119.092l-3.235,-6.069" style="fill:none;stroke:#8b8b8b;stroke-width:0.37px;"/><path id="Shape2DView_nwe0459" d="M707.042,122.211l-3.162,-6.176" style="fill:none;stroke:#8b8b8b;stroke-width:0.37px;"/><path id="Shape2DView_nwe0460" d="M715.518,125.537l-3.075,-6.274" style="fill:none;stroke:#8b8b8b;stroke-width:0.37px;"/><path id="Shape2DView_nwe0462" d="M732.754,132.803l-2.86,-6.433" style="fill:none;stroke:#8b8b8b;stroke-width:0.37px;"/><path id="Shape2DView_nwe0463" d="M741.503,136.741l-2.733,-6.495" style="fill:none;stroke:#8b8b8b;stroke-width:0.37px;"/><path id="Shape2DView_nwe0464" d="M750.33,140.88l-2.592,-6.544" style="fill:none;stroke:#8b8b8b;stroke-width:0.37px;"/><path id="Shape2DView_nwe0139" d="M721.549,137.839l-6.031,-12.302" style="fill:none;stroke:#8b8b8b;stroke-width:0.37px;"/><path id="Shape2DView_nwe0143" d="M729.71,141.08l-5.619,-12.012" style="fill:none;stroke:#8b8b8b;stroke-width:0.37px;"/><path id="Shape2DView_nwe0461" d="M724.091,129.068l-2.975,-6.359" style="fill:none;stroke:#8b8b8b;stroke-width:0.37px;"/></g><g><g><path id="Shape2DView_nwe0164" d="M756.79,138.636c-10.377,-5.027 -20.604,-9.649 -30.675,-13.863c-10.07,-4.215 -19.983,-8.022 -29.734,-11.421c-9.75,-3.398 -19.338,-6.389 -28.758,-8.973c-9.421,-2.583 -18.675,-4.76 -27.761,-6.533" style="fill:none;stroke:#f00;stroke-width:0.92px;"/></g></g></g><g><g><path id="Shape2DView_nwe0230" d="M608.524,138.642l0,-0" style="fill:none;stroke:#8b8b8b;stroke-width:0.37px;"/><path id="Shape2DView_nwe0234" d="M615.949,142.745l0,0" style="fill:none;stroke:#8b8b8b;stroke-width:0.37px;"/><path id="Shape2DView_nwe0284" d="M692.03,186.519l0,0" style="fill:none;stroke:#8b8b8b;stroke-width:0.37px;"/><path id="Shape2DView_nwe0288" d="M701.319,192.033l0,0" style="fill:none;stroke:#8b8b8b;stroke-width:0.37px;"/><path id="Shape2DView_nwe0299" d="M728.235,210.245l-7.99,-6.887" style="fill:none;stroke:#8b8b8b;stroke-width:0.37px;"/><path id="Shape2DView_nwe0470" d="M617.956,146.575l-16.625,-11.872" style="fill:none;stroke:#8b8b8b;stroke-width:0.37px;"/><path id="Shape2DView_nwe0512" d="M624.647,150.238l-16.123,-11.596" style="fill:none;stroke:#8b8b8b;stroke-width:0.37px;"/><path id="Shape2DView_nwe0514" d="M631.544,154.05l-15.595,-11.305" style="fill:none;stroke:#8b8b8b;stroke-width:0.37px;"/><path id="Shape2DView_nwe0522" d="M638.644,158.009l-15.042,-10.997" style="fill:none;stroke:#8b8b8b;stroke-width:0.37px;"/><path id="Shape2DView_nwe0524" d="M645.943,162.113l-14.468,-10.674" style="fill:none;stroke:#8b8b8b;stroke-width:0.37px;"/><path id="Shape2DView_nwe0526" d="M653.435,166.36l-13.872,-10.336" style="fill:none;stroke:#8b8b8b;stroke-width:0.37px;"/><path id="Shape2DView_nwe0528" d="M661.114,170.746l-13.258,-9.985" style="fill:none;stroke:#8b8b8b;stroke-width:0.37px;"/><path id="Shape2DView_nwe0530" d="M668.973,175.268l-12.627,-9.623" style="fill:none;stroke:#8b8b8b;stroke-width:0.37px;"/><path id="Shape2DView_nwe0532" d="M677.002,179.919l-11.982,-9.249" style="fill:none;stroke:#8b8b8b;stroke-width:0.37px;"/><path id="Shape2DView_nwe0534" d="M685.194,184.696l-11.327,-8.866" style="fill:none;stroke:#8b8b8b;stroke-width:0.37px;"/><path id="Shape2DView_nwe0536" d="M693.538,189.592l-10.663,-8.477" style="fill:none;stroke:#8b8b8b;stroke-width:0.37px;"/><path id="Shape2DView_nwe0538" d="M702.025,194.602l-9.995,-8.083" style="fill:none;stroke:#8b8b8b;stroke-width:0.37px;"/><path id="Shape2DView_nwe0540" d="M710.644,199.718l-9.325,-7.685" style="fill:none;stroke:#8b8b8b;stroke-width:0.37px;"/><path id="Shape2DView_nwe0542" d="M719.384,204.935l-8.656,-7.286" style="fill:none;stroke:#8b8b8b;stroke-width:0.37px;"/></g><g><path id="Shape2DView_nwe0295" d="M720.245,203.358c-11.35,-6.826 -22.361,-13.388 -33.016,-19.677c-5.328,-3.144 -10.567,-6.22 -15.714,-9.227c-5.148,-3.006 -10.205,-5.943 -15.169,-8.809c-4.964,-2.866 -9.836,-5.661 -14.612,-8.385c-4.777,-2.723 -9.459,-5.375 -14.045,-7.954c-9.173,-5.159 -17.961,-10.028 -26.358,-14.603" style="fill:none;stroke:#f00;stroke-width:0.92px;"/></g></g></g></g></g></g></g></svg>