<?xml version="1.0" encoding="UTF-8" standalone="no"?><!DOCTYPE svg PUBLIC "-//W3C//DTD SVG 1.1//EN" "http://www.w3.org/Graphics/SVG/1.1/DTD/svg11.dtd"><svg width="100%" height="100%" viewBox="0 0 408 327" version="1.1" xmlns="http://www.w3.org/2000/svg" xmlns:xlink="http://www.w3.org/1999/xlink" xml:space="preserve" xmlns:serif="http://www.serif.com/" style="fill-rule:evenodd;clip-rule:evenodd;"><g id="modifiers-stacks"><rect x="0" y="0" width="407.662" height="326.129" style="fill:#111114;"/><g><path d="M378,35.213l0,16.511c0,4.416 -3.585,8 -8,8l-332.338,0c-4.415,0 -8,-3.584 -8,-8l-0,-16.511c-0,-4.415 3.585,-8 8,-8l332.338,-0c4.415,-0 8,3.585 8,8Z" style="fill:#202024;"/><rect x="29.662" y="50.435" width="348.338" height="9.289" style="fill:#202024;"/><g transform="matrix(1.16113,0,0,1.16113,48.2399,48.1131)"><text x="0px" y="0px" style="font-family:'SegoeUIEmoji', 'Segoe UI Emoji', sans-serif;font-size:10px;fill:#a4a39d;">⚙</text><g transform="matrix(10,0,0,10,47.0687,0)"></g><g transform="matrix(10,0,0,10,49.8428,0)"></g><text x="24.877px" y="0px" style="font-family:'Consolas', monospace;font-size:10px;fill:#a4a39d;"><tspan x="24.877px 30.425px 35.973px " y="0px 0px 0px ">Mod</tspan>iﬁ<tspan x="52.617px " y="0px ">e</tspan>r <tspan x="69.261px " y="0px ">P</tspan>ro<tspan x="85.905px " y="0px ">p</tspan>er<tspan x="102.549px " y="0px ">t</tspan>ie<tspan x="119.193px " y="0px ">s</tspan></text></g><g><path d="M366.389,78.658l-0,38.767c-0,2.76 -2.241,5 -5,5l-315.116,0c-2.759,0 -5,-2.24 -5,-5l0,-38.767c0,-2.76 2.241,-5 5,-5l315.116,-0c2.759,-0 5,2.24 5,5Z" style="fill:#26262a;stroke:#2a2a2d;stroke-width:0.58px;"/><path d="M45.918,75.658l-0,44.767c-0,1.104 -0.897,2 -2,2l-0.645,0c-1.104,0 -2,-0.896 -2,-2l0,-44.767c0,-1.104 0.896,-2 2,-2l0.645,-0c1.103,-0 2,0.896 2,2Z" style="fill:#d97540;"/><g><rect x="59.851" y="87.591" width="6.967" height="6.967" style="fill:none;stroke:#a4a39d;stroke-width:1.16px;"/><rect x="70.301" y="87.591" width="6.967" height="6.967" style="fill:none;stroke:#a4a39d;stroke-width:1.16px;"/><rect x="80.751" y="87.591" width="6.967" height="6.967" style="fill:none;stroke:#a4a39d;stroke-width:1.16px;"/></g><text x="99.329px" y="96.88px" style="font-family:'Consolas', monospace;font-size:12.772px;fill:#e8e7e3;">Array</text><g transform="matrix(10.4501,0,0,10.4501,294.678,111.975)"></g><g transform="matrix(10.4501,0,0,10.4501,297.551,111.975)"></g><text x="99.329px" y="111.975px" style="font-family:'Consolas', monospace;font-size:10.45px;fill:#6a6a68;">Fit Type  Count  ·  Count  4  ·  Oﬀset X  1.2m</text><circle cx="338.522" cy="96.88" r="2.322" style="fill:#a4a39d;"/><circle cx="347.811" cy="96.88" r="2.322" style="fill:#a4a39d;"/><circle cx="357.1" cy="96.88" r="2.322" style="fill:#a4a39d;"/></g><g><path d="M366.389,136.714l-0,38.768c-0,2.759 -2.241,5 -5,5l-315.116,-0c-2.759,-0 -5,-2.241 -5,-5l0,-38.768c0,-2.759 2.241,-5 5,-5l315.116,0c2.759,0 5,2.241 5,5Z" style="fill:#26262a;stroke:#2a2a2d;stroke-width:0.58px;"/><path d="M45.918,133.714l-0,44.768c-0,1.103 -0.897,2 -2,2l-0.645,-0c-1.104,-0 -2,-0.897 -2,-2l0,-44.768c0,-1.104 0.896,-2 2,-2l0.645,0c1.103,0 2,0.896 2,2Z" style="fill:#d97540;"/><g><path d="M73.785,143.326l-0,13.933" style="fill:none;fill-rule:nonzero;stroke:#a4a39d;stroke-width:1.16px;"/><path d="M59.851,145.648l9.289,-0l0,9.289l-9.289,-0l0,-9.289Z" style="fill:none;fill-rule:nonzero;stroke:#a4a39d;stroke-width:1.16px;"/><path d="M78.429,145.648l9.289,-0l0,9.289l-9.289,-0l0,-9.289Z" style="fill:none;fill-rule:nonzero;stroke:#a4a39d;stroke-width:1.16px;"/></g><text x="99.329px" y="154.937px" style="font-family:'Consolas', monospace;font-size:12.772px;fill:#e8e7e3;">Mirror</text><text x="99.329px" y="170.032px" style="font-family:'Consolas', monospace;font-size:10.45px;fill:#6a6a68;">Axis  X  ·  Bisect  On  ·  Merge  0.001</text><circle cx="338.522" cy="154.937" r="2.322" style="fill:#a4a39d;"/><circle cx="347.811" cy="154.937" r="2.322" style="fill:#a4a39d;"/><circle cx="357.1" cy="154.937" r="2.322" style="fill:#a4a39d;"/></g><g><path d="M366.389,194.771l-0,38.767c-0,2.76 -2.241,5 -5,5l-315.116,0c-2.759,0 -5,-2.24 -5,-5l0,-38.767c0,-2.76 2.241,-5 5,-5l315.116,-0c2.759,-0 5,2.24 5,5Z" style="fill:#26262a;stroke:#2a2a2d;stroke-width:0.58px;"/><path d="M45.918,191.771l-0,44.767c-0,1.104 -0.897,2 -2,2l-0.645,0c-1.104,0 -2,-0.896 -2,-2l0,-44.767c0,-1.104 0.896,-2 2,-2l0.645,-0c1.103,-0 2,0.896 2,2Z" style="fill:#d97540;"/><g><circle cx="63.335" cy="207.188" r="2.903" style="fill:none;stroke:#a4a39d;stroke-width:1.16px;"/><circle cx="76.107" cy="207.188" r="2.903" style="fill:none;stroke:#a4a39d;stroke-width:1.16px;"/><circle cx="85.396" cy="207.188" r="2.903" style="fill:none;stroke:#a4a39d;stroke-width:1.16px;"/><path d="M66.237,207.188l6.967,-0" style="fill:none;fill-rule:nonzero;stroke:#a4a39d;stroke-width:1.16px;"/><path d="M79.01,207.188l3.483,-0" style="fill:none;fill-rule:nonzero;stroke:#a4a39d;stroke-width:1.16px;"/></g><g transform="matrix(1.16113,0,0,1.16113,99.3295,212.993)"><text x="0px" y="0px" style="font-family:'Consolas', monospace;font-size:11px;fill:#e8e7e3;">Scatter</text><text x="48.383px" y="0px" style="font-family:'Consolas', monospace;font-size:11px;fill:#6a6a68;">(Geometry Nodes)</text></g><text x="99.329px" y="228.088px" style="font-family:'Consolas', monospace;font-size:10.45px;fill:#6a6a68;">Density  120  ·  Seed  3  ·  Surface  &lt;source&gt;</text><circle cx="338.522" cy="212.993" r="2.322" style="fill:#a4a39d;"/><circle cx="347.811" cy="212.993" r="2.322" style="fill:#a4a39d;"/><circle cx="357.1" cy="212.993" r="2.322" style="fill:#a4a39d;"/></g><g><g><path d="M52.884,282.611l9.289,-4.644l9.289,4.644l-9.289,4.645l-9.289,-4.645Z" style="fill:none;fill-rule:nonzero;stroke:#5a5955;stroke-width:0.93px;"/><path d="M52.884,282.611l9.289,4.645" style="fill:none;fill-rule:nonzero;stroke:#5a5955;stroke-width:0.93px;"/><path d="M71.462,282.611l-9.289,4.645" style="fill:none;fill-rule:nonzero;stroke:#5a5955;stroke-width:0.93px;"/></g><text x="78.429px" y="286.095px" style="font-family:'Consolas', monospace;font-size:10.45px;fill:#6a6a68;">S<tspan x="84.3px 90.171px 96.042px 101.913px 107.784px 113.655px 119.526px 125.397px 131.268px 137.139px 143.01px 148.88px 154.751px 160.622px 166.493px 172.364px 178.235px 184.106px 189.977px 195.848px 201.719px 207.59px 213.461px 219.332px 225.203px 231.074px " y="286.095px 286.095px 286.095px 286.095px 286.095px 286.095px 286.095px 286.095px 286.095px 286.095px 286.095px 286.095px 286.095px 286.095px 286.095px 286.095px 286.095px 286.095px 286.095px 286.095px 286.095px 286.095px 286.095px 286.095px 286.095px 286.095px ">OURCE MESH FROM PLASTICITY</tspan></text></g><g><path d="M331.499,281l-0,3.223c-0,5.519 -4.481,10 -10,10l-45.505,-0c-5.519,-0 -10,-4.481 -10,-10l0,-3.223c0,-5.519 4.481,-10 10,-10l45.505,-0c5.519,-0 10,4.481 10,10Z" style="fill:#2a1a14;stroke:#d97540;stroke-width:0.63px;"/><circle cx="279.928" cy="282.611" r="2.903" style="fill:#d97540;"/><text x="289.217px" y="286.095px" style="font-family:'Consolas', monospace;font-size:9.289px;fill:#f0a070;">SYN<tspan x="304.678px " y="286.095px ">C</tspan>ED</text></g></g></g></svg>