<?xml version="1.0" encoding="UTF-8" standalone="no"?><!DOCTYPE svg PUBLIC "-//W3C//DTD SVG 1.1//EN" "http://www.w3.org/Graphics/SVG/1.1/DTD/svg11.dtd"><svg width="100%" height="100%" viewBox="0 0 590 301" version="1.1" xmlns="http://www.w3.org/2000/svg" xmlns:xlink="http://www.w3.org/1999/xlink" xml:space="preserve" xmlns:serif="http://www.serif.com/" style="fill-rule:evenodd;clip-rule:evenodd;stroke-linecap:round;"><g id="Offset-Region---Gap-Fill" serif:id="Offset Region - Gap Fill"><path d="M179.384,168.508c-0,19.545 -15.868,35.413 -35.413,35.413l-78.646,-0c-19.545,-0 -35.413,-15.868 -35.413,-35.413c0,0 0,-79 0,-79c0,-19.545 15.868,-35.412 35.413,-35.412l78.646,-0c19.545,-0 35.413,15.867 35.413,35.412c-0,0 -0,79 -0,79" style="fill:#2e6ad9;fill-opacity:0.25;"/><path d="M369.736,203.921l-149.472,-0l0,-149.825l149.472,-0" style="fill:#2e6ad9;fill-opacity:0.25;"/><path d="M560.088,203.921l-149.472,-0l0,-149.825l149.472,-0" style="fill:#2e6ad9;fill-opacity:0.25;"/><g><g><path d="M560.272,129.009l0,-74.913" style="fill:none;fill-rule:nonzero;stroke:#2e6ad9;stroke-width:1.28px;"/><path d="M560.272,54.096l-149.732,-0" style="fill:none;fill-rule:nonzero;stroke:#2e6ad9;stroke-width:1.28px;"/><path d="M410.54,54.096l-0,74.913" style="fill:none;fill-rule:nonzero;stroke:#2e6ad9;stroke-width:1.28px;"/><path d="M446.083,89.639l-0,39.37" style="fill:none;fill-rule:nonzero;stroke:#2e6ad9;stroke-width:1.28px;"/><path d="M525.261,89.639l-78.646,-0" style="fill:none;fill-rule:nonzero;stroke:#2e6ad9;stroke-width:1.28px;"/><path d="M524.729,129.009l-0,-39.37" style="fill:none;fill-rule:nonzero;stroke:#2e6ad9;stroke-width:1.28px;"/><path d="M255.704,89.639l0,39.37" style="fill:none;fill-rule:nonzero;stroke:#2e6ad9;stroke-width:1.28px;"/><path d="M334.35,89.639l-78.646,-0" style="fill:none;fill-rule:nonzero;stroke:#2e6ad9;stroke-width:1.28px;"/><path d="M334.35,129.009l-0,-39.37" style="fill:none;fill-rule:nonzero;stroke:#2e6ad9;stroke-width:1.28px;"/><path d="M369.893,129.009l0,-39.37" style="fill:none;fill-rule:nonzero;stroke:#2e6ad9;stroke-width:1.28px;"/><path d="M369.893,89.639l0,-35.543" style="fill:none;fill-rule:nonzero;stroke:#2e6ad9;stroke-width:1.28px;"/><path d="M369.893,54.096l-35.543,-0" style="fill:none;fill-rule:nonzero;stroke:#2e6ad9;stroke-width:1.28px;"/><path d="M334.35,54.096l-78.646,-0" style="fill:none;fill-rule:nonzero;stroke:#2e6ad9;stroke-width:1.28px;"/><path d="M255.704,54.096l-35.543,-0" style="fill:none;fill-rule:nonzero;stroke:#2e6ad9;stroke-width:1.28px;"/><path d="M220.161,54.096l-0,35.543" style="fill:none;fill-rule:nonzero;stroke:#2e6ad9;stroke-width:1.28px;"/><path d="M220.161,89.639l-0,39.37" style="fill:none;fill-rule:nonzero;stroke:#2e6ad9;stroke-width:1.28px;"/><path d="M179.514,129.009l0,-39.37" style="fill:none;fill-rule:nonzero;stroke:#2e6ad9;stroke-width:1.28px;"/><path d="M179.514,89.639c0,-19.499 -16.045,-35.543 -35.543,-35.543" style="fill:none;fill-rule:nonzero;stroke:#2e6ad9;stroke-width:1.28px;"/><path d="M143.971,54.096l-78.646,-0" style="fill:none;fill-rule:nonzero;stroke:#2e6ad9;stroke-width:1.28px;"/><path d="M65.325,54.096c-19.498,-0 -35.543,16.044 -35.543,35.543" style="fill:none;fill-rule:nonzero;stroke:#2e6ad9;stroke-width:1.28px;"/><path d="M29.782,89.639l-0,39.37" style="fill:none;fill-rule:nonzero;stroke:#2e6ad9;stroke-width:1.28px;"/><path d="M65.325,89.639l0,39.37" style="fill:none;fill-rule:nonzero;stroke:#2e6ad9;stroke-width:1.28px;"/><path d="M143.971,89.639l-78.646,-0" style="fill:none;fill-rule:nonzero;stroke:#2e6ad9;stroke-width:1.28px;"/><path d="M143.971,129.009l-0,-39.37" style="fill:none;fill-rule:nonzero;stroke:#2e6ad9;stroke-width:1.28px;"/><circle cx="410.54" cy="54.096" r="4.088" style="fill:#38a373;"/><circle cx="560.272" cy="54.096" r="4.088" style="fill:#38a373;"/><circle cx="334.35" cy="89.639" r="4.088" style="fill:#38a373;"/><circle cx="369.893" cy="89.639" r="4.088" style="fill:#38a373;"/><circle cx="369.893" cy="54.096" r="4.088" style="fill:#38a373;"/><circle cx="334.35" cy="54.096" r="4.088" style="fill:#38a373;"/><circle cx="255.704" cy="89.639" r="4.088" style="fill:#38a373;"/><circle cx="255.704" cy="54.096" r="4.088" style="fill:#38a373;"/><circle cx="220.161" cy="54.096" r="4.088" style="fill:#38a373;"/><circle cx="220.161" cy="89.639" r="4.088" style="fill:#38a373;"/><circle cx="143.971" cy="89.639" r="4.088" style="fill:#38a373;"/><circle cx="65.271" cy="89.639" r="4.088" style="fill:#38a373;"/><circle cx="29.728" cy="89.639" r="4.088" style="fill:#38a373;"/><circle cx="65.271" cy="54.096" r="4.088" style="fill:#38a373;"/><circle cx="179.514" cy="89.639" r="4.088" style="fill:#38a373;"/><circle cx="143.971" cy="54.096" r="4.088" style="fill:#38a373;"/><circle cx="524.729" cy="89.639" r="4.088" style="fill:#38a373;"/><circle cx="446.029" cy="89.639" r="4.088" style="fill:#38a373;"/></g><g><path d="M560.272,129.009l0,74.913" style="fill:none;fill-rule:nonzero;stroke:#2e6ad9;stroke-width:1.28px;"/><path d="M560.272,203.922l-149.732,0" style="fill:none;fill-rule:nonzero;stroke:#2e6ad9;stroke-width:1.28px;"/><path d="M410.54,203.922l-0,-74.913" style="fill:none;fill-rule:nonzero;stroke:#2e6ad9;stroke-width:1.28px;"/><path d="M446.083,168.379l-0,-39.37" style="fill:none;fill-rule:nonzero;stroke:#2e6ad9;stroke-width:1.28px;"/><path d="M525.261,168.379l-78.646,0" style="fill:none;fill-rule:nonzero;stroke:#2e6ad9;stroke-width:1.28px;"/><path d="M524.729,129.009l-0,39.37" style="fill:none;fill-rule:nonzero;stroke:#2e6ad9;stroke-width:1.28px;"/><path d="M255.704,168.379l0,-39.37" style="fill:none;fill-rule:nonzero;stroke:#2e6ad9;stroke-width:1.28px;"/><path d="M334.35,168.379l-78.646,0" style="fill:none;fill-rule:nonzero;stroke:#2e6ad9;stroke-width:1.28px;"/><path d="M334.35,129.009l-0,39.37" style="fill:none;fill-rule:nonzero;stroke:#2e6ad9;stroke-width:1.28px;"/><path d="M369.893,129.009l0,39.37" style="fill:none;fill-rule:nonzero;stroke:#2e6ad9;stroke-width:1.28px;"/><path d="M369.893,168.379l0,35.543" style="fill:none;fill-rule:nonzero;stroke:#2e6ad9;stroke-width:1.28px;"/><path d="M369.893,203.922l-35.543,0" style="fill:none;fill-rule:nonzero;stroke:#2e6ad9;stroke-width:1.28px;"/><path d="M334.35,203.922l-78.646,0" style="fill:none;fill-rule:nonzero;stroke:#2e6ad9;stroke-width:1.28px;"/><path d="M255.704,203.922l-35.543,0" style="fill:none;fill-rule:nonzero;stroke:#2e6ad9;stroke-width:1.28px;"/><path d="M220.161,203.922l-0,-35.543" style="fill:none;fill-rule:nonzero;stroke:#2e6ad9;stroke-width:1.28px;"/><path d="M220.161,168.379l-0,-39.37" style="fill:none;fill-rule:nonzero;stroke:#2e6ad9;stroke-width:1.28px;"/><path d="M179.514,129.009l0,39.37" style="fill:none;fill-rule:nonzero;stroke:#2e6ad9;stroke-width:1.28px;"/><path d="M179.514,168.379c0,19.499 -16.045,35.543 -35.543,35.543" style="fill:none;fill-rule:nonzero;stroke:#2e6ad9;stroke-width:1.28px;"/><path d="M143.971,203.922l-78.646,0" style="fill:none;fill-rule:nonzero;stroke:#2e6ad9;stroke-width:1.28px;"/><path d="M65.325,203.922c-19.498,0 -35.543,-16.044 -35.543,-35.543" style="fill:none;fill-rule:nonzero;stroke:#2e6ad9;stroke-width:1.28px;"/><path d="M29.782,168.379l-0,-39.37" style="fill:none;fill-rule:nonzero;stroke:#2e6ad9;stroke-width:1.28px;"/><path d="M65.325,168.379l0,-39.37" style="fill:none;fill-rule:nonzero;stroke:#2e6ad9;stroke-width:1.28px;"/><path d="M143.971,168.379l-78.646,0" style="fill:none;fill-rule:nonzero;stroke:#2e6ad9;stroke-width:1.28px;"/><path d="M143.971,129.009l-0,39.37" style="fill:none;fill-rule:nonzero;stroke:#2e6ad9;stroke-width:1.28px;"/><circle cx="410.54" cy="203.922" r="4.088" style="fill:#38a373;"/><circle cx="560.272" cy="203.922" r="4.088" style="fill:#38a373;"/><circle cx="334.35" cy="168.379" r="4.088" style="fill:#38a373;"/><circle cx="369.893" cy="168.379" r="4.088" style="fill:#38a373;"/><circle cx="369.893" cy="203.922" r="4.088" style="fill:#38a373;"/><circle cx="334.35" cy="203.922" r="4.088" style="fill:#38a373;"/><circle cx="255.704" cy="168.379" r="4.088" style="fill:#38a373;"/><circle cx="255.704" cy="203.922" r="4.088" style="fill:#38a373;"/><circle cx="220.161" cy="203.922" r="4.088" style="fill:#38a373;"/><circle cx="220.161" cy="168.379" r="4.088" style="fill:#38a373;"/><circle cx="143.971" cy="168.379" r="4.088" style="fill:#38a373;"/><circle cx="65.271" cy="168.379" r="4.088" style="fill:#38a373;"/><circle cx="29.728" cy="168.379" r="4.088" style="fill:#38a373;"/><circle cx="65.271" cy="203.922" r="4.088" style="fill:#38a373;"/><circle cx="179.514" cy="168.379" r="4.088" style="fill:#38a373;"/><circle cx="143.971" cy="203.922" r="4.088" style="fill:#38a373;"/><circle cx="524.729" cy="168.379" r="4.088" style="fill:#38a373;"/><circle cx="446.029" cy="168.379" r="4.088" style="fill:#38a373;"/></g><g transform="matrix(0.95,0,0,1,-152.133,4.54747e-13)"><g transform="matrix(16.6667,0,0,16.6667,299.3,270.128)"></g><text x="241.153px" y="270.128px" style="font-family:'Roboto-Regular', 'Roboto';font-size:16.667px;fill:#dcdcdc;">R<tspan x="252.04px 264.123px 275.547px 288.054px " y="270.128px 270.128px 270.128px 270.128px ">OUND</tspan></text></g><g transform="matrix(0.95,0,0,1,-142.632,4.54747e-13)"><g transform="matrix(16.6667,0,0,16.6667,489.982,270.128)"></g><text x="430.575px" y="270.128px" style="font-family:'Roboto-Regular', 'Roboto';font-size:16.667px;fill:#dcdcdc;">L<tspan x="440.168px 445.318px 457.824px 467.914px 479.403px " y="270.128px 270.128px 270.128px 270.128px 270.128px ">INEAR</tspan></text></g><g transform="matrix(0.95,0,0,1,-133.104,4.54747e-13)"><g transform="matrix(16.6667,0,0,16.6667,689.615,270.128)"></g><text x="612.924px" y="270.128px" style="font-family:'Roboto-Regular', 'Roboto';font-size:16.667px;fill:#dcdcdc;">N<tspan x="625.584px 635.968px 646.53px 657.954px 668.841px 680.33px " y="270.128px 270.128px 270.128px 270.128px 270.128px 270.128px ">ATURAL</tspan></text></g></g></g></svg>