<?xml version="1.0" encoding="UTF-8" standalone="no"?><!DOCTYPE svg PUBLIC "-//W3C//DTD SVG 1.1//EN" "http://www.w3.org/Graphics/SVG/1.1/DTD/svg11.dtd"><svg width="100%" height="100%" viewBox="0 0 590 301" version="1.1" xmlns="http://www.w3.org/2000/svg" xmlns:xlink="http://www.w3.org/1999/xlink" xml:space="preserve" xmlns:serif="http://www.serif.com/" style="fill-rule:evenodd;clip-rule:evenodd;stroke-linecap:round;"><g id="Offset---Gap-Fill" serif:id="Offset - Gap Fill"><g><g><path d="M560.246,235.192l-0,-181.096" style="fill:none;fill-rule:nonzero;stroke:#2e6ad9;stroke-width:1.28px;"/><path d="M560.246,54.096l-149.733,-0" style="fill:none;fill-rule:nonzero;stroke:#2e6ad9;stroke-width:1.28px;"/><path d="M410.513,54.096l0,181.096" style="fill:none;fill-rule:nonzero;stroke:#2e6ad9;stroke-width:1.28px;"/><path d="M446.057,89.639l-0,145.553" style="fill:none;fill-rule:nonzero;stroke:#2e6ad9;stroke-width:1.28px;"/><path d="M525.235,89.639l-78.646,-0" style="fill:none;fill-rule:nonzero;stroke:#2e6ad9;stroke-width:1.28px;"/><path d="M524.702,235.192l0,-145.553" style="fill:none;fill-rule:nonzero;stroke:#2e6ad9;stroke-width:1.28px;"/><path d="M255.678,89.639l-0,145.553" style="fill:none;fill-rule:nonzero;stroke:#2e6ad9;stroke-width:1.28px;"/><path d="M334.324,89.639l-78.646,-0" style="fill:none;fill-rule:nonzero;stroke:#2e6ad9;stroke-width:1.28px;"/><path d="M334.324,235.192l-0,-145.553" style="fill:none;fill-rule:nonzero;stroke:#2e6ad9;stroke-width:1.28px;"/><path d="M369.867,235.192l-0,-145.553" style="fill:none;fill-rule:nonzero;stroke:#2e6ad9;stroke-width:1.28px;"/><path d="M369.867,89.639l-0,-35.543" style="fill:none;fill-rule:nonzero;stroke:#2e6ad9;stroke-width:1.28px;"/><path d="M369.867,54.096l-35.543,-0" style="fill:none;fill-rule:nonzero;stroke:#2e6ad9;stroke-width:1.28px;"/><path d="M334.324,54.096l-78.646,-0" style="fill:none;fill-rule:nonzero;stroke:#2e6ad9;stroke-width:1.28px;"/><path d="M255.678,54.096l-35.544,-0" style="fill:none;fill-rule:nonzero;stroke:#2e6ad9;stroke-width:1.28px;"/><path d="M220.134,54.096l0,35.543" style="fill:none;fill-rule:nonzero;stroke:#2e6ad9;stroke-width:1.28px;"/><path d="M220.134,89.639l0,145.553" style="fill:none;fill-rule:nonzero;stroke:#2e6ad9;stroke-width:1.28px;"/><path d="M179.488,235.192l-0,-145.553" style="fill:none;fill-rule:nonzero;stroke:#2e6ad9;stroke-width:1.28px;"/><path d="M179.488,89.639c-0,-19.499 -16.045,-35.543 -35.543,-35.543" style="fill:none;fill-rule:nonzero;stroke:#2e6ad9;stroke-width:1.28px;"/><path d="M143.945,54.096l-78.646,-0" style="fill:none;fill-rule:nonzero;stroke:#2e6ad9;stroke-width:1.28px;"/><path d="M65.299,54.096c-19.499,-0 -35.544,16.044 -35.544,35.543" style="fill:none;fill-rule:nonzero;stroke:#2e6ad9;stroke-width:1.28px;"/><path d="M29.755,89.639l0,145.553" style="fill:none;fill-rule:nonzero;stroke:#2e6ad9;stroke-width:1.28px;"/><path d="M65.299,89.639l-0,145.553" style="fill:none;fill-rule:nonzero;stroke:#2e6ad9;stroke-width:1.28px;"/><path d="M143.945,89.639l-78.646,-0" style="fill:none;fill-rule:nonzero;stroke:#2e6ad9;stroke-width:1.28px;"/><path d="M143.945,235.192l-0,-145.553" style="fill:none;fill-rule:nonzero;stroke:#2e6ad9;stroke-width:1.28px;"/><circle cx="410.513" cy="54.096" r="4.088" style="fill:#38a373;"/><circle cx="560.246" cy="54.096" r="4.088" style="fill:#38a373;"/><circle cx="334.324" cy="89.639" r="4.088" style="fill:#38a373;"/><circle cx="369.867" cy="89.639" r="4.088" style="fill:#38a373;"/><circle cx="369.867" cy="54.096" r="4.088" style="fill:#38a373;"/><circle cx="334.324" cy="54.096" r="4.088" style="fill:#38a373;"/><circle cx="255.678" cy="89.639" r="4.088" style="fill:#38a373;"/><circle cx="255.678" cy="54.096" r="4.088" style="fill:#38a373;"/><circle cx="220.134" cy="54.096" r="4.088" style="fill:#38a373;"/><circle cx="220.134" cy="89.639" r="4.088" style="fill:#38a373;"/><circle cx="143.945" cy="89.639" r="4.088" style="fill:#38a373;"/><circle cx="65.245" cy="89.639" r="4.088" style="fill:#38a373;"/><circle cx="29.701" cy="89.639" r="4.088" style="fill:#38a373;"/><circle cx="65.245" cy="54.096" r="4.088" style="fill:#38a373;"/><circle cx="179.488" cy="89.639" r="4.088" style="fill:#38a373;"/><circle cx="143.945" cy="54.096" r="4.088" style="fill:#38a373;"/><circle cx="524.702" cy="89.639" r="4.088" style="fill:#38a373;"/><circle cx="446.003" cy="89.639" r="4.088" style="fill:#38a373;"/></g><g transform="matrix(0.95,0,0,1,-152.133,4.54747e-13)"><g transform="matrix(16.6667,0,0,16.6667,299.3,270.128)"></g><text x="241.153px" y="270.128px" style="font-family:'Roboto-Regular', 'Roboto';font-size:16.667px;fill:#dcdcdc;">R<tspan x="252.04px 264.123px 275.547px 288.054px " y="270.128px 270.128px 270.128px 270.128px ">OUND</tspan></text></g><g transform="matrix(0.95,0,0,1,-142.632,4.54747e-13)"><g transform="matrix(16.6667,0,0,16.6667,489.982,270.128)"></g><text x="430.575px" y="270.128px" style="font-family:'Roboto-Regular', 'Roboto';font-size:16.667px;fill:#dcdcdc;">L<tspan x="440.168px 445.318px 457.824px 467.914px 479.403px " y="270.128px 270.128px 270.128px 270.128px 270.128px ">INEAR</tspan></text></g><g transform="matrix(0.95,0,0,1,-133.104,4.54747e-13)"><g transform="matrix(16.6667,0,0,16.6667,689.615,270.128)"></g><text x="612.924px" y="270.128px" style="font-family:'Roboto-Regular', 'Roboto';font-size:16.667px;fill:#dcdcdc;">N<tspan x="625.584px 635.968px 646.53px 657.954px 668.841px 680.33px " y="270.128px 270.128px 270.128px 270.128px 270.128px 270.128px ">ATURAL</tspan></text></g></g></g></svg>