<?xml version="1.0" encoding="UTF-8" standalone="no"?><!DOCTYPE svg PUBLIC "-//W3C//DTD SVG 1.1//EN" "http://www.w3.org/Graphics/SVG/1.1/DTD/svg11.dtd"><svg width="100%" height="100%" viewBox="0 0 451 236" version="1.1" xmlns="http://www.w3.org/2000/svg" xmlns:xlink="http://www.w3.org/1999/xlink" xml:space="preserve" xmlns:serif="http://www.serif.com/" style="fill-rule:evenodd;clip-rule:evenodd;stroke-linecap:round;"><g id="Parametric-Hatching:-U-and-V" serif:id="Parametric Hatching: U and V"><g><g id="Edge-Visible-NotSmooth-Silhouette"><g id="XNurbs.001--Edge-Visible-NotSmooth-Silhouette-" serif:id="XNurbs.001 (Edge-Visible-NotSmooth-Silhouette)"><path d="M198.015,88.858c-2.593,-4.335 -5.127,-8.698 -7.624,-13.077" style="fill:none;fill-rule:nonzero;stroke:#1984ef;stroke-width:0.83px;"/><path d="M190.391,75.781c-2.568,-4.502 -5.097,-9.022 -7.613,-13.549" style="fill:none;fill-rule:nonzero;stroke:#1984ef;stroke-width:0.83px;"/><path d="M182.778,62.232c-2.522,-4.537 -5.031,-9.08 -7.553,-13.617" style="fill:none;fill-rule:nonzero;stroke:#1984ef;stroke-width:0.83px;"/><path d="M175.225,48.615c-2.515,-4.526 -5.043,-9.047 -7.608,-13.549" style="fill:none;fill-rule:nonzero;stroke:#1984ef;stroke-width:0.83px;"/><path d="M167.617,35.066c-2.565,-4.503 -5.167,-8.988 -7.833,-13.443" style="fill:none;fill-rule:nonzero;stroke:#1984ef;stroke-width:0.83px;"/><path d="M93.335,172.309c6.868,-4.131 13.736,-8.526 20.603,-13.186" style="fill:none;fill-rule:nonzero;stroke:#1984ef;stroke-width:0.83px;"/><path d="M113.938,159.123c7.005,-4.753 14.01,-9.781 21.014,-15.085" style="fill:none;fill-rule:nonzero;stroke:#1984ef;stroke-width:0.83px;"/><path d="M134.952,144.038c7.006,-5.304 14.013,-10.884 21.019,-16.739" style="fill:none;fill-rule:nonzero;stroke:#1984ef;stroke-width:0.83px;"/><path d="M155.971,127.299c7.007,-5.856 14.014,-11.987 21.021,-18.394" style="fill:none;fill-rule:nonzero;stroke:#1984ef;stroke-width:0.83px;"/><path d="M176.992,108.905c7.007,-6.407 14.015,-13.089 21.023,-20.047" style="fill:none;fill-rule:nonzero;stroke:#1984ef;stroke-width:0.83px;"/><path d="M29.521,58.089c6.422,6.652 11.552,13.915 15.909,21.542" style="fill:none;fill-rule:nonzero;stroke:#1984ef;stroke-width:0.83px;"/><path d="M45.43,79.631c4.338,7.594 7.911,15.55 11.231,23.624" style="fill:none;fill-rule:nonzero;stroke:#1984ef;stroke-width:0.83px;"/><path d="M56.661,103.255c3.336,8.111 6.417,16.342 9.765,24.447" style="fill:none;fill-rule:nonzero;stroke:#1984ef;stroke-width:0.83px;"/><path d="M66.426,127.702c3.342,8.093 6.95,16.06 11.341,23.658" style="fill:none;fill-rule:nonzero;stroke:#1984ef;stroke-width:0.83px;"/><path d="M77.767,151.36c4.284,7.411 9.313,14.47 15.568,20.949" style="fill:none;fill-rule:nonzero;stroke:#1984ef;stroke-width:0.83px;"/><path d="M159.784,21.623c-8.718,2.441 -17.436,4.881 -26.154,7.322" style="fill:none;fill-rule:nonzero;stroke:#1984ef;stroke-width:0.83px;"/><path d="M133.63,28.945c-8.718,2.441 -17.437,4.881 -26.155,7.322" style="fill:none;fill-rule:nonzero;stroke:#1984ef;stroke-width:0.83px;"/><path d="M107.475,36.267c-8.718,2.44 -17.436,4.881 -26.155,7.322" style="fill:none;fill-rule:nonzero;stroke:#1984ef;stroke-width:0.83px;"/><path d="M81.32,43.589c-8.718,2.44 -17.436,4.881 -26.154,7.321" style="fill:none;fill-rule:nonzero;stroke:#1984ef;stroke-width:0.83px;"/><path d="M55.166,50.91c-8.548,2.393 -17.097,4.786 -25.645,7.179" style="fill:none;fill-rule:nonzero;stroke:#1984ef;stroke-width:0.83px;"/></g></g><g id="ParametricHatchLine-Visible"><g id="XNurbs.001--ParametricHatchLine-Visible-" serif:id="XNurbs.001 (ParametricHatchLine-Visible)"><path d="M133.63,28.945c17.004,25.448 26.363,54.508 43.367,79.956" style="fill:none;fill-rule:nonzero;stroke:#1984ef;stroke-width:0.83px;"/><path d="M107.475,36.267c20.748,28.178 27.756,62.847 48.504,91.025" style="fill:none;fill-rule:nonzero;stroke:#1984ef;stroke-width:0.83px;"/><path d="M81.32,43.589c24.492,30.357 29.149,70.085 53.641,100.442" style="fill:none;fill-rule:nonzero;stroke:#1984ef;stroke-width:0.83px;"/><path d="M55.166,50.91c28.236,31.986 30.541,76.224 58.777,108.209" style="fill:none;fill-rule:nonzero;stroke:#1984ef;stroke-width:0.83px;"/></g></g></g><g><g id="Edge-Visible-NotSmooth-Silhouette1" serif:id="Edge-Visible-NotSmooth-Silhouette"><g id="XNurbs.001--Edge-Visible-NotSmooth-Silhouette-1" serif:id="XNurbs.001 (Edge-Visible-NotSmooth-Silhouette)"><path d="M422.323,88.858c-2.593,-4.335 -5.126,-8.698 -7.624,-13.077" style="fill:none;fill-rule:nonzero;stroke:#1984ef;stroke-width:0.83px;"/><path d="M414.699,75.781c-2.567,-4.502 -5.096,-9.022 -7.613,-13.549" style="fill:none;fill-rule:nonzero;stroke:#1984ef;stroke-width:0.83px;"/><path d="M407.086,62.232c-2.522,-4.537 -5.031,-9.08 -7.553,-13.617" style="fill:none;fill-rule:nonzero;stroke:#1984ef;stroke-width:0.83px;"/><path d="M399.533,48.615c-2.515,-4.526 -5.043,-9.047 -7.608,-13.549" style="fill:none;fill-rule:nonzero;stroke:#1984ef;stroke-width:0.83px;"/><path d="M391.925,35.066c-2.565,-4.503 -5.167,-8.988 -7.832,-13.443" style="fill:none;fill-rule:nonzero;stroke:#1984ef;stroke-width:0.83px;"/><path d="M317.644,172.309c6.867,-4.131 13.735,-8.526 20.603,-13.186" style="fill:none;fill-rule:nonzero;stroke:#1984ef;stroke-width:0.83px;"/><path d="M338.247,159.123c7.004,-4.753 14.009,-9.781 21.014,-15.085" style="fill:none;fill-rule:nonzero;stroke:#1984ef;stroke-width:0.83px;"/><path d="M359.261,144.038c7.006,-5.304 14.012,-10.884 21.018,-16.739" style="fill:none;fill-rule:nonzero;stroke:#1984ef;stroke-width:0.83px;"/><path d="M380.279,127.299c7.007,-5.856 14.014,-11.987 21.021,-18.394" style="fill:none;fill-rule:nonzero;stroke:#1984ef;stroke-width:0.83px;"/><path d="M401.3,108.905c7.008,-6.407 14.016,-13.089 21.023,-20.047" style="fill:none;fill-rule:nonzero;stroke:#1984ef;stroke-width:0.83px;"/><path d="M253.83,58.089c6.422,6.652 11.551,13.915 15.909,21.542" style="fill:none;fill-rule:nonzero;stroke:#1984ef;stroke-width:0.83px;"/><path d="M269.739,79.631c4.338,7.594 7.91,15.55 11.231,23.624" style="fill:none;fill-rule:nonzero;stroke:#1984ef;stroke-width:0.83px;"/><path d="M280.97,103.255c3.335,8.111 6.416,16.342 9.764,24.447" style="fill:none;fill-rule:nonzero;stroke:#1984ef;stroke-width:0.83px;"/><path d="M290.734,127.702c3.342,8.093 6.95,16.06 11.341,23.658" style="fill:none;fill-rule:nonzero;stroke:#1984ef;stroke-width:0.83px;"/><path d="M302.075,151.36c4.284,7.411 9.313,14.47 15.569,20.949" style="fill:none;fill-rule:nonzero;stroke:#1984ef;stroke-width:0.83px;"/><path d="M384.093,21.623c-8.718,2.441 -17.437,4.881 -26.155,7.322" style="fill:none;fill-rule:nonzero;stroke:#1984ef;stroke-width:0.83px;"/><path d="M357.938,28.945c-8.718,2.441 -17.436,4.881 -26.155,7.322" style="fill:none;fill-rule:nonzero;stroke:#1984ef;stroke-width:0.83px;"/><path d="M331.783,36.267c-8.718,2.44 -17.436,4.881 -26.154,7.322" style="fill:none;fill-rule:nonzero;stroke:#1984ef;stroke-width:0.83px;"/><path d="M305.629,43.589c-8.718,2.44 -17.437,4.881 -26.155,7.321" style="fill:none;fill-rule:nonzero;stroke:#1984ef;stroke-width:0.83px;"/><path d="M279.474,50.91c-8.548,2.393 -17.096,4.786 -25.644,7.179" style="fill:none;fill-rule:nonzero;stroke:#1984ef;stroke-width:0.83px;"/></g></g><g id="ParametricHatchLine-Visible1" serif:id="ParametricHatchLine-Visible"><g id="XNurbs.001--ParametricHatchLine-Visible-1" serif:id="XNurbs.001 (ParametricHatchLine-Visible)"><path d="M391.925,35.066c-40.735,16.217 -81.47,31.061 -122.205,44.532" style="fill:none;fill-rule:nonzero;stroke:#1984ef;stroke-width:0.83px;"/><path d="M399.533,48.615c-39.516,20.971 -79.032,39.196 -118.548,54.677" style="fill:none;fill-rule:nonzero;stroke:#1984ef;stroke-width:0.83px;"/><path d="M407.068,62.199c-38.778,25.952 -77.556,47.786 -116.334,65.503" style="fill:none;fill-rule:nonzero;stroke:#1984ef;stroke-width:0.83px;"/><path d="M414.679,75.746c-37.534,30.695 -75.069,55.899 -112.604,75.614" style="fill:none;fill-rule:nonzero;stroke:#1984ef;stroke-width:0.83px;"/></g></g></g><g id="Text"><g transform="matrix(0.95,0,0,1,-145.568,4.54747e-13)"><g transform="matrix(12.2222,0,0,12.2222,308.17,214.252)"></g><text x="240.533px" y="214.252px" style="font-family:'Roboto-Regular', 'Roboto';font-size:12.222px;fill:#dcdcdc;">S<tspan x="248.242px 255.538px 263.894px 272.302px 276.078px 285.25px 293.801px 296.761px 300.019px " y="214.252px 214.252px 214.252px 214.252px 214.252px 214.252px 214.252px 214.252px 214.252px ">PACING: U</tspan></text></g><g transform="matrix(0.95,0,0,1,-133.598,4.54747e-13)"><g transform="matrix(12.2222,0,0,12.2222,547.486,214.252)"></g><text x="479.992px" y="214.252px" style="font-family:'Roboto-Regular', 'Roboto';font-size:12.222px;fill:#dcdcdc;">S<tspan x="487.701px 494.997px 503.353px 511.761px 515.537px 524.709px 533.26px 536.22px 539.478px " y="214.252px 214.252px 214.252px 214.252px 214.252px 214.252px 214.252px 214.252px 214.252px ">PACING: V</tspan></text></g></g></g></svg>