<?xml version="1.0" encoding="UTF-8" standalone="no"?><!DOCTYPE svg PUBLIC "-//W3C//DTD SVG 1.1//EN" "http://www.w3.org/Graphics/SVG/1.1/DTD/svg11.dtd"><svg width="100%" height="100%" viewBox="0 0 710 221" version="1.1" xmlns="http://www.w3.org/2000/svg" xmlns:xlink="http://www.w3.org/1999/xlink" xml:space="preserve" xmlns:serif="http://www.serif.com/" style="fill-rule:evenodd;clip-rule:evenodd;stroke-linecap:round;"><g id="Planar-Hatching:-Spacing" serif:id="Planar Hatching: Spacing"><g id="Text"><g transform="matrix(0.955903,0,0,1,-107.531,0)"><g transform="matrix(12.2222,0,0,12.2222,263.778,205.178)"></g><text x="194.165px" y="205.178px" style="font-family:'Roboto-Regular', 'Roboto';font-size:12.222px;fill:#dcdcdc;">VA<tspan x="210.353px 217.049px 225.427px 232.599px 235.559px 238.817px 245.912px 249.361px 256.683px " y="205.178px 205.178px 205.178px 205.178px 205.178px 205.178px 205.178px 205.178px 205.178px ">LUE: 0.05</tspan></text></g><g transform="matrix(0.955903,0,0,1,-96.8648,-2.27374e-13)"><g transform="matrix(12.2222,0,0,12.2222,501.804,205.178)"></g><text x="439.513px" y="205.178px" style="font-family:'Roboto-Regular', 'Roboto';font-size:12.222px;fill:#dcdcdc;">VA<tspan x="455.701px 462.397px 470.775px 477.947px 480.907px 484.165px 491.26px 494.709px " y="205.178px 205.178px 205.178px 205.178px 205.178px 205.178px 205.178px 205.178px ">LUE: 0.3</tspan></text></g><g transform="matrix(0.955903,0,0,1,-86.2042,-2.27374e-13)"><g transform="matrix(12.2222,0,0,12.2222,743.557,205.178)"></g><text x="681.265px" y="205.178px" style="font-family:'Roboto-Regular', 'Roboto';font-size:12.222px;fill:#dcdcdc;">VA<tspan x="697.454px 704.15px 712.527px 719.7px 722.66px 725.918px 733.013px 736.462px " y="205.178px 205.178px 205.178px 205.178px 205.178px 205.178px 205.178px 205.178px ">LUE: 1.0</tspan></text></g></g><g><g id="Edge-Visible-NotSmooth"><g id="Extruded.002--Edge-Visible-NotSmooth-" serif:id="Extruded.002 (Edge-Visible-NotSmooth)"><path d="M65.391,91.7c-0,14.457 20.604,26.353 45.643,26.353c25.04,-0 45.644,-11.896 45.644,-26.353" style="fill:none;fill-rule:nonzero;stroke:#1984ef;stroke-width:1.03px;"/><path d="M156.678,44.431c0,14.457 -20.604,26.353 -45.644,26.353c-25.039,-0 -45.643,-11.896 -45.643,-26.353" style="fill:none;fill-rule:nonzero;stroke:#1984ef;stroke-width:1.03px;"/><path d="M23.902,91.7l87.132,50.306" style="fill:none;fill-rule:nonzero;stroke:#1984ef;stroke-width:1.03px;"/><path d="M198.167,91.7l-87.133,50.306" style="fill:none;fill-rule:nonzero;stroke:#1984ef;stroke-width:1.03px;"/><path d="M111.034,142.006l0,34.866" style="fill:none;fill-rule:nonzero;stroke:#1984ef;stroke-width:1.03px;"/></g></g><g id="Edge-Visible-NotSmooth-Silhouette"><g id="Extruded.002--Edge-Visible-NotSmooth-Silhouette-" serif:id="Extruded.002 (Edge-Visible-NotSmooth-Silhouette)"><path d="M78.759,25.797c8.557,-4.94 20.175,-7.718 32.275,-7.718c25.04,0 45.644,11.896 45.644,26.352" style="fill:none;fill-rule:nonzero;stroke:#1984ef;stroke-width:1.03px;"/><path d="M65.391,44.431c-0,-6.986 4.812,-13.693 13.368,-18.634" style="fill:none;fill-rule:nonzero;stroke:#1984ef;stroke-width:1.03px;"/><path d="M65.391,67.747l-41.489,23.953" style="fill:none;fill-rule:nonzero;stroke:#1984ef;stroke-width:1.03px;"/><path d="M156.678,67.747l41.489,23.953" style="fill:none;fill-rule:nonzero;stroke:#1984ef;stroke-width:1.03px;"/><path d="M111.034,176.872l-87.132,-50.306" style="fill:none;fill-rule:nonzero;stroke:#1984ef;stroke-width:1.03px;"/><path d="M23.902,91.7l-0,34.866" style="fill:none;fill-rule:nonzero;stroke:#1984ef;stroke-width:1.03px;"/><path d="M198.167,91.7l0,34.866" style="fill:none;fill-rule:nonzero;stroke:#1984ef;stroke-width:1.03px;"/><path d="M111.034,176.872l87.133,-50.306" style="fill:none;fill-rule:nonzero;stroke:#1984ef;stroke-width:1.03px;"/></g></g><g id="PlanarHatchLine-Visible"><g id="Extruded.002--PlanarHatchLine-Visible-" serif:id="Extruded.002 (PlanarHatchLine-Visible)"><path d="M156.678,48.73c0,14.457 -20.604,26.353 -45.644,26.353c-25.039,-0 -45.643,-11.896 -45.643,-26.353" style="fill:none;fill-rule:nonzero;stroke:#1984ef;stroke-width:1.03px;"/><path d="M156.678,53.761c0,14.456 -20.604,26.352 -45.644,26.352c-25.039,0 -45.643,-11.896 -45.643,-26.352" style="fill:none;fill-rule:nonzero;stroke:#1984ef;stroke-width:1.03px;"/><path d="M156.678,58.792c0,14.456 -20.604,26.352 -45.644,26.352c-25.039,-0 -45.643,-11.896 -45.643,-26.352" style="fill:none;fill-rule:nonzero;stroke:#1984ef;stroke-width:1.03px;"/><path d="M156.678,63.822c0,14.457 -20.604,26.353 -45.644,26.353c-25.039,-0 -45.643,-11.896 -45.643,-26.353" style="fill:none;fill-rule:nonzero;stroke:#1984ef;stroke-width:1.03px;"/><path d="M156.678,68.853c0,14.456 -20.604,26.352 -45.644,26.352c-25.039,0 -45.643,-11.896 -45.643,-26.352" style="fill:none;fill-rule:nonzero;stroke:#1984ef;stroke-width:1.03px;"/><path d="M156.678,73.883c0,14.457 -20.604,26.353 -45.644,26.353c-25.039,-0 -45.643,-11.896 -45.643,-26.353" style="fill:none;fill-rule:nonzero;stroke:#1984ef;stroke-width:1.03px;"/><path d="M156.678,78.914c0,14.456 -20.604,26.352 -45.644,26.352c-25.039,0 -45.643,-11.896 -45.643,-26.352" style="fill:none;fill-rule:nonzero;stroke:#1984ef;stroke-width:1.03px;"/><path d="M156.678,83.945c0,14.456 -20.604,26.352 -45.644,26.352c-25.039,-0 -45.643,-11.896 -45.643,-26.352" style="fill:none;fill-rule:nonzero;stroke:#1984ef;stroke-width:1.03px;"/><path d="M156.678,88.975c0,14.457 -20.604,26.353 -45.644,26.353c-25.039,-0 -45.643,-11.896 -45.643,-26.353" style="fill:none;fill-rule:nonzero;stroke:#1984ef;stroke-width:1.03px;"/><path d="M111.034,174.496l-87.132,-50.307" style="fill:none;fill-rule:nonzero;stroke:#1984ef;stroke-width:1.03px;"/><path d="M111.034,169.465l-87.132,-50.306" style="fill:none;fill-rule:nonzero;stroke:#1984ef;stroke-width:1.03px;"/><path d="M111.034,164.434l-87.132,-50.306" style="fill:none;fill-rule:nonzero;stroke:#1984ef;stroke-width:1.03px;"/><path d="M111.034,159.404l-87.132,-50.306" style="fill:none;fill-rule:nonzero;stroke:#1984ef;stroke-width:1.03px;"/><path d="M111.034,154.373l-87.132,-50.306" style="fill:none;fill-rule:nonzero;stroke:#1984ef;stroke-width:1.03px;"/><path d="M111.034,149.343l-87.132,-50.307" style="fill:none;fill-rule:nonzero;stroke:#1984ef;stroke-width:1.03px;"/><path d="M111.034,144.312l-87.132,-50.306" style="fill:none;fill-rule:nonzero;stroke:#1984ef;stroke-width:1.03px;"/><path d="M198.167,124.189l-87.133,50.307" style="fill:none;fill-rule:nonzero;stroke:#1984ef;stroke-width:1.03px;"/><path d="M198.167,119.159l-87.133,50.306" style="fill:none;fill-rule:nonzero;stroke:#1984ef;stroke-width:1.03px;"/><path d="M198.167,114.128l-87.133,50.306" style="fill:none;fill-rule:nonzero;stroke:#1984ef;stroke-width:1.03px;"/><path d="M198.167,109.098l-87.133,50.306" style="fill:none;fill-rule:nonzero;stroke:#1984ef;stroke-width:1.03px;"/><path d="M198.167,104.067l-87.133,50.306" style="fill:none;fill-rule:nonzero;stroke:#1984ef;stroke-width:1.03px;"/><path d="M198.167,99.036l-87.133,50.307" style="fill:none;fill-rule:nonzero;stroke:#1984ef;stroke-width:1.03px;"/><path d="M198.167,94.006l-87.133,50.306" style="fill:none;fill-rule:nonzero;stroke:#1984ef;stroke-width:1.03px;"/></g></g><g id="SilhouetteLine-Visible"><g id="Extruded.002--SilhouetteLine-Visible-" serif:id="Extruded.002 (SilhouetteLine-Visible)"><path d="M65.391,44.431l-0,23.316" style="fill:none;fill-rule:nonzero;stroke:#1984ef;stroke-width:1.03px;"/><path d="M65.391,67.747l-0,23.953" style="fill:none;fill-rule:nonzero;stroke:#1984ef;stroke-width:1.03px;"/><path d="M156.678,91.7l0,-23.953" style="fill:none;fill-rule:nonzero;stroke:#1984ef;stroke-width:1.03px;"/><path d="M156.678,67.747l0,-23.316" style="fill:none;fill-rule:nonzero;stroke:#1984ef;stroke-width:1.03px;"/></g></g></g><g><g id="Edge-Visible-NotSmooth1" serif:id="Edge-Visible-NotSmooth"><g id="Extruded.002--Edge-Visible-NotSmooth-1" serif:id="Extruded.002 (Edge-Visible-NotSmooth)"><path d="M309.723,91.7c-0,14.457 20.604,26.353 45.644,26.353c25.039,-0 45.643,-11.896 45.643,-26.353" style="fill:none;fill-rule:nonzero;stroke:#1984ef;stroke-width:1.03px;"/><path d="M401.01,44.431c0,14.457 -20.604,26.353 -45.643,26.353c-25.04,-0 -45.644,-11.896 -45.644,-26.353" style="fill:none;fill-rule:nonzero;stroke:#1984ef;stroke-width:1.03px;"/><path d="M268.234,91.7l87.133,50.306" style="fill:none;fill-rule:nonzero;stroke:#1984ef;stroke-width:1.03px;"/><path d="M442.499,91.7l-87.132,50.306" style="fill:none;fill-rule:nonzero;stroke:#1984ef;stroke-width:1.03px;"/><path d="M355.367,142.006l-0,34.866" style="fill:none;fill-rule:nonzero;stroke:#1984ef;stroke-width:1.03px;"/></g></g><g id="Edge-Visible-NotSmooth-Silhouette1" serif:id="Edge-Visible-NotSmooth-Silhouette"><g id="Extruded.002--Edge-Visible-NotSmooth-Silhouette-1" serif:id="Extruded.002 (Edge-Visible-NotSmooth-Silhouette)"><path d="M323.092,25.797c8.556,-4.94 20.174,-7.718 32.275,-7.718c25.039,0 45.643,11.896 45.643,26.352" style="fill:none;fill-rule:nonzero;stroke:#1984ef;stroke-width:1.03px;"/><path d="M309.723,44.431c-0,-6.986 4.812,-13.693 13.369,-18.634" style="fill:none;fill-rule:nonzero;stroke:#1984ef;stroke-width:1.03px;"/><path d="M309.723,67.747l-41.489,23.953" style="fill:none;fill-rule:nonzero;stroke:#1984ef;stroke-width:1.03px;"/><path d="M401.01,67.747l41.489,23.953" style="fill:none;fill-rule:nonzero;stroke:#1984ef;stroke-width:1.03px;"/><path d="M355.367,176.872l-87.133,-50.306" style="fill:none;fill-rule:nonzero;stroke:#1984ef;stroke-width:1.03px;"/><path d="M268.234,91.7l-0,34.866" style="fill:none;fill-rule:nonzero;stroke:#1984ef;stroke-width:1.03px;"/><path d="M442.499,91.7l0,34.866" style="fill:none;fill-rule:nonzero;stroke:#1984ef;stroke-width:1.03px;"/><path d="M355.367,176.872l87.132,-50.306" style="fill:none;fill-rule:nonzero;stroke:#1984ef;stroke-width:1.03px;"/></g></g><g id="PlanarHatchLine-Visible1" serif:id="PlanarHatchLine-Visible"><g id="Extruded.002--PlanarHatchLine-Visible-1" serif:id="Extruded.002 (PlanarHatchLine-Visible)"><path d="M401.01,56.421c0,14.457 -20.604,26.353 -45.643,26.353c-25.04,-0 -45.644,-11.896 -45.644,-26.353" style="fill:none;fill-rule:nonzero;stroke:#1984ef;stroke-width:1.03px;"/><path d="M401.01,68.853c0,14.456 -20.604,26.352 -45.643,26.352c-25.04,0 -45.644,-11.896 -45.644,-26.352" style="fill:none;fill-rule:nonzero;stroke:#1984ef;stroke-width:1.03px;"/><path d="M401.01,80.113c0,14.457 -20.604,26.353 -45.643,26.353c-25.04,-0 -45.644,-11.896 -45.644,-26.353" style="fill:none;fill-rule:nonzero;stroke:#1984ef;stroke-width:1.03px;"/><path d="M355.367,166.903l-87.133,-50.306" style="fill:none;fill-rule:nonzero;stroke:#1984ef;stroke-width:1.03px;"/><path d="M355.367,154.373l-87.133,-50.306" style="fill:none;fill-rule:nonzero;stroke:#1984ef;stroke-width:1.03px;"/><path d="M442.499,116.597l-87.132,50.306" style="fill:none;fill-rule:nonzero;stroke:#1984ef;stroke-width:1.03px;"/><path d="M442.499,104.067l-87.132,50.306" style="fill:none;fill-rule:nonzero;stroke:#1984ef;stroke-width:1.03px;"/></g></g><g id="SilhouetteLine-Visible1" serif:id="SilhouetteLine-Visible"><g id="Extruded.002--SilhouetteLine-Visible-1" serif:id="Extruded.002 (SilhouetteLine-Visible)"><path d="M309.723,44.431l-0,23.316" style="fill:none;fill-rule:nonzero;stroke:#1984ef;stroke-width:1.03px;"/><path d="M309.723,67.747l-0,23.953" style="fill:none;fill-rule:nonzero;stroke:#1984ef;stroke-width:1.03px;"/><path d="M401.01,91.7l0,-23.953" style="fill:none;fill-rule:nonzero;stroke:#1984ef;stroke-width:1.03px;"/><path d="M401.01,67.747l0,-23.316" style="fill:none;fill-rule:nonzero;stroke:#1984ef;stroke-width:1.03px;"/></g></g></g><g><g id="Edge-Visible-NotSmooth2" serif:id="Edge-Visible-NotSmooth"><g id="Extruded.002--Edge-Visible-NotSmooth-2" serif:id="Extruded.002 (Edge-Visible-NotSmooth)"><path d="M549.133,91.7c-0,14.457 20.604,26.353 45.644,26.353c25.039,-0 45.643,-11.896 45.643,-26.353" style="fill:none;fill-rule:nonzero;stroke:#1984ef;stroke-width:1.03px;"/><path d="M640.42,44.431c0,14.457 -20.604,26.353 -45.643,26.353c-25.04,-0 -45.644,-11.896 -45.644,-26.353" style="fill:none;fill-rule:nonzero;stroke:#1984ef;stroke-width:1.03px;"/><path d="M507.644,91.7l87.133,50.306" style="fill:none;fill-rule:nonzero;stroke:#1984ef;stroke-width:1.03px;"/><path d="M681.909,91.7l-87.132,50.306" style="fill:none;fill-rule:nonzero;stroke:#1984ef;stroke-width:1.03px;"/><path d="M594.777,142.006l-0,34.866" style="fill:none;fill-rule:nonzero;stroke:#1984ef;stroke-width:1.03px;"/></g></g><g id="Edge-Visible-NotSmooth-Silhouette2" serif:id="Edge-Visible-NotSmooth-Silhouette"><g id="Extruded.002--Edge-Visible-NotSmooth-Silhouette-2" serif:id="Extruded.002 (Edge-Visible-NotSmooth-Silhouette)"><path d="M562.502,25.797c8.556,-4.94 20.174,-7.718 32.275,-7.718c25.039,0 45.643,11.896 45.643,26.352" style="fill:none;fill-rule:nonzero;stroke:#1984ef;stroke-width:1.03px;"/><path d="M549.133,44.431c-0,-6.986 4.812,-13.693 13.369,-18.634" style="fill:none;fill-rule:nonzero;stroke:#1984ef;stroke-width:1.03px;"/><path d="M549.133,67.747l-41.489,23.953" style="fill:none;fill-rule:nonzero;stroke:#1984ef;stroke-width:1.03px;"/><path d="M640.42,67.747l41.489,23.953" style="fill:none;fill-rule:nonzero;stroke:#1984ef;stroke-width:1.03px;"/><path d="M594.777,176.872l-87.133,-50.306" style="fill:none;fill-rule:nonzero;stroke:#1984ef;stroke-width:1.03px;"/><path d="M507.644,91.7l-0,34.866" style="fill:none;fill-rule:nonzero;stroke:#1984ef;stroke-width:1.03px;"/><path d="M681.909,91.7l0,34.866" style="fill:none;fill-rule:nonzero;stroke:#1984ef;stroke-width:1.03px;"/><path d="M594.777,176.872l87.132,-50.306" style="fill:none;fill-rule:nonzero;stroke:#1984ef;stroke-width:1.03px;"/></g></g><g id="PlanarHatchLine-Visible2" serif:id="PlanarHatchLine-Visible"></g><g id="SilhouetteLine-Visible2" serif:id="SilhouetteLine-Visible"><g id="Extruded.002--SilhouetteLine-Visible-2" serif:id="Extruded.002 (SilhouetteLine-Visible)"><path d="M549.133,44.431l-0,23.316" style="fill:none;fill-rule:nonzero;stroke:#1984ef;stroke-width:1.03px;"/><path d="M549.133,67.747l-0,23.953" style="fill:none;fill-rule:nonzero;stroke:#1984ef;stroke-width:1.03px;"/><path d="M640.42,91.7l0,-23.953" style="fill:none;fill-rule:nonzero;stroke:#1984ef;stroke-width:1.03px;"/><path d="M640.42,67.747l0,-23.316" style="fill:none;fill-rule:nonzero;stroke:#1984ef;stroke-width:1.03px;"/></g></g></g></g></svg>