<?xml version="1.0" encoding="UTF-8" standalone="no"?><!DOCTYPE svg PUBLIC "-//W3C//DTD SVG 1.1//EN" "http://www.w3.org/Graphics/SVG/1.1/DTD/svg11.dtd"><svg width="100%" height="100%" viewBox="0 0 591 330" version="1.1" xmlns="http://www.w3.org/2000/svg" xmlns:xlink="http://www.w3.org/1999/xlink" xml:space="preserve" xmlns:serif="http://www.serif.com/" style="fill-rule:evenodd;clip-rule:evenodd;stroke-linecap:round;stroke-linejoin:round;stroke-miterlimit:1.5;"><g id="Hide-Occluded" serif:id="Hide Occluded"><g id="TEXT"><g transform="matrix(0.95,0,0,1,-149.783,4.54747e-13)"><g transform="matrix(16.6667,0,0,16.6667,408.856,297.893)"></g><text x="237.053px" y="297.893px" style="font-family:'Roboto-Regular', 'Roboto';font-size:16.667px;fill:#dcdcdc;">H<tspan x="249.56px 254.71px 266.264px 276.045px 280.487px 292.571px 304.035px 315.5px 324.631px 336.055px 347.609px 357.698px 368.944px 372.981px 377.423px 389.506px 399.335px " y="297.893px 297.893px 297.893px 297.893px 297.893px 297.893px 297.893px 297.893px 297.893px 297.893px 297.893px 297.893px 297.893px 297.893px 297.893px 297.893px 297.893px ">IDE OCCLUDED: OFF</tspan></text></g><g transform="matrix(0.95,0,0,1,-135.602,0)"><g transform="matrix(16.6667,0,0,16.6667,685.826,297.893)"></g><text x="521.175px" y="297.893px" style="font-family:'Roboto-Regular', 'Roboto';font-size:16.667px;fill:#dcdcdc;">H<tspan x="533.681px 538.831px 550.385px 560.166px 564.609px 576.692px 588.157px 599.621px 608.752px 620.176px 631.73px 641.819px 653.065px 657.102px 661.544px 673.628px " y="297.893px 297.893px 297.893px 297.893px 297.893px 297.893px 297.893px 297.893px 297.893px 297.893px 297.893px 297.893px 297.893px 297.893px 297.893px 297.893px ">IDE OCCLUDED: ON</tspan></text></g></g><g id="Hide-Occluded:-ON" serif:id="Hide Occluded: ON"><path d="M225.361,54.772c17.821,10.289 32.268,35.312 32.268,55.89l0,77.713l-99.57,-57.486l0,-77.714c0,-20.578 14.447,-28.919 32.268,-18.63c11.224,6.48 23.81,13.747 35.034,20.227Z" style="fill:#828891;stroke:#000;stroke-width:0.42px;"/><path d="M158.059,130.889l99.57,57.486l-99.57,57.487l-99.569,-57.487l99.569,-57.486Z" style="fill:#bea58e;stroke:#000;stroke-width:0.42px;"/><path d="M125.791,112.259c17.821,10.289 32.268,35.311 32.268,55.889l0,77.714l-99.569,-57.487l-0,-77.713c-0,-20.578 14.446,-28.919 32.268,-18.63c11.224,6.48 23.809,13.746 35.033,20.227Z" style="fill:#828891;"/><path d="M125.791,112.259c17.821,10.289 32.268,35.311 32.268,55.889l0,77.714l-99.569,-57.487l-0,-77.713c-0,-20.578 14.446,-28.919 32.268,-18.63l35.033,20.227Zm-0.208,0.36l-35.034,-20.226c-8.749,-5.052 -16.666,-5.571 -22.4,-2.26c-5.734,3.31 -9.243,10.426 -9.243,20.529l0,77.473l98.737,57.005l-0,-76.992c-0,-20.445 -14.354,-45.306 -32.06,-55.529Z"/><path d="M105.458,124.08c17.16,9.908 31.093,34.04 31.093,53.855c-0,10.028 -3.563,17.06 -9.259,20.349c-5.696,3.288 -13.567,2.858 -22.251,-2.156c-17.161,-9.908 -31.094,-34.04 -31.094,-53.856c0,-10.027 3.563,-17.059 9.259,-20.348c5.696,-3.289 13.568,-2.858 22.252,2.156Zm-0.209,0.361c-17.046,-9.842 -30.885,-1.852 -30.885,17.831c0,19.683 13.839,43.653 30.885,53.495c17.046,9.841 30.885,1.851 30.885,-17.832c0,-19.683 -13.839,-43.653 -30.885,-53.494Z"/><path d="M68.832,145.466c17.046,9.842 30.886,33.812 30.886,53.495c-0,19.683 -13.84,27.673 -30.886,17.831c-17.045,-9.841 -30.885,-33.811 -30.885,-53.494c0,-19.683 13.84,-27.673 30.885,-17.832Z" style="fill:#5b7eb2;fill-opacity:0.5;"/><path d="M69.249,144.744c17.276,9.975 31.302,34.268 31.302,54.217c-0,10.213 -3.665,17.359 -9.467,20.709c-5.802,3.349 -13.823,2.951 -22.668,-2.156c-17.276,-9.974 -31.302,-34.268 -31.302,-54.216c0,-10.214 3.665,-17.36 9.467,-20.709c5.802,-3.35 13.823,-2.951 22.668,2.155Zm-0.417,0.722c-17.045,-9.841 -30.885,-1.851 -30.885,17.832c0,19.683 13.84,43.653 30.885,53.494c17.046,9.842 30.886,1.852 30.886,-17.831c-0,-19.683 -13.84,-43.653 -30.886,-53.495Z" style="fill:#f2cf0d;"/><path d="M208.254,64.73c17.161,9.908 31.094,34.04 31.094,53.856c-0,10.027 -3.563,17.059 -9.259,20.348c-5.696,3.289 -13.567,2.858 -22.252,-2.156c-17.16,-9.908 -31.093,-34.039 -31.093,-53.855c0,-10.028 3.563,-17.06 9.259,-20.348c5.696,-3.289 13.567,-2.858 22.251,2.155Zm-0.208,0.361c-17.046,-9.841 -30.885,-1.851 -30.885,17.832c-0,19.683 13.839,43.653 30.885,53.494c17.046,9.842 30.885,1.852 30.885,-17.831c-0,-19.683 -13.839,-43.653 -30.885,-53.495Z"/></g><g id="Hide-Occluded:-OFF" serif:id="Hide Occluded: OFF"><path d="M520.819,54.772c17.821,10.289 32.268,35.312 32.268,55.89l-0,77.713l-99.57,-57.486l0,-77.714c0,-20.578 14.447,-28.919 32.268,-18.63c11.224,6.48 23.81,13.747 35.034,20.227Z" style="fill:#828891;stroke:#000;stroke-width:0.42px;"/><path d="M453.517,130.889l99.57,57.486l-99.57,57.487l-99.57,-57.487l99.57,-57.486Z" style="fill:#bea58e;stroke:#000;stroke-width:0.42px;"/><path d="M421.249,112.259c17.821,10.289 32.268,35.311 32.268,55.889l0,77.714l-99.57,-57.487l0,-77.713c0,-20.578 14.447,-28.919 32.268,-18.63c11.225,6.48 23.81,13.746 35.034,20.227Z" style="fill:#828891;"/><path d="M421.249,112.259c17.821,10.289 32.268,35.311 32.268,55.889l0,77.714l-99.57,-57.487l0,-77.713c0,-20.578 14.447,-28.919 32.268,-18.63l35.034,20.227Zm-0.208,0.36l-35.034,-20.226c-8.749,-5.052 -16.666,-5.571 -22.4,-2.26c-5.734,3.31 -9.243,10.426 -9.243,20.529l0,77.473l98.737,57.005l-0,-76.992c-0,-20.445 -14.354,-45.306 -32.06,-55.529Z"/><path d="M400.915,124.08c17.161,9.908 31.094,34.04 31.094,53.855c-0,10.028 -3.563,17.06 -9.259,20.349c-5.696,3.288 -13.567,2.858 -22.251,-2.156c-17.161,-9.908 -31.094,-34.04 -31.094,-53.856c0,-10.027 3.563,-17.059 9.259,-20.348c5.696,-3.289 13.567,-2.858 22.251,2.156Zm-0.208,0.361c-17.046,-9.842 -30.885,-1.852 -30.885,17.831c-0,19.683 13.839,43.653 30.885,53.495c17.046,9.841 30.885,1.851 30.885,-17.832c0,-19.683 -13.839,-43.653 -30.885,-53.494Z"/><path d="M364.29,145.466c17.046,9.842 30.885,33.812 30.885,53.495c0,19.683 -13.839,27.673 -30.885,17.831c-17.046,-9.841 -30.885,-33.811 -30.885,-53.494c0,-19.683 13.839,-27.673 30.885,-17.832Z" style="fill:#5b7eb2;fill-opacity:0.5;"/><path d="M364.707,144.744c17.276,9.975 31.302,34.268 31.302,54.217c-0,10.213 -3.665,17.359 -9.467,20.709c-5.802,3.349 -13.823,2.951 -22.668,-2.156c-17.276,-9.974 -31.302,-34.268 -31.302,-54.216c-0,-10.214 3.665,-17.36 9.467,-20.709c5.802,-3.35 13.823,-2.951 22.668,2.155Zm-0.417,0.722c-17.046,-9.841 -30.885,-1.851 -30.885,17.832c0,19.683 13.839,43.653 30.885,53.494c17.046,9.842 30.885,1.852 30.885,-17.831c0,-19.683 -13.839,-43.653 -30.885,-53.495Z" style="fill:#f2cf0d;"/></g></g></svg>