<?xml version="1.0" encoding="UTF-8" standalone="no"?><!DOCTYPE svg PUBLIC "-//W3C//DTD SVG 1.1//EN" "http://www.w3.org/Graphics/SVG/1.1/DTD/svg11.dtd"><svg width="100%" height="100%" viewBox="0 0 531 398" version="1.1" xmlns="http://www.w3.org/2000/svg" xmlns:xlink="http://www.w3.org/1999/xlink" xml:space="preserve" xmlns:serif="http://www.serif.com/" style="fill-rule:evenodd;clip-rule:evenodd;stroke-linecap:round;stroke-linejoin:round;stroke-miterlimit:1.5;"><g id="Project-Curve-Curve" serif:id="Project Curve Curve"><g><g><path d="M317.011,345.84l0,-241.639c0,-0 -16.715,-9.651 -68.286,-39.425c-51.572,-29.775 -90.423,-7.029 -119.346,9.67l-0,241.638c28.923,-16.699 67.774,-39.444 119.346,-9.67c51.571,29.775 68.286,39.426 68.286,39.426" style="fill:#91734d;fill-opacity:0.25;stroke:#9b702a;stroke-width:0.83px;"/><path d="M317.011,30.382c73.026,42.162 46.56,164.967 119.586,207.128l-225.483,130.182c-73.026,-42.161 -46.559,-164.966 -119.585,-207.127c-0,-0 225.482,-130.183 225.482,-130.183" style="fill:#638ee8;fill-opacity:0.25;stroke:#517fae;stroke-width:0.83px;"/><path d="M129.379,276.797c28.923,-16.699 67.774,-39.444 119.346,-9.67c51.571,29.775 68.286,39.426 68.286,39.426" style="fill:none;stroke:#ff0052;stroke-width:0.83px;"/><path d="M283.611,49.666c73.026,42.161 46.56,164.966 119.585,207.128" style="fill:none;stroke:#ff0052;stroke-width:0.83px;"/><path d="M200.138,100.568c0.237,0.147 0.472,0.295 0.707,0.444c0.193,0.122 0.25,0.378 0.127,0.571c-0.122,0.193 -0.378,0.25 -0.571,0.128c-0.232,-0.148 -0.466,-0.294 -0.7,-0.44c-0.234,-0.145 -0.469,-0.29 -0.705,-0.433c-0.195,-0.119 -0.257,-0.374 -0.138,-0.57c0.119,-0.195 0.374,-0.257 0.569,-0.138c0.238,0.145 0.475,0.291 0.711,0.438Zm2.8,1.815c0.231,0.156 0.461,0.313 0.689,0.471c0.188,0.13 0.236,0.388 0.106,0.576c-0.13,0.188 -0.388,0.236 -0.576,0.106c-0.226,-0.156 -0.454,-0.312 -0.683,-0.466c-0.228,-0.154 -0.457,-0.308 -0.687,-0.46c-0.19,-0.126 -0.243,-0.383 -0.116,-0.574c0.126,-0.19 0.383,-0.243 0.573,-0.116c0.233,0.153 0.464,0.308 0.694,0.463Zm2.729,1.922c0.225,0.165 0.449,0.33 0.671,0.496c0.183,0.137 0.221,0.397 0.084,0.58c-0.137,0.183 -0.397,0.22 -0.58,0.084c-0.22,-0.165 -0.442,-0.329 -0.664,-0.492c-0.222,-0.163 -0.445,-0.325 -0.669,-0.486c-0.186,-0.133 -0.228,-0.392 -0.095,-0.578c0.133,-0.185 0.392,-0.228 0.578,-0.094c0.226,0.162 0.451,0.326 0.675,0.49Zm2.654,2.024c0.218,0.173 0.436,0.347 0.652,0.522c0.177,0.143 0.205,0.404 0.061,0.582c-0.144,0.178 -0.405,0.205 -0.582,0.062c-0.214,-0.174 -0.429,-0.346 -0.645,-0.517c-0.216,-0.171 -0.433,-0.342 -0.651,-0.511c-0.18,-0.14 -0.212,-0.401 -0.072,-0.581c0.14,-0.181 0.401,-0.213 0.581,-0.073c0.22,0.171 0.439,0.343 0.656,0.516Zm2.575,2.123c0.211,0.182 0.422,0.364 0.631,0.546c0.172,0.151 0.19,0.412 0.039,0.585c-0.15,0.172 -0.412,0.189 -0.584,0.039c-0.207,-0.181 -0.416,-0.361 -0.625,-0.541c-0.209,-0.179 -0.419,-0.357 -0.63,-0.535c-0.175,-0.147 -0.198,-0.408 -0.051,-0.583c0.147,-0.175 0.409,-0.198 0.584,-0.051c0.213,0.179 0.425,0.36 0.636,0.54Zm2.493,2.22c0.204,0.188 0.407,0.378 0.609,0.569c0.167,0.156 0.175,0.419 0.018,0.585c-0.157,0.166 -0.419,0.174 -0.585,0.017c-0.201,-0.188 -0.402,-0.376 -0.605,-0.563c-0.202,-0.187 -0.405,-0.373 -0.609,-0.559c-0.169,-0.153 -0.182,-0.415 -0.029,-0.584c0.154,-0.17 0.416,-0.182 0.585,-0.029c0.206,0.187 0.411,0.375 0.616,0.564Zm2.407,2.31c0.198,0.196 0.394,0.393 0.589,0.591c0.16,0.163 0.159,0.425 -0.004,0.586c-0.163,0.16 -0.425,0.158 -0.586,-0.004c-0.193,-0.197 -0.387,-0.392 -0.583,-0.586c-0.195,-0.195 -0.391,-0.388 -0.588,-0.581c-0.164,-0.16 -0.167,-0.422 -0.007,-0.585c0.16,-0.164 0.422,-0.167 0.585,-0.007c0.199,0.194 0.397,0.39 0.594,0.586Zm2.322,2.396c0.19,0.204 0.379,0.408 0.567,0.612c0.155,0.169 0.144,0.431 -0.025,0.585c-0.168,0.155 -0.43,0.144 -0.585,-0.025c-0.186,-0.202 -0.373,-0.405 -0.562,-0.606c-0.188,-0.202 -0.377,-0.402 -0.567,-0.602c-0.158,-0.165 -0.151,-0.428 0.014,-0.585c0.166,-0.158 0.428,-0.151 0.586,0.014c0.192,0.202 0.382,0.404 0.572,0.607Zm2.235,2.478c0.183,0.209 0.364,0.42 0.545,0.631c0.148,0.173 0.128,0.435 -0.046,0.583c-0.173,0.149 -0.435,0.129 -0.583,-0.045c-0.18,-0.209 -0.36,-0.418 -0.541,-0.626c-0.181,-0.207 -0.362,-0.414 -0.545,-0.621c-0.152,-0.171 -0.136,-0.432 0.035,-0.584c0.171,-0.152 0.433,-0.136 0.585,0.035c0.184,0.208 0.367,0.417 0.55,0.627Zm2.148,2.552c0.175,0.216 0.349,0.432 0.523,0.65c0.143,0.178 0.113,0.439 -0.065,0.582c-0.179,0.142 -0.439,0.113 -0.582,-0.065c-0.172,-0.216 -0.345,-0.43 -0.519,-0.644c-0.174,-0.214 -0.349,-0.427 -0.524,-0.64c-0.146,-0.176 -0.121,-0.437 0.055,-0.583c0.176,-0.145 0.437,-0.121 0.583,0.055c0.177,0.215 0.353,0.43 0.529,0.645Zm2.061,2.623c0.168,0.221 0.335,0.443 0.502,0.666c0.137,0.183 0.099,0.442 -0.084,0.579c-0.183,0.137 -0.443,0.1 -0.58,-0.083c-0.165,-0.221 -0.331,-0.442 -0.498,-0.661c-0.167,-0.22 -0.334,-0.439 -0.503,-0.657c-0.14,-0.181 -0.106,-0.441 0.075,-0.581c0.18,-0.139 0.441,-0.106 0.58,0.075c0.17,0.22 0.339,0.44 0.508,0.662Zm1.975,2.686c0.161,0.226 0.322,0.454 0.481,0.681c0.132,0.188 0.086,0.446 -0.101,0.577c-0.187,0.131 -0.446,0.086 -0.577,-0.102c-0.158,-0.226 -0.317,-0.451 -0.477,-0.676c-0.16,-0.224 -0.321,-0.449 -0.483,-0.672c-0.134,-0.185 -0.092,-0.444 0.093,-0.578c0.185,-0.134 0.444,-0.093 0.578,0.093c0.163,0.225 0.325,0.451 0.486,0.677Zm1.893,2.745c0.154,0.231 0.308,0.463 0.46,0.695c0.126,0.191 0.073,0.448 -0.118,0.574c-0.191,0.125 -0.448,0.072 -0.574,-0.119l-0.457,-0.69c-0.153,-0.229 -0.307,-0.458 -0.462,-0.687c-0.128,-0.189 -0.079,-0.446 0.11,-0.575c0.189,-0.128 0.447,-0.079 0.575,0.111c0.156,0.229 0.311,0.46 0.466,0.691Zm1.81,2.796c0,0.001 0.002,0.004 0.003,0.005l0.439,0.705c0.12,0.194 0.06,0.45 -0.135,0.57c-0.194,0.12 -0.449,0.06 -0.57,-0.135l-0.437,-0.702l-0.443,-0.7c-0.122,-0.192 -0.066,-0.449 0.127,-0.571c0.193,-0.123 0.449,-0.066 0.572,0.126l0.444,0.702Zm1.733,2.847c0.001,0.001 0.003,0.004 0.003,0.005l0.42,0.716c0.115,0.198 0.048,0.452 -0.149,0.567c-0.198,0.115 -0.451,0.048 -0.566,-0.15l-0.419,-0.714l-0.424,-0.711c-0.117,-0.196 -0.053,-0.451 0.143,-0.568c0.196,-0.118 0.45,-0.054 0.568,0.142l0.424,0.713Zm1.659,2.891c0,0.001 0.002,0.004 0.002,0.004l0.402,0.727c0.11,0.2 0.037,0.452 -0.163,0.562c-0.201,0.11 -0.452,0.037 -0.563,-0.163l-0.4,-0.725l-0.406,-0.722c-0.112,-0.199 -0.042,-0.452 0.157,-0.564c0.199,-0.113 0.452,-0.042 0.564,0.157l0.407,0.724Zm1.586,2.929c0.001,0.001 0.002,0.004 0.003,0.005l0.384,0.735c0.106,0.203 0.027,0.453 -0.176,0.559c-0.203,0.105 -0.453,0.026 -0.559,-0.177l-0.383,-0.734l-0.388,-0.731c-0.108,-0.202 -0.032,-0.453 0.17,-0.561c0.202,-0.107 0.453,-0.031 0.56,0.171l0.389,0.733Zm1.519,2.965c0,0.001 0.002,0.004 0.002,0.004l0.369,0.745c0.1,0.205 0.016,0.453 -0.189,0.554c-0.205,0.101 -0.454,0.016 -0.555,-0.189l-0.367,-0.742l-0.372,-0.741c-0.103,-0.204 -0.021,-0.453 0.183,-0.556c0.204,-0.103 0.454,-0.021 0.557,0.183l0.372,0.742Zm1.454,2.997c0.001,0 0.002,0.003 0.002,0.004l0.353,0.751c0.097,0.207 0.007,0.454 -0.2,0.55c-0.207,0.097 -0.454,0.007 -0.55,-0.2l-0.352,-0.749l-0.356,-0.748c-0.099,-0.206 -0.012,-0.454 0.194,-0.553c0.207,-0.098 0.454,-0.011 0.553,0.195l0.356,0.75Zm1.394,3.024c0.001,0.001 0.002,0.003 0.002,0.004l0.338,0.758c0.093,0.209 -0.001,0.454 -0.21,0.547c-0.209,0.092 -0.454,-0.002 -0.546,-0.211l-0.338,-0.757l-0.342,-0.754c-0.094,-0.209 -0.002,-0.454 0.206,-0.549c0.208,-0.094 0.454,-0.002 0.548,0.206l0.342,0.756Zm1.337,3.05c0,0 0.001,0.002 0.002,0.003l0.325,0.764c0.089,0.21 -0.01,0.454 -0.221,0.543c-0.21,0.089 -0.453,-0.01 -0.542,-0.221l-0.324,-0.762l-0.328,-0.761c-0.091,-0.21 0.006,-0.454 0.215,-0.545c0.21,-0.09 0.454,0.006 0.545,0.216l0.328,0.763Zm1.284,3.071c0,0 0.001,0.002 0.001,0.003l0.313,0.769c0.085,0.212 -0.017,0.454 -0.229,0.539c-0.212,0.086 -0.454,-0.017 -0.539,-0.229l-0.312,-0.768l-0.315,-0.766c-0.087,-0.211 0.013,-0.454 0.225,-0.541c0.211,-0.087 0.453,0.014 0.54,0.225l0.316,0.768Zm1.235,3.091c-0,0 0.001,0.002 0.001,0.003l0.301,0.774c0.082,0.213 -0.024,0.453 -0.237,0.535c-0.213,0.083 -0.453,-0.023 -0.536,-0.237l-0.3,-0.772l-0.303,-0.772c-0.084,-0.212 0.02,-0.453 0.233,-0.537c0.212,-0.084 0.453,0.02 0.537,0.233l0.304,0.773Zm1.189,3.108c-0,0.001 0.001,0.002 0.001,0.003l0.29,0.778c0.079,0.214 -0.03,0.453 -0.244,0.532c-0.215,0.08 -0.453,-0.03 -0.533,-0.244l-0.289,-0.777l-0.292,-0.776c-0.081,-0.214 0.027,-0.453 0.24,-0.534c0.214,-0.081 0.453,0.027 0.534,0.241l0.293,0.777Zm1.147,3.123c0,0.001 0.001,0.002 0.001,0.003l0.28,0.781c0.077,0.216 -0.036,0.453 -0.251,0.529c-0.215,0.077 -0.452,-0.035 -0.529,-0.25l-0.28,-0.781l-0.282,-0.78c-0.078,-0.214 0.033,-0.452 0.248,-0.53c0.214,-0.078 0.452,0.033 0.53,0.247l0.283,0.781Zm1.109,3.137c-0,0 0,0.002 0.001,0.002l0.271,0.785c0.074,0.216 -0.041,0.452 -0.257,0.526c-0.216,0.074 -0.452,-0.041 -0.526,-0.257l-0.271,-0.784l-0.273,-0.783c-0.076,-0.215 0.038,-0.452 0.254,-0.527c0.215,-0.076 0.452,0.038 0.527,0.254l0.274,0.784Zm1.074,3.148c0,0 0,0.002 0.001,0.002l0.263,0.788c0.072,0.217 -0.046,0.451 -0.262,0.523c-0.217,0.073 -0.452,-0.045 -0.524,-0.262l-0.263,-0.787l-0.265,-0.786c-0.073,-0.216 0.043,-0.451 0.26,-0.525c0.216,-0.073 0.452,0.044 0.525,0.26l0.265,0.787Zm1.043,3.159l0.256,0.791c0.07,0.218 -0.049,0.451 -0.267,0.522c-0.217,0.07 -0.451,-0.05 -0.521,-0.267l-0.256,-0.79l-0.257,-0.788c-0.071,-0.218 0.047,-0.452 0.265,-0.523c0.217,-0.071 0.451,0.048 0.522,0.265l0.258,0.79Zm1.014,3.167l0.25,0.793c0.069,0.218 -0.053,0.45 -0.271,0.519c-0.218,0.068 -0.451,-0.053 -0.519,-0.271l-0.249,-0.792l-0.251,-0.79c-0.069,-0.218 0.051,-0.451 0.269,-0.521c0.218,-0.069 0.451,0.052 0.52,0.269l0.251,0.793Zm0.99,3.174l0.244,0.795c0.067,0.219 -0.056,0.45 -0.274,0.517c-0.219,0.067 -0.451,-0.056 -0.517,-0.274l-0.244,-0.794l-0.245,-0.793c-0.068,-0.218 0.055,-0.45 0.273,-0.518c0.218,-0.067 0.45,0.055 0.518,0.273l0.245,0.794Zm0.969,3.181l0.239,0.796c0.065,0.219 -0.059,0.45 -0.278,0.515c-0.219,0.066 -0.45,-0.059 -0.516,-0.278l-0.238,-0.795l-0.24,-0.794c-0.066,-0.219 0.057,-0.45 0.276,-0.516c0.219,-0.067 0.45,0.057 0.516,0.276l0.241,0.796Zm0.949,3.185l0.235,0.797c0.065,0.22 -0.061,0.45 -0.28,0.515c-0.219,0.064 -0.45,-0.062 -0.514,-0.281l-0.235,-0.796l-0.235,-0.796c-0.065,-0.219 0.06,-0.45 0.279,-0.515c0.219,-0.065 0.45,0.06 0.515,0.279l0.235,0.797Zm0.935,3.19l0.231,0.798c0.064,0.219 -0.063,0.449 -0.282,0.513c-0.22,0.063 -0.449,-0.063 -0.513,-0.283l-0.231,-0.797l-0.232,-0.797c-0.064,-0.219 0.062,-0.449 0.281,-0.513c0.22,-0.064 0.45,0.062 0.514,0.281l0.232,0.798Zm0.922,3.193l0.229,0.799c0.063,0.219 -0.064,0.449 -0.284,0.512c-0.22,0.063 -0.449,-0.065 -0.512,-0.284l-0.229,-0.798l-0.229,-0.798c-0.063,-0.22 0.064,-0.45 0.283,-0.513c0.22,-0.063 0.449,0.064 0.513,0.284l0.229,0.798Zm0.913,3.195l0.227,0.799c0.063,0.22 -0.065,0.449 -0.285,0.512c-0.22,0.062 -0.449,-0.066 -0.512,-0.286l-0.227,-0.798l-0.227,-0.799c-0.063,-0.22 0.065,-0.449 0.285,-0.511c0.22,-0.063 0.449,0.064 0.512,0.284l0.227,0.799Zm0.906,3.196l0.226,0.8c0.063,0.219 -0.066,0.448 -0.285,0.511c-0.22,0.062 -0.449,-0.066 -0.512,-0.286l-0.225,-0.799l-0.227,-0.799c-0.062,-0.22 0.066,-0.449 0.286,-0.511c0.22,-0.063 0.449,0.065 0.511,0.285l0.226,0.799Zm0.904,3.198l0.225,0.799c0.062,0.22 -0.066,0.449 -0.286,0.511c-0.22,0.062 -0.449,-0.066 -0.511,-0.286l-0.225,-0.799l-0.226,-0.8c-0.062,-0.22 0.066,-0.449 0.286,-0.511c0.22,-0.062 0.449,0.066 0.511,0.286l0.226,0.8Zm0.902,3.196l0.226,0.799c0.062,0.22 -0.066,0.449 -0.286,0.512c-0.22,0.062 -0.449,-0.066 -0.511,-0.286l-0.226,-0.799l-0.226,-0.8c-0.062,-0.22 0.066,-0.449 0.286,-0.511c0.22,-0.062 0.449,0.066 0.511,0.286l0.226,0.799Zm0.905,3.196l0.227,0.799c0.063,0.22 -0.065,0.449 -0.285,0.511c-0.22,0.063 -0.449,-0.065 -0.511,-0.285l-0.227,-0.799l-0.227,-0.799c-0.062,-0.219 0.065,-0.449 0.285,-0.511c0.22,-0.062 0.449,0.066 0.512,0.285l0.226,0.799Zm0.911,3.194l0.229,0.798c0.063,0.22 -0.065,0.449 -0.284,0.512c-0.22,0.063 -0.449,-0.064 -0.512,-0.283l-0.229,-0.799l-0.229,-0.799c-0.063,-0.219 0.065,-0.449 0.285,-0.512c0.219,-0.062 0.449,0.065 0.511,0.285l0.229,0.798Zm0.919,3.191l0.231,0.797c0.064,0.22 -0.063,0.45 -0.282,0.514c-0.22,0.063 -0.449,-0.063 -0.513,-0.282l-0.232,-0.798l-0.231,-0.799c-0.063,-0.219 0.064,-0.449 0.283,-0.512c0.22,-0.064 0.45,0.063 0.513,0.283l0.231,0.797Zm0.93,3.187l0.234,0.796c0.065,0.219 -0.06,0.45 -0.279,0.515c-0.22,0.064 -0.45,-0.061 -0.515,-0.28l-0.235,-0.797l-0.234,-0.797c-0.064,-0.219 0.062,-0.45 0.281,-0.514c0.22,-0.064 0.45,0.062 0.514,0.281l0.234,0.796Zm0.944,3.183l0.239,0.795c0.066,0.219 -0.058,0.45 -0.277,0.516c-0.219,0.066 -0.45,-0.058 -0.516,-0.277l-0.239,-0.796l-0.238,-0.797c-0.065,-0.219 0.059,-0.449 0.278,-0.515c0.219,-0.065 0.45,0.06 0.516,0.279l0.237,0.795Zm0.962,3.177l0.244,0.794c0.067,0.218 -0.056,0.45 -0.274,0.517c-0.218,0.067 -0.45,-0.055 -0.518,-0.274l-0.244,-0.794l-0.242,-0.795c-0.067,-0.219 0.057,-0.45 0.275,-0.517c0.219,-0.067 0.45,0.057 0.517,0.276l0.242,0.793Zm0.983,3.171l0.249,0.791c0.069,0.218 -0.052,0.451 -0.27,0.519c-0.218,0.069 -0.451,-0.052 -0.52,-0.27l-0.25,-0.793l-0.248,-0.793c-0.068,-0.218 0.054,-0.45 0.272,-0.518c0.219,-0.068 0.451,0.053 0.519,0.272l0.248,0.792Zm1.006,3.162l0.255,0.789c0.071,0.217 -0.048,0.451 -0.266,0.522c-0.217,0.071 -0.451,-0.049 -0.521,-0.266l-0.256,-0.791l-0.255,-0.791c-0.07,-0.218 0.051,-0.451 0.268,-0.521c0.218,-0.069 0.451,0.051 0.521,0.268l0.254,0.79Zm1.033,3.153l0.262,0.787c0.073,0.217 -0.044,0.452 -0.26,0.524c-0.217,0.073 -0.452,-0.044 -0.525,-0.261c0,0 -0.263,-0.788 -0.263,-0.788c-0,-0.001 -0.262,-0.789 -0.262,-0.789c-0.071,-0.217 0.047,-0.452 0.264,-0.523c0.217,-0.072 0.451,0.046 0.523,0.263l0.261,0.787Zm1.063,3.143l0.271,0.784c0.075,0.216 -0.04,0.452 -0.256,0.527c-0.215,0.075 -0.452,-0.039 -0.527,-0.255c0,-0 -0.271,-0.786 -0.271,-0.786c-0,-0.001 -0.27,-0.787 -0.27,-0.787c-0.074,-0.216 0.042,-0.452 0.258,-0.526c0.217,-0.074 0.452,0.042 0.526,0.258l0.269,0.785Zm1.097,3.131l0.279,0.78c0.078,0.215 -0.034,0.453 -0.249,0.53c-0.215,0.078 -0.452,-0.034 -0.53,-0.249c0,0 -0.28,-0.783 -0.28,-0.783c-0.001,-0 -0.279,-0.784 -0.279,-0.784c-0.076,-0.215 0.037,-0.452 0.253,-0.528c0.215,-0.076 0.452,0.037 0.528,0.252l0.278,0.782Zm1.133,3.117l0.29,0.777c0.08,0.214 -0.029,0.453 -0.243,0.533c-0.214,0.08 -0.452,-0.029 -0.533,-0.243c0,0 -0.29,-0.779 -0.29,-0.779c-0,-0.001 -0.288,-0.78 -0.288,-0.78c-0.079,-0.215 0.031,-0.453 0.246,-0.532c0.214,-0.079 0.453,0.032 0.531,0.246l0.287,0.778Zm1.175,3.101l0.3,0.773c0.083,0.213 -0.022,0.453 -0.235,0.536c-0.213,0.084 -0.453,-0.022 -0.536,-0.235c-0,0 -0.302,-0.775 -0.302,-0.775c-0,-0.001 -0.298,-0.777 -0.298,-0.777c-0.082,-0.213 0.025,-0.453 0.238,-0.534c0.214,-0.082 0.453,0.025 0.535,0.239l0.298,0.773Zm1.218,3.084l0.312,0.768c0.086,0.211 -0.016,0.453 -0.227,0.54c-0.212,0.086 -0.454,-0.015 -0.54,-0.227c0,0 -0.313,-0.77 -0.313,-0.771c-0,-0 -0.31,-0.772 -0.31,-0.772c-0.085,-0.212 0.019,-0.453 0.231,-0.538c0.212,-0.085 0.453,0.019 0.538,0.231l0.309,0.769Zm1.266,3.064l0.324,0.763c0.09,0.21 -0.007,0.453 -0.218,0.543c-0.21,0.09 -0.453,-0.007 -0.543,-0.218c-0,0 -0.326,-0.765 -0.326,-0.765c-0,-0.001 -0.322,-0.768 -0.322,-0.768c-0.089,-0.211 0.011,-0.453 0.222,-0.541c0.211,-0.088 0.454,0.011 0.542,0.222l0.321,0.764Zm1.317,3.042l0.338,0.756c0.094,0.209 0.001,0.454 -0.208,0.548c-0.208,0.093 -0.454,0 -0.547,-0.208c-0,-0 -0.339,-0.76 -0.34,-0.76c0,-0.001 -0.336,-0.762 -0.336,-0.762c-0.091,-0.209 0.004,-0.454 0.213,-0.545c0.21,-0.092 0.454,0.003 0.546,0.213l0.334,0.758Zm1.373,3.016l0.352,0.75c0.098,0.207 0.009,0.454 -0.197,0.551c-0.207,0.098 -0.454,0.009 -0.552,-0.197c0,-0 -0.353,-0.753 -0.354,-0.754c0,-0 -0.35,-0.755 -0.35,-0.755c-0.095,-0.207 -0.005,-0.454 0.203,-0.549c0.208,-0.096 0.454,-0.005 0.549,0.203l0.349,0.751Zm1.431,2.988l0.368,0.743c0.102,0.204 0.018,0.453 -0.186,0.555c-0.205,0.102 -0.453,0.019 -0.555,-0.186c-0,0 -0.37,-0.745 -0.37,-0.746c-0,-0.001 -0.366,-0.749 -0.366,-0.749c-0.099,-0.205 -0.013,-0.453 0.192,-0.553c0.206,-0.1 0.454,-0.014 0.554,0.192l0.363,0.744Zm1.494,2.957l0.384,0.734c0.106,0.202 0.029,0.453 -0.174,0.559c-0.202,0.107 -0.452,0.029 -0.559,-0.173c0,-0 -0.385,-0.737 -0.386,-0.738c-0,-0.001 -0.382,-0.74 -0.382,-0.74c-0.104,-0.204 -0.023,-0.453 0.18,-0.558c0.204,-0.104 0.453,-0.023 0.558,0.18l0.379,0.736Zm1.56,2.922l0.401,0.725c0.111,0.199 0.04,0.452 -0.16,0.563c-0.2,0.111 -0.452,0.039 -0.563,-0.16c-0,-0 -0.403,-0.728 -0.403,-0.729c-0.001,-0.001 -0.399,-0.731 -0.399,-0.731c-0.109,-0.201 -0.034,-0.453 0.167,-0.562c0.201,-0.108 0.452,-0.034 0.561,0.167l0.396,0.727Zm1.63,2.883l0.419,0.714c0.116,0.197 0.051,0.451 -0.146,0.567c-0.197,0.116 -0.451,0.051 -0.567,-0.146c0,0 -0.421,-0.718 -0.421,-0.719c-0.001,-0 -0.417,-0.721 -0.417,-0.721c-0.114,-0.198 -0.045,-0.452 0.153,-0.565c0.198,-0.114 0.451,-0.045 0.565,0.153l0.414,0.717Zm1.703,2.839l0.438,0.703c0.121,0.193 0.063,0.449 -0.131,0.571c-0.193,0.121 -0.449,0.062 -0.571,-0.131c0,-0 -0.44,-0.707 -0.44,-0.708c-0.001,-0 -0.436,-0.71 -0.436,-0.71c-0.119,-0.195 -0.057,-0.45 0.138,-0.569c0.196,-0.119 0.451,-0.057 0.569,0.138l0.433,0.706Zm1.78,2.792l0.457,0.69c0.127,0.19 0.075,0.447 -0.115,0.574c-0.19,0.127 -0.447,0.076 -0.574,-0.114c-0.154,-0.231 -0.308,-0.463 -0.46,-0.695c-0.001,-0.001 -0.456,-0.699 -0.456,-0.699c-0.124,-0.191 -0.069,-0.448 0.123,-0.572c0.192,-0.124 0.448,-0.069 0.572,0.122l0.453,0.694Zm1.858,2.738c0.158,0.226 0.317,0.452 0.477,0.676c0.132,0.186 0.089,0.445 -0.097,0.578c-0.186,0.132 -0.445,0.089 -0.578,-0.098c-0.161,-0.226 -0.321,-0.453 -0.481,-0.681c-0.159,-0.227 -0.317,-0.455 -0.475,-0.684c-0.13,-0.188 -0.082,-0.446 0.106,-0.576c0.188,-0.13 0.446,-0.082 0.576,0.106c0.156,0.227 0.314,0.454 0.472,0.679Zm1.94,2.681c0.165,0.221 0.331,0.441 0.497,0.661c0.139,0.182 0.103,0.442 -0.079,0.58c-0.182,0.138 -0.442,0.103 -0.58,-0.079c-0.168,-0.221 -0.335,-0.443 -0.502,-0.666c-0.166,-0.222 -0.332,-0.446 -0.496,-0.67c-0.136,-0.184 -0.096,-0.443 0.088,-0.578c0.184,-0.136 0.444,-0.096 0.579,0.088c0.163,0.222 0.327,0.443 0.493,0.664Zm2.023,2.618c0.172,0.215 0.345,0.43 0.519,0.644c0.144,0.177 0.117,0.438 -0.061,0.582c-0.177,0.144 -0.438,0.117 -0.582,-0.06c-0.175,-0.216 -0.35,-0.432 -0.523,-0.649c-0.174,-0.217 -0.346,-0.435 -0.518,-0.654c-0.141,-0.179 -0.11,-0.44 0.07,-0.581c0.179,-0.141 0.44,-0.11 0.581,0.07c0.17,0.216 0.342,0.432 0.514,0.648Zm2.108,2.549c0.179,0.209 0.359,0.418 0.54,0.626c0.15,0.172 0.132,0.434 -0.04,0.584c-0.172,0.15 -0.434,0.132 -0.584,-0.04c-0.183,-0.21 -0.365,-0.42 -0.545,-0.632c-0.181,-0.211 -0.361,-0.423 -0.54,-0.635c-0.147,-0.175 -0.125,-0.437 0.05,-0.584c0.175,-0.147 0.437,-0.124 0.584,0.05c0.177,0.211 0.355,0.422 0.535,0.631Zm2.194,2.475c0.186,0.203 0.373,0.405 0.561,0.607c0.156,0.167 0.148,0.429 -0.019,0.585c-0.167,0.156 -0.43,0.147 -0.586,-0.02c-0.19,-0.203 -0.378,-0.407 -0.566,-0.612c-0.189,-0.205 -0.376,-0.41 -0.562,-0.617c-0.153,-0.169 -0.139,-0.431 0.03,-0.584c0.17,-0.153 0.432,-0.14 0.585,0.03c0.185,0.204 0.37,0.408 0.557,0.611Zm2.279,2.396c0.194,0.196 0.388,0.391 0.583,0.586c0.162,0.161 0.163,0.423 0.002,0.585c-0.161,0.162 -0.424,0.163 -0.586,0.002c-0.197,-0.197 -0.393,-0.394 -0.588,-0.592c-0.196,-0.198 -0.39,-0.397 -0.584,-0.596c-0.159,-0.164 -0.155,-0.427 0.01,-0.586c0.164,-0.159 0.426,-0.155 0.585,0.01c0.192,0.197 0.385,0.395 0.578,0.591Zm2.365,2.311c0.2,0.189 0.402,0.377 0.604,0.564c0.168,0.155 0.178,0.417 0.023,0.585c-0.155,0.168 -0.417,0.178 -0.585,0.023c-0.204,-0.189 -0.408,-0.379 -0.61,-0.569c-0.202,-0.191 -0.404,-0.383 -0.604,-0.575c-0.165,-0.158 -0.171,-0.42 -0.012,-0.585c0.158,-0.165 0.42,-0.171 0.585,-0.012c0.199,0.19 0.398,0.38 0.599,0.569Zm2.449,2.222c0.207,0.181 0.415,0.361 0.625,0.541c0.173,0.148 0.193,0.41 0.045,0.583c-0.149,0.174 -0.411,0.194 -0.584,0.045c-0.211,-0.181 -0.422,-0.363 -0.631,-0.546c-0.21,-0.183 -0.418,-0.367 -0.626,-0.552c-0.171,-0.152 -0.186,-0.414 -0.034,-0.584c0.152,-0.171 0.414,-0.186 0.585,-0.034c0.205,0.183 0.412,0.365 0.62,0.547Zm2.53,2.127c0.214,0.173 0.429,0.346 0.645,0.517c0.179,0.142 0.209,0.403 0.067,0.582c-0.142,0.179 -0.403,0.209 -0.582,0.067c-0.218,-0.173 -0.435,-0.347 -0.651,-0.522c-0.216,-0.175 -0.432,-0.351 -0.646,-0.528c-0.176,-0.145 -0.201,-0.407 -0.056,-0.583c0.145,-0.176 0.407,-0.201 0.583,-0.056c0.212,0.175 0.426,0.35 0.64,0.523Zm2.609,2.03c0.221,0.165 0.442,0.329 0.665,0.492c0.184,0.135 0.224,0.394 0.089,0.578c-0.135,0.185 -0.394,0.225 -0.579,0.09c-0.224,-0.165 -0.448,-0.33 -0.67,-0.497c-0.223,-0.167 -0.445,-0.334 -0.666,-0.503c-0.182,-0.138 -0.217,-0.398 -0.078,-0.58c0.138,-0.182 0.398,-0.217 0.58,-0.078c0.219,0.167 0.439,0.333 0.659,0.498Zm2.686,1.929c0.226,0.156 0.454,0.311 0.682,0.466c0.19,0.128 0.24,0.385 0.112,0.575c-0.128,0.189 -0.386,0.239 -0.575,0.111c-0.231,-0.156 -0.461,-0.313 -0.689,-0.47c-0.23,-0.159 -0.458,-0.318 -0.685,-0.478c-0.187,-0.131 -0.232,-0.39 -0.1,-0.576c0.131,-0.187 0.39,-0.232 0.577,-0.101c0.225,0.159 0.451,0.316 0.678,0.473Zm2.756,1.825c0.232,0.147 0.466,0.294 0.7,0.44c0.194,0.12 0.254,0.376 0.133,0.57c-0.121,0.194 -0.376,0.254 -0.57,0.133c-0.237,-0.147 -0.472,-0.295 -0.707,-0.444c-0.235,-0.15 -0.469,-0.3 -0.702,-0.451c-0.192,-0.124 -0.247,-0.381 -0.122,-0.573c0.124,-0.191 0.381,-0.246 0.572,-0.122c0.231,0.15 0.463,0.299 0.696,0.447Zm2.824,1.72l0.357,0.207c0.198,0.114 0.266,0.368 0.152,0.566c-0.114,0.198 -0.368,0.265 -0.566,0.151c0,0 -0.36,-0.209 -0.36,-0.209c-0.241,-0.141 -0.481,-0.282 -0.719,-0.424c-0.196,-0.117 -0.261,-0.372 -0.144,-0.568c0.117,-0.196 0.372,-0.26 0.568,-0.143c0.236,0.14 0.474,0.28 0.712,0.42Zm-119.642,-206.203c-0.198,-0.115 -0.266,-0.368 -0.151,-0.566c0.114,-0.198 0.367,-0.266 0.565,-0.152l0.361,0.21c0.198,0.115 0.264,0.369 0.149,0.566c-0.115,0.198 -0.369,0.264 -0.566,0.149l-0.358,-0.207Z" style="fill:#7093b7;fill-opacity:0.5;"/><path d="M131.689,136.901l0.719,-0.414c0.199,-0.114 0.452,-0.046 0.566,0.152c0.114,0.198 0.046,0.451 -0.153,0.565l-0.719,0.415l-0.719,0.414c-0.198,0.114 -0.451,0.046 -0.565,-0.152c-0.114,-0.198 -0.046,-0.451 0.151,-0.565l0.72,-0.415Zm2.881,-1.654l0.722,-0.412c0.198,-0.113 0.452,-0.043 0.565,0.155c0.113,0.199 0.043,0.452 -0.155,0.565l-0.721,0.411l-0.72,0.412c-0.199,0.114 -0.452,0.045 -0.565,-0.154c-0.114,-0.198 -0.045,-0.451 0.153,-0.565l0.721,-0.412Zm2.891,-1.64l0.725,-0.406c0.199,-0.112 0.452,-0.041 0.563,0.159c0.112,0.199 0.041,0.452 -0.159,0.563l-0.723,0.406l-0.722,0.407c-0.199,0.113 -0.452,0.043 -0.565,-0.156c-0.112,-0.199 -0.042,-0.452 0.157,-0.565l0.724,-0.408Zm2.904,-1.616c0,-0.001 0.001,-0.001 0.002,-0.001l0.728,-0.4c0.2,-0.11 0.452,-0.036 0.562,0.165c0.109,0.2 0.036,0.452 -0.165,0.562l-0.727,0.398l-0.726,0.401c-0.2,0.111 -0.452,0.039 -0.563,-0.161c-0.11,-0.2 -0.038,-0.452 0.162,-0.563l0.727,-0.401Zm2.922,-1.588c0,-0 0.002,-0.001 0.002,-0.001l0.732,-0.391c0.202,-0.107 0.453,-0.031 0.56,0.171c0.108,0.202 0.031,0.453 -0.171,0.56l-0.731,0.39l-0.73,0.393c-0.201,0.108 -0.453,0.033 -0.561,-0.168c-0.109,-0.201 -0.034,-0.452 0.168,-0.561l0.731,-0.393Zm2.942,-1.551c0,-0 0.002,-0.001 0.003,-0.002l0.737,-0.38c0.204,-0.105 0.454,-0.024 0.558,0.179c0.104,0.203 0.024,0.453 -0.179,0.558l-0.737,0.379l-0.735,0.383c-0.202,0.106 -0.453,0.027 -0.558,-0.175c-0.106,-0.203 -0.028,-0.453 0.175,-0.559l0.736,-0.383Zm2.966,-1.508c0,-0 0.002,-0.001 0.003,-0.002l0.744,-0.368c0.205,-0.101 0.453,-0.017 0.554,0.188c0.101,0.205 0.017,0.453 -0.188,0.554l-0.742,0.368l-0.741,0.371c-0.204,0.103 -0.453,0.021 -0.556,-0.183c-0.103,-0.204 -0.021,-0.453 0.183,-0.556l0.743,-0.372Zm6.01,-2.86c0.001,-0.001 0.003,-0.002 0.004,-0.002l0.757,-0.34c0.209,-0.093 0.454,0 0.547,0.209c0.093,0.209 -0.001,0.454 -0.209,0.547l-0.756,0.339l-0.753,0.343c-0.208,0.096 -0.454,0.004 -0.549,-0.203c-0.096,-0.208 -0.004,-0.454 0.204,-0.549l0.755,-0.344Zm3.048,-1.34c0.001,-0 0.004,-0.002 0.005,-0.002l0.764,-0.323c0.211,-0.089 0.454,0.011 0.542,0.221c0.089,0.211 -0.011,0.454 -0.221,0.542l-0.763,0.323l-0.76,0.327c-0.21,0.091 -0.454,-0.006 -0.545,-0.216c-0.091,-0.209 0.006,-0.453 0.216,-0.544l0.762,-0.328Zm3.079,-1.27c0.001,-0.001 0.004,-0.002 0.005,-0.002l0.772,-0.306c0.212,-0.083 0.453,0.022 0.536,0.235c0.083,0.213 -0.022,0.453 -0.234,0.537l-0.77,0.304l-0.768,0.309c-0.212,0.086 -0.453,-0.016 -0.539,-0.228c-0.086,-0.212 0.016,-0.454 0.228,-0.54l0.77,-0.309Zm3.109,-1.196c0.001,0 0.004,-0.001 0.005,-0.001l0.78,-0.286c0.214,-0.078 0.452,0.034 0.53,0.249c0.078,0.214 -0.034,0.452 -0.248,0.53l-0.777,0.284l-0.776,0.29c-0.213,0.08 -0.453,-0.028 -0.533,-0.242c-0.081,-0.213 0.027,-0.452 0.241,-0.533l0.778,-0.291Zm3.14,-1.113c0.001,-0 0.005,-0.001 0.006,-0.002l0.787,-0.264c0.217,-0.072 0.451,0.046 0.523,0.263c0.072,0.217 -0.046,0.452 -0.263,0.523l-0.784,0.263l-0.783,0.269c-0.216,0.075 -0.452,-0.04 -0.527,-0.256c-0.075,-0.215 0.04,-0.452 0.256,-0.526l0.785,-0.27Zm3.174,-1.026c0.265,-0.082 0.531,-0.162 0.797,-0.242c0.219,-0.065 0.45,0.059 0.516,0.278c0.065,0.219 -0.059,0.45 -0.278,0.515c-0.265,0.079 -0.529,0.16 -0.792,0.24c-0.264,0.082 -0.527,0.164 -0.79,0.246c-0.218,0.069 -0.45,-0.052 -0.519,-0.27c-0.069,-0.218 0.052,-0.451 0.27,-0.519c0.265,-0.084 0.53,-0.166 0.796,-0.248Zm3.201,-0.931c0.267,-0.074 0.535,-0.146 0.804,-0.218c0.221,-0.058 0.448,0.073 0.507,0.294c0.058,0.221 -0.073,0.448 -0.294,0.507c-0.267,0.071 -0.533,0.142 -0.798,0.215c-0.266,0.073 -0.532,0.147 -0.797,0.222c-0.22,0.062 -0.449,-0.066 -0.511,-0.286c-0.062,-0.219 0.066,-0.448 0.286,-0.511c0.267,-0.075 0.534,-0.15 0.803,-0.223Zm3.228,-0.831c0.27,-0.065 0.54,-0.129 0.811,-0.192c0.223,-0.051 0.446,0.088 0.497,0.31c0.052,0.223 -0.087,0.445 -0.31,0.497c-0.269,0.062 -0.537,0.126 -0.804,0.19c-0.269,0.064 -0.536,0.13 -0.804,0.196c-0.221,0.056 -0.446,-0.08 -0.501,-0.301c-0.056,-0.222 0.08,-0.447 0.301,-0.502c0.27,-0.067 0.54,-0.133 0.81,-0.198Zm3.255,-0.726c0.272,-0.055 0.544,-0.11 0.817,-0.164c0.224,-0.044 0.442,0.102 0.486,0.327c0.044,0.224 -0.102,0.442 -0.326,0.486c-0.271,0.053 -0.541,0.107 -0.811,0.163c-0.27,0.055 -0.54,0.112 -0.809,0.169c-0.223,0.048 -0.444,-0.094 -0.491,-0.318c-0.048,-0.223 0.094,-0.444 0.318,-0.491c0.271,-0.059 0.543,-0.116 0.816,-0.172Zm3.278,-0.614c0.273,-0.046 0.547,-0.092 0.822,-0.136c0.226,-0.036 0.438,0.118 0.475,0.344c0.036,0.225 -0.118,0.438 -0.344,0.474c-0.272,0.044 -0.544,0.089 -0.815,0.134c-0.272,0.047 -0.544,0.094 -0.814,0.142c-0.225,0.04 -0.441,-0.11 -0.481,-0.335c-0.04,-0.225 0.11,-0.44 0.335,-0.48c0.273,-0.049 0.547,-0.096 0.822,-0.143Zm3.297,-0.499c0.276,-0.036 0.551,-0.072 0.828,-0.106c0.226,-0.028 0.433,0.133 0.461,0.36c0.028,0.227 -0.133,0.434 -0.36,0.462c-0.273,0.034 -0.547,0.069 -0.819,0.105c-0.274,0.036 -0.547,0.074 -0.819,0.113c-0.227,0.032 -0.436,-0.126 -0.468,-0.352c-0.033,-0.226 0.125,-0.436 0.351,-0.468c0.275,-0.039 0.551,-0.077 0.826,-0.114Zm3.315,-0.379c0.276,-0.027 0.553,-0.052 0.83,-0.076c0.228,-0.019 0.429,0.149 0.448,0.377c0.02,0.228 -0.149,0.429 -0.377,0.448c-0.274,0.024 -0.549,0.049 -0.823,0.075c-0.274,0.027 -0.548,0.054 -0.822,0.083c-0.227,0.024 -0.431,-0.141 -0.455,-0.369c-0.024,-0.227 0.141,-0.431 0.369,-0.455c0.276,-0.029 0.552,-0.056 0.83,-0.083Zm3.326,-0.256c0.277,-0.016 0.555,-0.031 0.833,-0.045c0.228,-0.011 0.422,0.165 0.433,0.394c0.012,0.228 -0.165,0.422 -0.393,0.433c-0.275,0.014 -0.55,0.028 -0.825,0.044c-0.275,0.016 -0.55,0.034 -0.825,0.052c-0.228,0.016 -0.425,-0.157 -0.441,-0.385c-0.015,-0.228 0.157,-0.425 0.385,-0.441c0.277,-0.019 0.555,-0.036 0.833,-0.052Zm3.333,-0.131c0.278,-0.006 0.556,-0.01 0.834,-0.013c0.229,-0.002 0.417,0.181 0.419,0.41c0.002,0.228 -0.181,0.416 -0.41,0.418c-0.276,0.003 -0.551,0.007 -0.826,0.013c-0.276,0.005 -0.551,0.012 -0.826,0.02c-0.228,0.007 -0.419,-0.173 -0.426,-0.401c-0.007,-0.229 0.173,-0.419 0.402,-0.426c0.277,-0.009 0.555,-0.015 0.833,-0.021Zm3.337,-0.004c0.277,0.005 0.555,0.011 0.834,0.019c0.228,0.006 0.408,0.197 0.402,0.425c-0.006,0.229 -0.197,0.409 -0.425,0.403c-0.276,-0.008 -0.551,-0.014 -0.826,-0.019c-0.276,-0.005 -0.551,-0.009 -0.826,-0.011c-0.229,-0.002 -0.413,-0.189 -0.411,-0.417c0.002,-0.229 0.189,-0.413 0.418,-0.411c0.277,0.002 0.555,0.006 0.834,0.011Zm3.334,0.124c0.277,0.016 0.555,0.033 0.833,0.051c0.228,0.015 0.4,0.212 0.385,0.44c-0.015,0.228 -0.212,0.401 -0.44,0.386c-0.275,-0.018 -0.55,-0.035 -0.825,-0.05c-0.275,-0.016 -0.55,-0.03 -0.825,-0.043c-0.228,-0.01 -0.405,-0.204 -0.394,-0.433c0.011,-0.228 0.205,-0.405 0.433,-0.394c0.277,0.013 0.555,0.027 0.833,0.043Zm3.327,0.251c0.276,0.027 0.553,0.054 0.83,0.083c0.227,0.024 0.392,0.228 0.369,0.455c-0.024,0.227 -0.228,0.392 -0.455,0.369c-0.275,-0.029 -0.549,-0.056 -0.822,-0.082c-0.275,-0.026 -0.549,-0.051 -0.823,-0.074c-0.228,-0.02 -0.397,-0.22 -0.377,-0.448c0.019,-0.228 0.22,-0.397 0.447,-0.377c0.277,0.023 0.554,0.048 0.831,0.074Zm3.315,0.378c0.275,0.037 0.55,0.075 0.826,0.114c0.226,0.033 0.384,0.242 0.352,0.469c-0.033,0.226 -0.243,0.383 -0.469,0.351c-0.273,-0.039 -0.546,-0.077 -0.819,-0.113c-0.273,-0.036 -0.546,-0.071 -0.819,-0.105c-0.227,-0.028 -0.388,-0.235 -0.36,-0.462c0.028,-0.227 0.235,-0.388 0.461,-0.36c0.276,0.034 0.552,0.069 0.828,0.106Zm3.298,0.502c0.273,0.047 0.547,0.095 0.821,0.145c0.225,0.041 0.375,0.256 0.334,0.481c-0.041,0.225 -0.256,0.375 -0.481,0.334c-0.272,-0.049 -0.543,-0.097 -0.814,-0.143c-0.272,-0.047 -0.544,-0.092 -0.815,-0.136c-0.226,-0.037 -0.379,-0.249 -0.343,-0.475c0.037,-0.226 0.25,-0.379 0.475,-0.343c0.274,0.045 0.548,0.09 0.823,0.137Zm3.277,0.624c0.271,0.057 0.543,0.115 0.815,0.175c0.223,0.049 0.365,0.27 0.316,0.493c-0.049,0.223 -0.27,0.365 -0.493,0.316c-0.27,-0.059 -0.539,-0.117 -0.808,-0.173c-0.27,-0.057 -0.54,-0.112 -0.81,-0.166c-0.224,-0.045 -0.369,-0.263 -0.325,-0.487c0.045,-0.224 0.263,-0.37 0.488,-0.325c0.272,0.054 0.544,0.11 0.817,0.167Zm3.252,0.742c0.269,0.067 0.538,0.135 0.808,0.204c0.222,0.057 0.355,0.283 0.298,0.504c-0.056,0.221 -0.282,0.355 -0.504,0.298c-0.267,-0.068 -0.534,-0.136 -0.801,-0.202c-0.268,-0.066 -0.536,-0.131 -0.803,-0.194c-0.223,-0.053 -0.36,-0.277 -0.307,-0.499c0.053,-0.222 0.276,-0.36 0.498,-0.307c0.27,0.064 0.54,0.13 0.811,0.196Zm3.223,0.857c0.266,0.076 0.533,0.153 0.801,0.231c0.219,0.065 0.345,0.295 0.28,0.514c-0.064,0.22 -0.294,0.345 -0.514,0.281c-0.265,-0.078 -0.529,-0.154 -0.794,-0.23c-0.266,-0.075 -0.531,-0.149 -0.796,-0.222c-0.22,-0.061 -0.35,-0.289 -0.289,-0.509c0.06,-0.221 0.288,-0.35 0.509,-0.29c0.267,0.074 0.535,0.149 0.803,0.225Zm3.191,0.966c0.264,0.085 0.528,0.171 0.793,0.259c0.217,0.071 0.335,0.306 0.263,0.523c-0.072,0.217 -0.306,0.335 -0.523,0.263c-0.262,-0.087 -0.525,-0.172 -0.786,-0.256c-0.263,-0.085 -0.526,-0.168 -0.788,-0.25c-0.219,-0.068 -0.34,-0.3 -0.272,-0.518c0.068,-0.219 0.3,-0.34 0.518,-0.272c0.265,0.082 0.53,0.166 0.795,0.251Zm3.157,1.072c0.261,0.094 0.522,0.188 0.784,0.284c0.215,0.079 0.325,0.317 0.246,0.531c-0.079,0.215 -0.317,0.325 -0.531,0.247c-0.26,-0.096 -0.519,-0.189 -0.778,-0.282c-0.26,-0.093 -0.52,-0.185 -0.779,-0.275c-0.216,-0.076 -0.33,-0.312 -0.255,-0.528c0.075,-0.215 0.312,-0.33 0.528,-0.254c0.261,0.091 0.523,0.183 0.785,0.277Zm3.121,1.173c0.258,0.101 0.516,0.204 0.774,0.308c0.212,0.085 0.315,0.327 0.23,0.539c-0.085,0.212 -0.327,0.315 -0.539,0.229c-0.256,-0.103 -0.512,-0.205 -0.768,-0.306c-0.257,-0.101 -0.514,-0.201 -0.771,-0.3c-0.213,-0.082 -0.32,-0.321 -0.238,-0.535c0.082,-0.213 0.322,-0.32 0.536,-0.237c0.258,0.099 0.517,0.2 0.776,0.302Zm3.083,1.268c0.254,0.109 0.509,0.219 0.764,0.331c0.21,0.092 0.305,0.336 0.213,0.546c-0.091,0.209 -0.336,0.304 -0.545,0.213c-0.253,-0.111 -0.506,-0.221 -0.759,-0.329c-0.254,-0.109 -0.508,-0.217 -0.761,-0.323c-0.211,-0.089 -0.31,-0.332 -0.221,-0.543c0.088,-0.21 0.331,-0.309 0.542,-0.221c0.255,0.107 0.511,0.216 0.767,0.326Zm3.04,1.357c0.001,0.001 0.005,0.002 0.005,0.003l0.752,0.352c0.207,0.097 0.296,0.344 0.198,0.551c-0.098,0.207 -0.345,0.295 -0.551,0.198l-0.75,-0.351l-0.751,-0.346c-0.208,-0.094 -0.3,-0.34 -0.206,-0.548c0.095,-0.208 0.341,-0.3 0.549,-0.205l0.754,0.346Zm3.003,1.445c0.001,0 0.004,0.002 0.005,0.002l0.742,0.373c0.204,0.103 0.286,0.353 0.182,0.556c-0.103,0.204 -0.352,0.286 -0.556,0.183l-0.74,-0.372l-0.742,-0.366c-0.205,-0.101 -0.29,-0.349 -0.189,-0.554c0.1,-0.205 0.348,-0.291 0.554,-0.19l0.744,0.368Zm2.962,1.525c0.001,0 0.004,0.002 0.005,0.003l0.732,0.392c0.201,0.108 0.276,0.36 0.167,0.561c-0.108,0.201 -0.36,0.276 -0.561,0.167l-0.729,-0.391l-0.732,-0.386c-0.203,-0.106 -0.281,-0.356 -0.175,-0.559c0.106,-0.202 0.356,-0.28 0.559,-0.174l0.734,0.387Zm2.921,1.602c0.001,0 0.004,0.002 0.005,0.002l0.721,0.411c0.199,0.114 0.267,0.367 0.154,0.565c-0.114,0.198 -0.367,0.267 -0.566,0.153l-0.719,-0.409l-0.722,-0.405c-0.199,-0.111 -0.271,-0.363 -0.16,-0.563c0.111,-0.199 0.364,-0.271 0.563,-0.16l0.724,0.406Zm3.604,2.073c0.198,0.115 0.266,0.368 0.151,0.566c-0.114,0.198 -0.367,0.266 -0.565,0.152l-1.438,-0.831c-0.198,-0.114 -0.266,-0.367 -0.152,-0.565c0.114,-0.198 0.368,-0.266 0.566,-0.152l1.438,0.83Zm2.875,1.661c0.198,0.114 0.266,0.368 0.152,0.565c-0.114,0.198 -0.368,0.266 -0.566,0.152l-1.438,-0.83c-0.197,-0.115 -0.265,-0.368 -0.151,-0.566c0.114,-0.198 0.368,-0.266 0.566,-0.151l1.437,0.83Zm2.877,1.66c0.197,0.115 0.265,0.368 0.151,0.566c-0.114,0.198 -0.368,0.266 -0.566,0.151l-1.438,-0.83c-0.197,-0.114 -0.265,-0.367 -0.151,-0.565c0.114,-0.198 0.368,-0.266 0.566,-0.152l1.438,0.83Zm2.875,1.661c0.198,0.114 0.266,0.367 0.152,0.565c-0.114,0.198 -0.368,0.266 -0.566,0.152l-1.438,-0.83c-0.198,-0.115 -0.266,-0.368 -0.151,-0.566c0.114,-0.198 0.367,-0.266 0.565,-0.152l1.438,0.831Zm2.876,1.66c0.198,0.114 0.266,0.368 0.152,0.566c-0.115,0.198 -0.368,0.265 -0.566,0.151l-1.438,-0.83c-0.198,-0.114 -0.266,-0.368 -0.151,-0.566c0.114,-0.198 0.367,-0.265 0.565,-0.151l1.438,0.83Zm2.876,1.66c0.198,0.115 0.266,0.368 0.152,0.566c-0.115,0.198 -0.368,0.266 -0.566,0.152l-1.438,-0.831c-0.198,-0.114 -0.266,-0.367 -0.151,-0.565c0.114,-0.198 0.367,-0.266 0.565,-0.152l1.438,0.83Zm2.876,1.661c0.198,0.114 0.266,0.368 0.152,0.565c-0.115,0.198 -0.368,0.266 -0.566,0.152l-1.438,-0.83c-0.198,-0.114 -0.266,-0.368 -0.152,-0.566c0.115,-0.198 0.368,-0.266 0.566,-0.151l1.438,0.83Zm2.876,1.66c0.198,0.114 0.266,0.368 0.151,0.566c-0.114,0.198 -0.367,0.266 -0.565,0.151l-1.438,-0.83c-0.198,-0.114 -0.266,-0.368 -0.152,-0.565c0.115,-0.198 0.368,-0.266 0.566,-0.152l1.438,0.83Zm2.876,1.661c0.198,0.114 0.266,0.367 0.151,0.565c-0.114,0.198 -0.367,0.266 -0.565,0.152l-1.438,-0.83c-0.198,-0.115 -0.266,-0.368 -0.152,-0.566c0.114,-0.198 0.368,-0.266 0.566,-0.152l1.438,0.831Zm2.876,1.66c0.198,0.114 0.266,0.368 0.151,0.566c-0.114,0.198 -0.367,0.265 -0.565,0.151l-1.438,-0.83c-0.198,-0.114 -0.266,-0.368 -0.152,-0.566c0.114,-0.198 0.368,-0.265 0.566,-0.151l1.438,0.83Zm2.875,1.66c0.198,0.115 0.266,0.368 0.152,0.566c-0.114,0.198 -0.368,0.266 -0.566,0.152l-1.438,-0.831c-0.198,-0.114 -0.265,-0.367 -0.151,-0.565c0.114,-0.198 0.368,-0.266 0.565,-0.152l1.438,0.83Zm2.876,1.661c0.198,0.114 0.266,0.367 0.152,0.565c-0.114,0.198 -0.368,0.266 -0.566,0.152l-1.438,-0.83c-0.198,-0.115 -0.266,-0.368 -0.151,-0.566c0.114,-0.198 0.367,-0.266 0.565,-0.151l1.438,0.83Zm2.876,1.66c0.198,0.114 0.266,0.368 0.152,0.566c-0.115,0.198 -0.368,0.266 -0.566,0.151l-1.438,-0.83c-0.198,-0.114 -0.266,-0.368 -0.151,-0.566c0.114,-0.197 0.367,-0.265 0.565,-0.151l1.438,0.83Zm2.876,1.66c0.198,0.115 0.266,0.368 0.152,0.566c-0.115,0.198 -0.368,0.266 -0.566,0.152l-1.438,-0.83c-0.198,-0.115 -0.266,-0.368 -0.151,-0.566c0.114,-0.198 0.367,-0.266 0.565,-0.152l1.438,0.83Zm2.876,1.661c0.198,0.114 0.266,0.368 0.152,0.566c-0.115,0.197 -0.368,0.265 -0.566,0.151l-1.438,-0.83c-0.198,-0.114 -0.266,-0.368 -0.151,-0.566c0.114,-0.198 0.367,-0.266 0.565,-0.151l1.438,0.83Zm2.876,1.66c0.198,0.115 0.266,0.368 0.151,0.566c-0.114,0.198 -0.367,0.266 -0.565,0.151l-1.438,-0.83c-0.198,-0.114 -0.266,-0.367 -0.152,-0.565c0.115,-0.198 0.368,-0.266 0.566,-0.152l1.438,0.83Zm2.876,1.661c0.198,0.114 0.266,0.367 0.151,0.565c-0.114,0.198 -0.367,0.266 -0.565,0.152l-1.438,-0.83c-0.198,-0.115 -0.266,-0.368 -0.152,-0.566c0.115,-0.198 0.368,-0.266 0.566,-0.151l1.438,0.83Zm2.876,1.66c0.198,0.114 0.266,0.368 0.151,0.566c-0.114,0.198 -0.367,0.266 -0.565,0.151l-1.438,-0.83c-0.198,-0.114 -0.266,-0.368 -0.152,-0.566c0.114,-0.197 0.368,-0.265 0.566,-0.151l1.438,0.83Zm2.876,1.66c0.197,0.115 0.265,0.368 0.151,0.566c-0.114,0.198 -0.368,0.266 -0.566,0.152l-1.437,-0.831c-0.198,-0.114 -0.266,-0.367 -0.152,-0.565c0.114,-0.198 0.368,-0.266 0.566,-0.152l1.438,0.83Zm2.875,1.661c0.198,0.114 0.266,0.368 0.152,0.565c-0.114,0.198 -0.368,0.266 -0.566,0.152l-1.438,-0.83c-0.197,-0.114 -0.265,-0.368 -0.151,-0.566c0.114,-0.198 0.368,-0.266 0.566,-0.151l1.437,0.83Zm2.876,1.66c0.198,0.114 0.266,0.368 0.152,0.566c-0.114,0.198 -0.368,0.266 -0.566,0.151l-1.438,-0.83c-0.198,-0.114 -0.266,-0.367 -0.151,-0.565c0.114,-0.198 0.367,-0.266 0.565,-0.152l1.438,0.83Zm2.876,1.661c0.198,0.114 0.266,0.367 0.152,0.565c-0.115,0.198 -0.368,0.266 -0.566,0.152l-1.438,-0.83c-0.198,-0.115 -0.266,-0.368 -0.151,-0.566c0.114,-0.198 0.367,-0.266 0.565,-0.152l1.438,0.831Zm2.876,1.66c0.198,0.114 0.266,0.368 0.152,0.566c-0.115,0.198 -0.368,0.265 -0.566,0.151l-1.438,-0.83c-0.198,-0.114 -0.266,-0.368 -0.151,-0.566c0.114,-0.197 0.367,-0.265 0.565,-0.151l1.438,0.83Zm2.513,1.451l-0.204,0.775c-0.076,-0 -0.148,-0.021 -0.21,-0.058l-0.356,-0.205l-0.719,-0.416c-0.198,-0.114 -0.266,-0.367 -0.152,-0.565c0.115,-0.198 0.368,-0.266 0.566,-0.152l1.075,0.621Zm-187.629,-29.036c-0.198,0.114 -0.451,0.046 -0.566,-0.152c-0.114,-0.198 -0.046,-0.451 0.152,-0.565l0.359,-0.208c0.198,-0.114 0.452,-0.046 0.566,0.152c0.114,0.197 0.046,0.451 -0.152,0.565l-0.359,0.208Zm22.211,-12.081c-0.206,0.1 -0.454,0.013 -0.553,-0.193c-0.099,-0.206 -0.012,-0.453 0.193,-0.553l0.751,-0.359l0.752,-0.356c0.207,-0.098 0.454,-0.009 0.551,0.198c0.097,0.207 0.008,0.454 -0.198,0.551l-0.749,0.354l-0.747,0.358Z" style="fill:#a5845b;fill-opacity:0.5;"/><path d="M129.379,138.712c17.376,-10.032 72.244,-31.212 100.563,32.369c20.205,45.362 47.042,112.362 87.069,135.472" style="fill:none;stroke:#f2f00d;stroke-width:1.1px;"/></g><g id="Dots"><ellipse cx="283.611" cy="49.666" rx="2.319" ry="2.379" style="fill:#fff;stroke:#000;stroke-width:0.42px;"/><ellipse cx="129.379" cy="138.712" rx="2.319" ry="2.379" style="fill:#fff;stroke:#000;stroke-width:0.42px;"/><ellipse cx="403.196" cy="256.794" rx="2.319" ry="2.379" style="fill:#fff;stroke:#000;stroke-width:0.42px;"/><ellipse cx="316.907" cy="306.553" rx="2.319" ry="2.379" style="fill:#fff;stroke:#000;stroke-width:0.42px;"/><ellipse cx="129.379" cy="276.864" rx="2.319" ry="2.379" style="fill:#fff;stroke:#000;stroke-width:0.42px;"/></g><g><g transform="matrix(0.483442,0,0,0.483442,-1735.22,-1582.65)"><g transform="matrix(0.95,0,0,1,222.997,0)"><text x="4460.41px" y="3577.09px" style="font-family:'Roboto-Regular', 'Roboto';font-size:25.856px;fill:#dcdcdc;">P<tspan x="4477.68px 4494.57px 4513.31px 4528.54px 4544.19px 4561.59px 4577.97px 4585.96px 4604.71px " y="3577.09px 3577.09px 3577.09px 3577.09px 3577.09px 3577.09px 3577.09px 3577.09px 3577.09px ">ROJECTION</tspan></text></g><g transform="matrix(0.95,0,0,1,224.283,0)"><g transform="matrix(25.8562,0,0,25.8562,4595.19,3602.94)"></g><text x="4486.15px" y="3602.94px" style="font-family:'Roboto-Regular', 'Roboto';font-size:25.856px;fill:#dcdcdc;">P<tspan x="4503.41px 4518.55px 4536.37px 4555.78px 4570.95px 4577.84px " y="3602.94px 3602.94px 3602.94px 3602.94px 3602.94px 3602.94px ">LANE A</tspan></text></g></g><g transform="matrix(0.95,0,0,1,-81.9077,0)"><g transform="matrix(12.5,0,0,12.5,583.338,207.446)"></g><text x="530.654px" y="207.446px" style="font-family:'Roboto-Regular', 'Roboto';font-size:12.5px;fill:#dcdcdc;">C<tspan x="539.252px 547.82px 555.863px 564.285px 571.621px 574.953px " y="207.446px 207.446px 207.446px 207.446px 207.446px 207.446px ">URVE A</tspan></text></g><g transform="matrix(0.483442,0,0,0.483442,-2115.47,-1624.51)"><g transform="matrix(0.95,0,0,1,222.424,0)"><text x="4448.95px" y="3577.09px" style="font-family:'Roboto-Regular', 'Roboto';font-size:25.856px;fill:#dcdcdc;">I<tspan x="4456.94px 4475.96px 4492.35px 4508px 4524.89px 4541.2px 4556.85px 4574.25px 4590.63px 4598.62px 4617.37px " y="3577.09px 3577.09px 3577.09px 3577.09px 3577.09px 3577.09px 3577.09px 3577.09px 3577.09px 3577.09px 3577.09px ">NTERSECTION</tspan></text></g><g transform="matrix(0.95,0,0,1,225.509,0)"><g transform="matrix(25.8562,0,0,25.8562,4568.1,3602.94)"></g><text x="4510.65px" y="3602.94px" style="font-family:'Roboto-Regular', 'Roboto';font-size:25.856px;fill:#dcdcdc;">L<tspan x="4525.53px 4533.52px 4552.93px " y="3602.94px 3602.94px 3602.94px ">INE</tspan></text></g></g><g transform="matrix(0.483442,0,0,0.483442,-2110.3,-1375.57)"><g transform="matrix(0.95,0,0,1,222.997,0)"><text x="4460.41px" y="3577.09px" style="font-family:'Roboto-Regular', 'Roboto';font-size:25.856px;fill:#dcdcdc;">P<tspan x="4477.68px 4494.57px 4513.31px 4528.54px 4544.19px 4561.59px 4577.97px 4585.96px 4604.71px " y="3577.09px 3577.09px 3577.09px 3577.09px 3577.09px 3577.09px 3577.09px 3577.09px 3577.09px ">ROJECTION</tspan></text></g><g transform="matrix(0.95,0,0,1,224.301,0)"><g transform="matrix(25.8562,0,0,25.8562,4594.79,3602.94)"></g><text x="4486.51px" y="3602.94px" style="font-family:'Roboto-Regular', 'Roboto';font-size:25.856px;fill:#dcdcdc;">P<tspan x="4503.77px 4518.91px 4536.73px 4556.14px 4571.31px 4578.2px " y="3602.94px 3602.94px 3602.94px 3602.94px 3602.94px 3602.94px ">LANE B</tspan></text></g></g><g transform="matrix(0.95,0,0,1,-99.5188,0)"><g transform="matrix(12.5,0,0,12.5,230.924,299.892)"></g><text x="178.605px" y="299.892px" style="font-family:'Roboto-Regular', 'Roboto';font-size:12.5px;fill:#dcdcdc;">C<tspan x="187.204px 195.772px 203.815px 212.237px 219.573px 222.904px " y="299.892px 299.892px 299.892px 299.892px 299.892px 299.892px ">URVE B</tspan></text></g></g><path d="M177.175,118.426l-1.875,5.625l-1.875,-5.625l3.75,0Z" style="fill:#dbdbdb;"/><path d="M121.983,100.839c0,-0 33.38,-0 47.317,-0c1.591,-0 3.117,0.632 4.242,1.757c1.126,1.125 1.758,2.651 1.758,4.243l-0,12.712" style="fill:none;stroke:#dbdbdb;stroke-width:0.83px;stroke-linejoin:miter;"/><path d="M143.811,277.068l1.875,-5.625l1.875,5.625l-3.75,-0Z" style="fill:#dbdbdb;"/><path d="M121.983,295.745c0,0 10.681,0 17.703,0c3.314,0 6,-2.686 6,-6c-0,-4.27 -0,-9.916 -0,-13.802" style="fill:none;stroke:#dbdbdb;stroke-width:0.83px;stroke-linejoin:miter;"/><path d="M384.445,229.514l-1.875,5.625l-1.875,-5.625l3.75,0Z" style="fill:#dbdbdb;"/><path d="M418.711,203.299c0,-0 -19.867,-0 -30.141,-0c-1.591,-0 -3.117,0.632 -4.243,1.757c-1.125,1.125 -1.757,2.651 -1.757,4.243c-0,6.205 -0,15.753 -0,21.34" style="fill:none;stroke:#dbdbdb;stroke-width:0.83px;stroke-linejoin:miter;"/><path d="M387.526,143.848l-5.407,-1.802l5.407,-1.802l-0,3.604Z" style="fill:#dbdbdb;"/><path d="M418.711,142.046c0,0 -22.582,0 -32.267,0" style="fill:none;stroke:#dbdbdb;stroke-width:0.8px;stroke-linejoin:miter;"/><path d="M143.832,316.153l1.875,-5.625l1.875,5.625l-3.75,0Z" style="fill:#dbdbdb;"/><path d="M121.983,348.811l17.724,0c1.591,0 3.117,-0.632 4.243,-1.757c1.125,-1.125 1.757,-2.651 1.757,-4.243c0,-7.701 0,-20.888 0,-27.783" style="fill:none;stroke:#dbdbdb;stroke-width:0.83px;stroke-linejoin:miter;"/></g></g></svg>