<?xml version="1.0" encoding="UTF-8" standalone="no"?><!DOCTYPE svg PUBLIC "-//W3C//DTD SVG 1.1//EN" "http://www.w3.org/Graphics/SVG/1.1/DTD/svg11.dtd"><svg width="100%" height="100%" viewBox="0 0 500 240" version="1.1" xmlns="http://www.w3.org/2000/svg" xmlns:xlink="http://www.w3.org/1999/xlink" xml:space="preserve" xmlns:serif="http://www.serif.com/" style="fill-rule:evenodd;clip-rule:evenodd;stroke-linecap:round;stroke-linejoin:bevel;"><g><g><path d="M95.124,200.369l-71.811,-55.637" style="fill:none;stroke:#a3a3a3;stroke-width:1.32px;"/><path d="M107.334,186.082l-66.15,-62.262" style="fill:none;stroke:#a3a3a3;stroke-width:1.32px;"/><path d="M120.856,173.03l-59.88,-68.313" style="fill:none;stroke:#a3a3a3;stroke-width:1.32px;"/><path d="M135.566,161.334l-53.059,-73.736" style="fill:none;stroke:#a3a3a3;stroke-width:1.32px;"/><path d="M151.33,151.101l-45.75,-78.48" style="fill:none;stroke:#a3a3a3;stroke-width:1.32px;"/><path d="M168.002,142.426l-38.02,-82.503" style="fill:none;stroke:#a3a3a3;stroke-width:1.32px;"/><path d="M185.428,135.388l-29.941,-85.766" style="fill:none;stroke:#a3a3a3;stroke-width:1.32px;"/><path d="M203.448,130.052l-21.585,-88.24" style="fill:none;stroke:#a3a3a3;stroke-width:1.32px;"/><path d="M221.896,126.468l-13.031,-89.903" style="fill:none;stroke:#a3a3a3;stroke-width:1.32px;"/><path d="M240.603,124.667l-4.357,-90.738" style="fill:none;stroke:#a3a3a3;stroke-width:1.32px;"/><path d="M259.397,124.667l4.357,-90.738" style="fill:none;stroke:#a3a3a3;stroke-width:1.32px;"/><path d="M278.104,126.468l13.031,-89.903" style="fill:none;stroke:#a3a3a3;stroke-width:1.32px;"/><path d="M296.552,130.052l21.585,-88.24" style="fill:none;stroke:#a3a3a3;stroke-width:1.32px;"/><path d="M314.572,135.388l29.941,-85.766" style="fill:none;stroke:#a3a3a3;stroke-width:1.32px;"/><path d="M331.998,142.426l38.02,-82.503" style="fill:none;stroke:#a3a3a3;stroke-width:1.32px;"/><path d="M348.67,151.101l45.75,-78.48" style="fill:none;stroke:#a3a3a3;stroke-width:1.32px;"/><path d="M364.434,161.334l53.059,-73.736" style="fill:none;stroke:#a3a3a3;stroke-width:1.32px;"/><path d="M379.144,173.03l59.88,-68.313" style="fill:none;stroke:#a3a3a3;stroke-width:1.32px;"/><path d="M392.666,186.082l66.15,-62.262" style="fill:none;stroke:#a3a3a3;stroke-width:1.32px;"/><path d="M404.876,200.369l71.811,-55.637" style="fill:none;stroke:#a3a3a3;stroke-width:1.32px;"/><path d="M23.313,144.732c12.879,-16.632 27.954,-32.264 44.878,-46.132c16.912,-13.875 35.666,-25.969 55.578,-35.723c19.905,-9.766 40.952,-17.184 62.278,-22.056c21.328,-4.884 42.917,-7.228 63.953,-7.221" style="fill:none;stroke:#f00;stroke-width:2.42px;"/><path d="M250,33.6c21.036,-0.007 42.626,2.337 63.953,7.221c21.326,4.872 42.373,12.29 62.278,22.056c19.912,9.754 38.666,21.848 55.578,35.723c16.924,13.868 31.999,29.5 44.878,46.132" style="fill:none;stroke:#f00;stroke-width:2.42px;"/><path d="M95.124,200.369c8.799,-11.364 19.099,-22.044 30.661,-31.518c11.555,-9.48 24.368,-17.743 37.972,-24.407c13.599,-6.672 27.979,-11.74 42.549,-15.068c14.572,-3.338 29.322,-4.939 43.694,-4.935" style="fill:none;stroke:#517fae;stroke-width:2.42px;"/><path d="M250,124.441c14.372,-0.004 29.122,1.597 43.694,4.935c14.57,3.328 28.95,8.396 42.549,15.068c13.604,6.664 26.417,14.927 37.972,24.407c11.562,9.474 21.862,20.154 30.661,31.518" style="fill:none;stroke:#517fae;stroke-width:2.42px;"/><path d="M404.695,200.129l-61.021,-80.781l-93.674,-17.038l-94.304,17.038l-60.391,80.781" style="fill:none;stroke:#a3a3a3;stroke-opacity:0.5;stroke-width:3.12px;stroke-linejoin:round;stroke-miterlimit:1.5;stroke-dasharray:0,6.23,0,0,0,0;"/><circle cx="250" cy="102.31" r="5.657" style="fill:#4ec464;"/><path d="M250,96.653c3.122,0 5.657,2.535 5.657,5.657c-0,3.122 -2.535,5.656 -5.657,5.656c-3.122,0 -5.657,-2.534 -5.657,-5.656c0,-3.122 2.535,-5.657 5.657,-5.657Zm0,1.393c-2.353,0 -4.263,1.911 -4.263,4.264c-0,2.353 1.91,4.263 4.263,4.263c2.353,0 4.263,-1.91 4.263,-4.263c0,-2.353 -1.91,-4.264 -4.263,-4.264Z"/><circle cx="155.696" cy="119.348" r="5.657" style="fill:#4ec464;"/><path d="M155.696,113.691c3.122,0 5.657,2.535 5.657,5.657c-0,3.122 -2.535,5.657 -5.657,5.657c-3.122,-0 -5.657,-2.535 -5.657,-5.657c0,-3.122 2.535,-5.657 5.657,-5.657Zm0,1.394c-2.353,-0 -4.263,1.91 -4.263,4.263c-0,2.353 1.91,4.263 4.263,4.263c2.353,0 4.263,-1.91 4.263,-4.263c0,-2.353 -1.91,-4.263 -4.263,-4.263Z"/><circle cx="95.305" cy="200.744" r="5.657" style="fill:#4ec464;"/><path d="M95.305,195.087c3.122,0 5.657,2.535 5.657,5.657c-0,3.122 -2.535,5.656 -5.657,5.656c-3.122,0 -5.656,-2.534 -5.656,-5.656c-0,-3.122 2.534,-5.657 5.656,-5.657Zm0,1.394c-2.353,-0 -4.263,1.91 -4.263,4.263c0,2.353 1.91,4.263 4.263,4.263c2.353,0 4.264,-1.91 4.264,-4.263c-0,-2.353 -1.911,-4.263 -4.264,-4.263Z"/><circle cx="404.695" cy="200.129" r="5.657" style="fill:#4ec464;"/><path d="M404.695,194.472c3.122,0 5.656,2.535 5.656,5.657c0,3.122 -2.534,5.657 -5.656,5.657c-3.122,-0 -5.657,-2.535 -5.657,-5.657c0,-3.122 2.535,-5.657 5.657,-5.657Zm-0,1.394c-2.353,-0 -4.264,1.91 -4.264,4.263c0,2.353 1.911,4.263 4.264,4.263c2.353,0 4.263,-1.91 4.263,-4.263c-0,-2.353 -1.91,-4.263 -4.263,-4.263Z"/><circle cx="343.674" cy="119.348" r="5.657" style="fill:#4ec464;"/><path d="M343.674,113.691c3.122,0 5.657,2.535 5.657,5.657c0,3.122 -2.535,5.657 -5.657,5.657c-3.122,-0 -5.656,-2.535 -5.656,-5.657c-0,-3.122 2.534,-5.657 5.656,-5.657Zm0,1.394c-2.353,-0 -4.263,1.91 -4.263,4.263c0,2.353 1.91,4.263 4.263,4.263c2.353,0 4.264,-1.91 4.264,-4.263c-0,-2.353 -1.911,-4.263 -4.264,-4.263Z"/><g transform="matrix(19.3616,0,0,19.3616,173.942,200.369)"></g><text x="160.776px" y="200.369px" style="font-family:'Geist-Medium', 'Geist';font-weight:500;font-size:19.362px;fill:#dcdcdc;">R</text><g transform="matrix(19.3616,0,0,19.3616,336.717,200.369)"></g><text x="323.551px" y="200.369px" style="font-family:'Geist-Medium', 'Geist';font-weight:500;font-size:19.362px;fill:#dcdcdc;">R</text><g transform="matrix(19.3616,0,0,19.3616,256.085,172.938)"></g><text x="242.919px" y="172.938px" style="font-family:'Geist-Medium', 'Geist';font-weight:500;font-size:19.362px;fill:#dcdcdc;">R</text><path d="M147.805,168.042l-9.914,-4.956l4.957,9.913l4.957,-4.957Z" style="fill:#dcdcdc;"/><path d="M143.839,169.034c5.802,5.801 13.758,13.757 13.758,13.757" style="fill:none;stroke:#dcdcdc;stroke-width:2.34px;stroke-linejoin:round;stroke-miterlimit:1.5;"/><path d="M253.28,137.661l-3.505,-10.516l-3.505,10.516l7.01,-0Z" style="fill:#dcdcdc;"/><path d="M249.775,135.558l-0,19.456" style="fill:none;stroke:#dcdcdc;stroke-width:2.34px;stroke-linejoin:round;stroke-miterlimit:1.5;"/><path d="M355.191,172.999l4.957,-9.913l-9.914,4.956l4.957,4.957Z" style="fill:#dcdcdc;"/><path d="M354.2,169.034c-5.802,5.801 -13.758,13.757 -13.758,13.757" style="fill:none;stroke:#dcdcdc;stroke-width:2.34px;stroke-linejoin:round;stroke-miterlimit:1.5;"/></g></g></svg>