<?xml version="1.0" encoding="UTF-8" standalone="no"?><!DOCTYPE svg PUBLIC "-//W3C//DTD SVG 1.1//EN" "http://www.w3.org/Graphics/SVG/1.1/DTD/svg11.dtd"><svg width="100%" height="100%" viewBox="0 0 710 221" version="1.1" xmlns="http://www.w3.org/2000/svg" xmlns:xlink="http://www.w3.org/1999/xlink" xml:space="preserve" xmlns:serif="http://www.serif.com/" style="fill-rule:evenodd;clip-rule:evenodd;stroke-linecap:round;"><g id="Radial-Hatching:-Around" serif:id="Radial Hatching: Around"><g id="Text"><g transform="matrix(0.955903,0,0,1,-107.552,0)"><g transform="matrix(16.6667,0,0,16.6667,263.348,203.823)"></g><text x="193.713px" y="203.823px" style="font-family:'Roboto-Regular', 'Roboto';font-size:16.667px;fill:#dcdcdc;">A<tspan x="205.202px 216.089px 228.172px 239.596px 252.103px " y="203.823px 203.823px 203.823px 203.823px 203.823px ">ROUND</tspan></text></g><g transform="matrix(0.955903,0,0,1,-96.8685,0)"><g transform="matrix(16.6667,0,0,16.6667,498.868,203.71)"></g><text x="442.092px" y="203.71px" style="font-family:'Roboto-Regular', 'Roboto';font-size:16.667px;fill:#dcdcdc;">A<tspan x="453.581px 462.618px 474.701px 487.207px " y="203.71px 203.71px 203.71px 203.71px ">LONG</tspan></text></g><g transform="matrix(0.955903,0,0,1,-86.2235,0)"><g transform="matrix(16.6667,0,0,16.6667,739.99,203.71)"></g><text x="683.74px" y="203.71px" style="font-family:'Roboto-Regular', 'Roboto';font-size:16.667px;fill:#dcdcdc;">A<tspan x="695.229px 706.23px 718.313px 729.737px " y="203.71px 203.71px 203.71px 203.71px ">BOUT</tspan></text></g></g><g><g id="Edge-Visible-NotSmooth"><g id="Face-sheet.001--Edge-Visible-NotSmooth-" serif:id="Face sheet.001 (Edge-Visible-NotSmooth)"><path d="M130.927,54.702c-0,11.785 16.798,21.483 37.211,21.483c20.413,0 37.211,-9.698 37.211,-21.483" style="fill:none;fill-rule:nonzero;stroke:#1984ef;stroke-width:0.78px;"/></g></g><g id="Edge-Visible-NotSmooth-Silhouette"><g id="Face-sheet.001--Edge-Visible-NotSmooth-Silhouette-" serif:id="Face sheet.001 (Edge-Visible-NotSmooth-Silhouette)"><path d="M130.927,142.262c-0,11.785 16.798,21.483 37.211,21.483c20.413,0 37.211,-9.698 37.211,-21.483l0,-0" style="fill:none;fill-rule:nonzero;stroke:#1984ef;stroke-width:0.78px;"/><path d="M205.349,54.702c0,-5.696 -3.923,-11.164 -10.899,-15.192" style="fill:none;fill-rule:nonzero;stroke:#1984ef;stroke-width:0.78px;"/><path d="M194.45,39.51c-6.976,-4.027 -16.447,-6.292 -26.312,-6.292c-20.413,-0 -37.211,9.698 -37.211,21.484c-0,-0 -0,-0 -0,-0" style="fill:none;fill-rule:nonzero;stroke:#1984ef;stroke-width:0.78px;"/></g></g><g id="RadialHatchLine-Visible"><g id="Solid.001--RadialHatchLine-Visible-" serif:id="Solid.001 (RadialHatchLine-Visible)"><path d="M38.611,66.862c7.34,-6.658 18.802,-7.952 30.939,-3.492" style="fill:none;fill-rule:nonzero;stroke:#1984ef;stroke-width:0.78px;"/><path d="M52.192,58.317c4.82,-1.962 10.985,-0.167 17.358,5.053" style="fill:none;fill-rule:nonzero;stroke:#1984ef;stroke-width:0.78px;"/><path d="M63.545,55.313c1.746,-0.23 3.848,2.591 6.005,8.057" style="fill:none;fill-rule:nonzero;stroke:#1984ef;stroke-width:0.78px;"/><path d="M73.983,55.134c-1.292,-0.125 -2.843,2.756 -4.433,8.236" style="fill:none;fill-rule:nonzero;stroke:#1984ef;stroke-width:0.78px;"/><path d="M85.099,57.625c-4.365,-1.566 -9.869,0.467 -15.549,5.745" style="fill:none;fill-rule:nonzero;stroke:#1984ef;stroke-width:0.78px;"/><path d="M98.328,65.02c-7.091,-5.677 -17.653,-6.282 -28.778,-1.65" style="fill:none;fill-rule:nonzero;stroke:#1984ef;stroke-width:0.78px;"/><path d="M112.091,83.341c-6.029,-14.551 -23.251,-22.636 -42.541,-19.971" style="fill:none;fill-rule:nonzero;stroke:#1984ef;stroke-width:0.78px;"/><path d="M113.995,113.011c5.329,-19.668 -10.348,-41.29 -34.73,-47.896c-3.191,-0.865 -6.448,-1.45 -9.715,-1.745" style="fill:none;fill-rule:nonzero;stroke:#1984ef;stroke-width:0.78px;"/><path d="M101.299,134.32c12.773,-12.159 8.952,-37.221 -8.465,-55.517c-6.752,-7.093 -14.911,-12.501 -23.284,-15.433" style="fill:none;fill-rule:nonzero;stroke:#1984ef;stroke-width:0.78px;"/><path d="M87.594,143.332c11.266,-4.798 12.39,-27.87 2.491,-51.111c-5.187,-12.179 -12.676,-22.701 -20.535,-28.851" style="fill:none;fill-rule:nonzero;stroke:#1984ef;stroke-width:0.78px;"/><path d="M76.145,146.54c4.964,-0.718 6.07,-21.881 2.452,-46.882c-2.105,-14.551 -5.472,-28.055 -9.047,-36.288" style="fill:none;fill-rule:nonzero;stroke:#1984ef;stroke-width:0.78px;"/><path d="M65.698,146.854c-0,-0 -0,-0 -0,-0c-2.958,-0.249 -3.652,-21.167 -1.539,-46.339c1.243,-14.804 3.253,-28.657 5.391,-37.145" style="fill:none;fill-rule:nonzero;stroke:#1984ef;stroke-width:0.78px;"/><path d="M54.661,144.542c-0,-0 -0,-0 -0,-0c-9.941,-3.397 -11.4,-25.862 -3.232,-49.766c4.452,-13.03 11.108,-24.565 18.121,-31.406" style="fill:none;fill-rule:nonzero;stroke:#1984ef;stroke-width:0.78px;"/><path d="M41.568,137.538c-0,-0 -0,-0 -0,-0c-13.076,-10.005 -11.204,-34.747 4.146,-54.809c6.649,-8.688 15.103,-15.555 23.836,-19.359" style="fill:none;fill-rule:nonzero;stroke:#1984ef;stroke-width:0.78px;"/><path d="M27.623,120.006c-8.25,-18.166 3.889,-41.708 26.89,-52.153c4.824,-2.191 9.912,-3.707 15.037,-4.483" style="fill:none;fill-rule:nonzero;stroke:#1984ef;stroke-width:0.78px;"/><path d="M24.701,90.527c4.047,-17.384 22.989,-28.854 44.849,-27.157" style="fill:none;fill-rule:nonzero;stroke:#1984ef;stroke-width:0.78px;"/><path d="M36.989,68.407c7.468,-7.468 19.626,-9.349 32.561,-5.037" style="fill:none;fill-rule:nonzero;stroke:#1984ef;stroke-width:0.78px;"/></g><g id="Face-sheet.001--RadialHatchLine-Visible-" serif:id="Face sheet.001 (RadialHatchLine-Visible)"><path d="M202.631,62.762l-0,87.56" style="fill:none;fill-rule:nonzero;stroke:#1984ef;stroke-width:0.78px;"/><path d="M194.733,69.728l-0,87.56" style="fill:none;fill-rule:nonzero;stroke:#1984ef;stroke-width:0.78px;"/><path d="M182.841,74.437l-0,87.56" style="fill:none;fill-rule:nonzero;stroke:#1984ef;stroke-width:0.78px;"/><path d="M168.741,76.183l-0,87.56" style="fill:none;fill-rule:nonzero;stroke:#1984ef;stroke-width:0.78px;"/><path d="M154.55,74.702l-0,87.56" style="fill:none;fill-rule:nonzero;stroke:#1984ef;stroke-width:0.78px;"/><path d="M142.4,70.217l-0,87.56" style="fill:none;fill-rule:nonzero;stroke:#1984ef;stroke-width:0.78px;"/><path d="M134.115,63.403l0,87.56" style="fill:none;fill-rule:nonzero;stroke:#1984ef;stroke-width:0.78px;"/><path d="M130.94,55.281l0,87.56" style="fill:none;fill-rule:nonzero;stroke:#1984ef;stroke-width:0.78px;"/></g></g><g id="SilhouetteLine-Visible"><g id="Solid.001--SilhouetteLine-Visible-" serif:id="Solid.001 (SilhouetteLine-Visible)"><circle cx="69.55" cy="100.967" r="46.048" style="fill:none;stroke:#1984ef;stroke-width:0.78px;stroke-linecap:butt;"/></g><g id="Face-sheet.001--SilhouetteLine-Visible-" serif:id="Face sheet.001 (SilhouetteLine-Visible)"><path d="M205.349,142.262l0,-87.56" style="fill:none;fill-rule:nonzero;stroke:#1984ef;stroke-width:0.78px;"/><path d="M130.927,54.702l-0,87.56" style="fill:none;fill-rule:nonzero;stroke:#1984ef;stroke-width:0.78px;"/></g></g></g><g><g id="Edge-Visible-NotSmooth1" serif:id="Edge-Visible-NotSmooth"><g id="Face-sheet.001--Edge-Visible-NotSmooth-1" serif:id="Face sheet.001 (Edge-Visible-NotSmooth)"><path d="M362.947,54.702c0,11.785 16.798,21.483 37.212,21.483c20.413,0 37.211,-9.698 37.211,-21.483" style="fill:none;fill-rule:nonzero;stroke:#1984ef;stroke-width:0.78px;"/></g></g><g id="Edge-Visible-NotSmooth-Silhouette1" serif:id="Edge-Visible-NotSmooth-Silhouette"><g id="Face-sheet.001--Edge-Visible-NotSmooth-Silhouette-1" serif:id="Face sheet.001 (Edge-Visible-NotSmooth-Silhouette)"><path d="M362.947,142.262c0,11.785 16.798,21.483 37.212,21.483c20.413,0 37.211,-9.698 37.211,-21.483l-0,-0" style="fill:none;fill-rule:nonzero;stroke:#1984ef;stroke-width:0.78px;"/><path d="M437.37,54.702c-0,-5.696 -3.923,-11.164 -10.899,-15.192" style="fill:none;fill-rule:nonzero;stroke:#1984ef;stroke-width:0.78px;"/><path d="M426.471,39.51c-6.976,-4.027 -16.447,-6.292 -26.312,-6.292c-20.414,-0 -37.212,9.698 -37.212,21.484c0,-0 0,-0 0,-0" style="fill:none;fill-rule:nonzero;stroke:#1984ef;stroke-width:0.78px;"/></g></g><g id="RadialHatchLine-Visible1" serif:id="RadialHatchLine-Visible"><g id="Solid.001--RadialHatchLine-Visible-1" serif:id="Solid.001 (RadialHatchLine-Visible)"></g><g id="Face-sheet.001--RadialHatchLine-Visible-1" serif:id="Face sheet.001 (RadialHatchLine-Visible)"><path d="M437.37,128.681c-0,11.786 -16.798,21.484 -37.211,21.484c-20.414,0 -37.212,-9.698 -37.212,-21.484" style="fill:none;fill-rule:nonzero;stroke:#1984ef;stroke-width:0.78px;"/><path d="M437.37,113.885c-0,11.786 -16.798,21.484 -37.211,21.484c-20.414,0 -37.212,-9.698 -37.212,-21.484" style="fill:none;fill-rule:nonzero;stroke:#1984ef;stroke-width:0.78px;"/><path d="M437.37,99.089c-0,11.786 -16.798,21.484 -37.211,21.484c-20.414,0 -37.212,-9.698 -37.212,-21.484" style="fill:none;fill-rule:nonzero;stroke:#1984ef;stroke-width:0.78px;"/><path d="M437.37,84.293c-0,11.786 -16.798,21.484 -37.211,21.484c-20.414,0 -37.212,-9.698 -37.212,-21.484" style="fill:none;fill-rule:nonzero;stroke:#1984ef;stroke-width:0.78px;"/><path d="M437.37,69.498c-0,11.785 -16.798,21.483 -37.211,21.483c-20.414,0 -37.212,-9.698 -37.212,-21.483" style="fill:none;fill-rule:nonzero;stroke:#1984ef;stroke-width:0.78px;"/></g></g><g id="SilhouetteLine-Visible1" serif:id="SilhouetteLine-Visible"><g id="Solid.001--SilhouetteLine-Visible-1" serif:id="Solid.001 (SilhouetteLine-Visible)"><circle cx="301.571" cy="100.967" r="46.048" style="fill:none;stroke:#1984ef;stroke-width:0.78px;stroke-linecap:butt;"/></g><g id="Face-sheet.001--SilhouetteLine-Visible-1" serif:id="Face sheet.001 (SilhouetteLine-Visible)"><path d="M437.37,142.262l-0,-87.56" style="fill:none;fill-rule:nonzero;stroke:#1984ef;stroke-width:0.78px;"/><path d="M362.947,54.702l0,87.56" style="fill:none;fill-rule:nonzero;stroke:#1984ef;stroke-width:0.78px;"/></g></g></g><g><g id="Edge-Visible-NotSmooth2" serif:id="Edge-Visible-NotSmooth"><g id="Face-sheet.001--Edge-Visible-NotSmooth-2" serif:id="Face sheet.001 (Edge-Visible-NotSmooth)"><path d="M594.968,54.702c-0,11.785 16.798,21.483 37.211,21.483c20.414,0 37.211,-9.698 37.211,-21.483" style="fill:none;fill-rule:nonzero;stroke:#1984ef;stroke-width:0.78px;"/></g></g><g id="Edge-Visible-NotSmooth-Silhouette2" serif:id="Edge-Visible-NotSmooth-Silhouette"><g id="Face-sheet.001--Edge-Visible-NotSmooth-Silhouette-2" serif:id="Face sheet.001 (Edge-Visible-NotSmooth-Silhouette)"><path d="M594.968,142.262c-0,11.785 16.798,21.483 37.211,21.483c20.414,0 37.211,-9.698 37.211,-21.483l0,-0" style="fill:none;fill-rule:nonzero;stroke:#1984ef;stroke-width:0.78px;"/><path d="M669.39,54.702c0,-5.696 -3.923,-11.164 -10.899,-15.192" style="fill:none;fill-rule:nonzero;stroke:#1984ef;stroke-width:0.78px;"/><path d="M658.491,39.51c-6.975,-4.027 -16.447,-6.292 -26.312,-6.292c-20.413,-0 -37.211,9.698 -37.211,21.484c-0,-0 -0,-0 -0,-0" style="fill:none;fill-rule:nonzero;stroke:#1984ef;stroke-width:0.78px;"/></g></g><g id="RadialHatchLine-Visible2" serif:id="RadialHatchLine-Visible"><g id="Solid.001--RadialHatchLine-Visible-2" serif:id="Solid.001 (RadialHatchLine-Visible)"><path d="M516.38,58.257c-3.613,1.456 -6.628,3.353 -8.831,5.556" style="fill:none;fill-rule:nonzero;stroke:#1984ef;stroke-width:0.78px;"/><path d="M499.854,69.628c-2.984,3.212 -4.546,6.801 -4.546,10.446c-0,12.126 17.281,22.103 38.283,22.103c21.002,0 38.283,-9.977 38.283,-22.103c0,-3.645 -1.561,-7.234 -4.545,-10.446" style="fill:none;fill-rule:nonzero;stroke:#1984ef;stroke-width:0.78px;"/><path d="M491.08,83.27c-0.804,1.932 -1.211,3.912 -1.211,5.899c0,13.848 19.737,25.243 43.722,25.243c23.985,-0 43.722,-11.395 43.722,-25.243c-0,-1.987 -0.407,-3.967 -1.211,-5.899" style="fill:none;fill-rule:nonzero;stroke:#1984ef;stroke-width:0.78px;"/><path d="M487.627,98.194c-0.019,0.308 -0.028,0.616 -0.028,0.924c0,14.567 20.762,26.554 45.992,26.554c25.231,-0 45.992,-11.987 45.992,-26.554c0,-0.308 -0.009,-0.616 -0.028,-0.924" style="fill:none;fill-rule:nonzero;stroke:#1984ef;stroke-width:0.78px;"/><path d="M489.231,113.319c3.486,12.522 22.393,21.823 44.36,21.823c21.967,-0 40.874,-9.301 44.36,-21.823" style="fill:none;fill-rule:nonzero;stroke:#1984ef;stroke-width:0.78px;"/><path d="M495.99,127.549c6.224,8.803 21.132,14.587 37.601,14.587c16.469,-0 31.378,-5.784 37.601,-14.587" style="fill:none;fill-rule:nonzero;stroke:#1984ef;stroke-width:0.78px;"/><path d="M508.927,139.853c6.317,4.007 15.279,6.294 24.664,6.294c9.385,-0 18.347,-2.287 24.664,-6.294" style="fill:none;fill-rule:nonzero;stroke:#1984ef;stroke-width:0.78px;"/><path d="M507.549,63.813c-2.639,2.639 -4.029,5.633 -4.029,8.681c0,9.524 13.575,17.361 30.071,17.361c16.497,0 30.071,-7.837 30.071,-17.361c0,-5.669 -4.809,-10.993 -12.86,-14.237" style="fill:none;fill-rule:nonzero;stroke:#1984ef;stroke-width:0.78px;"/><ellipse cx="533.591" cy="66.976" rx="19.68" ry="11.362" style="fill:none;stroke:#1984ef;stroke-width:0.78px;stroke-linecap:butt;"/><ellipse cx="533.591" cy="63.922" rx="7.863" ry="4.54" style="fill:none;stroke:#1984ef;stroke-width:0.78px;stroke-linecap:butt;"/></g><g id="Face-sheet.001--RadialHatchLine-Visible-2" serif:id="Face sheet.001 (RadialHatchLine-Visible)"></g></g><g id="SilhouetteLine-Visible2" serif:id="SilhouetteLine-Visible"><g id="Solid.001--SilhouetteLine-Visible-2" serif:id="Solid.001 (SilhouetteLine-Visible)"><circle cx="533.591" cy="100.967" r="46.048" style="fill:none;stroke:#1984ef;stroke-width:0.78px;stroke-linecap:butt;"/></g><g id="Face-sheet.001--SilhouetteLine-Visible-2" serif:id="Face sheet.001 (SilhouetteLine-Visible)"><path d="M669.39,142.262l0,-87.56" style="fill:none;fill-rule:nonzero;stroke:#1984ef;stroke-width:0.78px;"/><path d="M594.968,54.702l-0,87.56" style="fill:none;fill-rule:nonzero;stroke:#1984ef;stroke-width:0.78px;"/></g></g></g></g></svg>