<?xml version="1.0" encoding="UTF-8" standalone="no"?><!DOCTYPE svg PUBLIC "-//W3C//DTD SVG 1.1//EN" "http://www.w3.org/Graphics/SVG/1.1/DTD/svg11.dtd"><svg width="100%" height="100%" viewBox="0 0 461 264" version="1.1" xmlns="http://www.w3.org/2000/svg" xmlns:xlink="http://www.w3.org/1999/xlink" xml:space="preserve" xmlns:serif="http://www.serif.com/" style="fill-rule:evenodd;clip-rule:evenodd;stroke-linecap:round;"><g id="Section-Hatching:-Spacing" serif:id="Section Hatching: Spacing"><g><g id="ClipLine-Visible"><g id="Solid.001--ClipLine-Visible-" serif:id="Solid.001 (ClipLine-Visible)"><path d="M288.988,147.712c-15.662,-9.043 -24.47,-21.32 -24.47,-34.108" style="fill:none;fill-rule:nonzero;stroke:#1984ef;stroke-width:0.69px;"/><path d="M264.518,113.604c0,-26.461 37.714,-48.235 83.547,-48.235c45.832,-0 83.546,21.774 83.546,48.235" style="fill:none;fill-rule:nonzero;stroke:#1984ef;stroke-width:0.69px;"/><path d="M431.611,113.604l-0,0c-0,26.461 -37.714,48.236 -83.546,48.236c-22.15,-0 -43.415,-5.086 -59.077,-14.128" style="fill:none;fill-rule:nonzero;stroke:#1984ef;stroke-width:0.69px;"/></g></g><g id="Edge-Visible-NotSmooth"><g id="Object2--Edge-Visible-NotSmooth-" serif:id="Object2 (Edge-Visible-NotSmooth)"><path d="M431.611,113.604c-0,1.227 -0.081,2.454 -0.243,3.677" style="fill:none;fill-rule:nonzero;stroke:#1984ef;stroke-width:0.69px;"/><path d="M431.368,117.281c-1.061,8.008 -5.568,15.737 -13.113,22.485" style="fill:none;fill-rule:nonzero;stroke:#1984ef;stroke-width:0.69px;"/><path d="M418.255,139.766c-6.432,5.752 -14.913,10.649 -24.878,14.363" style="fill:none;fill-rule:nonzero;stroke:#1984ef;stroke-width:0.69px;"/><path d="M393.377,154.129c-11.686,4.356 -25.074,6.958 -38.944,7.57" style="fill:none;fill-rule:nonzero;stroke:#1984ef;stroke-width:0.69px;"/><path d="M354.433,161.699c-8.091,0.357 -16.229,0.032 -24.158,-0.966" style="fill:none;fill-rule:nonzero;stroke:#1984ef;stroke-width:0.69px;"/><path d="M330.275,160.733c-6.629,-0.834 -13.057,-2.131 -19.142,-3.862" style="fill:none;fill-rule:nonzero;stroke:#1984ef;stroke-width:0.69px;"/><path d="M311.133,156.871c-5.608,-1.596 -10.888,-3.55 -15.741,-5.826" style="fill:none;fill-rule:nonzero;stroke:#1984ef;stroke-width:0.69px;"/><path d="M295.392,151.045c-4.741,-2.222 -9.045,-4.739 -12.835,-7.503" style="fill:none;fill-rule:nonzero;stroke:#1984ef;stroke-width:0.69px;"/><path d="M282.557,143.542c-3.892,-2.839 -7.218,-5.922 -9.915,-9.19" style="fill:none;fill-rule:nonzero;stroke:#1984ef;stroke-width:0.69px;"/><path d="M272.642,134.352c-2.938,-3.56 -5.109,-7.316 -6.464,-11.181" style="fill:none;fill-rule:nonzero;stroke:#1984ef;stroke-width:0.69px;"/><path d="M266.178,123.171c-1.104,-3.149 -1.66,-6.354 -1.66,-9.567" style="fill:none;fill-rule:nonzero;stroke:#1984ef;stroke-width:0.69px;"/></g></g><g id="Edge-Visible-NotSmooth-Silhouette"><g id="Object2--Edge-Visible-NotSmooth-Silhouette-" serif:id="Object2 (Edge-Visible-NotSmooth-Silhouette)"><path d="M407.141,79.497c2.033,1.174 3.961,2.408 5.774,3.696" style="fill:none;fill-rule:nonzero;stroke:#1984ef;stroke-width:0.69px;"/><path d="M412.915,83.193c3.942,2.802 7.326,5.851 10.09,9.089" style="fill:none;fill-rule:nonzero;stroke:#1984ef;stroke-width:0.69px;"/><path d="M423.005,92.282c2.999,3.513 5.245,7.224 6.69,11.051" style="fill:none;fill-rule:nonzero;stroke:#1984ef;stroke-width:0.69px;"/><path d="M429.695,103.333c1.274,3.374 1.916,6.818 1.916,10.271" style="fill:none;fill-rule:nonzero;stroke:#1984ef;stroke-width:0.69px;"/><path d="M264.518,113.604c0,-1.539 0.128,-3.078 0.383,-4.61" style="fill:none;fill-rule:nonzero;stroke:#1984ef;stroke-width:0.69px;"/><path d="M264.901,108.994c1.469,-8.837 7.136,-17.271 16.374,-24.368" style="fill:none;fill-rule:nonzero;stroke:#1984ef;stroke-width:0.69px;"/><path d="M281.275,84.626c4.724,-3.629 10.312,-6.855 16.599,-9.583" style="fill:none;fill-rule:nonzero;stroke:#1984ef;stroke-width:0.69px;"/><path d="M297.874,75.043c12.292,-5.333 26.899,-8.605 42.205,-9.453" style="fill:none;fill-rule:nonzero;stroke:#1984ef;stroke-width:0.69px;"/><path d="M340.079,65.59c8.203,-0.455 16.478,-0.207 24.555,0.737" style="fill:none;fill-rule:nonzero;stroke:#1984ef;stroke-width:0.69px;"/><path d="M364.634,66.327c6.696,0.782 13.2,2.036 19.367,3.732" style="fill:none;fill-rule:nonzero;stroke:#1984ef;stroke-width:0.69px;"/><path d="M384.001,70.059c5.661,1.557 11,3.477 15.917,5.724" style="fill:none;fill-rule:nonzero;stroke:#1984ef;stroke-width:0.69px;"/><path d="M399.918,75.783c2.53,1.157 4.941,2.396 7.223,3.714" style="fill:none;fill-rule:nonzero;stroke:#1984ef;stroke-width:0.69px;"/></g></g><g id="PlanarHatchLine-Visible"><g id="Object2--PlanarHatchLine-Visible-" serif:id="Object2 (PlanarHatchLine-Visible)"><path d="M393.377,154.129l24.878,-14.363" style="fill:none;fill-rule:nonzero;stroke:#1984ef;stroke-width:0.69px;"/><path d="M354.433,161.699l76.935,-44.418" style="fill:none;fill-rule:nonzero;stroke:#1984ef;stroke-width:0.69px;"/><path d="M330.275,160.733l99.42,-57.4" style="fill:none;fill-rule:nonzero;stroke:#1984ef;stroke-width:0.69px;"/><path d="M311.133,156.871l111.872,-64.589" style="fill:none;fill-rule:nonzero;stroke:#1984ef;stroke-width:0.69px;"/><path d="M295.392,151.045l117.523,-67.852" style="fill:none;fill-rule:nonzero;stroke:#1984ef;stroke-width:0.69px;"/><path d="M282.557,143.542l117.361,-67.759" style="fill:none;fill-rule:nonzero;stroke:#1984ef;stroke-width:0.69px;"/><path d="M272.642,134.352l111.359,-64.293" style="fill:none;fill-rule:nonzero;stroke:#1984ef;stroke-width:0.69px;"/><path d="M266.178,123.171l98.456,-56.844" style="fill:none;fill-rule:nonzero;stroke:#1984ef;stroke-width:0.69px;"/><path d="M264.901,108.994l75.178,-43.404" style="fill:none;fill-rule:nonzero;stroke:#1984ef;stroke-width:0.69px;"/><path d="M281.275,84.626l16.599,-9.583" style="fill:none;fill-rule:nonzero;stroke:#1984ef;stroke-width:0.69px;"/></g></g><g id="SilhouetteLine-Visible"><g id="Solid.001--SilhouetteLine-Visible-" serif:id="Solid.001 (SilhouetteLine-Visible)"><path d="M264.518,113.604c0,45.832 37.714,83.547 83.547,83.547c45.832,-0 83.546,-37.715 83.546,-83.547l-0,0" style="fill:none;fill-rule:nonzero;stroke:#1984ef;stroke-width:0.69px;"/></g></g></g><path d="M114.454,30.058c46.111,-0 83.547,37.436 83.547,83.546c-0,46.111 -37.436,83.547 -83.547,83.547c-46.11,-0 -83.546,-37.436 -83.546,-83.547c-0,-46.11 37.436,-83.546 83.546,-83.546Zm0,0.807c-45.665,-0 -82.739,37.074 -82.739,82.739c-0,45.665 37.074,82.74 82.739,82.74c45.665,-0 82.74,-37.075 82.74,-82.74c-0,-45.665 -37.075,-82.739 -82.74,-82.739Z" style="fill:#1984ef;"/><g id="Text"><g transform="matrix(0.95,0,0,1,-145.686,0)"><g transform="matrix(12.2222,0,0,12.2222,345.644,245.393)"></g><text x="202.127px" y="245.393px" style="font-family:'Roboto-Regular', 'Roboto';font-size:12.222px;fill:#dcdcdc;">S<tspan x="209.836px 217.235px 225.46px 233.205px 236.981px 245.843px 254.788px 258.046px 266.471px 275.755px 284.181px 289.714px 297.407px 305.116px 308.892px 316.375px 319.335px 322.593px 331.454px 338.662px " y="245.393px 245.393px 245.393px 245.393px 245.393px 245.393px 245.393px 245.393px 245.393px 245.393px 245.393px 245.393px 245.393px 245.393px 245.393px 245.393px 245.393px 245.393px 245.393px 245.393px ">ECTION ANALYSIS: OFF</tspan></text></g><g transform="matrix(0.95,0,0,1,-133.984,0)"><g transform="matrix(12.2222,0,0,12.2222,576.94,245.393)"></g><text x="438.667px" y="245.393px" style="font-family:'Roboto-Regular', 'Roboto';font-size:12.222px;fill:#dcdcdc;">S<tspan x="446.376px 453.775px 462.001px 469.746px 473.522px 482.383px 491.328px 494.586px 503.012px 512.296px 520.722px 526.255px 533.947px 541.657px 545.433px 552.916px 555.876px 559.134px 567.995px " y="245.393px 245.393px 245.393px 245.393px 245.393px 245.393px 245.393px 245.393px 245.393px 245.393px 245.393px 245.393px 245.393px 245.393px 245.393px 245.393px 245.393px 245.393px 245.393px ">ECTION ANALYSIS: ON</tspan></text></g></g></g></svg>