<?xml version="1.0" encoding="UTF-8" standalone="no"?><!DOCTYPE svg PUBLIC "-//W3C//DTD SVG 1.1//EN" "http://www.w3.org/Graphics/SVG/1.1/DTD/svg11.dtd"><svg width="100%" height="100%" viewBox="0 0 436 327" version="1.1" xmlns="http://www.w3.org/2000/svg" xmlns:xlink="http://www.w3.org/1999/xlink" xml:space="preserve" xmlns:serif="http://www.serif.com/" style="fill-rule:evenodd;clip-rule:evenodd;"><rect x="0.58" y="0.386" width="434.839" height="326.129" style="fill:#111114;"/><g><path d="M370.194,41.696l-0,243.51c-0,4.8 -3.897,8.696 -8.697,8.696l-286.994,0c-4.8,0 -8.697,-3.896 -8.697,-8.696l0,-243.51c0,-4.8 3.897,-8.697 8.697,-8.697l286.994,-0c4.8,-0 8.697,3.897 8.697,8.697Z" style="fill:#1a1a1f;stroke:#2a2a30;stroke-width:1.09px;"/><g><text x="83.2px" y="56.915px" style="font-family:'Arial-BoldMT', 'Arial', sans-serif;font-weight:700;font-size:11.958px;fill:#a4a39d;">Utilities:</text></g><g><g><path d="M352.8,78.657l0,17.394c0,3.599 -2.922,6.522 -6.522,6.522l-256.556,0c-3.6,0 -6.522,-2.923 -6.522,-6.522l-0,-17.394c-0,-3.6 2.922,-6.523 6.522,-6.523l256.556,0c3.6,0 6.522,2.923 6.522,6.523Z" style="fill:url(#_Linear1);stroke:#3a3a42;stroke-width:0.54px;"/><text x="172.138px" y="91.702px" style="font-family:'ArialMT', 'Arial', sans-serif;font-size:11.958px;fill:#e0e0db;">Auto Mark Edges</text></g><g><path d="M352.8,115.618l0,17.394c0,3.6 -2.922,6.522 -6.522,6.522l-256.556,0c-3.6,0 -6.522,-2.922 -6.522,-6.522l-0,-17.394c-0,-3.6 2.922,-6.522 6.522,-6.522l256.556,-0c3.6,-0 6.522,2.922 6.522,6.522Z" style="fill:url(#_Linear2);stroke:#3a3a42;stroke-width:0.54px;"/><text x="170.816px" y="128.663px" style="font-family:'ArialMT', 'Arial', sans-serif;font-size:11.958px;fill:#e0e0db;">Merge UV Seams</text></g><g><path d="M352.8,152.58l0,17.393c0,3.6 -2.922,6.523 -6.522,6.523l-256.556,-0c-3.6,-0 -6.522,-2.923 -6.522,-6.523l-0,-17.393c-0,-3.6 2.922,-6.523 6.522,-6.523l256.556,0c3.6,0 6.522,2.923 6.522,6.523Z" style="fill:url(#_Linear3);stroke:#3a3a42;stroke-width:0.54px;"/><text x="154.207px" y="165.625px" style="font-family:'ArialMT', 'Arial', sans-serif;font-size:11.958px;fill:#e0e0db;">Select Plasticity Face(s)</text></g><g><path d="M352.8,189.541l0,17.394c0,3.599 -2.922,6.522 -6.522,6.522l-256.556,0c-3.6,0 -6.522,-2.923 -6.522,-6.522l-0,-17.394c-0,-3.6 2.922,-6.523 6.522,-6.523l256.556,0c3.6,0 6.522,2.923 6.522,6.523Z" style="fill:url(#_Linear4);stroke:#ff7a45;stroke-width:1.3px;"/><text x="157.518px" y="202.586px" style="font-family:'ArialMT', 'Arial', sans-serif;font-size:11.958px;fill:#fff;">Select Plasticity Edges</text></g><g><path d="M352.8,226.502l0,17.394c0,3.6 -2.922,6.522 -6.522,6.522l-256.556,0c-3.6,0 -6.522,-2.922 -6.522,-6.522l-0,-17.394c-0,-3.6 2.922,-6.522 6.522,-6.522l256.556,-0c3.6,-0 6.522,2.922 6.522,6.522Z" style="fill:url(#_Linear5);stroke:#3a3a42;stroke-width:0.54px;"/><text x="161.179px" y="239.548px" style="font-family:'ArialMT', 'Arial', sans-serif;font-size:11.958px;fill:#e0e0db;">Paint Plasticity Faces</text></g></g><g><rect x="370.194" y="50.392" width="15.219" height="86.968" style="fill:#16161a;stroke:#2a2a30;stroke-width:0.54px;"/><g transform="matrix(-3.82857e-16,1,-1,-3.82857e-16,442.088,-306.516)"><text x="374.302px" y="67.786px" style="font-family:'ArialMT', 'Arial', sans-serif;font-size:9.784px;fill:#5a5955;">PL<tspan x="386.464px 393.088px 399.712px 405.786px 408.602px 415.765px 418.582px " y="67.786px 67.786px 67.786px 67.786px 67.786px 67.786px 67.786px ">ASTICIT</tspan>Y</text></g></g></g><defs><linearGradient id="_Linear1" x1="0" y1="0" x2="1" y2="0" gradientUnits="userSpaceOnUse" gradientTransform="matrix(1.86384e-15,30.4388,-30.4388,1.86384e-15,83.1998,72.1344)"><stop offset="0" style="stop-color:#3a3a40;stop-opacity:1"/><stop offset="1" style="stop-color:#2a2a30;stop-opacity:1"/></linearGradient><linearGradient id="_Linear2" x1="0" y1="0" x2="1" y2="0" gradientUnits="userSpaceOnUse" gradientTransform="matrix(1.86384e-15,30.4388,-30.4388,1.86384e-15,83.1998,109.096)"><stop offset="0" style="stop-color:#3a3a40;stop-opacity:1"/><stop offset="1" style="stop-color:#2a2a30;stop-opacity:1"/></linearGradient><linearGradient id="_Linear3" x1="0" y1="0" x2="1" y2="0" gradientUnits="userSpaceOnUse" gradientTransform="matrix(1.86384e-15,30.4388,-30.4388,1.86384e-15,83.1998,146.057)"><stop offset="0" style="stop-color:#3a3a40;stop-opacity:1"/><stop offset="1" style="stop-color:#2a2a30;stop-opacity:1"/></linearGradient><linearGradient id="_Linear4" x1="0" y1="0" x2="1" y2="0" gradientUnits="userSpaceOnUse" gradientTransform="matrix(1.86384e-15,30.4388,-30.4388,1.86384e-15,83.1998,183.018)"><stop offset="0" style="stop-color:#4a3530;stop-opacity:1"/><stop offset="1" style="stop-color:#382520;stop-opacity:1"/></linearGradient><linearGradient id="_Linear5" x1="0" y1="0" x2="1" y2="0" gradientUnits="userSpaceOnUse" gradientTransform="matrix(1.86384e-15,30.4388,-30.4388,1.86384e-15,83.1998,219.98)"><stop offset="0" style="stop-color:#3a3a40;stop-opacity:1"/><stop offset="1" style="stop-color:#2a2a30;stop-opacity:1"/></linearGradient></defs></svg>