<?xml version="1.0" encoding="UTF-8" standalone="no"?><!DOCTYPE svg PUBLIC "-//W3C//DTD SVG 1.1//EN" "http://www.w3.org/Graphics/SVG/1.1/DTD/svg11.dtd"><svg width="100%" height="100%" viewBox="0 0 710 221" version="1.1" xmlns="http://www.w3.org/2000/svg" xmlns:xlink="http://www.w3.org/1999/xlink" xml:space="preserve" xmlns:serif="http://www.serif.com/" style="fill-rule:evenodd;clip-rule:evenodd;stroke-linecap:round;"><g id="Style:-Visible-Strokes" serif:id="Style: Visible Strokes"><g><path d="M111.591,127.216l-0,37.311" style="fill:none;fill-rule:nonzero;stroke:#1984ef;stroke-width:1.02px;"/><path d="M18.356,73.383l93.235,53.833" style="fill:none;fill-rule:nonzero;stroke:#1984ef;stroke-width:1.02px;"/><path d="M111.591,127.216l93.234,-53.833" style="fill:none;fill-rule:nonzero;stroke:#1984ef;stroke-width:1.02px;"/><path d="M111.591,100.3l-27.971,-16.15" style="fill:none;fill-rule:nonzero;stroke:#1984ef;stroke-width:1.02px;"/><path d="M83.62,84.15l-18.646,-10.767" style="fill:none;fill-rule:nonzero;stroke:#1984ef;stroke-width:1.02px;"/><path d="M158.208,73.383l-18.647,10.767" style="fill:none;fill-rule:nonzero;stroke:#1984ef;stroke-width:1.02px;"/><path d="M139.561,84.15l-27.97,16.15" style="fill:none;fill-rule:nonzero;stroke:#1984ef;stroke-width:1.02px;"/><path d="M111.591,46.467l46.617,26.916" style="fill:none;fill-rule:nonzero;stroke:#1984ef;stroke-width:1.02px;"/><path d="M64.974,73.383l46.617,-26.916" style="fill:none;fill-rule:nonzero;stroke:#1984ef;stroke-width:1.02px;"/><path d="M83.62,84.15l27.971,-16.15" style="fill:none;fill-rule:nonzero;stroke:#1984ef;stroke-width:1.02px;"/><path d="M111.591,68l27.97,16.15" style="fill:none;fill-rule:nonzero;stroke:#1984ef;stroke-width:1.02px;"/><path d="M111.591,68l-0,-21.533" style="fill:none;fill-rule:nonzero;stroke:#1984ef;stroke-width:1.02px;"/><path d="M18.356,110.694l93.235,53.833" style="fill:none;fill-rule:nonzero;stroke:#1984ef;stroke-width:1.02px;"/><path d="M18.356,73.383l0,37.311" style="fill:none;fill-rule:nonzero;stroke:#1984ef;stroke-width:1.02px;"/><path d="M204.825,73.383l-0,37.311" style="fill:none;fill-rule:nonzero;stroke:#1984ef;stroke-width:1.02px;"/><path d="M204.825,110.694l-93.234,53.833" style="fill:none;fill-rule:nonzero;stroke:#1984ef;stroke-width:1.02px;"/><path d="M111.591,19.55l93.234,53.833" style="fill:none;fill-rule:nonzero;stroke:#1984ef;stroke-width:1.02px;"/><path d="M18.356,73.383l93.235,-53.833" style="fill:none;fill-rule:nonzero;stroke:#1984ef;stroke-width:1.02px;"/></g><g><path d="M355.367,127.216l-0,37.311" style="fill:none;fill-rule:nonzero;stroke:#1984ef;stroke-width:4px;"/><path d="M262.132,73.383l93.235,53.833" style="fill:none;fill-rule:nonzero;stroke:#1984ef;stroke-width:4px;"/><path d="M355.367,127.216l93.234,-53.833" style="fill:none;fill-rule:nonzero;stroke:#1984ef;stroke-width:4px;"/><path d="M355.367,100.3l-27.971,-16.15" style="fill:none;fill-rule:nonzero;stroke:#1984ef;stroke-width:4px;"/><path d="M327.396,84.15l-18.646,-10.767" style="fill:none;fill-rule:nonzero;stroke:#1984ef;stroke-width:4px;"/><path d="M401.984,73.383l-18.647,10.767" style="fill:none;fill-rule:nonzero;stroke:#1984ef;stroke-width:4px;"/><path d="M383.337,84.15l-27.97,16.15" style="fill:none;fill-rule:nonzero;stroke:#1984ef;stroke-width:4px;"/><path d="M355.367,46.467l46.617,26.916" style="fill:none;fill-rule:nonzero;stroke:#1984ef;stroke-width:4px;"/><path d="M308.75,73.383l46.617,-26.916" style="fill:none;fill-rule:nonzero;stroke:#1984ef;stroke-width:4px;"/><path d="M327.396,84.15l27.971,-16.15" style="fill:none;fill-rule:nonzero;stroke:#1984ef;stroke-width:4px;"/><path d="M355.367,68l27.97,16.15" style="fill:none;fill-rule:nonzero;stroke:#1984ef;stroke-width:4px;"/><path d="M355.367,68l-0,-21.533" style="fill:none;fill-rule:nonzero;stroke:#1984ef;stroke-width:4px;"/><path d="M262.132,110.694l93.235,53.833" style="fill:none;fill-rule:nonzero;stroke:#1984ef;stroke-width:1.02px;"/><path d="M262.132,73.383l0,37.311" style="fill:none;fill-rule:nonzero;stroke:#1984ef;stroke-width:1.02px;"/><path d="M448.601,73.383l-0,37.311" style="fill:none;fill-rule:nonzero;stroke:#1984ef;stroke-width:1.02px;"/><path d="M448.601,110.694l-93.234,53.833" style="fill:none;fill-rule:nonzero;stroke:#1984ef;stroke-width:1.02px;"/><path d="M355.367,19.55l93.234,53.833" style="fill:none;fill-rule:nonzero;stroke:#1984ef;stroke-width:1.02px;"/><path d="M262.132,73.383l93.235,-53.833" style="fill:none;fill-rule:nonzero;stroke:#1984ef;stroke-width:1.02px;"/></g><g><path d="M599.143,127.216l-0,37.311" style="fill:none;fill-rule:nonzero;"/><path d="M505.909,73.383l93.234,53.833" style="fill:none;fill-rule:nonzero;"/><path d="M599.143,127.216l93.234,-53.833" style="fill:none;fill-rule:nonzero;"/><path d="M599.143,100.3l-27.971,-16.15" style="fill:none;fill-rule:nonzero;"/><path d="M571.172,84.15l-18.646,-10.767" style="fill:none;fill-rule:nonzero;"/><path d="M645.76,73.383l-18.647,10.767" style="fill:none;fill-rule:nonzero;"/><path d="M627.113,84.15l-27.97,16.15" style="fill:none;fill-rule:nonzero;"/><path d="M599.143,46.467l46.617,26.916" style="fill:none;fill-rule:nonzero;"/><path d="M552.526,73.383l46.617,-26.916" style="fill:none;fill-rule:nonzero;"/><path d="M571.172,84.15l27.971,-16.15" style="fill:none;fill-rule:nonzero;"/><path d="M599.143,68l27.97,16.15" style="fill:none;fill-rule:nonzero;"/><path d="M599.143,68l-0,-21.533" style="fill:none;fill-rule:nonzero;"/><path d="M505.909,110.694l93.234,53.833" style="fill:none;fill-rule:nonzero;stroke:#1984ef;stroke-width:1.02px;"/><path d="M505.909,73.383l-0,37.311" style="fill:none;fill-rule:nonzero;stroke:#1984ef;stroke-width:1.02px;"/><path d="M692.377,73.383l-0,37.311" style="fill:none;fill-rule:nonzero;stroke:#1984ef;stroke-width:1.02px;"/><path d="M692.377,110.694l-93.234,53.833" style="fill:none;fill-rule:nonzero;stroke:#1984ef;stroke-width:1.02px;"/><path d="M599.143,19.55l93.234,53.833" style="fill:none;fill-rule:nonzero;stroke:#1984ef;stroke-width:1.02px;"/><path d="M505.909,73.383l93.234,-53.833" style="fill:none;fill-rule:nonzero;stroke:#1984ef;stroke-width:1.02px;"/></g><g id="Text"><g transform="matrix(0.95,0,0,1,-145.585,0)"><g transform="matrix(12.2222,0,0,12.2222,305.021,201.384)"></g><text x="242.729px" y="201.384px" style="font-family:'Roboto-Regular', 'Roboto';font-size:12.222px;fill:#dcdcdc;">VA<tspan x="258.917px 265.613px 273.991px 281.163px 284.124px 287.381px 294.477px 297.925px " y="201.384px 201.384px 201.384px 201.384px 201.384px 201.384px 201.384px 201.384px ">LUE: 1.0</tspan></text></g><g transform="matrix(0.95,0,0,1,-133.461,0)"><g transform="matrix(12.2222,0,0,12.2222,547.509,201.384)"></g><text x="485.217px" y="201.384px" style="font-family:'Roboto-Regular', 'Roboto';font-size:12.222px;fill:#dcdcdc;">VA<tspan x="501.406px 508.102px 516.479px 523.652px 526.612px 529.87px 536.965px 540.414px " y="201.384px 201.384px 201.384px 201.384px 201.384px 201.384px 201.384px 201.384px ">LUE: 5.0</tspan></text></g><g transform="matrix(0.95,0,0,1,-121.336,0)"><g transform="matrix(12.2222,0,0,12.2222,789.998,201.384)"></g><text x="727.706px" y="201.384px" style="font-family:'Roboto-Regular', 'Roboto';font-size:12.222px;fill:#dcdcdc;">VA<tspan x="743.895px 750.59px 758.968px 766.141px 769.101px 772.359px 779.454px 782.903px " y="201.384px 201.384px 201.384px 201.384px 201.384px 201.384px 201.384px 201.384px ">LUE: 0.0</tspan></text></g></g></g></svg>