<?xml version="1.0" encoding="UTF-8" standalone="no"?><!DOCTYPE svg PUBLIC "-//W3C//DTD SVG 1.1//EN" "http://www.w3.org/Graphics/SVG/1.1/DTD/svg11.dtd"><svg width="100%" height="100%" viewBox="0 0 710 264" version="1.1" xmlns="http://www.w3.org/2000/svg" xmlns:xlink="http://www.w3.org/1999/xlink" xml:space="preserve" xmlns:serif="http://www.serif.com/" style="fill-rule:evenodd;clip-rule:evenodd;stroke-linecap:round;"><g id="Style:-Silhouette" serif:id="Style: Silhouette"><g><path d="M194.338,127.501l-85.177,49.18" style="fill:none;fill-rule:nonzero;stroke:#1984ef;stroke-width:1.34px;"/><path d="M109.161,176.681l-85.177,-49.18" style="fill:none;fill-rule:nonzero;stroke:#1984ef;stroke-width:1.34px;"/><path d="M109.161,210.767l-0,-34.086" style="fill:none;fill-rule:nonzero;stroke:#1984ef;stroke-width:1.34px;"/><path d="M56.387,108.792l-32.403,18.709" style="fill:none;fill-rule:nonzero;stroke:#1984ef;stroke-width:1.34px;"/><path d="M194.338,127.501l-32.403,-18.709" style="fill:none;fill-rule:nonzero;stroke:#1984ef;stroke-width:1.34px;"/><path d="M194.338,161.587l-0,-34.086" style="fill:none;fill-rule:nonzero;stroke:#1984ef;stroke-width:1.34px;"/><path d="M109.161,210.767l85.177,-49.18" style="fill:none;fill-rule:nonzero;stroke:#1984ef;stroke-width:1.34px;"/><path d="M23.984,161.587l0,-34.086" style="fill:none;fill-rule:nonzero;stroke:#1984ef;stroke-width:1.34px;"/><path d="M109.161,210.767l-85.177,-49.18" style="fill:none;fill-rule:nonzero;stroke:#1984ef;stroke-width:1.34px;"/><path d="M139.275,131.928c9.523,-5.499 17.361,-13.501 22.66,-23.136" style="fill:none;fill-rule:nonzero;stroke:#1984ef;stroke-width:1.34px;"/><path d="M161.935,108.792c4.89,-8.893 7.455,-18.879 7.455,-29.028c-0,-33.043 -27.188,-60.234 -60.229,-60.234c-33.041,0 -60.229,27.191 -60.229,60.234c0,10.149 2.565,20.135 7.455,29.028" style="fill:none;fill-rule:nonzero;stroke:#1984ef;stroke-width:1.34px;"/><path d="M56.387,108.792c9.741,17.711 27.77,29.379 47.916,31.009" style="fill:none;fill-rule:nonzero;stroke:#1984ef;stroke-width:1.34px;"/><path d="M104.303,139.801c3.234,0.262 6.482,0.262 9.716,0" style="fill:none;fill-rule:nonzero;stroke:#1984ef;stroke-width:1.34px;"/><path d="M114.019,139.801c8.898,-0.72 17.525,-3.409 25.256,-7.873" style="fill:none;fill-rule:nonzero;stroke:#1984ef;stroke-width:1.34px;"/></g><g><path d="M435.043,127.501l-85.176,49.18" style="fill:none;fill-rule:nonzero;stroke:#1984ef;stroke-width:1.34px;"/><path d="M349.867,176.681l-85.177,-49.18" style="fill:none;fill-rule:nonzero;stroke:#1984ef;stroke-width:1.34px;"/><path d="M349.867,210.767l-0,-34.086" style="fill:none;fill-rule:nonzero;stroke:#1984ef;stroke-width:1.34px;"/><path d="M297.093,108.792l-32.403,18.709" style="fill:none;fill-rule:nonzero;stroke:#1984ef;stroke-width:3.35px;"/><path d="M435.043,127.501l-32.403,-18.709" style="fill:none;fill-rule:nonzero;stroke:#1984ef;stroke-width:3.35px;"/><path d="M435.043,161.587l0,-34.086" style="fill:none;fill-rule:nonzero;stroke:#1984ef;stroke-width:3.35px;"/><path d="M349.867,210.767l85.176,-49.18" style="fill:none;fill-rule:nonzero;stroke:#1984ef;stroke-width:3.35px;"/><path d="M264.69,161.587l0,-34.086" style="fill:none;fill-rule:nonzero;stroke:#1984ef;stroke-width:3.35px;"/><path d="M349.867,210.767l-85.177,-49.18" style="fill:none;fill-rule:nonzero;stroke:#1984ef;stroke-width:3.35px;"/><path d="M379.981,131.928c9.523,-5.499 17.36,-13.501 22.659,-23.136" style="fill:none;fill-rule:nonzero;stroke:#1984ef;stroke-width:3.35px;"/><path d="M402.64,108.792c4.891,-8.893 7.456,-18.879 7.456,-29.028c-0,-33.043 -27.189,-60.234 -60.229,-60.234c-33.041,0 -60.229,27.191 -60.229,60.234c-0,10.149 2.565,20.135 7.455,29.028" style="fill:none;fill-rule:nonzero;stroke:#1984ef;stroke-width:3.35px;"/><path d="M297.093,108.792c9.741,17.711 27.77,29.379 47.916,31.009" style="fill:none;fill-rule:nonzero;stroke:#1984ef;stroke-width:3.35px;"/><path d="M345.009,139.801c3.233,0.262 6.482,0.262 9.715,0" style="fill:none;fill-rule:nonzero;stroke:#1984ef;stroke-width:3.35px;"/><path d="M354.724,139.801c8.898,-0.72 17.526,-3.409 25.257,-7.873" style="fill:none;fill-rule:nonzero;stroke:#1984ef;stroke-width:3.35px;"/></g><g><path d="M675.749,127.501l-85.177,49.18" style="fill:none;fill-rule:nonzero;stroke:#1984ef;stroke-width:1.34px;"/><path d="M590.572,176.681l-85.176,-49.18" style="fill:none;fill-rule:nonzero;stroke:#1984ef;stroke-width:1.34px;"/><path d="M590.572,210.767l0,-34.086" style="fill:none;fill-rule:nonzero;stroke:#1984ef;stroke-width:1.34px;"/><path d="M537.799,108.792l-32.403,18.709" style="fill:none;fill-rule:nonzero;"/><path d="M675.749,127.501l-32.403,-18.709" style="fill:none;fill-rule:nonzero;"/><path d="M675.749,161.587l-0,-34.086" style="fill:none;fill-rule:nonzero;"/><path d="M590.572,210.767l85.177,-49.18" style="fill:none;fill-rule:nonzero;"/><path d="M505.396,161.587l-0,-34.086" style="fill:none;fill-rule:nonzero;"/><path d="M590.572,210.767l-85.176,-49.18" style="fill:none;fill-rule:nonzero;"/><path d="M620.687,131.928c9.522,-5.499 17.36,-13.501 22.659,-23.136" style="fill:none;fill-rule:nonzero;"/><path d="M643.346,108.792c4.89,-8.893 7.455,-18.879 7.455,-29.028c0,-33.043 -27.188,-60.234 -60.229,-60.234c-33.04,0 -60.229,27.191 -60.229,60.234c0,10.149 2.565,20.135 7.456,29.028" style="fill:none;fill-rule:nonzero;"/><path d="M537.799,108.792c9.74,17.711 27.769,29.379 47.916,31.009" style="fill:none;fill-rule:nonzero;"/><path d="M585.715,139.801c3.233,0.262 6.482,0.262 9.715,0" style="fill:none;fill-rule:nonzero;"/><path d="M595.43,139.801c8.898,-0.72 17.526,-3.409 25.257,-7.873" style="fill:none;fill-rule:nonzero;"/></g><g id="Text"><g transform="matrix(0.95,0,0,1,-145.707,4.54747e-13)"><g transform="matrix(12.2222,0,0,12.2222,302.576,246.663)"></g><text x="240.284px" y="246.663px" style="font-family:'Roboto-Regular', 'Roboto';font-size:12.222px;fill:#dcdcdc;">VA<tspan x="256.473px 263.169px 271.546px 278.719px 281.679px 284.937px 292.032px 295.481px " y="246.663px 246.663px 246.663px 246.663px 246.663px 246.663px 246.663px 246.663px ">LUE: 1.0</tspan></text></g><g transform="matrix(0.95,0,0,1,-133.738,4.54747e-13)"><g transform="matrix(12.2222,0,0,12.2222,541.964,246.663)"></g><text x="479.672px" y="246.663px" style="font-family:'Roboto-Regular', 'Roboto';font-size:12.222px;fill:#dcdcdc;">VA<tspan x="495.86px 502.556px 510.934px 518.106px 521.067px 524.324px 531.42px 534.868px " y="246.663px 246.663px 246.663px 246.663px 246.663px 246.663px 246.663px 246.663px ">LUE: 5.0</tspan></text></g><g transform="matrix(0.95,0,0,1,-121.769,4.54747e-13)"><g transform="matrix(12.2222,0,0,12.2222,781.351,246.663)"></g><text x="719.059px" y="246.663px" style="font-family:'Roboto-Regular', 'Roboto';font-size:12.222px;fill:#dcdcdc;">VA<tspan x="735.248px 741.943px 750.321px 757.494px 760.454px 763.712px 770.807px 774.256px " y="246.663px 246.663px 246.663px 246.663px 246.663px 246.663px 246.663px 246.663px ">LUE: 0.0</tspan></text></g></g></g></svg>