<?xml version="1.0" encoding="UTF-8" standalone="no"?><!DOCTYPE svg PUBLIC "-//W3C//DTD SVG 1.1//EN" "http://www.w3.org/Graphics/SVG/1.1/DTD/svg11.dtd"><svg width="100%" height="100%" viewBox="0 0 710 221" version="1.1" xmlns="http://www.w3.org/2000/svg" xmlns:xlink="http://www.w3.org/1999/xlink" xml:space="preserve" xmlns:serif="http://www.serif.com/" style="fill-rule:evenodd;clip-rule:evenodd;stroke-linecap:round;"><g id="Style:-Smooth" serif:id="Style: Smooth"><g><path d="M98.073,112.551c5.027,2.902 11.852,4.534 18.96,4.534c7.109,0 13.934,-1.632 18.961,-4.534" style="fill:none;fill-rule:nonzero;stroke:#1984ef;stroke-width:1.02px;"/><path d="M135.994,112.551c2.365,1.365 4.637,3.763 6.309,6.661c1.673,2.897 2.613,6.063 2.613,8.794" style="fill:none;fill-rule:nonzero;stroke:#1984ef;stroke-width:1.02px;"/><path d="M144.916,128.006c-7.392,4.268 -17.429,6.669 -27.883,6.669c-10.454,-0 -20.49,-2.401 -27.883,-6.669" style="fill:none;fill-rule:nonzero;stroke:#1984ef;stroke-width:1.02px;"/><path d="M89.15,128.006c0,-2.731 0.941,-5.897 2.613,-8.794c1.673,-2.898 3.944,-5.296 6.31,-6.661" style="fill:none;fill-rule:nonzero;stroke:#1984ef;stroke-width:1.02px;"/><path d="M144.916,128.006l0,24.025" style="fill:none;fill-rule:nonzero;stroke:#1984ef;stroke-width:1.02px;"/><path d="M89.15,152.031c7.393,4.268 17.429,6.669 27.883,6.669c10.454,-0 20.491,-2.401 27.883,-6.669" style="fill:none;fill-rule:nonzero;stroke:#1984ef;stroke-width:1.02px;"/><path d="M89.15,152.031l0,-24.025" style="fill:none;fill-rule:nonzero;stroke:#1984ef;stroke-width:1.02px;"/><path d="M42.307,80.352l55.766,32.199" style="fill:none;fill-rule:nonzero;stroke:#1984ef;stroke-width:1.02px;"/><path d="M42.307,58.456c-5.026,2.903 -7.853,6.843 -7.853,10.948c-0,4.105 2.827,8.045 7.853,10.948" style="fill:none;fill-rule:nonzero;stroke:#1984ef;stroke-width:1.02px;"/><path d="M98.073,26.257l-55.766,32.199" style="fill:none;fill-rule:nonzero;stroke:#1984ef;stroke-width:1.02px;"/><path d="M135.994,26.257c-5.027,-2.902 -11.852,-4.534 -18.961,-4.534c-7.108,-0 -13.933,1.632 -18.96,4.534" style="fill:none;fill-rule:nonzero;stroke:#1984ef;stroke-width:1.02px;"/><path d="M191.759,58.456l-55.765,-32.199" style="fill:none;fill-rule:nonzero;stroke:#1984ef;stroke-width:1.02px;"/><path d="M191.759,80.352c5.027,-2.903 7.854,-6.843 7.854,-10.948c0,-4.105 -2.827,-8.045 -7.854,-10.948" style="fill:none;fill-rule:nonzero;stroke:#1984ef;stroke-width:1.02px;"/><path d="M135.994,112.551l55.765,-32.199" style="fill:none;fill-rule:nonzero;stroke:#1984ef;stroke-width:1.02px;"/><path d="M191.759,80.352c2.366,1.366 4.637,3.763 6.31,6.661c1.672,2.897 2.613,6.063 2.613,8.794" style="fill:none;fill-rule:nonzero;stroke:#1984ef;stroke-width:1.02px;"/><path d="M200.682,95.807l-55.766,32.199" style="fill:none;fill-rule:nonzero;stroke:#1984ef;stroke-width:1.02px;"/><path d="M89.15,128.006l-55.765,-32.199" style="fill:none;fill-rule:nonzero;stroke:#1984ef;stroke-width:1.02px;"/><path d="M33.385,95.807c-0,-5.652 4.027,-12.629 8.922,-15.455" style="fill:none;fill-rule:nonzero;stroke:#1984ef;stroke-width:1.02px;"/><path d="M142.303,157.808c1.672,-0.966 2.613,-3.045 2.613,-5.777" style="fill:none;fill-rule:nonzero;stroke:#1984ef;stroke-width:1.02px;"/><path d="M89.15,152.031c0,2.732 0.941,4.811 2.614,5.777" style="fill:none;fill-rule:nonzero;stroke:#1984ef;stroke-width:1.02px;"/><path d="M200.682,119.832l-0,-24.025" style="fill:none;fill-rule:nonzero;stroke:#1984ef;stroke-width:1.02px;"/><path d="M144.916,152.031l55.766,-32.199" style="fill:none;fill-rule:nonzero;stroke:#1984ef;stroke-width:1.02px;"/><path d="M33.385,119.832l55.765,32.199" style="fill:none;fill-rule:nonzero;stroke:#1984ef;stroke-width:1.02px;"/><path d="M33.385,95.807l-0,24.025" style="fill:none;fill-rule:nonzero;stroke:#1984ef;stroke-width:1.02px;"/><path d="M198.069,125.609c1.672,-0.966 2.613,-3.045 2.613,-5.777" style="fill:none;fill-rule:nonzero;stroke:#1984ef;stroke-width:1.02px;"/><path d="M33.385,119.832c-0,2.732 0.94,4.811 2.613,5.777" style="fill:none;fill-rule:nonzero;stroke:#1984ef;stroke-width:1.02px;"/><path d="M212.231,79.708c-0,6.036 -4.157,11.831 -11.549,16.099" style="fill:none;fill-rule:nonzero;stroke:#1984ef;stroke-width:1.02px;"/><path d="M191.759,58.456c2.366,-1.365 4.637,-1.59 6.31,-0.625" style="fill:none;fill-rule:nonzero;stroke:#1984ef;stroke-width:1.02px;"/><path d="M35.998,57.831c1.673,-0.965 3.944,-0.74 6.309,0.625" style="fill:none;fill-rule:nonzero;stroke:#1984ef;stroke-width:1.02px;"/><path d="M33.385,95.807c-7.393,-4.268 -11.55,-10.064 -11.55,-16.1" style="fill:none;fill-rule:nonzero;stroke:#1984ef;stroke-width:1.02px;"/><path d="M21.835,103.733c0,0.028 0,0.056 0.001,0.084" style="fill:none;fill-rule:nonzero;stroke:#1984ef;stroke-width:1.02px;"/><path d="M21.836,103.817c0.038,6.007 4.192,11.768 11.549,16.015" style="fill:none;fill-rule:nonzero;stroke:#1984ef;stroke-width:1.02px;"/><path d="M200.682,119.832c7.338,-4.236 11.49,-9.979 11.549,-15.971" style="fill:none;fill-rule:nonzero;stroke:#1984ef;stroke-width:1.02px;"/><path d="M212.231,103.861c0,-0.042 0,-0.085 0,-0.128" style="fill:none;fill-rule:nonzero;stroke:#1984ef;stroke-width:1.02px;"/><path d="M91.764,25.632c1.672,-0.965 3.943,-0.74 6.309,0.625" style="fill:none;fill-rule:nonzero;stroke:#1984ef;stroke-width:1.02px;"/><path d="M135.994,26.257c2.365,-1.365 4.636,-1.59 6.309,-0.625" style="fill:none;fill-rule:nonzero;stroke:#1984ef;stroke-width:1.02px;"/><path d="M91.764,157.808l0.837,0.47l1.497,0.774l1.543,0.719l1.587,0.664l1.626,0.608l1.66,0.552l1.691,0.495l1.717,0.439l1.739,0.382l1.759,0.326l1.774,0.27l1.788,0.214l1.797,0.159l1.805,0.103l1.808,0.047l1.809,-0.008l1.808,-0.064l1.802,-0.119l1.795,-0.174l1.785,-0.231l1.771,-0.286l1.754,-0.343l1.736,-0.399l1.713,-0.456l1.688,-0.514l1.66,-0.572l1.627,-0.631l1.591,-0.689l1.55,-0.748l1.413,-0.755l0.409,-0.233" style="fill:none;fill-rule:nonzero;stroke:#1984ef;stroke-width:1.02px;"/><path d="M142.303,157.808l55.766,-32.199" style="fill:none;fill-rule:nonzero;stroke:#1984ef;stroke-width:1.02px;"/><path d="M35.998,125.609l55.766,32.199" style="fill:none;fill-rule:nonzero;stroke:#1984ef;stroke-width:1.02px;"/><path d="M212.231,79.709l-0.002,-0.326l-0.062,-1.335l-0.143,-1.327l-0.225,-1.314l-0.304,-1.301l-0.384,-1.285l-0.462,-1.266l-0.54,-1.245l-0.617,-1.223l-0.693,-1.199l-0.77,-1.173l-0.846,-1.145l-0.922,-1.117l-0.998,-1.085l-1.073,-1.051l-1.147,-1.016l-1.219,-0.977l-1.288,-0.934l-1.355,-0.89l-1.112,-0.669" style="fill:none;fill-rule:nonzero;stroke:#1984ef;stroke-width:1.02px;"/><path d="M35.998,57.831l-0.825,0.491l-1.407,0.907l-1.349,0.963l-1.281,1.015l-1.21,1.063l-1.132,1.108l-1.051,1.147l-0.967,1.184l-0.882,1.215l-0.795,1.242l-0.708,1.267l-0.621,1.287l-0.533,1.305l-0.447,1.319l-0.361,1.329l-0.275,1.336l-0.19,1.341l-0.105,1.342l-0.024,1.014" style="fill:none;fill-rule:nonzero;stroke:#1984ef;stroke-width:1.02px;"/><path d="M21.835,79.708l0,24.025" style="fill:none;fill-rule:nonzero;stroke:#1984ef;stroke-width:1.02px;"/><path d="M212.231,103.733l0,-24.025" style="fill:none;fill-rule:nonzero;stroke:#1984ef;stroke-width:1.02px;"/><path d="M198.069,125.609l0.825,-0.491l1.407,-0.906l1.348,-0.963l1.282,-1.015l1.209,-1.064l1.132,-1.107l1.051,-1.148l0.967,-1.183l0.882,-1.215l0.795,-1.243l0.708,-1.267l0.621,-1.287l0.534,-1.304l0.447,-1.319l0.361,-1.329l0.274,-1.337l0.19,-1.341l0.105,-1.342l0.024,-0.887" style="fill:none;fill-rule:nonzero;stroke:#1984ef;stroke-width:1.02px;"/><path d="M212.231,103.861l0,-0.127" style="fill:none;fill-rule:nonzero;stroke:#1984ef;stroke-width:1.02px;"/><path d="M21.835,103.732l0,0.084" style="fill:none;fill-rule:nonzero;stroke:#1984ef;stroke-width:1.02px;"/><path d="M21.835,103.816l0.003,0.242l0.061,1.335l0.144,1.326l0.224,1.315l0.305,1.301l0.384,1.284l0.462,1.266l0.54,1.245l0.617,1.223l0.693,1.199l0.77,1.173l0.846,1.146l0.922,1.116l0.998,1.085l1.073,1.052l1.146,1.016l1.219,0.976l1.289,0.935l1.354,0.89l1.113,0.668" style="fill:none;fill-rule:nonzero;stroke:#1984ef;stroke-width:1.02px;"/><path d="M91.764,25.632l-55.766,32.199" style="fill:none;fill-rule:nonzero;stroke:#1984ef;stroke-width:1.02px;"/><path d="M198.069,57.831l-55.766,-32.199" style="fill:none;fill-rule:nonzero;stroke:#1984ef;stroke-width:1.02px;"/><path d="M142.303,25.632l-0.838,-0.469l-1.497,-0.775l-1.542,-0.719l-1.587,-0.664l-1.626,-0.608l-1.661,-0.552l-1.69,-0.495l-1.717,-0.438l-1.739,-0.383l-1.759,-0.326l-1.775,-0.27l-1.787,-0.214l-1.798,-0.158l-1.804,-0.103l-1.808,-0.047l-1.81,0.008l-1.807,0.063l-1.803,0.119l-1.795,0.175l-1.784,0.23l-1.771,0.287l-1.755,0.342l-1.735,0.4l-1.714,0.456l-1.688,0.514l-1.659,0.572l-1.627,0.63l-1.591,0.69l-1.551,0.748l-1.412,0.755l-0.409,0.232" style="fill:none;fill-rule:nonzero;stroke:#1984ef;stroke-width:1.02px;"/></g><g><path d="M336.406,112.551c5.027,2.902 11.852,4.534 18.961,4.534c7.108,0 13.933,-1.632 18.96,-4.534" style="fill:none;fill-rule:nonzero;stroke:#1984ef;stroke-width:2.55px;"/><path d="M374.327,112.551c2.366,1.365 4.637,3.763 6.31,6.661c1.672,2.897 2.613,6.063 2.613,8.794" style="fill:none;fill-rule:nonzero;stroke:#1984ef;stroke-width:2.55px;"/><path d="M383.25,128.006c-7.393,4.268 -17.429,6.669 -27.883,6.669c-10.454,-0 -20.491,-2.401 -27.883,-6.669" style="fill:none;fill-rule:nonzero;stroke:#1984ef;stroke-width:2.55px;"/><path d="M327.484,128.006c-0,-2.731 0.94,-5.897 2.613,-8.794c1.672,-2.898 3.944,-5.296 6.309,-6.661" style="fill:none;fill-rule:nonzero;stroke:#1984ef;stroke-width:2.55px;"/><path d="M383.25,128.006l-0,24.025" style="fill:none;fill-rule:nonzero;stroke:#1984ef;stroke-width:2.55px;"/><path d="M327.484,152.031c7.392,4.268 17.429,6.669 27.883,6.669c10.454,-0 20.49,-2.401 27.883,-6.669" style="fill:none;fill-rule:nonzero;stroke:#1984ef;stroke-width:2.55px;"/><path d="M327.484,152.031l-0,-24.025" style="fill:none;fill-rule:nonzero;stroke:#1984ef;stroke-width:2.55px;"/><path d="M280.641,80.352l55.765,32.199" style="fill:none;fill-rule:nonzero;stroke:#1984ef;stroke-width:2.55px;"/><path d="M280.641,58.456c-5.027,2.903 -7.854,6.843 -7.854,10.948c-0,4.105 2.827,8.045 7.854,10.948" style="fill:none;fill-rule:nonzero;stroke:#1984ef;stroke-width:2.55px;"/><path d="M336.406,26.257l-55.765,32.199" style="fill:none;fill-rule:nonzero;stroke:#1984ef;stroke-width:2.55px;"/><path d="M374.327,26.257c-5.027,-2.902 -11.852,-4.534 -18.96,-4.534c-7.109,-0 -13.934,1.632 -18.961,4.534" style="fill:none;fill-rule:nonzero;stroke:#1984ef;stroke-width:2.55px;"/><path d="M430.093,58.456l-55.766,-32.199" style="fill:none;fill-rule:nonzero;stroke:#1984ef;stroke-width:2.55px;"/><path d="M430.093,80.352c5.026,-2.903 7.853,-6.843 7.853,-10.948c0,-4.105 -2.827,-8.045 -7.853,-10.948" style="fill:none;fill-rule:nonzero;stroke:#1984ef;stroke-width:2.55px;"/><path d="M374.327,112.551l55.766,-32.199" style="fill:none;fill-rule:nonzero;stroke:#1984ef;stroke-width:2.55px;"/><path d="M430.093,80.352c2.365,1.366 4.637,3.763 6.309,6.661c1.673,2.897 2.613,6.063 2.613,8.794" style="fill:none;fill-rule:nonzero;stroke:#1984ef;stroke-width:2.55px;"/><path d="M439.015,95.807l-55.765,32.199" style="fill:none;fill-rule:nonzero;stroke:#1984ef;stroke-width:2.55px;"/><path d="M327.484,128.006l-55.766,-32.199" style="fill:none;fill-rule:nonzero;stroke:#1984ef;stroke-width:2.55px;"/><path d="M271.718,95.807c0,-5.652 4.028,-12.629 8.923,-15.455" style="fill:none;fill-rule:nonzero;stroke:#1984ef;stroke-width:2.55px;"/><path d="M380.636,157.808c1.673,-0.966 2.614,-3.045 2.614,-5.777" style="fill:none;fill-rule:nonzero;stroke:#1984ef;stroke-width:2.55px;"/><path d="M327.484,152.031c-0,2.732 0.94,4.811 2.613,5.777" style="fill:none;fill-rule:nonzero;stroke:#1984ef;stroke-width:2.55px;"/><path d="M439.015,119.832l0,-24.025" style="fill:none;fill-rule:nonzero;stroke:#1984ef;stroke-width:2.55px;"/><path d="M383.25,152.031l55.765,-32.199" style="fill:none;fill-rule:nonzero;stroke:#1984ef;stroke-width:2.55px;"/><path d="M271.718,119.832l55.766,32.199" style="fill:none;fill-rule:nonzero;stroke:#1984ef;stroke-width:2.55px;"/><path d="M271.718,95.807l0,24.025" style="fill:none;fill-rule:nonzero;stroke:#1984ef;stroke-width:2.55px;"/><path d="M436.402,125.609c1.673,-0.966 2.613,-3.045 2.613,-5.777" style="fill:none;fill-rule:nonzero;stroke:#1984ef;stroke-width:2.55px;"/><path d="M271.718,119.832c0,2.732 0.941,4.811 2.613,5.777" style="fill:none;fill-rule:nonzero;stroke:#1984ef;stroke-width:2.55px;"/><path d="M450.565,79.708c-0.001,6.036 -4.158,11.831 -11.55,16.099" style="fill:none;fill-rule:nonzero;stroke:#1984ef;stroke-width:2.55px;"/><path d="M430.093,58.456c2.365,-1.365 4.636,-1.59 6.309,-0.625" style="fill:none;fill-rule:nonzero;stroke:#1984ef;stroke-width:2.55px;"/><path d="M274.331,57.831c1.673,-0.965 3.944,-0.74 6.31,0.625" style="fill:none;fill-rule:nonzero;stroke:#1984ef;stroke-width:2.55px;"/><path d="M271.718,95.807c-7.392,-4.268 -11.55,-10.064 -11.549,-16.1" style="fill:none;fill-rule:nonzero;stroke:#1984ef;stroke-width:2.55px;"/><path d="M260.169,103.733c-0,0.028 -0,0.056 -0,0.084" style="fill:none;fill-rule:nonzero;stroke:#1984ef;stroke-width:1.02px;"/><path d="M260.169,103.817c0.038,6.007 4.192,11.768 11.549,16.015" style="fill:none;fill-rule:nonzero;stroke:#1984ef;stroke-width:2.55px;"/><path d="M439.015,119.832c7.338,-4.236 11.49,-9.979 11.549,-15.971" style="fill:none;fill-rule:nonzero;stroke:#1984ef;stroke-width:2.55px;"/><path d="M450.564,103.861c0,-0.042 0.001,-0.085 0.001,-0.128" style="fill:none;fill-rule:nonzero;stroke:#1984ef;stroke-width:1.02px;"/><path d="M330.097,25.632c1.673,-0.965 3.944,-0.74 6.309,0.625" style="fill:none;fill-rule:nonzero;stroke:#1984ef;stroke-width:2.55px;"/><path d="M374.327,26.257c2.365,-1.365 4.637,-1.59 6.309,-0.625" style="fill:none;fill-rule:nonzero;stroke:#1984ef;stroke-width:2.55px;"/><path d="M330.097,157.808l0.838,0.47l1.496,0.774l1.543,0.719l1.587,0.664l1.626,0.608l1.661,0.552l1.69,0.495l1.717,0.439l1.739,0.382l1.759,0.326l1.775,0.27l1.787,0.214l1.798,0.159l1.804,0.103l1.808,0.047l1.809,-0.008l1.808,-0.064l1.803,-0.119l1.795,-0.174l1.784,-0.231l1.771,-0.286l1.755,-0.343l1.735,-0.399l1.714,-0.456l1.688,-0.514l1.659,-0.572l1.627,-0.631l1.591,-0.689l1.551,-0.748l1.412,-0.755l0.409,-0.233" style="fill:none;fill-rule:nonzero;stroke:#1984ef;stroke-width:1.02px;"/><path d="M380.636,157.808l55.766,-32.199" style="fill:none;fill-rule:nonzero;stroke:#1984ef;stroke-width:1.02px;"/><path d="M274.331,125.609l55.766,32.199" style="fill:none;fill-rule:nonzero;stroke:#1984ef;stroke-width:1.02px;"/><path d="M450.565,79.709l-0.003,-0.326l-0.061,-1.335l-0.144,-1.327l-0.224,-1.314l-0.305,-1.301l-0.384,-1.285l-0.462,-1.266l-0.54,-1.245l-0.617,-1.223l-0.693,-1.199l-0.77,-1.173l-0.846,-1.145l-0.922,-1.117l-0.998,-1.085l-1.073,-1.051l-1.146,-1.016l-1.219,-0.977l-1.289,-0.934l-1.354,-0.89l-1.113,-0.669" style="fill:none;fill-rule:nonzero;stroke:#1984ef;stroke-width:1.02px;"/><path d="M274.331,57.831l-0.825,0.491l-1.407,0.907l-1.348,0.963l-1.282,1.015l-1.209,1.063l-1.132,1.108l-1.051,1.147l-0.968,1.184l-0.881,1.215l-0.795,1.242l-0.708,1.267l-0.621,1.287l-0.534,1.305l-0.447,1.319l-0.361,1.329l-0.275,1.336l-0.189,1.341l-0.105,1.342l-0.024,1.014" style="fill:none;fill-rule:nonzero;stroke:#1984ef;stroke-width:1.02px;"/><path d="M260.169,79.708l-0,24.025" style="fill:none;fill-rule:nonzero;stroke:#1984ef;stroke-width:1.02px;"/><path d="M450.565,103.733l-0,-24.025" style="fill:none;fill-rule:nonzero;stroke:#1984ef;stroke-width:1.02px;"/><path d="M436.402,125.609l0.825,-0.491l1.407,-0.906l1.349,-0.963l1.281,-1.015l1.21,-1.064l1.131,-1.107l1.052,-1.148l0.967,-1.183l0.882,-1.215l0.795,-1.243l0.708,-1.267l0.621,-1.287l0.533,-1.304l0.447,-1.319l0.361,-1.329l0.275,-1.337l0.19,-1.341l0.105,-1.342l0.023,-0.887" style="fill:none;fill-rule:nonzero;stroke:#1984ef;stroke-width:1.02px;"/><path d="M450.564,103.861l0.001,-0.127" style="fill:none;fill-rule:nonzero;stroke:#1984ef;stroke-width:1.02px;"/><path d="M260.169,103.732l-0,0.084" style="fill:none;fill-rule:nonzero;stroke:#1984ef;stroke-width:1.02px;"/><path d="M260.169,103.816l0.002,0.242l0.062,1.335l0.143,1.326l0.225,1.315l0.304,1.301l0.384,1.284l0.462,1.266l0.54,1.245l0.617,1.223l0.693,1.199l0.77,1.173l0.846,1.146l0.922,1.116l0.998,1.085l1.073,1.052l1.147,1.016l1.219,0.976l1.288,0.935l1.355,0.89l1.112,0.668" style="fill:none;fill-rule:nonzero;stroke:#1984ef;stroke-width:1.02px;"/><path d="M330.097,25.632l-55.766,32.199" style="fill:none;fill-rule:nonzero;stroke:#1984ef;stroke-width:1.02px;"/><path d="M436.402,57.831l-55.766,-32.199" style="fill:none;fill-rule:nonzero;stroke:#1984ef;stroke-width:1.02px;"/><path d="M380.636,25.632l-0.837,-0.469l-1.497,-0.775l-1.543,-0.719l-1.587,-0.664l-1.626,-0.608l-1.66,-0.552l-1.691,-0.495l-1.717,-0.438l-1.739,-0.383l-1.759,-0.326l-1.774,-0.27l-1.788,-0.214l-1.797,-0.158l-1.805,-0.103l-1.808,-0.047l-1.809,0.008l-1.808,0.063l-1.802,0.119l-1.795,0.175l-1.785,0.23l-1.771,0.287l-1.754,0.342l-1.736,0.4l-1.713,0.456l-1.688,0.514l-1.66,0.572l-1.627,0.63l-1.591,0.69l-1.551,0.748l-1.412,0.755l-0.409,0.232" style="fill:none;fill-rule:nonzero;stroke:#1984ef;stroke-width:1.02px;"/></g><g><path d="M574.74,112.551c5.026,2.902 11.851,4.534 18.96,4.534c7.109,0 13.934,-1.632 18.96,-4.534" style="fill:none;fill-rule:nonzero;"/><path d="M612.66,112.551c2.366,1.365 4.637,3.763 6.31,6.661c1.672,2.897 2.613,6.063 2.613,8.794" style="fill:none;fill-rule:nonzero;"/><path d="M621.583,128.006c-7.392,4.268 -17.429,6.669 -27.883,6.669c-10.454,-0 -20.491,-2.401 -27.883,-6.669" style="fill:none;fill-rule:nonzero;"/><path d="M565.817,128.006c0,-2.731 0.941,-5.897 2.613,-8.794c1.673,-2.898 3.944,-5.296 6.31,-6.661" style="fill:none;fill-rule:nonzero;"/><path d="M621.583,128.006l-0,24.025" style="fill:none;fill-rule:nonzero;"/><path d="M565.817,152.031c7.392,4.268 17.429,6.669 27.883,6.669c10.454,-0 20.491,-2.401 27.883,-6.669" style="fill:none;fill-rule:nonzero;"/><path d="M565.817,152.031l0,-24.025" style="fill:none;fill-rule:nonzero;"/><path d="M518.974,80.352l55.766,32.199" style="fill:none;fill-rule:nonzero;"/><path d="M518.974,58.456c-5.027,2.903 -7.854,6.843 -7.854,10.948c0,4.105 2.827,8.045 7.854,10.948" style="fill:none;fill-rule:nonzero;"/><path d="M574.74,26.257l-55.766,32.199" style="fill:none;fill-rule:nonzero;"/><path d="M612.66,26.257c-5.026,-2.902 -11.851,-4.534 -18.96,-4.534c-7.109,-0 -13.934,1.632 -18.96,4.534" style="fill:none;fill-rule:nonzero;"/><path d="M668.426,58.456l-55.766,-32.199" style="fill:none;fill-rule:nonzero;"/><path d="M668.426,80.352c5.027,-2.903 7.854,-6.843 7.854,-10.948c-0,-4.105 -2.827,-8.045 -7.854,-10.948" style="fill:none;fill-rule:nonzero;"/><path d="M612.66,112.551l55.766,-32.199" style="fill:none;fill-rule:nonzero;"/><path d="M668.426,80.352c2.366,1.366 4.637,3.763 6.31,6.661c1.672,2.897 2.613,6.063 2.613,8.794" style="fill:none;fill-rule:nonzero;"/><path d="M677.349,95.807l-55.766,32.199" style="fill:none;fill-rule:nonzero;"/><path d="M565.817,128.006l-55.766,-32.199" style="fill:none;fill-rule:nonzero;"/><path d="M510.051,95.807c0,-5.652 4.028,-12.629 8.923,-15.455" style="fill:none;fill-rule:nonzero;"/><path d="M618.969,157.808c1.673,-0.966 2.614,-3.045 2.614,-5.777" style="fill:none;fill-rule:nonzero;"/><path d="M565.817,152.031c0,2.732 0.941,4.811 2.613,5.777" style="fill:none;fill-rule:nonzero;"/><path d="M677.349,119.832l-0,-24.025" style="fill:none;fill-rule:nonzero;"/><path d="M621.583,152.031l55.766,-32.199" style="fill:none;fill-rule:nonzero;"/><path d="M510.051,119.832l55.766,32.199" style="fill:none;fill-rule:nonzero;"/><path d="M510.051,95.807l0,24.025" style="fill:none;fill-rule:nonzero;"/><path d="M674.735,125.609c1.673,-0.966 2.614,-3.045 2.614,-5.777" style="fill:none;fill-rule:nonzero;"/><path d="M510.051,119.832c0,2.732 0.941,4.811 2.614,5.777" style="fill:none;fill-rule:nonzero;"/><path d="M688.898,79.708c-0,6.036 -4.158,11.831 -11.549,16.099" style="fill:none;fill-rule:nonzero;"/><path d="M668.426,58.456c2.366,-1.365 4.637,-1.59 6.309,-0.625" style="fill:none;fill-rule:nonzero;"/><path d="M512.665,57.831c1.672,-0.965 3.943,-0.74 6.309,0.625" style="fill:none;fill-rule:nonzero;"/><path d="M510.051,95.807c-7.392,-4.268 -11.549,-10.064 -11.549,-16.1" style="fill:none;fill-rule:nonzero;"/><path d="M498.502,103.733c-0,0.028 0,0.056 0,0.084" style="fill:none;fill-rule:nonzero;stroke:#1984ef;stroke-width:1.02px;"/><path d="M498.502,103.817c0.038,6.007 4.193,11.768 11.549,16.015" style="fill:none;fill-rule:nonzero;"/><path d="M677.349,119.832c7.337,-4.236 11.49,-9.979 11.548,-15.971" style="fill:none;fill-rule:nonzero;"/><path d="M688.897,103.861c0.001,-0.042 0.001,-0.085 0.001,-0.128" style="fill:none;fill-rule:nonzero;stroke:#1984ef;stroke-width:1.02px;"/><path d="M568.43,25.632c1.673,-0.965 3.944,-0.74 6.31,0.625" style="fill:none;fill-rule:nonzero;"/><path d="M612.66,26.257c2.366,-1.365 4.637,-1.59 6.309,-0.625" style="fill:none;fill-rule:nonzero;"/><path d="M568.43,157.808l0.838,0.47l1.497,0.774l1.543,0.719l1.587,0.664l1.626,0.608l1.66,0.552l1.691,0.495l1.716,0.439l1.74,0.382l1.758,0.326l1.775,0.27l1.788,0.214l1.797,0.159l1.804,0.103l1.808,0.047l1.81,-0.008l1.807,-0.064l1.803,-0.119l1.795,-0.174l1.784,-0.231l1.771,-0.286l1.755,-0.343l1.736,-0.399l1.713,-0.456l1.688,-0.514l1.659,-0.572l1.627,-0.631l1.592,-0.689l1.55,-0.748l1.413,-0.755l0.408,-0.233" style="fill:none;fill-rule:nonzero;stroke:#1984ef;stroke-width:1.02px;"/><path d="M618.969,157.808l55.766,-32.199" style="fill:none;fill-rule:nonzero;stroke:#1984ef;stroke-width:1.02px;"/><path d="M512.665,125.609l55.765,32.199" style="fill:none;fill-rule:nonzero;stroke:#1984ef;stroke-width:1.02px;"/><path d="M688.898,79.709l-0.002,-0.326l-0.062,-1.335l-0.144,-1.327l-0.224,-1.314l-0.305,-1.301l-0.384,-1.285l-0.462,-1.266l-0.54,-1.245l-0.616,-1.223l-0.694,-1.199l-0.77,-1.173l-0.846,-1.145l-0.922,-1.117l-0.997,-1.085l-1.073,-1.051l-1.147,-1.016l-1.219,-0.977l-1.288,-0.934l-1.355,-0.89l-1.113,-0.669" style="fill:none;fill-rule:nonzero;stroke:#1984ef;stroke-width:1.02px;"/><path d="M512.665,57.831l-0.826,0.491l-1.406,0.907l-1.349,0.963l-1.282,1.015l-1.209,1.063l-1.132,1.108l-1.051,1.147l-0.967,1.184l-0.882,1.215l-0.795,1.242l-0.708,1.267l-0.621,1.287l-0.534,1.305l-0.447,1.319l-0.36,1.329l-0.275,1.336l-0.19,1.341l-0.105,1.342l-0.024,1.014" style="fill:none;fill-rule:nonzero;stroke:#1984ef;stroke-width:1.02px;"/><path d="M498.502,79.708l-0,24.025" style="fill:none;fill-rule:nonzero;stroke:#1984ef;stroke-width:1.02px;"/><path d="M688.898,103.733l0,-24.025" style="fill:none;fill-rule:nonzero;stroke:#1984ef;stroke-width:1.02px;"/><path d="M674.735,125.609l0.826,-0.491l1.406,-0.906l1.349,-0.963l1.282,-1.015l1.209,-1.064l1.132,-1.107l1.051,-1.148l0.967,-1.183l0.882,-1.215l0.795,-1.243l0.708,-1.267l0.621,-1.287l0.534,-1.304l0.447,-1.319l0.36,-1.329l0.275,-1.337l0.19,-1.341l0.105,-1.342l0.024,-0.887" style="fill:none;fill-rule:nonzero;stroke:#1984ef;stroke-width:1.02px;"/><path d="M688.898,103.861l0,-0.127" style="fill:none;fill-rule:nonzero;stroke:#1984ef;stroke-width:1.02px;"/><path d="M498.502,103.732l0,0.084" style="fill:none;fill-rule:nonzero;stroke:#1984ef;stroke-width:1.02px;"/><path d="M498.502,103.816l0.002,0.242l0.062,1.335l0.143,1.326l0.225,1.315l0.305,1.301l0.384,1.284l0.462,1.266l0.54,1.245l0.616,1.223l0.694,1.199l0.77,1.173l0.846,1.146l0.922,1.116l0.997,1.085l1.073,1.052l1.147,1.016l1.219,0.976l1.288,0.935l1.355,0.89l1.113,0.668" style="fill:none;fill-rule:nonzero;stroke:#1984ef;stroke-width:1.02px;"/><path d="M568.43,25.632l-55.765,32.199" style="fill:none;fill-rule:nonzero;stroke:#1984ef;stroke-width:1.02px;"/><path d="M674.735,57.831l-55.766,-32.199" style="fill:none;fill-rule:nonzero;stroke:#1984ef;stroke-width:1.02px;"/><path d="M618.969,25.632l-0.837,-0.469l-1.497,-0.775l-1.543,-0.719l-1.587,-0.664l-1.626,-0.608l-1.66,-0.552l-1.691,-0.495l-1.716,-0.438l-1.74,-0.383l-1.758,-0.326l-1.775,-0.27l-1.788,-0.214l-1.797,-0.158l-1.804,-0.103l-1.809,-0.047l-1.809,0.008l-1.807,0.063l-1.803,0.119l-1.795,0.175l-1.784,0.23l-1.771,0.287l-1.755,0.342l-1.736,0.4l-1.713,0.456l-1.688,0.514l-1.659,0.572l-1.628,0.63l-1.591,0.69l-1.55,0.748l-1.413,0.755l-0.409,0.232" style="fill:none;fill-rule:nonzero;stroke:#1984ef;stroke-width:1.02px;"/></g><g id="Text"><g transform="matrix(0.95,0,0,1,-145.947,0)"><g transform="matrix(12.2222,0,0,12.2222,297.789,201.56)"></g><text x="235.497px" y="201.56px" style="font-family:'Roboto-Regular', 'Roboto';font-size:12.222px;fill:#dcdcdc;">VA<tspan x="251.686px 258.381px 266.759px 273.932px 276.892px 280.15px 287.245px 290.694px " y="201.56px 201.56px 201.56px 201.56px 201.56px 201.56px 201.56px 201.56px ">LUE: 1.0</tspan></text></g><g transform="matrix(0.95,0,0,1,-133.779,0)"><g transform="matrix(12.2222,0,0,12.2222,541.134,201.56)"></g><text x="478.842px" y="201.56px" style="font-family:'Roboto-Regular', 'Roboto';font-size:12.222px;fill:#dcdcdc;">VA<tspan x="495.031px 501.726px 510.104px 517.277px 520.237px 523.495px 530.59px 534.039px " y="201.56px 201.56px 201.56px 201.56px 201.56px 201.56px 201.56px 201.56px ">LUE: 5.0</tspan></text></g><g transform="matrix(0.95,0,0,1,-121.612,0)"><g transform="matrix(12.2222,0,0,12.2222,784.479,201.56)"></g><text x="722.187px" y="201.56px" style="font-family:'Roboto-Regular', 'Roboto';font-size:12.222px;fill:#dcdcdc;">VA<tspan x="738.376px 745.071px 753.449px 760.622px 763.582px 766.84px 773.935px 777.383px " y="201.56px 201.56px 201.56px 201.56px 201.56px 201.56px 201.56px 201.56px ">LUE: 0.0</tspan></text></g></g></g></svg>