<?xml version="1.0" encoding="UTF-8" standalone="no"?><!DOCTYPE svg PUBLIC "-//W3C//DTD SVG 1.1//EN" "http://www.w3.org/Graphics/SVG/1.1/DTD/svg11.dtd"><svg width="100%" height="100%" viewBox="0 0 461 264" version="1.1" xmlns="http://www.w3.org/2000/svg" xmlns:xlink="http://www.w3.org/1999/xlink" xml:space="preserve" xmlns:serif="http://www.serif.com/" style="fill-rule:evenodd;clip-rule:evenodd;stroke-linecap:round;"><g id="Style:-Color" serif:id="Style: Color"><g><path d="M195.524,126.279l-85.177,49.18" style="fill:none;fill-rule:nonzero;stroke:#1984ef;stroke-width:1.02px;"/><path d="M110.347,175.459l-85.176,-49.18" style="fill:none;fill-rule:nonzero;stroke:#1984ef;stroke-width:1.02px;"/><path d="M110.347,209.545l0,-34.086" style="fill:none;fill-rule:nonzero;stroke:#1984ef;stroke-width:1.02px;"/><path d="M57.574,107.569l-32.403,18.71" style="fill:none;fill-rule:nonzero;stroke:#1984ef;stroke-width:1.02px;"/><path d="M195.524,126.279l-32.403,-18.71" style="fill:none;fill-rule:nonzero;stroke:#1984ef;stroke-width:1.02px;"/><path d="M195.524,160.365l-0,-34.086" style="fill:none;fill-rule:nonzero;stroke:#1984ef;stroke-width:1.02px;"/><path d="M110.347,209.545l85.177,-49.18" style="fill:none;fill-rule:nonzero;stroke:#1984ef;stroke-width:1.02px;"/><path d="M25.171,160.365l-0,-34.086" style="fill:none;fill-rule:nonzero;stroke:#1984ef;stroke-width:1.02px;"/><path d="M110.347,209.545l-85.176,-49.18" style="fill:none;fill-rule:nonzero;stroke:#1984ef;stroke-width:1.02px;"/><path d="M140.462,130.705c9.522,-5.498 17.36,-13.5 22.659,-23.136" style="fill:none;fill-rule:nonzero;stroke:#1984ef;stroke-width:1.02px;"/><path d="M163.121,107.569c4.89,-8.892 7.455,-18.878 7.455,-29.027c0,-33.044 -27.188,-60.234 -60.229,-60.234c-33.04,-0 -60.229,27.19 -60.229,60.234c0,10.149 2.565,20.135 7.456,29.027" style="fill:none;fill-rule:nonzero;stroke:#1984ef;stroke-width:1.02px;"/><path d="M57.574,107.569c9.74,17.712 27.769,29.38 47.916,31.01" style="fill:none;fill-rule:nonzero;stroke:#1984ef;stroke-width:1.02px;"/><path d="M105.49,138.579c3.233,0.262 6.482,0.262 9.715,0" style="fill:none;fill-rule:nonzero;stroke:#1984ef;stroke-width:1.02px;"/><path d="M115.205,138.579c8.898,-0.72 17.525,-3.41 25.257,-7.874" style="fill:none;fill-rule:nonzero;stroke:#1984ef;stroke-width:1.02px;"/></g><g><path d="M265.876,126.279l0,34.086l85.177,49.18l-0,-34.086l-0,34.086l85.176,-49.18l0,-34.086l-32.403,-18.71l32.403,18.71l-85.176,49.18l-85.177,-49.18l32.403,-18.71" style="fill:none;fill-rule:nonzero;stroke:#efa919;stroke-width:1.02px;"/><path d="M403.826,107.569c4.891,-8.892 7.456,-18.878 7.456,-29.027c-0,-33.044 -27.189,-60.234 -60.229,-60.234c-33.041,-0 -60.229,27.19 -60.229,60.234c-0,10.149 2.565,20.135 7.455,29.027c9.741,17.712 27.77,29.38 47.916,31.01c3.233,0.262 6.482,0.262 9.715,0c8.898,-0.72 17.526,-3.41 25.257,-7.874c9.523,-5.498 17.36,-13.5 22.659,-23.136" style="fill:none;fill-rule:nonzero;stroke:#61ef19;stroke-width:1.02px;"/></g><g id="Text"><g transform="matrix(0.95,0,0,1,-145.657,-4.54747e-13)"><g transform="matrix(12.2222,0,0,12.2222,307.517,245.441)"></g><text x="237.734px" y="245.441px" style="font-family:'Roboto-Regular', 'Roboto';font-size:12.222px;fill:#dcdcdc;">C<tspan x="246.142px 255.003px 261.63px 270.491px 278.248px 281.208px 284.466px 293.327px 300.535px " y="245.441px 245.441px 245.441px 245.441px 245.441px 245.441px 245.441px 245.441px 245.441px ">OLOR: OFF</tspan></text></g><g transform="matrix(0.95,0,0,1,-133.681,-4.54747e-13)"><g transform="matrix(12.2222,0,0,12.2222,544.276,245.441)"></g><text x="479.738px" y="245.441px" style="font-family:'Roboto-Regular', 'Roboto';font-size:12.222px;fill:#dcdcdc;">C<tspan x="488.145px 497.006px 503.633px 512.494px 520.251px 523.211px 526.469px 535.33px " y="245.441px 245.441px 245.441px 245.441px 245.441px 245.441px 245.441px 245.441px ">OLOR: ON</tspan></text></g></g></g></svg>