<?xml version="1.0" encoding="UTF-8" standalone="no"?><!DOCTYPE svg PUBLIC "-//W3C//DTD SVG 1.1//EN" "http://www.w3.org/Graphics/SVG/1.1/DTD/svg11.dtd"><svg width="100%" height="100%" viewBox="0 0 641 241" version="1.1" xmlns="http://www.w3.org/2000/svg" xmlns:xlink="http://www.w3.org/1999/xlink" xml:space="preserve" xmlns:serif="http://www.serif.com/" style="fill-rule:evenodd;clip-rule:evenodd;stroke-linecap:round;stroke-linejoin:round;stroke-miterlimit:1.5;"><g id="point-mode-visualization-change"><rect x="0.044" y="0.287" width="640" height="240" style="fill:#232325;"/><g id="Before"><rect x="24.117" y="21.208" width="162.959" height="162.959" style="fill:#33445b;fill-opacity:0.75;"/><g id="Thiiner"><g><path d="M24.117,21.208l162.959,162.959" style="fill:none;stroke:#2e62be;stroke-width:0.75px;"/><path d="M187.076,21.208l-162.959,162.959" style="fill:none;stroke:#2e62be;stroke-width:0.75px;"/><path d="M187.076,184.167l0,-162.959" style="fill:none;stroke:#2e62be;stroke-width:0.83px;"/><path d="M187.076,21.208l-162.959,0" style="fill:none;stroke:#2e62be;stroke-width:0.83px;"/><path d="M24.117,184.167l-0,-162.959" style="fill:none;stroke:#2e62be;stroke-width:0.83px;"/><path d="M24.117,184.167l162.959,0" style="fill:none;stroke:#2e62be;stroke-width:0.83px;"/></g><path d="M209.697,21.208l81.48,81.48" style="fill:none;stroke:#2e62be;stroke-width:0.75px;"/><path d="M291.177,102.688l-81.48,81.479" style="fill:none;stroke:#2e62be;stroke-width:0.75px;"/></g><circle cx="24.117" cy="21.208" r="3.639" style="fill:#34976c;"/><circle cx="187.076" cy="21.208" r="3.639" style="fill:#34976c;"/><circle cx="210.122" cy="21.208" r="3.639" style="fill:#2e6ad9;"/><circle cx="210.122" cy="184.167" r="3.639" style="fill:#2e6ad9;"/><circle cx="291.177" cy="102.688" r="3.639" style="fill:#34976c;"/><circle cx="187.076" cy="184.167" r="3.639" style="fill:#34976c;"/><circle cx="24.117" cy="184.167" r="3.639" style="fill:#34976c;"/></g><g id="After"><rect x="348.91" y="21.208" width="162.959" height="162.959" style="fill:#33445b;fill-opacity:0.75;"/><g id="Thiiner1" serif:id="Thiiner"><g><path d="M348.91,21.208l162.96,162.959" style="fill:none;stroke:#2e62be;stroke-width:0.75px;"/><path d="M511.87,21.208l-162.96,162.959" style="fill:none;stroke:#2e62be;stroke-width:0.75px;"/><path d="M511.87,184.167l-0,-162.959" style="fill:none;stroke:#2e62be;stroke-width:0.83px;"/><path d="M511.87,21.208l-162.96,0" style="fill:none;stroke:#2e62be;stroke-width:0.83px;"/><path d="M348.91,184.167l0,-162.959" style="fill:none;stroke:#2e62be;stroke-width:0.83px;"/><path d="M348.91,184.167l162.96,0" style="fill:none;stroke:#2e62be;stroke-width:0.83px;"/></g><path d="M534.491,21.208l81.479,81.48" style="fill:none;stroke:#2e62be;stroke-width:0.75px;"/><path d="M615.97,102.688l-81.479,81.479" style="fill:none;stroke:#2e62be;stroke-width:0.75px;"/></g><circle cx="348.91" cy="21.208" r="3.639" style="fill:#34976c;"/><circle cx="511.87" cy="21.208" r="3.639" style="fill:#34976c;"/><circle cx="534.916" cy="21.208" r="3.639" style="fill:#2e6ad9;"/><circle cx="534.916" cy="184.167" r="3.639" style="fill:#2e6ad9;"/><circle cx="615.97" cy="102.688" r="3.639" style="fill:#34976c;"/><circle cx="511.87" cy="184.167" r="3.639" style="fill:#34976c;"/><circle cx="348.91" cy="184.167" r="3.639" style="fill:#34976c;"/><circle cx="348.91" cy="21.208" r="1.213" style="fill:#aec5ef;"/><circle cx="511.87" cy="21.208" r="1.213" style="fill:#aec5ef;"/><circle cx="511.87" cy="184.167" r="1.213" style="fill:#aec5ef;"/><circle cx="348.91" cy="184.167" r="1.213" style="fill:#aec5ef;"/><circle cx="430.39" cy="102.688" r="1.213" style="fill:#aec5ef;"/><circle cx="615.97" cy="102.688" r="1.213" style="fill:#aec5ef;"/><circle cx="534.916" cy="21.208" r="1.213" style="fill:#aec5ef;"/><circle cx="534.916" cy="184.167" r="1.213" style="fill:#aec5ef;"/></g><g transform="matrix(15.8333,0,0,15.8333,180.488,222.851)"></g><text x="134.079px" y="222.851px" style="font-family:'Roboto-Regular', 'Roboto';font-size:15.833px;fill:#fff;">Befor<tspan x="172.092px " y="222.851px ">e</tspan></text><g transform="matrix(15.8333,0,0,15.8333,499.832,222.851)"></g><text x="465.057px" y="222.851px" style="font-family:'Roboto-Regular', 'Roboto';font-size:15.833px;fill:#fff;">After</text></g></svg>