<?xml version="1.0" encoding="UTF-8" standalone="no"?><!DOCTYPE svg PUBLIC "-//W3C//DTD SVG 1.1//EN" "http://www.w3.org/Graphics/SVG/1.1/DTD/svg11.dtd"><svg width="100%" height="100%" viewBox="0 0 151 71" version="1.1" xmlns="http://www.w3.org/2000/svg" xmlns:xlink="http://www.w3.org/1999/xlink" xml:space="preserve" xmlns:serif="http://www.serif.com/" style="fill-rule:evenodd;clip-rule:evenodd;stroke-linecap:round;stroke-linejoin:round;stroke-miterlimit:1.5;"><g id="Toggle-Active-Collection" serif:id="Toggle Active Collection"><rect x="0.319" y="0.962" width="69.565" height="69.565"/><rect x="80.753" y="0.962" width="69.565" height="69.565"/><g><path d="M12.688,55.673c-0.398,-0 -0.779,-0.159 -1.06,-0.44c-0.282,-0.281 -0.44,-0.663 -0.44,-1.06l0,-36.856c0,-0.828 0.672,-1.5 1.5,-1.5c2.901,0 9.171,0 11.164,0c0.398,0 0.779,0.158 1.061,0.44c1.16,1.16 4.296,4.296 5.457,5.457c0.281,0.281 0.662,0.439 1.06,0.439c3.506,0 20.848,0 26.084,0c0.398,0 0.78,0.158 1.061,0.439c0.281,0.282 0.439,0.663 0.439,1.061c0,5.56 0,24.959 0,30.52c0,0.397 -0.158,0.779 -0.439,1.06c-0.281,0.281 -0.663,0.44 -1.061,0.44c-7.145,-0 -37.68,-0 -44.826,-0Z" style="fill:none;stroke:#999;stroke-width:3.62px;"/><path d="M11.188,31.759l47.826,0" style="fill:none;stroke:#999;stroke-width:3.62px;"/></g><g><path d="M93.123,55.673c-0.398,-0 -0.779,-0.159 -1.061,-0.44c-0.281,-0.281 -0.439,-0.663 -0.439,-1.06l0,-36.856c0,-0.828 0.672,-1.5 1.5,-1.5c2.901,0 9.171,0 11.164,0c0.398,0 0.779,0.158 1.06,0.44c1.161,1.16 4.297,4.296 5.457,5.457c0.282,0.281 0.663,0.439 1.061,0.439c3.506,0 20.847,0 26.084,0c0.398,0 0.779,0.158 1.061,0.439c0.281,0.282 0.439,0.663 0.439,1.061c0,5.56 0,24.959 0,30.52c0,0.397 -0.158,0.779 -0.439,1.06c-0.282,0.281 -0.663,0.44 -1.061,0.44c-7.145,-0 -37.68,-0 -44.826,-0Z" style="fill:none;stroke:#34956b;stroke-width:3.62px;"/><path d="M91.623,31.759l47.826,0" style="fill:none;stroke:#34956b;stroke-width:3.62px;"/></g></g></svg>